# Blender v2.79 (sub 0) OBJ File: 'down_center2.blend'
# www.blender.org
mtllib down_center.mtl
o oya_Plane
v 1.770957 -289.385223 -5.574764
v 3.770957 -289.385223 -5.574764
v 1.770957 -289.385223 -7.574764
v 3.770957 -289.385223 -7.574764
vt 0.000000 1.000000
vt 0.000000 0.000000
vt 1.000000 0.000000
vt 1.000000 1.000000
vn 0.0000 1.0000 0.0000
usemtl Material.012
s 1
f 1/1/1 2/2/1 4/3/1 3/4/1
o SM_MERGED_Plane6_3.029_SM_MERGED_Plane6.030
v -35.585598 -15.497901 8.750014
v -35.585598 -22.497513 -4.931653
v -27.984673 -15.497901 8.750014
v -27.984673 -22.497513 -4.931653
vt -0.425640 -1.959910
vt 1.411403 -1.959910
vt 1.411403 2.894513
vt -0.425640 2.894513
vn -0.0000 0.8897 -0.4565
vn 0.0000 0.8897 -0.4566
usemtl Material.001
s 1
f 8/5/2 6/6/3 5/7/2
f 7/8/3 8/5/2 5/7/2
o SM_MERGED_Plane6_3.016_SM_MERGED_Plane6.016
v -2.676859 -15.557549 -19.576107
v -2.676859 -26.198849 -19.576107
v -2.676859 -26.198849 4.746859
v -2.676859 -15.557549 4.746859
vt -1.000000 -1.000000
vt 2.000000 -1.000000
vt 2.000000 2.000000
vt -1.000000 2.000000
vn -1.0000 0.0000 0.0000
usemtl Material.001_jungle_mntn_d.jpg
s 1
f 9/9/4 10/10/4 11/11/4
f 12/12/4 9/9/4 11/11/4
o SM_MERGED_Plane6_3.017_SM_MERGED_Plane6.017
v -35.585598 -15.405530 8.750014
v -35.585598 -22.499729 -4.931653
v -35.585598 -22.499729 8.750014
v -27.984673 -15.405530 8.750014
v -27.984673 -22.499729 8.750014
v -27.984673 -22.405142 -4.931653
v -27.984673 -22.499729 -4.931653
vt 0.316883 -0.688202
vt 1.456699 -1.460634
vt 1.456699 2.184772
vt 0.981754 0.007893
vt 0.981754 1.634964
vt -0.180182 1.634964
vt 0.273263 0.642857
vt 0.528309 0.642857
vt 0.273263 1.000000
vt 1.052525 -0.887117
vt 1.052525 1.609220
vt 0.267584 1.084373
vt 0.546526 0.642857
vt 0.273263 0.642857
vt 0.273263 0.000000
vt 0.546526 0.000000
vn -1.0000 0.0000 0.0000
vn 0.0000 0.0000 1.0000
vn 1.0000 0.0000 0.0000
vn 0.0000 -1.0000 0.0000
usemtl Material.001
s 1
f 15/13/5 13/14/5 14/15/5
f 16/16/6 13/17/6 15/18/6
f 17/19/6 16/20/6 15/21/6
f 18/22/7 16/23/7 17/24/7
f 17/25/8 15/26/8 14/27/8
f 19/28/8 17/25/8 14/27/8
o SM_MERGED_Plane6_3.015_SM_MERGED_Plane6.015
v -1.153395 -22.398384 9.434097
v -1.153395 -22.398384 -19.196060
v -35.864304 -22.398384 9.434097
v -35.864304 -22.398384 -19.196060
vt -1.000000 -1.000000
vt 2.000000 -1.000000
vt -1.000000 2.000000
vt 2.000000 2.000000
vn 0.0000 1.0000 0.0000
usemtl Material
s 1
f 20/29/9 21/30/9 22/31/9
f 22/31/9 21/30/9 23/32/9
