# Blender v2.79 (sub 0) OBJ File: 'first_boss_field.blend'
# www.blender.org
mtllib first_boss_wall.mtl
o SM_MERGED_Plane6_3.000_SM_MERGED_Plane6.000
v 14.188394 13.499386 6.260434
v 5.877021 13.499386 15.114013
v 5.877021 -0.694973 15.114013
v 14.188394 -0.694973 6.260434
v 14.188394 13.499386 -6.260434
v 14.188394 -0.694973 -6.260434
v 5.877021 13.499386 -15.114023
v 5.877021 -0.694973 -15.114023
v -5.877031 13.499386 -15.114023
v -5.877031 -0.694973 -15.114023
v -14.188403 13.499386 -6.260434
v -14.188403 -0.694973 -6.260434
v -14.188403 13.499386 6.260434
v -14.188403 -0.694973 6.260434
v -5.877031 13.499386 15.114013
v -5.877031 -0.694973 15.114013
vt 0.479780 1.137076
vt -0.258137 2.038034
vt 0.479780 2.038034
vt -0.258137 1.137076
vt 0.479780 -0.137075
vt -0.258137 -0.137075
vt 0.479781 -1.038034
vt -0.258136 -1.038034
vt 1.955614 -1.038034
vt 1.217697 0.192179
vt 1.955614 0.192179
vt 1.217697 -1.038034
vt -0.996055 -0.137075
vt -0.258139 -1.038034
vt -0.996055 -1.038034
vt -0.258138 -0.137075
vt -0.996054 1.137076
vt -0.258137 1.137076
vt -0.996053 2.038034
vt -0.258137 2.038034
vt 0.479781 0.192179
vt 1.217697 -1.038034
vt 0.479781 -1.038034
vt 1.217697 0.192179
vn -0.7291 -0.0007 -0.6844
vn -0.7291 0.0007 -0.6844
vn -1.0000 0.0000 0.0000
vn -0.7291 0.0007 0.6844
vn -0.7291 -0.0007 0.6844
vn 0.0000 0.0000 1.0000
vn 0.7291 -0.0007 0.6844
vn 0.7291 0.0008 0.6844
vn 0.7291 0.0007 0.6844
vn 1.0000 0.0000 0.0000
vn 0.7291 0.0009 -0.6844
vn 0.7291 -0.0008 -0.6844
vn 0.7291 -0.0007 -0.6844
vn 0.0000 0.0000 -1.0000
usemtl Material.002
s 1
f 1/1/1 3/2/1 2/3/2
f 4/4/2 3/2/1 1/1/1
f 5/5/3 4/4/3 1/1/3
f 6/6/3 4/4/3 5/5/3
f 7/7/4 6/6/4 5/5/5
f 8/8/5 6/6/4 7/7/4
f 9/9/6 8/10/6 7/11/6
f 10/12/6 8/10/6 9/9/6
f 11/13/7 10/14/7 9/15/8
f 12/16/9 10/14/7 11/13/7
f 13/17/10 12/16/10 11/13/10
f 14/18/10 12/16/10 13/17/10
f 15/19/11 14/18/11 13/17/12
f 16/20/13 14/18/11 15/19/11
f 2/21/14 16/22/14 15/23/14
f 3/24/14 16/22/14 2/21/14
