# Blender v2.79 (sub 0) OBJ File: 'start_Table.blend'
# www.blender.org
mtllib start_table.mtl
o SM_MERGED_Plane6_3.023_SM_MERGED_Plane6.023
v 1.616837 2.174077 1.063478
v 0.429501 2.174077 2.250817
v 1.616837 2.174077 -0.615672
v 0.429501 2.174077 -1.803011
v -1.249652 2.174077 -1.803011
v -2.436991 2.174077 -0.615672
v -2.436991 2.174077 1.063478
v -1.249652 2.174077 2.250817
vt 0.869917 0.340293
vt 0.863604 0.640533
vt 0.631893 0.851377
vt 0.642091 0.125761
vt 0.322904 0.116707
vt 0.101863 0.326121
vt 0.103184 0.630681
vt 0.319172 0.847023
vn 0.0000 1.0000 0.0000
usemtl Material.006
s 1
f 6/1/1 7/2/1 8/3/1
f 5/4/1 6/1/1 8/3/1
f 4/5/1 5/4/1 8/3/1
f 3/6/1 4/5/1 8/3/1
f 1/7/1 3/6/1 8/3/1
f 2/8/1 1/7/1 8/3/1
o SM_MERGED_Plane6_3.022_SM_MERGED_Plane6.022
v 1.607240 2.198634 -0.598909
v 1.994918 1.651194 -0.956343
v 0.563146 2.180570 -1.703672
v 0.950819 1.633130 -2.061106
vt 0.000000 0.000002
vt 1.000000 0.000000
vt 0.000003 1.000000
vt 1.000000 1.000000
vn 0.5186 0.6915 -0.5029
usemtl Material.001
s 1
f 9/9/2 10/10/2 11/11/2
f 11/11/2 10/10/2 12/12/2
o SM_MERGED_Plane6_3.021_SM_MERGED_Plane6.021
v 3.052697 1.616867 -1.981449
v 3.399018 1.127820 -2.300758
v 2.008598 1.598801 -3.086212
v 2.354926 1.109756 -3.405521
vt 1.000000 1.000000
vt 0.000004 0.999999
vt 1.000000 0.000000
vt 0.000000 0.000002
vn 0.5186 0.6915 -0.5029
usemtl Material.001
s 1
f 13/13/3 14/14/3 15/15/3
f 15/15/3 14/14/3 16/16/3
o SM_MERGED_Plane6_3.020_SM_MERGED_Plane6.020
v 5.011578 1.072663 -2.944485
v 5.962603 -0.296965 -3.858802
v 2.787111 1.034999 -5.201845
v 3.738141 -0.334630 -6.116157
vt 1.000000 1.000000
vt 0.000000 1.000000
vt 1.000000 0.000000
vt 0.000000 0.000002
vn 0.5080 0.6915 -0.5136
usemtl Material.001
s 1
f 17/17/4 18/18/4 19/19/4
f 19/19/4 18/18/4 20/20/4
o SM_MERGED_Plane6_3.019_SM_MERGED_Plane6.019
v -0.410073 1.566002 3.090389
v 0.429505 1.566002 2.250814
v -1.249648 1.566002 2.250814
v -0.410073 1.059273 5.956878
v 1.269080 1.059273 4.277728
v -2.089223 1.059273 4.277728
v 5.670669 1.059273 2.742625
v 2.108655 1.059273 6.304642
v 2.108655 0.045816 6.304642
v 5.670669 0.045816 2.742625
v 5.670669 1.059273 -2.294828
v 5.670669 0.045816 -2.294828
v 2.108654 1.059273 -5.856844
v 2.108654 0.045816 -5.856844
v -2.928796 1.059273 -5.856842
v -2.928796 0.045816 -5.856842
v -6.490815 1.059273 -2.294825
v -6.490815 0.045816 -2.294825
v -6.490815 1.059273 2.742628
v -6.490815 0.045816 2.742628
v -2.928796 1.059273 6.304642
v -2.928796 0.045816 6.304642
v 5.670669 1.059273 -0.123864
v -0.757834 1.059273 6.304642
v 3.643755 1.566002 1.903050
v 1.269080 1.566002 4.277728
v 3.643755 1.059273 1.903050
v 3.643755 1.566002 -1.455251
v 3.643755 1.059273 -1.455251
v 1.269080 1.566002 -3.829928
v 1.269080 1.059273 -3.829928
v -2.089224 1.566002 -3.829928
v -2.089224 1.059273 -3.829928
v -4.463901 1.566002 -1.455248
v -4.463901 1.059273 -1.455248
v -4.463901 1.566002 1.903053
v -4.463901 1.059273 1.903053
v -2.089223 1.566002 4.277728
v 3.643755 1.566002 -0.963441
v -1.597409 1.566002 4.277728
v 1.616841 1.566002 1.063475
v 1.616841 1.566002 -0.615675
v 0.429505 1.566002 -1.803014
v -1.249648 1.566002 -1.803014
v -2.436987 1.566002 -0.615675
v -2.436987 1.566002 1.063475
v 1.616841 1.566002 -3.482164
v -1.597410 1.566002 -3.829928
v -4.116133 1.566002 -1.803014
v -4.463901 1.566002 1.411239
v -2.436987 1.566002 3.929964
v 3.643755 1.059273 -4.321740
v -0.757834 1.059273 -5.856842
v -4.955710 1.059273 -3.829928
v -6.490815 1.059273 0.571666
v -4.463901 1.059273 4.769542
vt 0.674585 1.517111
vt 0.819214 1.384275
vt 0.819214 1.649948
vt 0.674585 1.118602
vt 0.963843 0.852929
vt 0.963843 1.384275
vt 1.023749 -0.750551
vt 1.372915 -1.071247
vt 1.372915 0.367163
vt 1.023748 0.046468
vt 1.372915 -0.750550
vt 1.722081 -1.071247
vt 1.722081 0.101490
vt 1.372915 -0.219204
vt 1.722081 1.219205
vt 2.071246 0.898510
vt 2.071246 1.617715
vt 1.722081 1.297019
vt 0.325420 1.173624
vt 0.674585 0.852929
vt 0.674585 1.572133
vt 0.325420 1.251438
vt -0.372912 1.173624
vt -0.023747 0.852929
vt -0.023746 1.572133
vt -0.372913 1.251438
vt 1.023748 1.672736
vt 1.372914 1.352041
vt 1.372914 2.071247
vt 1.023748 1.750551
vt -0.023746 1.173624
vt 0.325420 0.852929
vt 0.325420 1.572134
vt -0.023746 1.251438
vt -1.071246 1.173623
vt -0.722081 0.852929
vt -0.722081 1.837807
vt -1.071247 1.517111
vt 2.071247 0.577814
vt 1.722081 0.898510
vt 1.722081 -0.086368
vt 2.071247 0.234327
vt 1.372915 1.031346
vt 1.023749 1.352041
vt 1.023748 0.367163
vt 1.372915 0.687859
vt 1.372915 0.687860
vt 1.722081 0.367163
vt 1.722081 1.352042
vt 1.372916 1.031347
vt 1.722081 -0.750551
vt 2.071247 -1.071247
vt 2.071247 -0.086368
vt 1.722081 -0.407064
vt 1.432822 1.352042
vt 1.722081 1.352043
vt 1.722080 1.805575
vt 1.372914 1.407065
vt 1.372915 1.484879
vt -0.637356 1.759993
vt -0.722078 1.759993
vt -0.722081 0.852929
vt -0.372913 1.517110
vt -0.372914 1.173623
vt -0.457636 0.852929
vt -1.071247 0.289350
vt -1.071247 -0.507668
vt 0.410139 0.852929
vt 1.023748 0.289351
vt 1.023748 -0.507668
vt 0.410138 -1.071247
vt -0.457637 -1.071247
vn 0.0000 1.0000 -0.0000
vn 0.0000 -1.0000 0.0000
usemtl Material.007
s 1
f 21/21/5 22/22/5 23/23/5
f 24/24/5 25/25/5 26/26/5
f 27/27/5 43/28/5 44/29/5
f 28/30/5 27/27/5 44/29/5
f 45/31/5 59/32/5 60/33/5
f 46/34/5 45/31/5 60/33/5
f 48/35/5 67/36/5 61/37/5
f 59/38/5 48/35/5 61/37/5
f 50/39/5 68/40/5 62/41/5
f 67/42/5 50/39/5 62/41/5
f 52/43/5 69/44/5 63/45/5
f 68/46/5 52/43/5 63/45/5
f 54/47/5 70/48/5 64/49/5
f 69/50/5 54/47/5 64/49/5
f 56/51/5 71/52/5 65/53/5
f 70/54/5 56/51/5 65/53/5
f 31/55/5 72/56/5 47/57/5
f 43/58/5 31/55/5 47/57/5
f 33/59/5 73/60/5 49/61/5
f 72/62/5 33/59/5 49/61/5
f 35/63/5 74/64/5 51/65/5
f 73/66/5 35/63/5 51/65/5
f 37/67/5 75/68/5 53/69/5
f 74/70/5 37/67/5 53/69/5
f 39/71/5 76/72/5 55/73/5
f 75/74/5 39/71/5 55/73/5
f 60/75/5 21/76/5 66/77/5
f 58/78/5 60/75/5 66/77/5
f 71/79/5 58/78/5 66/77/5
f 44/80/5 24/81/5 57/82/5
f 41/83/5 44/80/5 57/82/5
f 76/84/5 41/83/5 57/82/5
f 32/85/6 30/86/6 29/87/6
f 34/88/6 32/85/6 29/87/6
f 36/89/6 34/88/6 29/87/6
f 38/90/6 36/89/6 29/87/6
f 40/91/6 38/90/6 29/87/6
f 42/92/6 40/91/6 29/87/6
o SM_MERGED_Plane6_3.025_SM_MERGED_Plane6.025
v 1.269078 1.059274 4.277731
v -2.089226 1.059274 4.277731
v 5.670667 1.059274 2.742628
v 2.108653 1.059274 6.304645
v 2.108653 0.045817 6.304645
v 5.670667 0.045817 2.742628
v 5.670667 1.059274 -2.294826
v 5.670667 0.045817 -2.294826
v 2.108653 1.059274 -5.856842
v 2.108653 0.045817 -5.856842
v -2.928799 1.059273 -5.856839
v -2.928799 0.045817 -5.856839
v -6.490818 1.059274 -2.294823
v -6.490818 0.045817 -2.294823
v -6.490818 1.059274 2.742631
v -6.490818 0.045817 2.742631
v -2.928798 1.059274 6.304645
v -2.928798 0.045817 6.304645
v 3.643753 1.566002 1.903053
v 1.269078 1.566002 4.277731
v 3.643753 1.059274 1.903053
v 3.643753 1.566002 -1.455248
v 3.643753 1.059274 -1.455248
v 1.269077 1.566002 -3.829926
v 1.269077 1.059274 -3.829926
v -2.089226 1.566002 -3.829926
v -2.089226 1.059274 -3.829926
v -4.463903 1.566002 -1.455245
v -4.463903 1.059274 -1.455245
v -4.463903 1.566002 1.903055
v -4.463903 1.059274 1.903055
v -2.089226 1.566002 4.277731
vt 0.499999 0.193945
vt 0.500000 -1.283811
vt 1.094603 -1.283811
vt 1.094603 0.193945
vt -0.094604 -0.238879
vt -0.094604 -1.283811
vt 0.499999 -1.283811
vt 0.499999 -0.238879
vt -0.094604 1.238878
vt 0.499999 1.238878
vt -0.689208 1.238879
vt -0.689207 2.283811
vt -1.283811 2.283811
vt -1.283811 1.238879
vt -0.689208 -0.238879
vt -1.283811 -0.238879
vt -0.689208 -1.283811
vt -1.283811 -1.283811
vt -0.689207 0.193946
vt -0.094605 -1.283811
vt -0.094604 0.193945
vt -0.689207 1.238878
vt -0.094604 1.238878
vt 1.986510 -0.298641
vt 1.986510 -1.283811
vt 2.283811 -1.283811
vt 2.283811 -0.298641
vt 1.986509 -0.298641
vt 1.986509 0.397981
vt 1.689208 0.397981
vt 1.689208 -0.298641
vt 1.986510 -1.283811
vt 1.689208 -1.283811
vt 1.391904 0.397982
vt 1.391905 1.094604
vt 1.094603 1.094604
vt 1.094603 0.397982
vt 1.391905 -0.587190
vt 1.094603 -0.587190
vt 1.391905 -1.283811
vt 1.094603 -1.283811
vt 1.391906 -0.298640
vt 1.689206 -1.283811
vt 1.689207 -0.298641
vt 1.391906 0.397981
vt 1.689208 0.397981
vn 0.7071 0.0000 0.7071
vn 1.0000 0.0000 0.0000
vn 0.7071 0.0000 -0.7071
vn -0.0000 0.0000 -1.0000
vn -0.7071 0.0000 -0.7071
vn -1.0000 0.0000 0.0000
vn -0.7071 0.0000 0.7071
vn -0.0000 0.0000 1.0000
usemtl Material.004
s 1
f 79/93/7 80/94/7 81/95/7
f 82/96/7 79/93/7 81/95/7
f 83/97/8 79/98/8 82/99/8
f 84/100/8 83/97/8 82/99/8
f 85/101/9 83/97/9 84/100/9
f 86/102/9 85/101/9 84/100/9
f 87/103/10 85/104/10 86/105/10
f 88/106/10 87/103/10 86/105/10
f 89/107/11 87/103/11 88/106/11
f 90/108/11 89/107/11 88/106/11
f 91/109/12 89/107/12 90/108/12
f 92/110/12 91/109/12 90/108/12
f 93/111/13 91/109/13 92/112/13
f 94/113/13 93/111/13 92/112/13
f 80/114/14 93/111/14 94/113/14
f 81/115/14 80/114/14 94/113/14
f 95/116/7 96/117/7 77/118/7
f 97/119/7 95/116/7 77/118/7
f 98/120/8 95/121/8 97/122/8
f 99/123/8 98/120/8 97/122/8
f 100/124/9 98/120/9 99/123/9
f 101/125/9 100/124/9 99/123/9
f 102/126/10 100/127/10 101/128/10
f 103/129/10 102/126/10 101/128/10
f 104/130/11 102/126/11 103/129/11
f 105/131/11 104/130/11 103/129/11
f 106/132/12 104/130/12 105/131/12
f 107/133/12 106/132/12 105/131/12
f 108/134/13 106/132/13 107/135/13
f 78/136/13 108/134/13 107/135/13
f 96/137/14 108/134/14 78/136/14
f 77/138/14 96/137/14 78/136/14
o SM_MERGED_Plane6_3.024_SM_MERGED_Plane6.024
v 0.429502 1.566000 2.250818
v -1.249651 1.566000 2.250818
v 1.616838 2.174075 1.063479
v 0.429502 2.174075 2.250818
v 1.616838 1.566000 1.063479
v 1.616838 2.174075 -0.615672
v 1.616838 1.566000 -0.615672
v 0.429502 2.174075 -1.803010
v 0.429502 1.566000 -1.803010
v -1.249651 2.174075 -1.803010
v -1.249651 1.566000 -1.803010
v -2.436990 2.174075 -0.615672
v -2.436990 1.566000 -0.615672
v -2.436990 2.174075 1.063479
v -2.436990 1.566000 1.063479
v -1.249651 2.174075 2.250818
vt -0.244763 1.116982
vt -0.244764 1.989527
vt -0.989527 1.989527
vt -0.989527 1.116982
vt -0.244763 -0.116982
vt -0.989527 -0.116982
vt -0.244763 -0.989527
vt -0.989526 -0.989527
vt 0.500000 -0.116982
vt 0.500000 1.116984
vt -0.244763 1.116984
vt -0.244763 -0.116982
vt 0.500000 -0.989527
vt -0.244763 -0.989527
vt 1.244763 -0.116982
vt 1.244763 1.116982
vt 0.500000 1.116982
vt 0.500000 -0.116982
vt 1.244763 -0.989527
vt 0.500000 -0.989527
vt 1.989526 -0.989527
vt 1.989527 0.244439
vt 1.244763 0.244439
vt 1.244763 -0.989527
vn 0.7071 0.0000 0.7071
vn 1.0000 0.0000 0.0000
vn 0.7071 0.0000 -0.7071
vn 0.0000 0.0000 -1.0000
vn -0.7071 0.0000 -0.7071
vn -1.0000 0.0000 0.0000
vn -0.7071 0.0000 0.7071
vn 0.0000 0.0000 1.0000
usemtl Material.005
s 1
f 111/139/15 112/140/15 109/141/15
f 113/142/15 111/139/15 109/141/15
f 114/143/16 111/139/16 113/142/16
f 115/144/16 114/143/16 113/142/16
f 116/145/17 114/143/17 115/144/17
f 117/146/17 116/145/17 115/144/17
f 118/147/18 116/148/18 117/149/18
f 119/150/18 118/147/18 117/149/18
f 120/151/19 118/147/19 119/150/19
f 121/152/19 120/151/19 119/150/19
f 122/153/20 120/154/20 121/155/20
f 123/156/20 122/153/20 121/155/20
f 124/157/21 122/153/21 123/156/21
f 110/158/21 124/157/21 123/156/21
f 112/159/22 124/160/22 110/161/22
f 109/162/22 112/159/22 110/161/22
