# Blender v2.79 (sub 0) OBJ File: 'stone_bleck.blend'
# www.blender.org
mtllib stone_block.mtl
o SM_MERGED_Plane6_3.000_SM_MERGED_Plane6.000
v 1.046691 -0.005329 1.400292
v 1.046691 5.150869 1.454307
v -1.046691 5.150869 1.454307
v -1.046691 -0.005329 1.400292
v 1.046691 0.024578 -1.454305
v -1.046691 0.024576 -1.454306
v -1.046691 5.180775 -1.400292
v 1.046690 5.180776 -1.400290
vt -1.002745 1.000915
vt -0.000915 1.000915
vt -0.000915 2.002745
vt -1.002745 2.002745
vt -0.000915 -0.000915
vt -0.000915 1.000915
vt -1.002744 1.000915
vt -1.002745 -0.000914
vt 1.000915 -0.000915
vt -0.000915 -1.002745
vt 1.000915 -1.002745
vt -1.002745 -0.000915
vt -1.002745 -1.002744
vt -0.000915 -1.002745
vt -0.000915 -0.000915
vt 2.002745 -0.000915
vt 1.000915 -0.000915
vt 1.000915 -1.002744
vt 2.002745 -1.002745
vt 1.000915 1.000915
vn 0.0000 -0.0105 0.9999
vn 0.0000 0.0105 -0.9999
vn 1.0000 0.0000 -0.0000
vn -0.0000 0.9999 0.0105
vn -1.0000 0.0000 0.0000
vn 0.0000 -0.9999 -0.0105
usemtl Material.130
s 1
f 1/1/1 2/2/1 3/3/1 4/4/1
f 5/5/2 6/6/2 7/7/2 8/8/2
f 1/9/3 5/5/3 8/10/3 2/11/3
f 2/12/4 8/13/4 7/14/4 3/15/4
f 3/16/5 7/17/5 6/18/5 4/19/5
f 5/5/6 1/9/6 4/20/6 6/6/6
