# Blender v2.79 (sub 0) OBJ File: 'up_right2.blend'
# www.blender.org
mtllib up_right.mtl
o oya_Plane
v 1.770957 -289.385223 -5.574764
v 3.770957 -289.385223 -5.574764
v 1.770957 -289.385223 -7.574764
v 3.770957 -289.385223 -7.574764
vt 0.000000 1.000000
vt 0.000000 0.000000
vt 1.000000 0.000000
vt 1.000000 1.000000
vn 0.0000 1.0000 0.0000
usemtl Material.012
s 1
f 1/1/1 2/2/1 4/3/1 3/4/1
o SM_MERGED_Plane6_3.011_SM_MERGED_Plane6.011
v 41.506573 3.221810 65.443710
v 41.506580 3.221810 46.694756
v 17.943699 3.221810 65.443695
v 17.943708 3.221810 46.694744
vt -1.000000 -1.000000
vt 2.000000 -1.000000
vt -1.000000 2.000000
vt 2.000000 2.000000
vn 0.0000 1.0000 0.0000
usemtl Material.001
s 1
f 5/5/2 6/6/2 7/7/2
f 7/7/2 6/6/2 8/8/2
o SM_MERGED_Plane6_3.010_SM_MERGED_Plane6.010
v 41.351635 3.282283 46.789352
v 41.351646 0.162679 38.218315
v 18.042126 3.282271 46.789333
v 18.042133 0.162669 38.218296
vt 2.000000 2.000000
vt -1.000000 2.000000
vt 2.000000 -1.000000
vt -1.000000 -1.000000
vn -0.0000 0.9405 -0.3399
usemtl Material.001_tileable-img_0062-dark.png
s 1
f 9/9/3 10/10/3 11/11/3
f 11/11/3 10/10/3 12/12/3
o SM_MERGED_Plane6_3.009_SM_MERGED_Plane6.009
v 41.225258 0.377596 20.002165
v 41.225266 -4.182965 12.103053
v 18.169113 0.377584 20.002148
v 18.169125 -4.182975 12.103035
vt 2.000000 2.000000
vt -1.000000 2.000000
vt 2.000000 -1.000000
vt -1.000000 -1.000000
vn -0.0000 0.8643 -0.5029
vn 0.0000 0.8644 -0.5029
usemtl Material.001_tileable-img_0062-dark.png
s 1
f 13/13/4 14/14/4 15/15/5
f 15/15/5 14/14/4 16/16/5
o SM_MERGED_Plane6_3.005_SM_MERGED_Plane6.005
v 41.379890 0.384130 38.688446
v 41.379902 0.384130 19.939491
v 18.070381 0.384130 38.688435
v 18.070391 0.384130 19.939482
vt -1.000000 -1.000000
vt 2.000000 -1.000000
vt -1.000000 2.000000
vt 2.000000 2.000000
vn 0.0000 1.0000 -0.0000
usemtl Material.001_tilable-img_0044-lush.png
s 1
f 17/17/6 18/18/6 19/19/6
f 19/19/6 18/18/6 20/20/6
