# Blender v2.79 (sub 0) OBJ File: 'Arrow.blend'
# www.blender.org
mtllib arrow.mtl
o arrow_Cube.001
v 0.225000 0.396060 -0.199459
v 0.225000 0.396061 0.199251
v -0.225000 0.396065 -0.199459
v -0.225000 0.396061 0.199251
v 0.225000 1.038045 -0.199459
v -0.225000 1.038045 -0.199459
v -0.225000 1.038045 0.199251
v 0.225000 1.038045 0.199251
v 0.450000 0.403193 0.199251
v 0.450000 0.403193 -0.199459
v 0.225000 0.403191 -0.199459
v 0.225000 0.403193 0.199251
v -0.225000 0.203193 -0.199459
v -0.225000 0.203193 0.199251
v -0.450000 0.403193 0.199251
v -0.450000 0.403193 -0.199459
v -0.225000 0.403198 -0.199459
v -0.225000 0.403193 0.199251
v 0.225000 0.203193 -0.199459
v 0.225000 0.203193 0.199251
v 0.000000 0.003193 0.199251
v 0.000000 0.003193 -0.199459
vt 0.639033 0.434574
vt 0.668080 0.689015
vt 0.639033 0.689015
vt 0.000000 0.999996
vt 0.290469 0.434574
vt 0.290469 1.000000
vt 1.000000 0.458376
vt 0.970953 0.000002
vt 1.000000 0.000000
vt 0.941906 0.000001
vt 0.970953 0.458377
vt 0.941906 0.458377
vt 0.290469 0.434574
vt 0.580939 0.999999
vt 0.290469 0.999999
vt 0.668080 0.434574
vt 0.000000 0.434574
vt 0.970953 0.458376
vt 0.970953 0.000000
vt 0.580939 0.434574
vt 0.697127 0.434574
vt 0.668080 0.561795
vt 0.668080 0.434574
vt 0.580939 0.651861
vt 0.609986 0.434574
vt 0.609986 0.651861
vt 0.726174 0.561795
vt 0.697127 0.434574
vt 0.726174 0.434574
vt 0.609986 0.651861
vt 0.639033 0.434574
vt 0.639033 0.651861
vt 0.706430 0.366261
vt 0.824169 0.074488
vt 0.941906 0.217287
vt 0.580939 0.869148
vt 0.609986 0.869148
vt 0.609986 0.869148
vt 0.639033 0.869148
vt 0.353215 0.074487
vt 0.235476 0.366261
vt 0.117738 0.223461
vt 0.470953 0.217287
vt 0.470953 0.000000
vt 0.000000 0.297948
vt 0.588688 0.223458
vt 0.470953 0.297948
vt 0.941906 0.434574
vt 0.941906 0.000000
vt 0.470953 0.434574
vt 0.697127 0.561795
vt 0.580939 0.434574
vt 0.697127 0.561795
vt 0.609986 0.434574
vn 0.0000 1.0000 0.0000
vn 0.0000 0.0000 -1.0000
vn -1.0000 -0.0000 0.0000
vn 1.0000 0.0000 0.0000
vn 0.0000 -0.0000 1.0000
vn -0.6644 -0.7474 -0.0000
vn 0.6644 -0.7474 -0.0000
usemtl Material.001
s 1
f 6/1/1 8/2/1 5/3/1
f 3/4/2 5/5/2 1/6/2
f 7/7/3 3/8/3 4/9/3
f 2/10/4 5/11/4 8/12/4
f 4/13/5 8/14/5 7/15/5
f 6/1/1 7/16/1 8/2/1
f 3/4/2 6/17/2 5/5/2
f 7/7/3 6/18/3 3/8/3
f 2/10/4 1/19/4 5/11/4
f 4/13/5 2/20/5 8/14/5
f 10/21/1 12/22/1 9/23/1
f 14/24/6 16/25/6 13/26/6
f 16/27/1 18/28/1 17/29/1
f 20/30/7 22/31/7 19/32/7
f 13/33/2 11/34/2 19/35/2
f 21/36/6 13/26/6 22/37/6
f 9/38/7 19/32/7 10/39/7
f 18/40/5 20/41/5 12/42/5
f 14/43/5 18/40/5 15/44/5
f 20/41/5 9/45/5 12/42/5
f 17/46/2 13/33/2 16/47/2
f 22/48/2 13/33/2 19/35/2
f 10/49/2 19/35/2 11/34/2
f 20/41/5 14/43/5 21/50/5
f 10/21/1 11/51/1 12/22/1
f 14/24/6 15/52/6 16/25/6
f 16/27/1 15/53/1 18/28/1
f 20/30/7 21/54/7 22/31/7
f 13/33/2 17/46/2 11/34/2
f 21/36/6 14/24/6 13/26/6
f 9/38/7 20/30/7 19/32/7
f 18/40/5 14/43/5 20/41/5
