# Blender v2.79 (sub 0) OBJ File: 'bush2.blend'
# www.blender.org
mtllib bush2.mtl
o bush_01_Plane.010
v -2.263541 0.427255 -1.930088
v -0.508434 -0.340857 1.613894
v 1.929109 1.991007 -5.077579
v 3.760572 0.910559 -1.616636
v 2.948382 1.812929 -2.803408
v -0.473249 0.545924 -0.104756
v 2.404789 1.311800 -0.621732
v -0.365158 0.945740 -0.460422
v 0.366210 0.483395 1.040491
v -1.423164 1.214170 -2.517025
v 1.284689 0.940898 0.287672
v -0.535615 1.651000 -3.262146
v 0.386067 1.980593 -1.301115
v 0.585951 2.191517 -4.126462
v 1.575514 2.197284 -2.019547
v -2.309241 -0.180534 -1.486992
v 0.963046 0.357494 0.800556
v -1.470152 2.249014 -5.957590
v 1.647398 3.264383 -3.283752
v 0.169138 3.348295 -5.047398
v -0.205401 0.167767 -0.009628
v 0.888374 3.080855 -1.885756
v -0.727605 1.154486 -0.592525
v 0.729097 1.586421 0.351500
v -2.447433 0.841446 -2.087910
v 0.687672 2.415927 -0.512415
v -2.205763 1.019829 -3.126865
v -1.259463 1.755075 -1.308689
v -2.003112 1.419093 -4.357766
v -0.816240 2.359559 -2.594839
v 2.605809 -0.376917 -1.870959
v -2.534801 -0.452199 0.630846
v 5.042805 0.491316 3.579021
v 0.704713 3.009214 5.974440
v 2.083967 2.044293 4.569935
v -0.661196 -0.424762 -0.280990
v -0.352600 3.176341 3.722875
v -1.437515 2.469928 2.471343
v 3.503389 2.622784 0.063623
v 0.623152 3.515738 0.880404
v 4.141200 3.291239 1.462523
v 1.133620 3.828375 2.515085
v -0.735475 0.397165 1.692656
v 0.655091 0.063561 -1.729562
v -5.659691 3.382123 -1.152786
v -5.198374 2.346102 -4.105311
v -5.073743 3.219028 -2.895642
v 0.117216 0.185150 -0.350281
v -3.214388 2.634154 -3.357559
v -1.723755 2.025587 -2.734606
v -3.018705 3.689712 1.335045
v -2.164347 3.083355 -0.659504
v -4.109784 4.548086 0.089961
v -3.430488 3.492176 -1.733068
v 0.680508 0.382205 1.800586
v -1.022650 0.147037 -1.831970
v -3.898345 1.855079 2.971571
v -4.471963 1.598197 1.100885
v -3.880180 2.179800 2.011735
v -0.411210 0.234655 -0.537317
v -3.300457 2.087361 0.239904
v -0.781157 1.568481 -0.262797
v -1.649041 1.192365 -1.295209
v -0.055402 1.232041 2.079566
v -2.433893 1.869738 -0.586293
v -1.036134 1.472815 2.323411
v -1.388679 2.501238 0.999236
v -2.367325 1.650410 2.435822
v -2.550374 2.463523 1.498834
v -1.814665 0.198224 1.680137
v 1.037366 -0.365810 -1.108771
v -6.021816 2.146109 -1.224335
v -3.278526 1.278226 -4.091554
v -4.153189 2.086832 -2.881809
v 0.024575 -0.160236 -0.113955
v -1.919842 1.550593 -3.057745
v -0.729358 1.077347 -2.297483
v -3.569051 1.577158 0.549502
v -1.959609 2.011040 -0.873601
v -4.713128 2.219659 -0.209040
v -2.991475 2.339132 -1.771090
v -3.727024 -0.040296 -0.248170
v 1.849297 -0.040297 0.416260
v -1.679989 0.318071 -6.682374
v 3.219944 0.812775 -5.566325
v 1.321520 0.884387 -5.214452
v -0.146315 -0.040298 0.180013
v 2.950023 1.925136 -3.559370
v -0.116666 1.300984 -1.071171
v 2.199018 1.098193 -0.661220
v -3.329604 1.042212 -1.793805
v 2.630896 1.665560 -1.839072
v -2.681621 1.318481 -3.386677
v 0.005965 2.477394 -2.405866
v -1.936910 1.282385 -5.183365
v 0.753932 2.121995 -4.021510
v 0.267608 0.306022 -1.802608
v -0.836063 0.171939 0.933574
v 4.188670 0.869139 -1.174968
v 3.128572 0.496504 1.582741
v 3.466021 1.013275 0.501924
v -0.444594 0.223595 -0.041082
v 1.983014 0.964192 1.308223
v 0.201394 0.957344 0.134032
v -0.001535 0.659134 1.072080
v 1.087873 0.765653 -1.686808
v 0.904914 0.856714 1.170955
v 1.972497 0.950412 -1.599549
v 1.429171 1.421093 -0.162540
v 3.048090 1.186013 -1.450713
v 2.421648 1.440967 0.116008
v 1.262028 0.037985 -0.810417
v -2.176494 -0.490789 -0.722170
v 0.677266 2.876702 1.482578
v -1.957505 4.131388 0.821998
v -0.623721 3.992203 1.086864
v -0.501841 -0.069871 -0.445661
v -1.994205 2.978462 0.250825
v -2.165245 2.143976 -0.225569
v 1.292056 2.748299 -0.281261
v -0.398366 3.332626 -0.039908
v 1.049628 3.479156 0.644648
v -0.617880 4.006804 0.482787
v 0.602976 0.629417 1.157233
v -0.764798 -0.231526 -1.481003
v 1.839408 4.642832 -1.192032
v 0.970202 3.376090 -3.155872
v 1.589737 3.977790 -2.669634
v -0.284717 0.223784 -0.163250
v -0.501851 2.918338 -2.224704
v -0.084162 1.614200 -0.432933
v -0.651708 0.873919 -1.669810
v 0.749641 1.765325 1.054873
v -0.723727 2.061394 -1.953837
v 0.697191 3.112578 0.685561
v 0.183935 3.188404 -1.017483
v 0.748982 4.222872 -0.159485
v 0.917784 3.625737 -1.916803
vt 0.000000 0.447900
vt 0.513290 0.481086
vt 0.571615 0.740543
vt 0.000000 0.723950
vt 0.571615 0.740543
vt 1.000000 0.730533
vt 1.000000 1.000000
vt 0.629939 1.000000
vt 0.513290 0.481086
vt 1.000000 0.461067
vt 0.000000 0.723950
vt 0.000000 1.000000
vt 0.000000 0.223950
vt 0.574410 0.240543
vt 0.000000 0.447900
vt 1.000000 0.230534
vt 0.000000 0.000000
vt 0.635529 0.000000
vt 1.000000 0.000000
vt 0.571615 0.740543
vt 1.000000 0.730533
vt 1.000000 1.000000
vt 0.629939 1.000000
vt 0.513290 0.481086
vt 1.000000 0.461067
vt 0.000000 0.723950
vt 0.000000 1.000000
vt 0.000000 0.223950
vt 0.574410 0.240543
vt 0.000000 0.447900
vt 1.000000 0.230534
vt 0.000000 0.000000
vt 0.635529 0.000000
vt 1.000000 0.000000
vt 0.000000 0.447900
vt 0.513290 0.481086
vt 0.571615 0.740543
vt 0.000000 0.723950
vt 0.571615 0.740543
vt 1.000000 0.730533
vt 1.000000 1.000000
vt 0.629939 1.000000
vt 0.513290 0.481086
vt 1.000000 0.461067
vt 0.000000 0.723950
vt 0.000000 1.000000
vt 0.635529 0.000000
vt 1.000000 0.000000
vt 0.000000 0.447900
vt 0.513290 0.481086
vt 0.571615 0.740543
vt 0.000000 0.723950
vt 0.513290 0.481086
vt 0.000000 0.447900
vt 0.000000 0.000000
vt 0.635529 0.000000
vt 0.571615 0.740543
vt 1.000000 0.730533
vt 1.000000 1.000000
vt 0.629939 1.000000
vt 1.000000 0.461067
vt 0.000000 0.723950
vt 0.000000 1.000000
vt 1.000000 0.000000
vt 1.000000 0.730533
vt 1.000000 1.000000
vt 0.629939 1.000000
vt 1.000000 0.461067
vt 0.000000 1.000000
vt 0.000000 0.223950
vt 0.574410 0.240543
vt 1.000000 0.230534
vt 0.000000 0.000000
vt 0.635529 0.000000
vt 1.000000 0.000000
vt 0.571615 0.740543
vt 1.000000 0.730533
vt 1.000000 1.000000
vt 0.629939 1.000000
vt 0.513290 0.481086
vt 1.000000 0.461067
vt 0.000000 0.723950
vt 0.000000 1.000000
vt 0.635529 0.000000
vt 1.000000 0.000000
vt 1.000000 0.730533
vt 1.000000 1.000000
vt 0.629939 1.000000
vt 1.000000 0.461067
vt 0.000000 1.000000
vt 0.000000 0.223950
vt 0.574410 0.240543
vt 1.000000 0.230534
vt 0.000000 0.000000
vt 0.635529 0.000000
vt 1.000000 0.000000
vt 0.571615 0.740543
vt 1.000000 0.730533
vt 1.000000 1.000000
vt 0.629939 1.000000
vt 0.513290 0.481086
vt 1.000000 0.461067
vt 0.000000 0.723950
vt 0.000000 1.000000
vt 0.000000 0.223950
vt 0.574410 0.240543
vt 0.000000 0.447900
vt 1.000000 0.230534
vt 0.000000 0.000000
vt 0.635529 0.000000
vt 1.000000 0.000000
vt 0.000000 0.447900
vt 0.513290 0.481086
vt 0.571615 0.740543
vt 0.000000 0.723950
vt 1.000000 0.461067
vt 1.000000 0.730533
vt 0.635529 0.000000
vt 0.000000 0.000000
vt 1.000000 0.000000
vt 1.000000 1.000000
vt 0.629939 1.000000
vt 1.000000 0.730533
vt 1.000000 1.000000
vt 0.629939 1.000000
vt 1.000000 0.461067
vt 0.000000 1.000000
vt 0.000000 0.223950
vt 0.574410 0.240543
vt 1.000000 0.230534
vt 0.000000 0.000000
vt 0.635529 0.000000
vt 1.000000 0.000000
vt 0.000000 0.447900
vt 0.000000 0.447900
vt 0.000000 1.000000
vt 0.000000 0.000000
vt 0.000000 0.000000
vn 0.9199 -0.2886 -0.2653
vn 0.8638 -0.4495 -0.2277
vn 0.6327 -0.7634 0.1299
vn 0.8144 -0.5747 0.0810
vn 0.1091 0.9724 0.2062
vn 0.2765 0.8701 0.4079
vn 0.4412 0.8444 0.3039
vn 0.3248 0.9355 0.1390
vn -0.2383 0.9149 0.3257
vn -0.0901 0.8519 0.5159
vn -0.0206 0.9998 -0.0026
vn 0.1827 0.9821 -0.0451
vn -0.5183 0.7948 0.3157
vn -0.4330 0.7965 0.4219
vn -0.3873 0.9116 0.1372
vn -0.4098 0.7822 0.4692
vn -0.5231 0.7458 0.4125
vn -0.5225 0.7421 0.4198
vn -0.5222 0.7404 0.4232
vn -0.5428 0.8232 0.1660
vn -0.3738 0.9005 0.2222
vn -0.3040 0.9410 0.1487
vn -0.5086 0.8522 0.1229
vn -0.6243 0.6890 0.3682
vn -0.4955 0.7040 0.5087
vn -0.6670 0.7385 0.0988
vn -0.6428 0.7595 0.1000
vn -0.6971 0.4718 0.5398
vn -0.5996 0.3842 0.7020
vn -0.7158 0.6754 0.1773
vn -0.5587 0.3410 0.7560
vn -0.6215 0.2359 0.7470
vn -0.5914 0.1960 0.7822
vn -0.5754 0.1757 0.7988
vn -0.3014 0.9500 0.0811
vn -0.1057 0.9770 0.1853
vn 0.0274 0.9426 -0.3328
vn -0.0696 0.8874 -0.4558
vn 0.0607 0.9939 0.0923
vn -0.0616 0.9913 0.1163
vn 0.3326 0.9076 0.2561
vn 0.3991 0.8052 0.4385
vn -0.2975 0.7880 -0.5390
vn -0.5576 0.7074 -0.4344
vn 0.3306 0.9302 0.1591
vn 0.4386 0.6953 0.5694
vn -0.4350 0.4828 -0.7600
vn -0.5594 0.4874 -0.6704
vn 0.4733 0.8162 0.3312
vn 0.3124 0.9495 0.0307
vn -0.0248 0.9832 0.1809
vn 0.1751 0.8178 0.5482
vn 0.6691 0.7418 -0.0453
vn 0.6834 0.7293 0.0328
vn 0.7765 0.5949 0.2077
vn 0.7535 0.6534 0.0728
vn 0.2763 0.8970 -0.3449
vn 0.3079 0.8446 -0.4380
vn 0.1390 0.8471 -0.5129
vn 0.0379 0.8847 -0.4646
vn 0.6286 0.7576 -0.1755
vn 0.3160 0.9192 -0.2351
vn -0.1403 0.9206 -0.3645
vn 0.7254 0.6877 -0.0293
vn -0.2274 0.9460 -0.2308
vn -0.3751 0.9112 -0.1702
vn -0.1079 0.9747 0.1957
vn 0.1066 0.9026 -0.4169
vn 0.1588 0.8527 0.4977
vn 0.7612 0.6381 -0.1160
vn 0.6063 0.6975 -0.3820
vn 0.5219 0.6571 -0.5439
vn 0.8189 0.4903 -0.2982
vn 0.7600 0.4865 -0.4310
vn 0.6967 0.4751 -0.5375
vn 0.1864 0.9799 -0.0704
vn 0.3276 0.8962 -0.2990
vn 0.1791 0.8862 -0.4273
vn 0.0578 0.9641 -0.2592
vn 0.4254 0.8745 0.2330
vn 0.5620 0.8250 0.0583
vn 0.0257 0.9928 0.1171
vn -0.0751 0.9950 -0.0652
vn 0.5620 0.7602 0.3258
vn 0.6171 0.7567 0.2158
vn 0.1421 0.9490 -0.2814
vn 0.0688 0.8126 -0.5787
vn 0.0784 0.8000 -0.5949
vn 0.1294 0.9363 0.3265
vn 0.0899 0.7842 -0.6139
vn -0.2217 0.8280 0.5151
vn -0.1173 0.8042 0.5827
vn -0.0081 0.7599 0.6499
vn -0.1368 0.7588 0.6367
vn -0.1052 0.7237 0.6820
vn -0.0757 0.6887 0.7211
vn 0.0858 0.9878 0.1300
vn 0.0358 0.9168 0.3977
vn 0.2173 0.8650 0.4523
vn 0.2732 0.9294 0.2479
vn -0.2009 0.9789 -0.0373
vn -0.2070 0.9322 0.2970
vn 0.1538 0.9822 -0.1077
vn 0.3182 0.9479 0.0157
vn -0.4216 0.8541 -0.3045
vn -0.4576 0.8878 -0.0479
vn -0.1748 0.9418 -0.2870
vn -0.4814 0.8715 0.0926
vn -0.5723 0.7711 -0.2789
vn -0.6066 0.7790 -0.1591
vn -0.6286 0.7759 -0.0534
vn -0.0164 0.3878 -0.9216
vn -0.0210 0.4979 -0.8669
vn 0.0665 0.8665 -0.4947
vn 0.3456 0.9186 -0.1914
vn -0.0287 0.2605 -0.9650
vn -0.2224 0.5835 -0.7811
vn -0.0320 0.1500 -0.9882
vn -0.1503 0.1527 -0.9768
vn 0.0641 0.1463 -0.9872
vn -0.1082 0.7155 -0.6902
vn 0.2042 0.9771 -0.0593
vn 0.6382 -0.7603 -0.1209
vn 0.4757 -0.8581 0.1930
vn 0.5390 -0.8095 0.2327
vn 0.8477 -0.3716 -0.3786
vn 0.6062 -0.7459 0.2759
vn 0.8805 -0.1899 -0.4343
vn 0.8940 -0.1892 -0.4061
vn 0.9169 -0.1835 -0.3544
vn 0.8535 -0.1888 -0.4857
vn 0.9043 -0.1812 -0.3864
vn 0.9370 -0.1734 -0.3031
vn 0.2948 0.8570 0.4225
vn -0.0902 0.7474 -0.6581
vn 0.3680 0.8160 0.4457
vn 0.4500 0.7400 0.4998
vn -0.2677 0.4614 -0.8458
usemtl Material
s 1
f 135/1/1 136/2/2 138/3/3 137/4/4
f 15/5/5 7/6/6 4/7/7 5/8/8
f 13/9/9 11/10/10 7/6/6 15/5/5
f 14/11/11 15/5/5 5/8/8 3/12/12
f 10/13/13 8/14/14 13/9/9 12/15/15
f 8/14/14 9/16/16 11/10/10 13/9/9
f 1/17/17 6/18/18 8/14/14 10/13/13
f 6/18/18 2/19/19 9/16/16 8/14/14
f 30/20/20 22/21/21 19/22/22 20/23/23
f 28/24/24 26/25/25 22/21/21 30/20/20
f 29/26/26 30/20/20 20/23/23 18/27/27
f 25/28/28 23/29/29 28/24/24 27/30/30
f 23/29/29 24/31/31 26/25/25 28/24/24
f 16/32/32 21/33/33 23/29/29 25/28/28
f 21/33/33 17/34/34 24/31/31 23/29/29
f 93/35/35 94/36/36 96/37/37 95/38/38
f 42/39/39 37/40/40 34/41/41 35/42/42
f 40/43/43 38/44/44 37/40/40 42/39/39
f 41/45/45 42/39/39 35/42/42 33/46/46
f 36/47/47 32/48/48 38/44/44 40/43/43
f 66/49/49 67/50/50 69/51/51 68/52/52
f 52/53/53 51/54/54 43/55/55 48/56/56
f 54/57/57 49/58/58 46/59/59 47/60/60
f 52/53/53 50/61/61 49/58/58 54/57/57
f 53/62/62 54/57/57 47/60/60 45/63/63
f 44/64/64 50/61/61 52/53/53 48/56/56
f 69/51/51 61/65/65 58/66/66 59/67/67
f 67/50/50 65/68/68 61/65/65 69/51/51
f 68/52/52 69/51/51 59/67/67 57/69/69
f 64/70/70 62/71/71 67/50/50 66/49/49
f 62/71/71 63/72/72 65/68/68 67/50/50
f 55/73/73 60/74/74 62/71/71 64/70/70
f 60/74/74 56/75/75 63/72/72 62/71/71
f 81/76/76 76/77/77 73/78/78 74/79/79
f 79/80/80 77/81/81 76/77/77 81/76/76
f 80/82/82 81/76/76 74/79/79 72/83/83
f 75/84/84 71/85/85 77/81/81 79/80/80
f 96/37/37 88/86/86 85/87/87 86/88/88
f 94/36/36 92/89/89 88/86/86 96/37/37
f 95/38/38 96/37/37 86/88/88 84/90/90
f 91/91/91 89/92/92 94/36/36 93/35/35
f 89/92/92 90/93/93 92/89/89 94/36/36
f 82/94/94 87/95/95 89/92/92 91/91/91
f 87/95/95 83/96/96 90/93/93 89/92/92
f 27/30/30 28/24/24 30/20/20 29/26/26
f 111/97/97 103/98/98 100/99/99 101/100/100
f 109/101/101 107/102/102 103/98/98 111/97/97
f 110/103/103 111/97/97 101/100/100 99/104/104
f 106/105/105 104/106/106 109/101/101 108/107/107
f 104/106/106 105/108/108 107/102/102 109/101/101
f 97/109/109 102/110/110 104/106/106 106/105/105
f 102/110/110 98/111/111 105/108/108 104/106/106
f 120/112/112 121/113/113 123/114/114 122/115/115
f 121/113/113 119/116/116 118/117/117 123/114/114
f 117/118/118 121/113/113 120/112/112 112/119/119
f 113/120/120 119/116/116 121/113/113 117/118/118
f 123/114/114 118/117/117 115/121/121 116/122/122
f 108/107/107 109/101/101 111/97/97 110/103/103
f 138/3/3 130/123/123 127/124/124 128/125/125
f 136/2/2 134/126/126 130/123/123 138/3/3
f 137/4/4 138/3/3 128/125/125 126/127/127
f 133/128/128 131/129/129 136/2/2 135/1/1
f 131/129/129 132/130/130 134/126/126 136/2/2
f 124/131/131 129/132/132 131/129/129 133/128/128
f 129/132/132 125/133/133 132/130/130 131/129/129
f 78/134/134 79/80/80 81/76/76 80/82/82
f 39/135/135 40/43/43 42/39/39 41/45/45
f 122/115/115 123/114/114 116/122/122 114/136/136
f 51/54/54 52/53/53 54/57/57 53/62/62
f 70/137/137 75/84/84 79/80/80 78/134/134
f 12/15/15 13/9/9 15/5/5 14/11/11
f 31/138/138 36/47/47 40/43/43 39/135/135
