# Blender v2.79 (sub 0) OBJ File: 'bush4.blend'
# www.blender.org
mtllib bush4.mtl
o bush_04b_Plane.009
v -1.516196 0.012690 -0.001319
v 1.072613 0.943047 1.510398
v -0.726834 4.711031 0.628299
v 1.531512 4.635106 -0.310281
v 0.001868 0.044057 0.130942
v -0.003088 4.614934 0.047239
v -1.005946 2.683004 -0.327595
v -1.402109 1.205164 -0.118748
v 1.206452 1.613261 0.853033
v 1.715249 3.108652 0.009633
v -0.061298 1.640531 0.411796
v 0.113242 3.092948 -0.004663
v 0.164711 -0.001379 1.806893
v -0.171422 0.001435 -1.809530
v 0.500051 4.507934 1.408474
v 0.111496 4.685953 -1.809530
v 0.001868 0.044057 0.130942
v -0.003088 4.614934 0.047239
v 0.633223 3.252501 1.135309
v 0.177775 1.559516 1.806893
v -0.694674 1.589456 -1.396192
v -0.010602 3.124238 -1.809530
v -0.053788 1.641721 0.352326
v 0.111142 3.092959 -0.015679
v 1.293943 0.182440 -0.472265
v -0.519846 0.445549 1.186736
v 0.832904 4.643771 -1.290832
v -0.498042 4.667610 1.319348
v 0.005394 0.045462 0.136565
v 0.001202 4.614986 0.045976
v 0.812552 2.549024 -1.174124
v 1.057950 1.314366 -0.566828
v -0.786606 1.621982 1.197991
v -0.288537 3.245954 0.953198
v 0.000090 1.575468 0.320314
v 0.114631 3.092913 -0.015239
v -1.185922 1.826245 0.201888
v 1.376215 2.500296 0.559112
v -0.010448 2.363945 0.103027
vt 0.148041 0.656631
vt 0.247688 0.664914
vt 0.247688 0.994743
vt 0.148041 0.994743
vt 0.002803 0.664914
vt 0.002803 0.994743
vt 0.007546 0.054093
vt 0.088421 0.059616
vt 0.119882 0.337847
vt 0.002803 0.335086
vt 0.002803 0.500000
vt 0.133961 0.497239
vt 0.252431 0.054093
vt 0.247688 0.335086
vt 0.240859 0.503516
vt 0.459083 0.761475
vt 0.621079 0.822870
vt 0.604955 0.990514
vt 0.488992 0.960203
vt 0.254055 0.855371
vt 0.316983 0.935591
vt 0.323704 0.329796
vt 0.426010 0.324896
vt 0.431121 0.560289
vt 0.255058 0.531212
vt 0.620620 0.301184
vt 0.633980 0.540427
vt 0.793086 0.785001
vt 0.994368 0.759797
vt 0.980817 0.986371
vt 0.791730 0.972418
vt 0.623455 0.782122
vt 0.620745 0.952884
vt 0.629553 0.188045
vt 0.733466 0.187986
vt 0.764927 0.466217
vt 0.647848 0.463456
vt 0.999111 0.148976
vt 0.994368 0.429968
vn 0.1072 0.0975 0.9894
vn 0.1793 -0.2763 0.9442
vn -0.2173 -0.0531 0.9747
vn -0.2520 0.4020 0.8803
vn -0.6410 0.1452 0.7537
vn -0.1602 0.4794 0.8628
vn 1.0000 -0.0025 -0.0020
vn 0.9174 0.1273 -0.3770
vn 0.9920 0.0221 -0.1241
vn 0.9273 -0.2690 -0.2602
vn 0.9523 0.2160 -0.2157
vn 0.9280 -0.3156 -0.1979
vn -0.9281 -0.0482 -0.3692
vn -0.8550 -0.0299 -0.5178
vn -0.5383 -0.0206 -0.8425
vn -0.7814 -0.2352 -0.5780
vn -0.8306 -0.0435 -0.5552
vn -0.8358 0.0622 -0.5454
vn -0.3111 0.3702 0.8753
vn -0.1791 0.0269 0.9835
usemtl Material.001
s off
f 12/1/1 10/2/1 4/3/1 6/4/1
f 7/5/2 12/1/2 6/4/2 3/6/2
f 1/7/3 5/8/3 11/9/3 8/10/3
f 37/11/4 39/12/4 12/1/4 7/5/4
f 5/8/5 2/13/5 9/14/5 11/9/5
f 39/12/6 38/15/6 10/2/6 12/1/6
f 24/16/7 22/17/7 16/18/7 18/19/7
f 19/20/8 24/16/8 18/19/8 15/21/8
f 13/22/9 17/23/9 23/24/9 20/25/9
f 20/25/10 23/24/10 24/16/10 19/20/10
f 17/23/11 14/26/11 21/27/11 23/24/11
f 23/24/12 21/27/12 22/17/12 24/16/12
f 36/28/13 34/29/13 28/30/13 30/31/13
f 31/32/14 36/28/14 30/31/14 27/33/14
f 25/34/15 29/35/15 35/36/15 32/37/15
f 32/37/16 35/36/16 36/28/16 31/32/16
f 29/35/17 26/38/17 33/39/17 35/36/17
f 35/36/18 33/39/18 34/29/18 36/28/18
f 11/9/19 9/14/19 38/15/19 39/12/19
f 8/10/20 11/9/20 39/12/20 37/11/20
