# Blender v2.79 (sub 0) OBJ File: 'flower.blend'
# www.blender.org
mtllib flower.mtl
o flower_bush_01a_Plane.065
v 1.032498 3.684215 -0.683945
v 1.001582 3.416171 -1.328795
v 0.239564 1.799106 -0.108070
v 0.213340 -0.262800 0.131931
v 0.224548 -0.387444 -0.558576
v 0.250768 1.674573 -0.798591
v 0.597022 3.774738 -0.902477
v 1.246719 3.552230 -1.042185
v 0.049183 1.716004 -0.434256
v -0.030005 -0.322486 -0.084482
v 0.671074 -0.344501 -0.069129
v 0.745268 1.633695 -0.432871
v -0.520648 3.961835 1.441473
v 0.163198 3.808185 1.476201
v -0.603562 1.977862 0.324061
v -0.424062 -0.227416 -0.005666
v 0.270239 -0.227416 0.096352
v 0.090731 1.977982 0.426092
v -0.269988 4.155520 1.056257
v -0.174004 3.863997 1.691864
v -0.245491 1.978021 0.175549
v -0.170468 -0.216795 -0.220564
v -0.271607 -0.334420 0.467757
v -0.320441 1.800480 0.853298
v 0.296965 -0.229459 -0.134334
v -0.387127 -0.371419 -0.068554
v -1.115092 5.760155 -1.189268
v -1.745159 5.479774 -1.075083
v -0.472857 3.883281 -0.539855
v -1.156966 3.741432 -0.474080
v 0.084976 -0.196942 0.182552
v 0.045539 -0.326002 -0.506106
v -1.360505 5.804091 -0.969448
v -1.554255 5.527086 -1.583339
v -0.776604 3.807705 -0.312756
v -0.838879 3.670151 -0.997234
v 0.351847 -0.247309 -0.207779
v -0.264597 -0.382115 -0.364017
v -0.702309 5.362105 -1.142807
v -1.282777 5.095913 -1.250049
v -0.291659 3.581260 -0.511444
v -0.908118 3.446557 -0.667684
v 0.070949 -0.239636 0.008268
v 0.244048 -0.309501 -0.614421
v -0.983887 5.387317 -1.020821
v -0.965162 5.175693 -1.634263
v -0.623975 3.495660 -0.408647
v -0.471964 3.417685 -1.035074
v 0.364736 -0.367947 -0.063746
v 0.364736 -0.367947 -0.765502
v -1.448423 5.562573 0.333646
v -1.462001 5.504717 -0.303971
v -1.242121 3.514761 0.399336
v -1.242170 3.514863 -0.302413
v 0.236428 -0.494066 -0.224239
v 0.903150 -0.275105 -0.224239
v -1.788579 5.557520 -0.173602
v -1.119544 5.649281 -0.360968
v -1.503777 3.381155 -0.069807
v -0.708974 3.638027 -0.094180
v 0.090711 -0.290250 -0.081793
v -0.530101 -0.256786 -0.479130
v 0.514878 6.196257 0.577666
v -0.066781 6.171212 0.239455
v 0.321301 4.054404 0.827979
v -0.299513 4.087984 0.430669
v -0.142896 -0.378163 -0.037554
v 0.255847 -0.326061 -0.656176
v -0.118388 6.302502 0.585681
v 0.093299 6.233385 -0.116706
v -0.258668 4.007769 0.814244
v 0.194378 4.066813 0.063775
v 0.153906 -0.298724 -0.355107
v 0.587947 -0.362869 0.192575
v 0.715904 5.885748 -0.585351
v 1.126756 5.773747 -0.107079
v 0.723411 3.852860 -0.913563
v 1.157476 3.788825 -0.365896
v 0.366004 -0.410723 -0.330671
v -0.175792 -0.330653 0.108085
v 1.295183 5.902572 -0.392515
v 0.880445 5.840974 0.169030
v 1.231071 3.732049 -0.728914
v 0.600690 3.821223 -0.187659
v -0.343577 -0.403910 -0.127081
v 0.471001 -0.510414 0.172407
v 0.200949 7.436211 1.204356
v 1.015527 7.329707 1.503844
v 0.088447 4.905963 0.549195
v -0.251414 2.352677 0.448897
v 0.563164 2.246172 0.748385
v 0.903025 4.799458 0.848683
v 1.055097 6.128674 0.938433
v 0.240519 6.235179 0.638946
v 0.181159 -0.379023 -0.332281
v -0.130363 -0.482783 0.478128
v 0.749769 7.504107 0.924578
v 0.432553 7.284222 1.709178
v 0.653797 4.909251 0.262822
v 0.351165 2.351097 0.176213
v 0.039644 2.247337 0.986621
v 0.342275 4.805491 1.073231
v 0.371246 6.121922 1.236682
v 0.685877 6.243308 0.424083
v 0.517693 -0.086697 0.491612
v -0.104686 -0.224014 -0.391221
v 0.185943 10.048145 -1.100722
v -0.443643 9.908353 -1.978026
v -0.019442 6.858438 -0.404747
v 0.009557 3.368957 0.290213
v -0.615627 3.238808 -0.591730
v -0.648996 6.718187 -1.282009
v -0.654076 8.267495 -1.546751
v -0.024490 8.407286 -0.669447
v -0.515824 -0.284958 0.363838
v 0.342627 -0.078688 -0.273436
v -0.580526 10.072770 -1.184040
v 0.305235 9.904857 -1.792669
v -0.801190 6.881866 -0.509337
v -0.864203 3.308613 0.072061
v 0.029994 3.268872 -0.555529
v 0.084899 6.709270 -1.117548
v 0.255401 8.253372 -1.371572
v -0.630360 8.421286 -0.762943
v 0.265812 -0.221213 0.395417
v 0.216369 -0.190841 -0.467102
v -1.152564 7.597360 0.583106
v -1.202006 7.627731 -0.279414
v -0.734480 4.994141 0.488289
v -0.783923 5.024514 -0.374230
v -1.101153 6.308544 -0.321239
v -1.051710 6.278171 0.541280
v -0.380247 -0.269948 -0.141664
v 0.471928 -0.131485 -0.185639
v -1.630934 7.537518 0.204957
v -0.778759 7.675981 0.160983
v -1.214038 4.935029 0.089417
v -0.361864 5.073492 0.045443
v -0.565937 6.372047 0.179536
v -1.418111 6.233584 0.223510
vt 0.623893 0.785203
vt 0.718927 0.765225
vt 0.750933 0.875296
vt 0.655898 0.895274
vt 0.587499 0.447898
vt 0.741119 0.463145
vt 0.695446 0.666390
vt 0.590412 0.666390
vt 0.577384 0.611854
vt 0.696058 0.591574
vt 0.753585 0.884320
vt 0.648550 0.884320
vt 0.623893 0.785203
vt 0.718927 0.765225
vt 0.750933 0.875296
vt 0.655898 0.895274
vt 0.587499 0.447898
vt 0.741119 0.463145
vt 0.695446 0.666390
vt 0.590412 0.666390
vt 0.577384 0.611854
vt 0.696058 0.591574
vt 0.753585 0.884320
vt 0.648550 0.884320
vt 0.438731 0.794190
vt 0.536492 0.794190
vt 0.537980 0.907731
vt 0.440219 0.907731
vt 0.537936 0.491544
vt 0.440175 0.491544
vt 0.590412 0.666390
vt 0.695446 0.666390
vt 0.753585 0.884320
vt 0.648550 0.884320
vt 0.685094 0.307516
vt 0.580060 0.294551
vt 0.438731 0.794190
vt 0.536492 0.794190
vt 0.537980 0.907731
vt 0.440219 0.907731
vt 0.537936 0.491544
vt 0.440175 0.491544
vt 0.590412 0.666390
vt 0.695446 0.666390
vt 0.753585 0.884320
vt 0.648550 0.884320
vt 0.685094 0.307516
vt 0.580060 0.294551
vt 0.600912 0.753762
vt 0.728431 0.730425
vt 0.796874 0.891956
vt 0.667867 0.899734
vt 0.676310 0.279136
vt 0.578549 0.279136
vt 0.736226 0.630088
vt 0.979635 0.637867
vt 0.947012 0.886913
vt 0.862808 0.877838
vt 0.926134 0.223243
vt 0.737777 0.229726
vt 0.600912 0.753762
vt 0.728431 0.730425
vt 0.796874 0.891956
vt 0.667867 0.899734
vt 0.676310 0.279136
vt 0.578549 0.279136
vt 0.736226 0.630088
vt 0.979635 0.637867
vt 0.947012 0.886913
vt 0.862808 0.877838
vt 0.926134 0.223243
vt 0.737777 0.229726
vt 0.600912 0.753762
vt 0.728431 0.730425
vt 0.796874 0.891956
vt 0.667867 0.899734
vt 0.676310 0.279136
vt 0.578549 0.279136
vt 0.736226 0.630088
vt 0.979635 0.637867
vt 0.947012 0.886913
vt 0.862808 0.877838
vt 0.926134 0.223243
vt 0.737777 0.229726
vt 0.184845 0.816760
vt 0.355578 0.816760
vt 0.379705 0.978313
vt 0.208971 0.978313
vt 0.211493 0.099936
vt 0.382226 0.099936
vt 0.382226 0.355905
vt 0.211493 0.355905
vt 0.379705 0.666806
vt 0.208971 0.666806
vt 0.184845 0.816760
vt 0.355578 0.816760
vt 0.379705 0.978313
vt 0.208971 0.978313
vt 0.211493 0.099936
vt 0.382226 0.099936
vt 0.382226 0.355905
vt 0.211493 0.355905
vt 0.379705 0.666806
vt 0.208971 0.666806
vt 0.021123 0.827554
vt 0.195280 0.827554
vt 0.195280 0.986431
vt 0.021123 0.986431
vt 0.021123 0.033171
vt 0.195280 0.033171
vt 0.195280 0.350924
vt 0.021123 0.350924
vt 0.195280 0.668678
vt 0.021123 0.668678
vt 0.021123 0.827554
vt 0.195280 0.827554
vt 0.195280 0.986431
vt 0.021123 0.986431
vt 0.021123 0.033171
vt 0.195280 0.033171
vt 0.195280 0.350924
vt 0.021123 0.350924
vt 0.195280 0.668678
vt 0.021123 0.668678
vt 0.021123 0.827554
vt 0.195280 0.827554
vt 0.195280 0.986431
vt 0.021123 0.986431
vt 0.195280 0.033171
vt 0.195280 0.668678
vt 0.021123 0.668678
vt 0.021123 0.033171
vt 0.021123 0.668678
vt 0.195280 0.668678
vt 0.021123 0.827554
vt 0.195280 0.827554
vt 0.195280 0.986431
vt 0.021123 0.986431
vt 0.195280 0.033171
vt 0.021123 0.033171
vn 0.1493 0.2217 0.9636
vn 0.9998 -0.0106 0.0181
vn 0.0013 0.1749 0.9846
vn 0.9260 -0.3656 0.0938
vn -0.9995 0.0194 0.0229
vn -0.1436 -0.1578 0.9770
vn -0.9916 -0.0051 -0.1289
vn -0.1397 -0.4849 0.8633
vn 0.9374 0.2325 -0.2591
vn 0.9738 0.1988 -0.1107
vn -0.0219 -0.3335 -0.9425
vn -0.0722 -0.1112 -0.9912
vn 0.9653 0.2503 0.0745
vn 0.9528 0.2053 0.2237
vn 0.2897 -0.2596 -0.9212
vn 0.2526 -0.0342 -0.9670
vn 0.1174 0.1069 0.9873
vn 0.0250 -0.0257 0.9994
vn 0.9944 0.1047 -0.0146
vn 0.9240 0.3824 -0.0000
vn 0.9090 0.0301 0.4157
vn 0.8494 -0.0764 0.5222
vn 0.5159 -0.1404 -0.8451
vn 0.5389 0.1452 -0.8298
vn -0.7130 0.1710 -0.6800
vn -0.6350 0.0612 -0.7701
vn -0.7764 -0.0983 0.6225
vn -0.7589 0.1880 0.6235
vn -0.3616 -0.4068 0.8389
vn -0.3600 -0.1793 0.9155
vn -0.3440 0.0089 0.9389
vn -0.3477 -0.0235 0.9373
vn -0.9273 0.1798 -0.3284
vn -0.9316 0.1218 -0.3425
vn -0.9340 0.0646 -0.3514
vn 0.8057 -0.2451 -0.5392
vn 0.8075 0.0850 -0.5837
vn 0.8172 -0.1053 -0.5667
vn 0.8159 -0.0948 -0.5704
vn 0.5801 0.1848 0.7933
vn 0.5732 0.1216 0.8103
vn 0.5758 0.1221 0.8084
vn 0.5739 0.0708 0.8159
vn 0.9955 0.0778 -0.0543
vn 0.0572 -0.0351 0.9977
vn 0.9693 0.2414 -0.0471
vn 0.0480 0.0220 0.9986
vn 0.0662 -0.0922 0.9935
vn 0.9807 0.1890 -0.0496
usemtl Material
s off
f 9/1/1 12/2/1 8/3/1 7/4/1
f 4/5/2 5/6/2 6/7/2 3/8/2
f 10/9/3 11/10/3 12/2/3 9/1/3
f 3/8/4 6/7/4 2/11/4 1/12/4
f 21/13/5 24/14/5 20/15/5 19/16/5
f 16/17/6 17/18/6 18/19/6 15/20/6
f 22/21/7 23/22/7 24/14/7 21/13/7
f 15/20/8 18/19/8 14/23/8 13/24/8
f 35/25/9 36/26/9 34/27/9 33/28/9
f 32/29/10 36/26/10 35/25/10 31/30/10
f 29/31/11 30/32/11 28/33/11 27/34/11
f 26/35/12 30/32/12 29/31/12 25/36/12
f 47/37/13 48/38/13 46/39/13 45/40/13
f 44/41/14 48/38/14 47/37/14 43/42/14
f 41/43/15 42/44/15 40/45/15 39/46/15
f 38/47/16 42/44/16 41/43/16 37/48/16
f 59/49/17 60/50/17 58/51/17 57/52/17
f 56/53/18 60/50/18 59/49/18 55/54/18
f 53/55/19 54/56/19 52/57/19 51/58/19
f 50/59/20 54/56/20 53/55/20 49/60/20
f 71/61/21 72/62/21 70/63/21 69/64/21
f 68/65/22 72/62/22 71/61/22 67/66/22
f 65/67/23 66/68/23 64/69/23 63/70/23
f 62/71/24 66/68/24 65/67/24 61/72/24
f 83/73/25 84/74/25 82/75/25 81/76/25
f 80/77/26 84/74/26 83/73/26 79/78/26
f 77/79/27 78/80/27 76/81/27 75/82/27
f 74/83/28 78/80/28 77/79/28 73/84/28
f 94/85/29 93/86/29 88/87/29 87/88/29
f 85/89/30 86/90/30 91/91/30 90/92/30
f 90/92/31 91/91/31 92/93/31 89/94/31
f 89/94/32 92/93/32 93/86/32 94/85/32
f 104/95/33 103/96/33 98/97/33 97/98/33
f 95/99/34 96/100/34 101/101/34 100/102/34
f 100/102/34 101/101/34 102/103/34 99/104/34
f 99/104/35 102/103/35 103/96/35 104/95/35
f 114/105/36 113/106/36 108/107/36 107/108/36
f 105/109/37 106/110/37 111/111/37 110/112/37
f 110/112/38 111/111/38 112/113/38 109/114/38
f 109/114/39 112/113/39 113/106/39 114/105/39
f 124/115/40 123/116/40 118/117/40 117/118/40
f 115/119/41 116/120/41 121/121/41 120/122/41
f 120/122/42 121/121/42 122/123/42 119/124/42
f 119/124/43 122/123/43 123/116/43 124/115/43
f 132/125/44 131/126/44 128/127/44 127/128/44
f 134/129/45 138/130/45 137/131/45 133/132/45
f 129/133/46 130/134/46 131/126/46 132/125/46
f 140/135/47 139/136/47 136/137/47 135/138/47
f 137/131/48 138/130/48 139/136/48 140/135/48
f 126/139/49 130/134/49 129/133/49 125/140/49
