# Blender v2.79 (sub 0) OBJ File: 'puro_wall.blend'
# www.blender.org
mtllib puro_wall.mtl
o Cube_Cube.001
v -50.000000 99.949829 49.942673
v -50.000000 -0.050171 49.842670
v -50.000000 -0.050171 49.942669
v -50.000000 99.949829 49.842674
v 50.000000 -0.050171 49.842670
v 50.000000 99.949829 49.842674
v 50.000000 -0.050171 49.942669
v 50.000000 99.949829 49.942673
vt -2.485733 1.130669
vt -1.756423 -0.133051
vt -2.485733 -0.140979
vt 0.000000 1.000000
vt 1.000000 0.000000
vt 0.010079 0.000000
vt 2.141648 1.322961
vt 3.160398 -0.263357
vt 2.121672 -0.288327
vt 1.000000 1.000000
vt 0.000000 0.000000
vt 1.000000 0.000000
vt 3.939442 -0.379647
vt -2.580860 0.080135
vt -2.485733 -0.308302
vt -3.548867 1.276367
vt 3.419138 1.297992
vt 3.739687 0.633807
vt -1.466448 1.129096
vt 1.000000 1.000000
vt 3.799613 1.327955
vt 0.000000 1.000000
vt 4.097987 -0.014993
vt -2.105257 0.838556
vt -1.965429 1.297992
vn -1.0000 0.0000 0.0000
vn 0.0000 0.0000 -1.0000
vn 1.0000 0.0000 0.0000
vn 0.0000 -0.0000 1.0000
vn 0.0000 -1.0000 0.0000
vn 0.0000 1.0000 0.0000
usemtl Material.002
s 1
f 1/1/1 2/2/1 3/3/1
f 4/4/2 5/5/2 2/6/2
f 6/7/3 7/8/3 5/9/3
f 8/10/4 3/11/4 7/12/4
f 5/13/5 3/14/5 2/15/5
f 4/16/6 8/17/6 6/18/6
f 1/1/1 4/19/1 2/2/1
f 4/4/2 6/20/2 5/5/2
f 6/7/3 8/21/3 7/8/3
f 8/10/4 1/22/4 3/11/4
f 5/13/5 7/23/5 3/14/5
f 4/24/6 1/25/6 8/17/6
o Cube_Cube.000
v -50.000000 99.949829 -49.610329
v -50.000000 -0.050171 -49.710331
v -50.000000 -0.050171 -49.610332
v -50.000000 99.949829 -49.710327
v 50.000000 -0.050171 -49.710331
v 50.000000 99.949829 -49.710327
v 50.000000 -0.050171 -49.610332
v 50.000000 99.949829 -49.610329
vt -2.485733 1.130669
vt -1.756423 -0.133051
vt -2.485733 -0.140979
vt 0.000000 1.000000
vt 1.000000 0.000000
vt 0.010079 0.000000
vt 2.141648 1.322961
vt 3.160398 -0.263357
vt 2.121672 -0.288327
vt 1.000000 1.000000
vt 0.000000 0.000000
vt 1.000000 0.000000
vt 3.939442 -0.379647
vt -2.580860 0.080135
vt -2.485733 -0.308302
vt -3.548867 1.276367
vt 3.419138 1.297992
vt 3.739687 0.633807
vt -1.466448 1.129096
vt 1.000000 1.000000
vt 3.799613 1.327955
vt 0.000000 1.000000
vt 4.097987 -0.014993
vt -2.105257 0.838556
vt -1.965429 1.297992
vn -1.0000 0.0000 0.0000
vn 0.0000 0.0000 -1.0000
vn 1.0000 0.0000 0.0000
vn 0.0000 -0.0000 1.0000
vn 0.0000 -1.0000 0.0000
vn 0.0000 1.0000 0.0000
usemtl Material.003
s 1
f 9/26/7 10/27/7 11/28/7
f 12/29/8 13/30/8 10/31/8
f 14/32/9 15/33/9 13/34/9
f 16/35/10 11/36/10 15/37/10
f 13/38/11 11/39/11 10/40/11
f 12/41/12 16/42/12 14/43/12
f 9/26/7 12/44/7 10/27/7
f 12/29/8 14/45/8 13/30/8
f 14/32/9 16/46/9 15/33/9
f 16/35/10 9/47/10 11/36/10
f 13/38/11 15/48/11 11/39/11
f 12/49/12 9/50/12 16/42/12
o Cube_Cube.002
v -49.719460 99.949829 50.000000
v -49.819466 -0.050171 50.000000
v -49.719463 -0.050171 50.000000
v -49.819458 99.949829 50.000000
v -49.819469 -0.050171 -50.000000
v -49.819466 99.949829 -50.000000
v -49.719467 -0.050171 -50.000000
v -49.719463 99.949829 -50.000000
vt -2.485733 1.130669
vt -1.756423 -0.133051
vt -2.485733 -0.140979
vt 0.000000 1.000000
vt 1.000000 0.000000
vt 0.010079 0.000000
vt 2.141648 1.322961
vt 3.160398 -0.263357
vt 2.121672 -0.288327
vt 1.000000 1.000000
vt 0.000000 0.000000
vt 1.000000 0.000000
vt 3.939442 -0.379647
vt -2.580860 0.080135
vt -2.485733 -0.308302
vt -3.548867 1.276367
vt 3.419138 1.297992
vt 3.739687 0.633807
vt -1.466448 1.129096
vt 1.000000 1.000000
vt 3.799613 1.327955
vt 0.000000 1.000000
vt 4.097987 -0.014993
vt -2.105257 0.838556
vt -1.965429 1.297992
vn 0.0000 0.0000 1.0000
vn -1.0000 0.0000 0.0000
vn 0.0000 0.0000 -1.0000
vn 1.0000 -0.0000 -0.0000
vn 0.0000 -1.0000 0.0000
vn 0.0000 1.0000 -0.0000
usemtl Material.004
s 1
f 17/51/13 18/52/13 19/53/13
f 20/54/14 21/55/14 18/56/14
f 22/57/15 23/58/15 21/59/15
f 24/60/16 19/61/16 23/62/16
f 21/63/17 19/64/17 18/65/17
f 20/66/18 24/67/18 22/68/18
f 17/51/13 20/69/13 18/52/13
f 20/54/14 22/70/14 21/55/14
f 22/57/15 24/71/15 23/58/15
f 24/60/16 17/72/16 19/61/16
f 21/63/17 23/73/17 19/64/17
f 20/74/18 17/75/18 24/67/18
o Cube_Cube.003
v 50.023197 99.949829 50.000000
v 49.923191 -0.050171 50.000000
v 50.023193 -0.050171 50.000000
v 49.923199 99.949829 50.000000
v 49.923187 -0.050171 -50.000000
v 49.923191 99.949829 -50.000000
v 50.023190 -0.050171 -50.000000
v 50.023193 99.949829 -50.000000
vt -2.485733 1.130669
vt -1.756423 -0.133051
vt -2.485733 -0.140979
vt 0.000000 1.000000
vt 1.000000 0.000000
vt 0.010079 0.000000
vt 2.141648 1.322961
vt 3.160398 -0.263357
vt 2.121672 -0.288327
vt 1.000000 1.000000
vt 0.000000 0.000000
vt 1.000000 0.000000
vt 3.939442 -0.379647
vt -2.580860 0.080135
vt -2.485733 -0.308302
vt -3.548867 1.276367
vt 3.419138 1.297992
vt 3.739687 0.633807
vt -1.466448 1.129096
vt 1.000000 1.000000
vt 3.799613 1.327955
vt 0.000000 1.000000
vt 4.097987 -0.014993
vt -2.105257 0.838556
vt -1.965429 1.297992
vn 0.0000 0.0000 1.0000
vn -1.0000 0.0000 0.0000
vn 0.0000 0.0000 -1.0000
vn 1.0000 0.0000 -0.0000
vn 0.0000 -1.0000 0.0000
vn 0.0000 1.0000 -0.0000
usemtl Material.005
s 1
f 25/76/19 26/77/19 27/78/19
f 28/79/20 29/80/20 26/81/20
f 30/82/21 31/83/21 29/84/21
f 32/85/22 27/86/22 31/87/22
f 29/88/23 27/89/23 26/90/23
f 28/91/24 32/92/24 30/93/24
f 25/76/19 28/94/19 26/77/19
f 28/79/20 30/95/20 29/80/20
f 30/82/21 32/96/21 31/83/21
f 32/85/22 25/97/22 27/86/22
f 29/88/23 31/98/23 27/89/23
f 28/99/24 25/100/24 32/92/24
