# Blender v2.79 (sub 0) OBJ File: 'star.blend'
# www.blender.org
mtllib star.mtl
o star
v 1.199800 0.009839 -0.051488
v 0.011300 0.457239 -0.054431
v 0.011600 1.317539 -0.361566
v 0.922500 1.002939 -0.040266
v -0.172583 1.315100 0.350807
v 1.614500 1.791939 -0.024262
v -1.168900 0.004639 -0.069516
v -0.896100 0.998939 -0.054063
v -1.591600 1.784839 -0.048912
v 0.608100 1.883439 -0.030700
v 0.006000 2.800839 -0.022974
v -0.585600 1.880839 -0.039898
vt 0.499933 0.130586
vt 0.419401 0.500973
vt 0.266411 0.500494
vt 0.322104 0.216386
vt 1.000000 0.869202
vt 0.765320 0.444165
vt 0.919447 0.498921
vt 0.822123 0.783385
vt 0.181179 0.000000
vt 0.681161 0.999662
vt 1.000000 0.130643
vt 0.822124 0.216347
vt 0.681172 0.000000
vt 0.664387 0.685927
vt 0.499933 0.498789
vt 0.664383 0.313732
vt 0.499933 0.869396
vt 0.322105 0.783617
vt 0.181191 1.000000
vt 0.164406 0.686158
vt 0.000000 0.500996
vt 0.164410 0.313836
vn 0.6833 -0.7300 -0.0140
vn -0.0291 -0.9975 -0.0641
vn 0.0069 0.0274 -0.9996
vn 0.9832 -0.1822 -0.0046
vn -0.0552 0.0075 0.9984
vn 0.9404 0.3401 0.0037
vn -0.6595 -0.7509 -0.0345
vn -0.9808 -0.1533 -0.1208
vn -0.9378 0.3462 -0.0266
vn 0.3912 0.9200 -0.0252
vn 0.0159 0.9999 -0.0036
vn -0.4591 0.8848 -0.0792
usemtl Material.002
s 1
f 1/1/1 2/2/2 3/3/3
f 4/4/4 1/1/1 3/3/3
f 1/5/1 5/6/5 2/7/2
f 4/8/4 5/6/5 1/5/1
f 4/4/4 3/3/3 6/9/6
f 4/8/4 6/10/6 5/6/5
f 7/11/7 5/6/5 8/12/8
f 2/7/2 5/6/5 7/11/7
f 8/12/8 5/6/5 9/13/9
f 5/6/5 10/14/10 11/15/11
f 12/16/12 5/6/5 11/15/11
f 6/10/6 10/14/10 5/6/5
f 9/13/9 5/6/5 12/16/12
f 2/2/2 7/17/7 3/3/3
f 7/17/7 8/18/8 3/3/3
f 8/18/8 9/19/9 3/3/3
f 9/19/9 12/20/12 3/3/3
f 12/20/12 11/21/11 3/3/3
f 6/9/6 3/3/3 10/22/10
f 3/3/3 11/21/11 10/22/10
