# Blender v2.79 (sub 0) OBJ File: 'tree.blend'
# www.blender.org
mtllib tree.mtl
o AbiesBalsamica_Fir.001
v -0.166287 -0.100000 -0.000000
v 0.000000 9.173182 0.000001
v -0.117583 -0.100000 -0.117583
v 0.000000 -0.100000 -0.166287
v 0.117583 -0.100000 -0.117583
v 0.166287 -0.100000 -0.000000
v -0.117583 -0.100000 0.117583
v 0.000000 -0.100000 0.166287
v 0.117583 -0.100000 0.117583
vt 0.222493 -1.652996
vt 0.474385 3.542812
vt 0.145273 -1.652996
vt 0.800444 -1.652996
vt 0.723770 -1.652996
vt 0.644747 -1.652996
vt 0.560301 -1.652996
vt 0.304024 -1.652996
vt 0.388470 -1.652996
vt 0.474385 -1.652996
vn -0.9998 0.0179 -0.0000
vn 0.0000 1.0000 0.0044
vn -0.7070 0.0179 -0.7070
vn 0.0000 0.0179 -0.9998
vn 0.7070 0.0179 -0.7070
vn 0.9998 0.0179 -0.0000
vn -0.7070 0.0179 0.7070
vn 0.0000 0.0179 0.9998
vn 0.7070 0.0179 0.7070
usemtl Material.TF.2
s 1
f 1/1/1 2/2/2 3/3/3
f 3/4/3 2/2/2 4/5/4
f 5/6/5 4/5/4 2/2/2
f 5/6/5 2/2/2 6/7/6
f 7/8/7 2/2/2 1/1/1
f 8/9/8 2/2/2 7/8/7
f 9/10/9 2/2/2 8/9/8
f 6/7/6 2/2/2 9/10/9
o AbiesBalsamica_Fir
v -2.100000 1.400000 -1.400000
v -2.100000 2.600000 0.000000
v 0.000000 3.800000 0.000001
v 0.000000 3.100000 -1.000000
v -2.100000 1.400000 1.400000
v 0.000000 3.100000 1.000000
v -4.200000 0.700000 -1.600000
v -4.200000 2.200000 0.000000
v -4.200000 0.700000 1.600000
v -1.953086 2.626945 -3.382843
v -3.241788 1.231884 -2.638811
v -2.104157 1.595277 -1.040394
v -0.976543 2.711326 -1.691422
v -0.664383 1.231884 -4.126876
v 0.151072 1.595277 -2.342451
v -0.805439 3.176346 0.465021
v 0.000000 3.827375 0.000001
v 0.805439 3.176346 -0.465019
v 2.492771 1.406518 0.843275
v 2.114969 2.657704 -0.566704
v 0.000000 3.908891 0.000001
v 0.269859 3.179032 1.007128
v 1.737166 1.406518 -1.976683
v -0.269859 3.179032 -1.007128
v 4.661711 0.676659 0.477996
v 4.229938 2.240642 -1.133408
v 3.798162 0.676659 -2.744813
v 0.385382 1.958911 4.008797
v 1.912543 0.520598 3.861983
v 1.528956 1.510627 1.875937
v 0.192691 2.661277 2.004399
v -1.141778 0.520598 4.155607
v -1.143574 1.510627 2.132859
v 0.954475 3.140716 -0.091757
v 0.000000 3.811928 0.000001
v -0.954475 3.140716 0.091759
v -2.108070 2.649601 0.636510
v -1.165660 3.696591 1.413617
v 0.000000 4.743580 0.000001
v -0.673150 4.132837 -0.555075
v -0.223249 2.649601 2.190722
v 0.673150 4.132837 0.555077
v -3.408359 1.653883 1.939110
v -2.331320 2.962620 2.827232
v -1.254278 1.653882 3.715353
v 3.450798 3.659058 1.992321
v 4.209777 2.235973 0.677729
v 2.389505 2.554871 -0.154106
v 1.725399 3.693339 0.996161
v 2.691819 2.235972 3.306910
v 1.061293 2.554871 2.146426
v 0.474362 4.167701 -0.821617
v 0.000000 4.831808 0.000001
v -0.474362 4.167701 0.821619
v 1.604342 2.726626 -1.409942
v 0.459956 3.742131 -1.716579
v 0.000000 4.757636 0.000001
v 0.817419 4.165257 0.219028
v -0.684430 2.726626 -2.023216
v -0.817419 4.165257 -0.219026
v 2.227782 1.840222 -3.082716
v 0.919913 3.109602 -3.433159
v -0.387958 1.840222 -3.783602
v -2.702298 3.276870 -2.702297
v -3.731744 1.912003 -1.672851
v -2.251915 2.548941 -0.450383
v -1.351149 3.640834 -1.351148
v -1.672851 1.912004 -3.731744
v -0.450383 2.548941 -2.251915
v -0.643404 4.095789 0.643405
v 0.000000 4.732727 0.000001
v 0.643404 4.095789 -0.643403
v -1.123768 4.268623 1.487272
v -0.091561 5.679349 1.548313
v 0.000000 7.090074 0.000001
v -0.737291 6.267151 -0.043599
v 0.940647 4.268623 1.609353
v 0.737291 6.267151 0.043601
v -1.362787 3.445702 3.026862
v -0.183121 5.209107 3.096624
v 0.996544 3.445702 3.166384
v -2.579296 5.597279 1.292501
v -2.086915 3.957238 2.275089
v -0.858815 4.498192 1.506016
v -1.289648 5.810225 0.646251
v -3.071676 3.957239 0.309912
v -1.720481 4.498193 -0.213514
v 0.307738 6.356903 0.614119
v 0.000000 7.122256 0.000001
v -0.307738 6.356903 -0.614117
v 0.730424 4.141522 -1.801130
v -0.325613 5.612422 -1.584055
v 0.000000 7.218086 0.000001
v 0.754312 6.360061 -0.155053
v -1.381650 4.141522 -1.366980
v -0.754312 6.360061 0.155055
v 0.555674 2.979817 -3.416197
v -0.651225 4.818441 -3.168111
v -1.858125 2.979817 -2.920025
v 2.972452 5.146753 -0.109353
v 2.930792 3.455867 -1.241716
v 1.449775 4.398678 -1.045493
v 1.486226 5.751387 -0.054676
v 3.014110 3.455867 1.023008
v 1.522677 4.398678 0.936141
v -0.026037 6.315016 -0.707726
v 0.000000 7.104096 0.000001
v 0.026037 6.315016 0.707728
v 1.138993 5.425879 1.843499
v 1.602678 7.064483 1.210883
v 0.772369 7.201506 0.602296
v 0.366645 5.890622 1.155836
v 2.066362 5.425879 0.578266
v 1.178093 5.890622 0.048757
v 0.949094 6.722295 -2.005837
v 0.187362 4.940520 -2.389469
v -0.220938 5.772015 -1.341742
v 0.445577 7.197434 -1.006063
v 1.710826 4.940520 -1.622205
v 1.112092 5.772015 -0.670385
v -1.858556 5.245373 -1.157200
v -2.013236 6.834703 -0.412325
v -1.035588 7.258523 -0.209308
v -0.900243 5.987060 -0.861073
v -2.167915 5.245373 0.332549
v -1.170933 5.987060 0.442457
v -1.487216 6.675992 1.596132
v -0.876769 4.967113 2.140617
v -0.238437 5.764589 1.271346
v -0.772578 7.131695 0.794921
v -2.097662 4.967113 1.051646
v -1.306719 5.764589 0.318496
v 0.279503 3.379838 2.278571
v 1.245123 4.576352 1.447707
v -0.001174 5.772865 -0.000724
v -0.690902 5.074899 0.592751
v 2.210744 3.379839 0.616842
v 0.688555 5.074899 -0.594198
v 1.387855 2.681872 3.845695
v 2.491421 4.177514 2.896137
v 3.594986 2.681873 1.946576
v -1.175311 3.994220 3.354008
v 0.102682 2.603212 3.801297
v 0.530001 3.574548 2.068021
v -0.588242 4.687355 1.676642
v -2.453304 2.603213 2.906717
v -1.706486 3.574548 1.285263
v 0.797572 5.151023 0.278833
v -0.001174 5.800160 -0.000724
v -0.799919 5.151023 -0.280280
v -0.898939 3.386338 -2.220521
v -1.647226 4.633888 -1.123154
v -0.001174 5.881439 -0.000724
v 0.533317 5.153701 -0.784558
v -2.395512 3.386338 -0.025785
v -0.535664 5.153701 0.783111
v -2.438094 3.036885 -3.499718
v -3.293278 4.596323 -2.245583
v -4.148463 3.036884 -0.991449
v 2.535093 3.833154 -2.645651
v 1.527501 2.399021 -3.611849
v 0.385317 3.490144 -2.168610
v 1.266960 4.637451 -1.323187
v 3.542684 2.399021 -1.679456
v 2.148602 3.490144 -0.477765
v -0.630918 5.115496 -0.604597
v -0.001174 5.784758 -0.000724
v 0.628571 5.115496 0.603149
v -0.377481 6.611114 -0.793901
v 0.193818 7.739571 -0.506177
v -0.534023 7.791359 -0.246060
v -0.057940 8.622853 -0.006290
v 0.765117 6.611114 -0.218453
v 0.418142 7.791359 0.233480
v 0.042576 6.618762 0.802680
v -0.415259 7.701053 0.394315
v 0.323589 7.701322 0.334013
v -0.057940 8.498799 -0.006290
v -0.873094 6.618762 -0.014049
v -0.439469 7.701322 -0.346594
v 0.357214 7.659274 0.298003
v 0.009451 6.621491 0.772465
v -0.057940 8.512388 -0.006290
v -0.347743 7.747707 0.389095
v 0.704978 6.621491 -0.176459
v 0.231863 7.747707 -0.401676
v -0.546764 7.740297 -0.107799
v -0.430754 6.733722 -0.666455
v -0.057940 8.529986 -0.006290
v 0.038735 7.788299 -0.471837
v -0.662774 6.733722 0.450857
v -0.154615 7.788299 0.459256
vt 0.500000 0.000000
vt 0.500000 0.500000
vt 0.000000 0.500000
vt 0.000000 0.000000
vt 0.500000 1.000000
vt 0.000000 1.000000
vt 1.000000 0.000000
vt 1.000000 0.500000
vt 1.000000 1.000000
vt 1.000000 0.500000
vt 1.000000 0.000000
vt 0.500000 0.000000
vt 0.500000 0.500000
vt 1.000000 1.000000
vt 0.500000 1.000000
vt 0.000000 0.000000
vt 0.000000 0.500000
vt 0.000000 1.000000
vt 0.500000 0.000000
vt 0.500000 0.500000
vt 0.000000 0.500000
vt 0.000000 0.000000
vt 0.500000 1.000000
vt 0.000000 1.000000
vt 1.000000 0.000000
vt 1.000000 0.500000
vt 1.000000 1.000000
vt 1.000000 0.500000
vt 1.000000 0.000000
vt 0.500000 0.000000
vt 0.500000 0.500000
vt 1.000000 1.000000
vt 0.500000 1.000000
vt 0.000000 0.000000
vt 0.000000 0.500000
vt 0.000000 1.000000
vt 0.500000 1.000000
vt 0.500000 0.500000
vt 0.000000 0.500000
vt 0.000000 1.000000
vt 0.500000 0.000000
vt 0.000000 0.000000
vt 1.000000 1.000000
vt 1.000000 0.500000
vt 1.000000 0.000000
vt 1.000000 0.500000
vt 1.000000 1.000000
vt 0.500000 1.000000
vt 0.500000 0.500000
vt 1.000000 0.000000
vt 0.500000 0.000000
vt 0.000000 1.000000
vt 0.000000 0.500000
vt 0.000000 0.000000
vt 0.500000 1.000000
vt 0.500000 0.500000
vt 0.000000 0.500000
vt 0.000000 1.000000
vt 0.500000 0.000000
vt 0.000000 0.000000
vt 1.000000 1.000000
vt 1.000000 0.500000
vt 1.000000 0.000000
vt 1.000000 0.500000
vt 1.000000 1.000000
vt 0.500000 1.000000
vt 0.500000 0.500000
vt 1.000000 0.000000
vt 0.500000 0.000000
vt 0.000000 1.000000
vt 0.000000 0.500000
vt 0.000000 0.000000
vt 0.500000 0.000000
vt 0.500000 0.500000
vt 0.000000 0.500000
vt 0.000000 0.000000
vt 0.500000 1.000000
vt 0.000000 1.000000
vt 1.000000 0.000000
vt 1.000000 0.500000
vt 1.000000 1.000000
vt 1.000000 0.500000
vt 1.000000 0.000000
vt 0.500000 0.000000
vt 0.500000 0.500000
vt 1.000000 1.000000
vt 0.500000 1.000000
vt 0.000000 0.000000
vt 0.000000 0.500000
vt 0.000000 1.000000
vt 0.500000 0.000000
vt 0.500000 0.500000
vt 0.000000 0.500000
vt 0.000000 0.000000
vt 0.500000 1.000000
vt 0.000000 1.000000
vt 1.000000 0.000000
vt 1.000000 0.500000
vt 1.000000 1.000000
vt 1.000000 0.500000
vt 1.000000 0.000000
vt 0.500000 0.000000
vt 0.500000 0.500000
vt 1.000000 1.000000
vt 0.500000 1.000000
vt 0.000000 0.000000
vt 0.000000 0.500000
vt 0.000000 1.000000
vt 1.000000 1.000000
vt 1.000000 0.500000
vt 0.500000 0.500000
vt 0.500000 1.000000
vt 1.000000 0.000000
vt 0.500000 0.000000
vt 1.000000 0.500000
vt 1.000000 1.000000
vt 0.500000 1.000000
vt 0.500000 0.500000
vt 1.000000 0.000000
vt 0.500000 0.000000
vt 1.000000 1.000000
vt 1.000000 0.500000
vt 0.500000 0.500000
vt 0.500000 1.000000
vt 1.000000 0.000000
vt 0.500000 0.000000
vt 1.000000 0.500000
vt 1.000000 1.000000
vt 0.500000 1.000000
vt 0.500000 0.500000
vt 1.000000 0.000000
vt 0.500000 0.000000
vt 0.500000 0.000000
vt 0.500000 0.500000
vt 0.000000 0.500000
vt 0.000000 0.000000
vt 0.500000 1.000000
vt 0.000000 1.000000
vt 1.000000 0.000000
vt 1.000000 0.500000
vt 1.000000 1.000000
vt 1.000000 0.500000
vt 1.000000 0.000000
vt 0.500000 0.000000
vt 0.500000 0.500000
vt 1.000000 1.000000
vt 0.500000 1.000000
vt 0.000000 0.000000
vt 0.000000 0.500000
vt 0.000000 1.000000
vt 0.500000 0.000000
vt 0.500000 0.500000
vt 0.000000 0.500000
vt 0.000000 0.000000
vt 0.500000 1.000000
vt 0.000000 1.000000
vt 1.000000 0.000000
vt 1.000000 0.500000
vt 1.000000 1.000000
vt 1.000000 0.500000
vt 1.000000 0.000000
vt 0.500000 0.000000
vt 0.500000 0.500000
vt 1.000000 1.000000
vt 0.500000 1.000000
vt 0.000000 0.000000
vt 0.000000 0.500000
vt 0.000000 1.000000
vt 0.250000 1.000000
vt 0.250000 0.500000
vt 0.000000 1.000000
vt 0.000000 0.500000
vt 0.250000 0.000000
vt 0.000000 0.000000
vt 0.250000 1.000000
vt 0.250000 0.500000
vt 0.000000 1.000000
vt 0.000000 0.500000
vt 0.250000 0.000000
vt 0.000000 0.000000
vt 0.250000 0.500000
vt 0.250000 1.000000
vt 0.000000 0.500000
vt 0.000000 1.000000
vt 0.250000 0.000000
vt 0.000000 0.000000
vt 0.250000 0.500000
vt 0.250000 1.000000
vt 0.000000 0.500000
vt 0.000000 1.000000
vt 0.250000 0.000000
vt 0.000000 0.000000
vn -0.2611 0.7311 -0.6303
vn -0.4027 0.9153 0.0000
vn -0.5239 0.8518 0.0000
vn -0.4344 0.7062 -0.5591
vn -0.2611 0.7311 0.6303
vn -0.4344 0.7062 0.5591
vn -0.1607 0.7336 -0.6603
vn -0.2140 0.9768 0.0000
vn -0.1607 0.7336 0.6603
vn -0.0358 0.9974 -0.0620
vn -0.6052 0.7422 0.2879
vn -0.6528 0.7428 0.1489
vn -0.1714 0.9394 -0.2969
vn 0.5519 0.7422 -0.3801
vn 0.4553 0.7428 -0.4909
vn -0.7014 0.7062 -0.0966
vn -0.2620 0.8518 -0.4537
vn 0.2670 0.7062 -0.6557
vn 0.4154 0.7311 0.5413
vn 0.3890 0.9153 -0.1042
vn 0.5061 0.8518 -0.1356
vn 0.5643 0.7062 0.4276
vn 0.0891 0.7311 -0.6765
vn 0.2749 0.7062 -0.6525
vn 0.3261 0.7336 0.5962
vn 0.2067 0.9768 -0.0554
vn -0.0157 0.7336 -0.6794
vn 0.0338 0.9356 0.3515
vn 0.6670 0.7157 0.2072
vn 0.6456 0.7152 0.2679
vn 0.0438 0.8889 0.4560
vn -0.6153 0.7157 0.3305
vn -0.5827 0.7152 0.3860
vn 0.5981 0.7062 0.3789
vn 0.0501 0.8518 0.5215
vn -0.5150 0.7062 0.4859
vn -0.6947 0.7093 -0.1194
vn -0.3016 0.8805 0.3658
vn -0.3333 0.8518 0.4042
vn -0.7077 0.7062 -0.0206
vn 0.2496 0.7093 0.6592
vn 0.1550 0.7062 0.6908
vn -0.6851 0.7081 -0.1710
vn -0.2509 0.9189 0.3043
vn 0.2984 0.7081 0.6399
vn 0.0396 0.9990 0.0229
vn 0.3637 0.7429 -0.5620
vn 0.4819 0.7445 -0.4621
vn 0.2870 0.9435 0.1657
vn -0.3048 0.7429 0.5960
vn -0.1592 0.7445 0.6483
vn 0.6557 0.7062 -0.2670
vn 0.4537 0.8518 0.2620
vn 0.0966 0.7062 0.7014
vn 0.6811 0.7144 -0.1606
vn 0.1192 0.8877 -0.4447
vn 0.1356 0.8518 -0.5061
vn 0.6525 0.7062 -0.2749
vn -0.5095 0.7144 -0.4797
vn -0.4276 0.7062 -0.5643
vn 0.6924 0.7147 -0.0990
vn 0.0929 0.9334 -0.3467
vn -0.5502 0.7147 -0.4319
vn -0.1513 0.9768 -0.1513
vn -0.5805 0.7336 0.3532
vn -0.6304 0.7311 0.2611
vn -0.2848 0.9153 -0.2848
vn 0.3532 0.7336 -0.5805
vn 0.2611 0.7311 -0.6304
vn -0.7025 0.7062 0.0882
vn -0.3705 0.8518 -0.3705
vn 0.0882 0.7062 -0.7025
vn -0.7916 0.5599 0.2448
vn -0.0348 0.8081 0.5880
vn -0.0413 0.7146 0.6984
vn -0.6987 0.5310 0.4795
vn 0.7572 0.5599 0.3364
vn 0.6373 0.5310 0.5585
vn -0.8143 0.5613 0.1479
vn -0.0194 0.9443 0.3286
vn 0.7912 0.5613 0.2428
vn -0.1695 0.9819 0.0849
vn 0.2669 0.5689 0.7779
vn 0.1431 0.5692 0.8097
vn -0.4864 0.8390 0.2438
vn -0.4633 0.5689 -0.6794
vn -0.5629 0.5692 -0.5993
vn -0.1650 0.5310 0.8311
vn -0.6254 0.7146 0.3134
vn -0.7646 0.5310 -0.3653
vn 0.6660 0.5440 -0.5103
vn -0.1320 0.7551 -0.6421
vn -0.1466 0.6854 -0.7132
vn 0.5293 0.5187 -0.6714
vn -0.8133 0.5440 -0.2063
vn -0.7512 0.5187 -0.4082
vn 0.7087 0.5472 -0.4453
vn -0.0952 0.8812 -0.4630
vn -0.8269 0.5472 -0.1297
vn 0.4116 0.9112 -0.0151
vn 0.2211 0.5541 -0.8025
vn 0.2997 0.5527 -0.7777
vn 0.6139 0.7891 -0.0226
vn 0.2795 0.5541 0.7841
vn 0.3560 0.5527 0.7535
vn 0.4949 0.5310 -0.6878
vn 0.6991 0.7146 -0.0257
vn 0.5441 0.5310 0.6496
vn -0.4565 0.4445 0.7707
vn 0.1557 0.9812 0.1141
vn 0.4455 0.8336 0.3265
vn -0.3765 0.4466 0.8117
vn 0.5976 0.4445 -0.6673
vn 0.6607 0.4466 -0.6034
vn 0.1973 0.8987 -0.3918
vn -0.6852 0.4360 -0.5834
vn -0.6447 0.4361 -0.6279
vn 0.2922 0.7604 -0.5801
vn 0.8767 0.4360 0.2032
vn 0.8883 0.4361 0.1442
vn -0.0306 0.4360 -0.8994
vn -0.4295 0.8987 -0.0892
vn -0.6349 0.7612 -0.1319
vn -0.0904 0.4362 -0.8953
vn -0.3862 0.4360 0.8129
vn -0.4394 0.4362 0.7853
vn -0.2920 0.8987 0.3274
vn 0.5109 0.4360 0.7409
vn 0.4549 0.4351 0.7770
vn -0.4488 0.7385 0.5032
vn -0.7942 0.4360 -0.4232
vn -0.8238 0.4351 -0.3634
vn -0.3259 0.6994 0.6361
vn 0.2849 0.8996 0.3311
vn 0.3645 0.8292 0.4237
vn -0.1467 0.6731 0.7248
vn 0.6776 0.6994 -0.2274
vn 0.7386 0.6731 -0.0370
vn -0.4148 0.7018 0.5791
vn 0.1522 0.9724 0.1769
vn 0.6345 0.7018 -0.3237
vn -0.1283 0.9215 0.3665
vn 0.5399 0.6820 0.4934
vn 0.4956 0.6817 0.5381
vn -0.1638 0.8684 0.4680
vn -0.7297 0.6820 0.0490
vn -0.7230 0.6817 0.1116
vn 0.4013 0.6731 0.6212
vn -0.1846 0.8292 0.5275
vn -0.7011 0.6731 0.2353
vn 0.2229 0.7135 -0.6642
vn -0.2987 0.9323 -0.2037
vn -0.4618 0.8292 -0.3149
vn -0.0459 0.6731 -0.7381
vn -0.5369 0.7135 0.4501
vn -0.7039 0.6731 0.2269
vn 0.3659 0.7115 -0.5999
vn -0.0414 0.9987 -0.0282
vn -0.4248 0.7115 0.5597
vn 0.2945 0.9049 -0.3072
vn -0.2608 0.6751 -0.6900
vn -0.2107 0.6764 -0.7058
vn 0.3528 0.8603 -0.3679
vn 0.7004 0.6751 0.2317
vn 0.7140 0.6764 0.1809
vn -0.1075 0.6731 -0.7317
vn 0.3868 0.8292 -0.4034
vn 0.7355 0.6731 0.0767
vn -0.4583 0.4204 -0.7831
vn 0.3742 0.5550 -0.7429
vn -0.2855 0.3884 -0.8762
vn 0.3868 0.5105 -0.7680
vn 0.9020 0.4204 -0.0980
vn 0.8739 0.3884 -0.2922
vn 0.2196 0.4152 0.8828
vn -0.5501 0.5630 0.6167
vn 0.0745 0.3975 0.9146
vn -0.5637 0.5319 0.6320
vn -0.9021 0.4152 -0.1177
vn -0.9171 0.3975 0.0301
vn 0.6738 0.5495 0.4939
vn -0.0721 0.4251 0.9023
vn 0.7016 0.4933 0.5142
vn 0.1653 0.3806 0.9098
vn 0.8387 0.4251 -0.3403
vn 0.9174 0.3806 -0.1163
vn -0.8146 0.5547 -0.1692
vn -0.3272 0.4207 -0.8462
vn -0.8424 0.5097 -0.1749
vn -0.5094 0.3880 -0.7681
vn -0.6371 0.4207 0.6459
vn -0.7731 0.3880 0.5018
usemtl Material.TF.66049
s 1
f 10/11/10 11/12/11 12/13/12 13/14/13
f 11/12/11 14/15/14 15/16/15 12/13/12
f 16/17/16 17/18/17 11/12/11 10/11/10
f 17/18/17 18/19/18 14/15/14 11/12/11
f 19/20/19 20/21/20 21/22/21 22/23/22
f 23/24/23 19/20/19 22/23/22 24/25/24
f 22/23/22 21/22/21 25/26/25 26/27/26
f 24/25/24 22/23/22 26/27/26 27/28/27
f 28/29/28 29/30/29 30/31/30 31/32/31
f 29/30/29 32/33/32 33/34/33 30/31/30
f 34/35/34 35/36/35 29/30/29 28/29/28
f 35/36/35 36/37/36 32/33/32 29/30/29
f 37/38/37 38/39/38 39/40/39 40/41/40
f 41/42/41 37/38/37 40/41/40 42/43/42
f 40/41/40 39/40/39 43/44/43 44/45/44
f 42/43/42 40/41/40 44/45/44 45/46/45
f 46/47/46 47/48/47 48/49/48 49/50/49
f 47/48/47 50/51/50 51/52/51 48/49/48
f 52/53/52 53/54/53 47/48/47 46/47/46
f 53/54/53 54/55/54 50/51/50 47/48/47
f 55/56/55 56/57/56 57/58/57 58/59/58
f 59/60/59 55/56/55 58/59/58 60/61/60
f 58/59/58 57/58/57 61/62/61 62/63/62
f 60/61/60 58/59/58 62/63/62 63/64/63
f 64/65/64 65/66/65 66/67/66 67/68/67
f 65/66/65 68/69/68 69/70/69 66/67/66
f 70/71/70 71/72/71 65/66/65 64/65/64
f 71/72/71 72/73/72 68/69/68 65/66/65
f 73/74/73 74/75/74 75/76/75 76/77/76
f 77/78/77 73/74/73 76/77/76 78/79/78
f 76/77/76 75/76/75 79/80/79 80/81/80
f 78/79/78 76/77/76 80/81/80 81/82/81
f 82/83/82 83/84/83 84/85/84 85/86/85
f 83/84/83 86/87/86 87/88/87 84/85/84
f 88/89/88 89/90/89 83/84/83 82/83/82
f 89/90/89 90/91/90 86/87/86 83/84/83
f 91/92/91 92/93/92 93/94/93 94/95/94
f 95/96/95 91/92/91 94/95/94 96/97/96
f 94/95/94 93/94/93 97/98/97 98/99/98
f 96/97/96 94/95/94 98/99/98 99/100/99
f 100/101/100 101/102/101 102/103/102 103/104/103
f 101/102/101 104/105/104 105/106/105 102/103/102
f 106/107/106 107/108/107 101/102/101 100/101/100
f 107/108/107 108/109/108 104/105/104 101/102/101
f 109/110/109 110/111/110 111/112/111 112/113/112
f 113/114/113 109/110/109 112/113/112 114/115/114
f 112/113/112 111/112/111 115/116/115 116/117/116
f 114/115/114 112/113/112 116/117/116 117/118/117
f 118/119/118 119/120/119 120/121/120 121/122/121
f 119/120/119 122/123/122 123/124/123 120/121/120
f 124/125/124 125/126/125 126/127/126 127/128/127
f 128/129/128 124/125/124 127/128/127 129/130/129
f 130/131/130 131/132/131 132/133/132 133/134/133
f 131/132/131 134/135/134 135/136/135 132/133/132
f 136/137/136 137/138/137 138/139/138 139/140/139
f 140/141/140 136/137/136 139/140/139 141/142/141
f 142/143/142 143/144/143 144/145/144 145/146/145
f 143/144/143 146/147/146 147/148/147 144/145/144
f 148/149/148 149/150/149 143/144/143 142/143/142
f 149/150/149 150/151/150 146/147/146 143/144/143
f 151/152/151 152/153/152 153/154/153 154/155/154
f 155/156/155 151/152/151 154/155/154 156/157/156
f 154/155/154 153/154/153 157/158/157 158/159/158
f 156/157/156 154/155/154 158/159/158 159/160/159
f 160/161/160 161/162/161 162/163/162 163/164/163
f 161/162/161 164/165/164 165/166/165 162/163/162
f 166/167/166 167/168/167 161/162/161 160/161/160
f 167/168/167 168/169/168 164/165/164 161/162/161
f 169/170/169 170/171/170 171/172/171 172/173/172
f 173/174/173 169/170/169 172/173/172 174/175/174
f 172/173/172 171/172/171 175/176/175 176/177/176
f 174/175/174 172/173/172 176/177/176 177/178/177
f 126/127/126 178/179/178 179/180/179 127/128/127
f 178/179/178 180/181/180 181/182/181 179/180/179
f 127/128/127 179/180/179 182/183/182 129/130/129
f 179/180/179 181/182/181 183/184/183 182/183/182
f 138/139/138 184/185/184 185/186/185 139/140/139
f 184/185/184 186/187/186 187/188/187 185/186/185
f 139/140/139 185/186/185 188/189/188 141/142/141
f 185/186/185 187/188/187 189/190/189 188/189/188
f 120/121/120 190/191/190 191/192/191 121/122/121
f 190/191/190 192/193/192 193/194/193 191/192/191
f 123/124/123 194/195/194 190/191/190 120/121/120
f 194/195/194 195/196/195 192/193/192 190/191/190
f 132/133/132 196/197/196 197/198/197 133/134/133
f 196/197/196 198/199/198 199/200/199 197/198/197
f 135/136/135 200/201/200 196/197/196 132/133/132
f 200/201/200 201/202/201 198/199/198 196/197/196
