# Blender v2.79 (sub 0) OBJ File: 'water.blend'
# www.blender.org
mtllib water.mtl
o Cube_Cube.001
v -100.000000 -0.100000 -73.939095
v -100.000000 -0.100009 126.060905
v -100.000000 0.100000 -73.939095
v -100.000000 0.099991 126.060905
v 100.000000 -0.100000 -73.939095
v 100.000000 -0.100009 126.060905
v 100.000000 0.100000 -73.939095
v 100.000000 0.099991 126.060905
vt -2.485733 1.130669
vt -1.756423 -0.133051
vt -2.485733 -0.140979
vt 0.000000 1.000000
vt 1.000000 0.000000
vt 0.010079 0.000000
vt 2.141648 1.322961
vt 3.160398 -0.263357
vt 2.121672 -0.288327
vt 1.000000 1.000000
vt 0.000000 0.000000
vt 1.000000 0.000000
vt 3.939442 -0.379647
vt -2.580860 0.080135
vt -2.485733 -0.308302
vt -3.548867 1.276367
vt 3.419138 1.297992
vt 3.739687 0.633807
vt -1.466448 1.129096
vt 1.000000 1.000000
vt 3.799613 1.327955
vt 0.000000 1.000000
vt 4.097987 -0.014993
vt -2.105257 0.838556
vt -1.965429 1.297992
vn -1.0000 0.0000 0.0000
vn 0.0000 1.0000 0.0000
vn 1.0000 0.0000 0.0000
vn 0.0000 -1.0000 -0.0000
vn 0.0000 0.0000 -1.0000
vn 0.0000 0.0000 1.0000
usemtl Material
s off
f 2/1/1 3/2/1 1/3/1
f 4/4/2 7/5/2 3/6/2
f 8/7/3 5/8/3 7/9/3
f 6/10/4 1/11/4 5/12/4
f 7/13/5 1/14/5 3/15/5
f 4/16/6 6/17/6 8/18/6
f 2/1/1 4/19/1 3/2/1
f 4/4/2 8/20/2 7/5/2
f 8/7/3 6/21/3 5/8/3
f 6/10/4 2/22/4 1/11/4
f 7/13/5 5/23/5 1/14/5
f 4/24/6 2/25/6 6/17/6
