# Blender v2.79 (sub 0) OBJ File: 'SmallTable.blend'
# www.blender.org
mtllib SmallTable.mtl
o Cube.001
v 7.486090 2.300000 2.051450
v -7.513556 2.300000 1.948455
v -7.486090 2.300000 -2.051450
v 7.513556 2.300000 -1.948455
v 7.486085 2.700000 2.051450
v 7.513560 2.700000 -1.948454
v -7.486085 2.700000 -2.051455
v -7.513560 2.700000 1.948455
v 7.484990 2.500000 2.211451
v -7.514655 2.500000 2.108450
v -7.484990 2.500000 -2.211450
v 7.514655 2.500000 -2.108449
v -6.459080 -0.000000 1.442125
v -6.565655 -0.000000 1.033180
v -6.565655 2.371505 1.033180
v -6.459080 2.371505 1.442125
v -6.759955 -0.000000 1.738895
v -6.759955 2.371505 1.738895
v -7.167400 -0.000000 1.626715
v -7.167400 2.371505 1.626715
v -7.273975 -0.000000 1.217770
v -7.273975 2.371505 1.217770
v -6.973100 -0.000000 0.921000
v -6.973100 2.371505 0.921000
v -6.546445 0.000000 -1.764625
v -6.953890 0.000000 -1.876805
v -6.953890 2.371505 -1.876805
v -6.546445 2.371505 -1.764625
v -7.254760 0.000000 -1.580035
v -7.254760 2.371505 -1.580035
v -7.148190 0.000000 -1.171085
v -7.148190 2.371505 -1.171085
v -6.740745 0.000000 -1.058905
v -6.740745 2.371505 -1.058905
v -6.439870 0.000000 -1.355675
v -6.439870 2.371505 -1.355675
v 7.209905 0.000000 -1.261945
v 7.103335 0.000000 -1.670895
v 7.103335 2.371505 -1.670895
v 7.209905 2.371505 -1.261945
v 6.909035 0.000000 -0.965175
v 6.909035 2.371505 -0.965175
v 6.501585 0.000000 -1.077355
v 6.501585 2.371505 -1.077355
v 6.395015 0.000000 -1.486305
v 6.395015 2.371505 -1.486305
v 6.695885 0.000000 -1.783075
v 6.695885 2.371505 -1.783075
v 7.084120 -0.000000 1.126910
v 6.676675 -0.000000 1.014730
v 6.676675 2.371505 1.014730
v 7.084120 2.371505 1.126910
v 6.375800 -0.000000 1.311500
v 6.375800 2.371505 1.311500
v 6.482375 -0.000000 1.720445
v 6.482375 2.371505 1.720445
v 6.889820 -0.000000 1.832625
v 6.889820 2.371505 1.832625
v 7.190695 -0.000000 1.535855
v 7.190695 2.371505 1.535855
vt 0.979936 0.392347
vt 0.023565 0.392347
vt 0.023565 0.036684
vt 0.979936 0.036684
vt 0.987501 0.033771
vt 0.987502 0.384671
vt 0.016000 0.384671
vt 0.015999 0.033771
vt 0.987902 0.456786
vt 0.987902 0.487022
vt 0.013634 0.487022
vt 0.013634 0.456786
vt 0.987902 0.517258
vt 0.013634 0.517258
vt 0.262915 0.515855
vt 0.244589 0.486086
vt 0.515234 0.486086
vt 0.497290 0.515855
vt 0.262915 0.456318
vt 0.497290 0.456318
vt 0.048795 0.516451
vt 0.048795 0.487629
vt 0.956884 0.487629
vt 0.956884 0.516451
vt 0.048795 0.458806
vt 0.956884 0.458806
vt 0.262915 0.515855
vt 0.244971 0.486086
vt 0.515616 0.486086
vt 0.497290 0.515855
vt 0.262915 0.456318
vt 0.497290 0.456318
vt 0.034969 0.818032
vt 0.034969 0.750619
vt 0.413268 0.750619
vt 0.413267 0.818032
vt 0.034969 0.885446
vt 0.413267 0.885446
vt 0.034969 0.952859
vt 0.413267 0.952859
vt 0.034969 0.615791
vt 0.034969 0.548378
vt 0.413268 0.548378
vt 0.413268 0.615791
vt 0.034969 0.683205
vt 0.413268 0.683205
vt 0.070110 0.754099
vt 0.070110 0.695852
vt 0.396970 0.695852
vt 0.396970 0.754099
vt 0.070110 0.637605
vt 0.396969 0.637605
vt 0.070110 0.579359
vt 0.396969 0.579359
vt 0.070110 0.928840
vt 0.070110 0.870593
vt 0.396970 0.870593
vt 0.396970 0.928840
vt 0.070110 0.812346
vt 0.396970 0.812346
vt 0.047941 0.810185
vt 0.047941 0.743921
vt 0.419784 0.743922
vt 0.419784 0.810185
vt 0.047941 0.876448
vt 0.419784 0.876448
vt 0.047941 0.942711
vt 0.419784 0.942711
vt 0.047941 0.611395
vt 0.047941 0.545132
vt 0.419784 0.545133
vt 0.419784 0.611396
vt 0.047941 0.677658
vt 0.419784 0.677659
vt 0.053170 0.738661
vt 0.053170 0.677351
vt 0.397218 0.677351
vt 0.397218 0.738661
vt 0.053170 0.616041
vt 0.397218 0.616041
vt 0.053170 0.554731
vt 0.397218 0.554731
vt 0.053169 0.922591
vt 0.053169 0.861281
vt 0.397218 0.861281
vt 0.397218 0.922591
vt 0.053169 0.799971
vt 0.397218 0.799971
vn 0.0000 -1.0000 -0.0000
vn -0.0000 1.0000 0.0000
vn -0.0054 -0.6247 0.7808
vn -0.0054 0.6247 0.7808
vn -1.0000 -0.0000 -0.0069
vn 0.0054 -0.6247 -0.7808
vn 0.0054 0.6247 -0.7809
vn 1.0000 -0.0000 0.0069
vn 0.9677 0.0000 -0.2522
vn 0.7022 -0.0000 0.7119
vn -0.2654 -0.0000 0.9641
vn -0.9677 0.0000 0.2522
vn -0.7022 0.0000 -0.7119
vn 0.2654 0.0000 -0.9641
usemtl Material.001
s 1
f 1/1/1 2/2/1 3/3/1 4/4/1
f 5/5/2 6/6/2 7/7/2 8/8/2
f 1/9/3 9/10/3 10/11/3 2/12/3
f 9/10/4 5/13/4 8/14/4 10/11/4
f 2/15/5 10/16/5 11/17/5 3/18/5
f 10/16/5 8/19/5 7/20/5 11/17/5
f 3/21/6 11/22/6 12/23/6 4/24/6
f 11/22/7 7/25/7 6/26/7 12/23/7
f 5/27/8 9/28/8 12/29/8 6/30/8
f 9/28/8 1/31/8 4/32/8 12/29/8
f 13/33/9 14/34/9 15/35/9 16/36/9
f 17/37/10 13/33/10 16/36/10 18/38/10
f 19/39/11 17/37/11 18/38/11 20/40/11
f 21/41/12 19/42/12 20/43/12 22/44/12
f 23/45/13 21/41/13 22/44/13 24/46/13
f 14/34/14 23/45/14 24/46/14 15/35/14
f 25/47/14 26/48/14 27/49/14 28/50/14
f 26/48/13 29/51/13 30/52/13 27/49/13
f 29/51/12 31/53/12 32/54/12 30/52/12
f 31/55/11 33/56/11 34/57/11 32/58/11
f 33/56/10 35/59/10 36/60/10 34/57/10
f 35/59/9 25/47/9 28/50/9 36/60/9
f 37/61/9 38/62/9 39/63/9 40/64/9
f 41/65/10 37/61/10 40/64/10 42/66/10
f 43/67/11 41/65/11 42/66/11 44/68/11
f 45/69/12 43/70/12 44/71/12 46/72/12
f 47/73/13 45/69/13 46/72/13 48/74/13
f 38/62/14 47/73/14 48/74/14 39/63/14
f 49/75/14 50/76/14 51/77/14 52/78/14
f 50/76/13 53/79/13 54/80/13 51/77/13
f 53/79/12 55/81/12 56/82/12 54/80/12
f 55/83/11 57/84/11 58/85/11 56/86/11
f 57/84/10 59/87/10 60/88/10 58/85/10
f 59/87/9 49/75/9 52/78/9 60/88/9
