# Blender v2.79 (sub 0) OBJ File: 'Chest2.blend'
# www.blender.org
mtllib Chest2.mtl
o chest.001_Cube.388
v -1.197715 1.383839 0.704709
v -1.216087 1.383839 -0.672506
v -1.216087 0.006503 -0.672506
v -1.197715 0.006503 0.704710
v 1.197715 1.383839 -0.704710
v 1.197715 0.006503 -0.704709
v 1.216087 1.383839 0.672506
v 1.216087 0.006503 0.672506
v -1.107958 1.383839 0.612525
v 1.123905 1.383839 0.582749
v 1.123905 0.122021 0.582750
v -1.107958 0.122021 0.612525
v -1.123905 1.383839 -0.582750
v 1.107958 1.383839 -0.612525
v 1.107958 0.122021 -0.612525
v -1.123905 0.122021 -0.582749
v 0.819821 1.526762 -0.624511
v 0.819821 1.232684 -0.624511
v 1.132822 1.232684 -0.628689
v 1.132823 1.526762 -0.628689
v 0.817837 1.526762 -0.773271
v 1.130837 1.526762 -0.777446
v 1.130837 1.232684 -0.777446
v 0.817837 1.232684 -0.773271
v 0.818455 1.192175 -0.726917
v 0.819618 1.192175 -0.639743
v 0.818841 1.565303 -0.698106
v 0.818507 1.565303 -0.722968
v 1.131842 1.565303 -0.702284
v 1.131511 1.565303 -0.727144
v 1.132619 1.192175 -0.643920
v 1.131456 1.192175 -0.731095
v -1.130466 1.526762 -0.598494
v -1.130466 1.232684 -0.598494
v -0.817466 1.232684 -0.602669
v -0.817466 1.526762 -0.602669
v -1.132451 1.526762 -0.747251
v -0.819450 1.526762 -0.751429
v -0.819450 1.232684 -0.751429
v -1.132451 1.232684 -0.747251
v -1.131833 1.192175 -0.700899
v -1.130670 1.192175 -0.613725
v -1.131450 1.565303 -0.672089
v -1.131780 1.565303 -0.696950
v -0.818447 1.565303 -0.676263
v -0.818780 1.565303 -0.701125
v -0.817670 1.192175 -0.617900
v -0.818833 1.192175 -0.705074
v -0.093741 1.356137 0.541906
v -0.091508 1.382993 0.709362
v 0.140477 1.382993 0.706267
v 0.138244 1.356137 0.538811
v 0.108671 1.345061 0.746051
v -0.058653 1.345061 0.748284
v -0.093820 1.021520 0.536168
v 0.138165 1.021520 0.533074
v 0.140399 1.048376 0.700527
v -0.091583 1.048376 0.703623
v 0.108596 1.095716 0.740312
v -0.058728 1.095716 0.742544
vt 0.678445 0.679202
vt 0.678445 0.615831
vt 0.745901 0.615831
vt 0.745901 0.679202
vt 0.678445 0.679202
vt 0.745901 0.679202
vt 0.745901 0.615831
vt 0.678445 0.615831
vt 0.632209 0.615831
vt 0.664269 0.615831
vt 0.654279 0.607101
vt 0.635492 0.607101
vt 0.632209 0.679202
vt 0.632209 0.615831
vt 0.664269 0.615831
vt 0.664269 0.679202
vt 0.664269 0.679202
vt 0.632209 0.679202
vt 0.648070 0.687507
vt 0.653428 0.687507
vt 0.678445 0.648070
vt 0.745901 0.648070
vt 0.745901 0.653428
vt 0.678445 0.653428
vt 0.653428 0.687507
vt 0.648070 0.687507
vt 0.745901 0.664269
vt 0.678445 0.664269
vt 0.678445 0.632209
vt 0.745901 0.632209
vt 0.745901 0.635492
vt 0.678445 0.635492
vt 0.678445 0.654279
vt 0.745901 0.654279
vt 0.635492 0.607101
vt 0.654279 0.607101
vt 0.678445 0.664269
vt 0.745901 0.664269
vt 0.678445 0.607101
vt 0.745901 0.607101
vt 0.258134 0.679202
vt 0.258134 0.615831
vt 0.325590 0.615831
vt 0.325590 0.679202
vt 0.258134 0.679202
vt 0.325590 0.679202
vt 0.325590 0.615831
vt 0.258134 0.615831
vt 0.632209 0.615831
vt 0.664269 0.615831
vt 0.654279 0.607101
vt 0.635492 0.607101
vt 0.632209 0.679202
vt 0.632209 0.615831
vt 0.664269 0.615831
vt 0.664269 0.679202
vt 0.664269 0.679202
vt 0.632209 0.679202
vt 0.648070 0.687507
vt 0.653428 0.687507
vt 0.258134 0.648070
vt 0.325590 0.648070
vt 0.325590 0.653428
vt 0.258134 0.653428
vt 0.653428 0.687507
vt 0.648070 0.687507
vt 0.325590 0.664269
vt 0.258134 0.664269
vt 0.258134 0.632209
vt 0.325590 0.632209
vt 0.325590 0.635492
vt 0.258134 0.635492
vt 0.258134 0.654279
vt 0.325590 0.654279
vt 0.635492 0.607101
vt 0.654279 0.607101
vt 0.258134 0.664269
vt 0.325590 0.664269
vt 0.258134 0.607101
vt 0.325590 0.607101
vt 0.478243 0.383503
vt 0.478243 0.347414
vt 0.528239 0.347414
vt 0.528239 0.383503
vt 0.521271 0.338933
vt 0.485211 0.338933
vt 0.478243 0.384739
vt 0.528239 0.384739
vt 0.528239 0.348651
vt 0.478243 0.348651
vt 0.521271 0.586315
vt 0.485211 0.586315
vt 0.478243 0.576113
vt 0.528239 0.576113
vt 0.338933 0.640047
vt 0.347414 0.648221
vt 0.348651 0.576113
vt 0.340170 0.586315
vt 0.347414 0.648221
vt 0.338933 0.640047
vt 0.340170 0.586315
vt 0.348651 0.576113
vt 0.383503 0.642434
vt 0.384739 0.570326
vt 0.383503 0.642434
vt 0.384739 0.570326
vt 0.478243 0.642434
vt 0.528239 0.642434
vt 0.528239 0.570326
vt 0.478243 0.570326
vt 0.521271 0.640047
vt 0.485211 0.640047
vt 0.635183 0.661624
vt 0.635183 0.364817
vt 0.338376 0.364817
vt 0.338376 0.661624
vt 0.635183 0.773322
vt 0.635183 0.253118
vt 0.338376 0.253118
vt 0.338376 0.773322
vt 0.635183 0.364817
vt 0.635183 0.661624
vt 0.338376 0.661624
vt 0.338376 0.364817
vt 0.635183 0.253118
vt 0.635183 0.773322
vt 0.338376 0.773322
vt 0.338376 0.253118
vt 0.635183 0.773322
vt 0.635183 0.253118
vt 0.635183 0.753717
vt 0.635183 0.272723
vt 0.363270 0.272723
vt 0.363270 0.753717
vt 0.357982 0.753717
vt 0.615578 0.753717
vt 0.338376 0.773322
vt 0.615578 0.272723
vt 0.357982 0.272723
vt 0.338376 0.253118
vt 0.357982 0.272723
vt 0.615578 0.272723
vt 0.615578 0.753717
vt 0.357982 0.753717
vt 0.635183 0.642018
vt 0.635183 0.384422
vt 0.363270 0.384422
vt 0.363270 0.642018
vt 0.635183 0.272723
vt 0.635183 0.753717
vt 0.363270 0.753717
vt 0.363270 0.272723
vt 0.635183 0.384422
vt 0.635183 0.642018
vt 0.363270 0.642018
vt 0.363270 0.384422
vn 0.0133 0.0000 0.9999
vn -0.0133 -0.0000 -0.9999
vn -0.9999 0.0000 0.0133
vn 0.9999 -0.0000 -0.0133
vn 0.0000 1.0000 0.0000
vn -0.0081 0.7938 -0.6081
vn 0.0062 0.8859 0.4639
vn 0.0000 -1.0000 0.0000
vn -0.0088 -0.7530 -0.6580
vn 0.0125 -0.3520 0.9359
vn -0.0021 0.9874 -0.1583
vn 0.0093 0.7200 0.6939
vn 0.0021 -0.9874 0.1583
vn 0.0103 -0.6393 0.7689
vn -0.7633 -0.0125 0.6459
vn 0.7803 -0.0125 0.6253
vn -0.0133 0.0171 -0.9998
vn 0.0133 -0.0230 0.9996
usemtl metal.004
s 1
f 17/1/1 18/2/1 19/3/1 20/4/1
f 21/5/2 22/6/2 23/7/2 24/8/2
f 18/9/3 24/10/3 25/11/3 26/12/3
f 20/13/4 19/14/4 23/15/4 22/16/4
f 21/17/3 17/18/3 27/19/3 28/20/3
f 18/9/3 17/18/3 21/17/3 24/10/3
f 27/21/5 29/22/5 30/23/5 28/24/5
f 20/13/4 22/16/4 30/25/4 29/26/4
f 22/27/6 21/28/6 28/24/6 30/23/6
f 17/29/7 20/30/7 29/22/7 27/21/7
f 31/31/8 26/32/8 25/33/8 32/34/8
f 23/15/4 19/14/4 31/35/4 32/36/4
f 24/37/9 23/38/9 32/34/9 25/33/9
f 19/3/10 18/2/10 26/39/10 31/40/10
f 33/41/1 34/42/1 35/43/1 36/44/1
f 37/45/2 38/46/2 39/47/2 40/48/2
f 34/49/3 40/50/3 41/51/3 42/52/3
f 36/53/4 35/54/4 39/55/4 38/56/4
f 37/57/3 33/58/3 43/59/3 44/60/3
f 34/49/3 33/58/3 37/57/3 40/50/3
f 43/61/5 45/62/5 46/63/5 44/64/5
f 36/53/4 38/56/4 46/65/4 45/66/4
f 38/67/6 37/68/6 44/64/6 46/63/6
f 33/69/7 36/70/7 45/62/7 43/61/7
f 47/71/8 42/72/8 41/73/8 48/74/8
f 39/55/4 35/54/4 47/75/4 48/76/4
f 40/77/9 39/78/9 48/74/9 41/73/9
f 35/43/10 34/42/10 42/79/10 47/80/10
f 49/81/11 50/82/11 51/83/11 52/84/11
f 53/85/12 51/83/12 50/82/12 54/86/12
f 55/87/13 56/88/13 57/89/13 58/90/13
f 59/91/14 60/92/14 58/93/14 57/94/14
f 54/95/15 50/96/15 58/97/15 60/98/15
f 51/99/16 53/100/16 59/101/16 57/102/16
f 52/103/4 51/99/4 57/102/4 56/104/4
f 50/96/3 49/105/3 55/106/3 58/97/3
f 49/107/17 52/108/17 56/109/17 55/110/17
f 53/111/18 54/112/18 60/92/18 59/91/18
usemtl wood.005
f 1/113/3 2/114/3 3/115/3 4/116/3
f 2/117/2 5/118/2 6/119/2 3/120/2
f 5/121/4 7/122/4 8/123/4 6/124/4
f 7/125/1 1/126/1 4/127/1 8/128/1
f 4/127/8 3/129/8 6/130/8 8/128/8
f 9/131/2 10/132/2 11/133/2 12/134/2
f 9/135/5 13/136/5 2/117/5 1/137/5
f 13/136/5 14/138/5 5/118/5 2/117/5
f 14/138/5 10/139/5 7/140/5 5/118/5
f 10/139/5 9/135/5 1/137/5 7/140/5
f 11/141/5 15/142/5 16/143/5 12/144/5
f 10/145/3 14/146/3 15/147/3 11/148/3
f 14/149/1 13/150/1 16/151/1 15/152/1
f 13/153/4 9/154/4 12/155/4 16/156/4
