# Blender v2.79 (sub 0) OBJ File: 'Chimney.blend'
# www.blender.org
mtllib Chimney.mtl
o Chimney2_Cube
v 5.262512 0.355818 -3.345047
v 5.262512 0.355818 3.345047
v -5.262513 0.355818 3.345047
v -5.262510 0.355818 -3.345049
v 5.262515 10.592753 -3.345046
v 5.262509 10.592753 3.345050
v -5.262514 10.592753 3.345047
v -5.262512 10.592753 -3.345047
v 6.125210 10.592753 -4.192577
v 6.125202 10.592753 4.192582
v -6.125208 10.592753 4.192578
v -6.125206 10.592753 -4.192579
v 6.125210 11.548452 -4.192577
v 6.125202 11.548452 4.192582
v -6.125208 11.548452 4.192578
v -6.125206 11.548452 -4.192579
v 4.783114 11.548452 -2.851762
v 4.783109 11.548452 2.851766
v -4.783113 11.548452 2.851763
v -4.783112 11.548452 -2.851764
v 4.783114 16.668264 -2.851762
v 4.783109 16.668264 2.851766
v -4.783113 16.668264 2.851763
v -4.783112 16.668264 -2.851764
vt 0.304510 0.438615
vt -0.296349 0.438615
vt -0.372469 0.361134
vt 0.380629 0.361134
vt 0.072573 -1.020983
vt 0.072255 -0.101571
vt -0.528604 -0.101778
vt -0.528286 -1.021190
vt -1.473890 -0.102103
vt -1.473574 -1.021516
vt 1.618718 -1.020451
vt 1.618402 -0.101038
vt 1.017542 -0.101245
vt 1.017859 -1.020658
vt 1.720711 1.628843
vt 2.473890 1.628869
vt 2.473887 1.714713
vt 1.720709 1.714686
vt -0.296349 1.383902
vt -0.372469 1.461384
vt 0.304510 1.383902
vt 0.380629 1.461383
vt -1.473890 1.114233
vt -1.473890 0.361134
vt -1.353352 0.481557
vt -1.353352 0.993809
vt -1.232815 1.628889
vt -0.132693 1.628847
vt -0.132691 1.714674
vt -1.232811 1.714713
vt 0.620371 1.628829
vt 0.620371 1.714664
vt -0.961637 0.359961
vt -1.473890 0.359962
vt -1.473890 -0.099866
vt -0.961637 -0.099866
vt -0.373641 0.361134
vt -0.494179 0.481557
vt -0.373641 1.114232
vt -0.494179 0.993809
vt -0.373641 1.627657
vt -1.232814 1.627657
vt -1.232815 1.115404
vt -0.373641 1.115404
vt 1.268961 0.359962
vt 0.409789 0.359961
vt 0.409790 -0.099866
vt 1.268962 -0.099864
vt -0.102463 0.359960
vt -0.102462 -0.099867
vn -0.3015 -0.9045 -0.3015
vn -0.3015 -0.9045 0.3015
vn -0.5773 -0.5773 0.5773
vn -0.5773 -0.5773 -0.5773
vn 0.7071 0.0000 -0.7071
vn 0.3015 -0.9045 -0.3015
vn 0.3015 -0.9045 0.3015
vn 0.7071 0.0000 0.7071
vn -0.7071 0.0000 0.7071
vn -0.7071 0.0000 -0.7071
vn -0.5773 0.5773 0.5773
vn -0.5773 0.5773 -0.5773
vn 0.5773 -0.5773 0.5773
vn 0.5773 -0.5773 -0.5773
vn -0.3015 0.9045 0.3015
vn -0.3015 0.9045 -0.3015
vn 0.5773 0.5773 0.5773
vn 0.5773 0.5773 -0.5773
vn 0.3015 0.9045 0.3015
vn 0.3015 0.9045 -0.3015
usemtl Brick
s 1
f 8/1/1 7/2/2 11/3/3 12/4/4
f 1/5/5 5/6/6 6/7/7 2/8/8
f 2/8/8 6/7/7 7/9/2 3/10/9
f 3/11/9 7/12/2 8/13/1 4/14/10
f 5/6/6 1/5/5 4/14/10 8/13/1
f 12/15/4 11/16/3 15/17/11 16/18/12
f 7/2/2 6/19/7 10/20/13 11/3/3
f 5/21/6 8/1/1 12/4/4 9/22/14
f 6/19/7 5/21/6 9/22/14 10/20/13
f 16/23/12 15/24/11 19/25/15 20/26/16
f 11/27/3 10/28/13 14/29/17 15/30/11
f 9/31/14 12/15/4 16/18/12 13/32/18
f 10/28/13 9/31/14 13/32/18 14/29/17
f 20/33/16 19/34/15 23/35/11 24/36/12
f 15/24/11 14/37/17 18/38/19 19/25/15
f 13/39/18 16/23/12 20/26/16 17/40/20
f 14/37/17 13/39/18 17/40/20 18/38/19
f 21/41/18 24/42/12 23/43/11 22/44/17
f 19/45/15 18/46/19 22/47/17 23/48/11
f 17/49/20 20/33/16 24/36/12 21/50/18
f 18/46/19 17/49/20 21/50/18 22/47/17
