# Blender v2.79 (sub 0) OBJ File: 'Perekr.blend'
# www.blender.org
mtllib Perekr.mtl
o perekr_Untitled.020
v -0.500000 4.501029 -9.826552
v 0.500000 4.501029 -9.826552
v -0.500000 5.501029 -9.826552
v 0.500000 5.501029 -9.826552
v -0.500000 4.501028 0.173448
v 0.500000 4.501028 0.173448
v -0.500000 5.501028 0.173448
v 0.500000 5.501028 0.173448
v -0.500000 4.501024 0.173448
v 0.500000 4.501024 0.173448
v -0.500000 5.501024 0.173448
v 0.500000 5.501024 0.173448
v -0.500000 4.501023 10.173447
v 0.500000 4.501023 10.173447
v -0.500000 5.501023 10.173447
v 0.500000 5.501023 10.173447
v -0.483417 1.044880 10.169659
v 0.479434 1.044880 10.169661
v -0.481425 2.094067 10.169073
v 0.481425 2.094067 10.169073
v -0.483416 4.465085 0.772738
v 0.479435 4.465085 0.772738
v -0.483416 5.404777 1.114758
v 0.479435 5.404777 1.114758
v -0.483417 1.044883 -9.827140
v 0.479434 1.044883 -9.827140
v -0.481425 2.094070 -9.826553
v 0.481425 2.094070 -9.826553
v -0.483417 4.465083 -0.430214
v 0.479434 4.465083 -0.430214
v -0.483417 5.404776 -0.772233
v 0.479434 5.404776 -0.772233
vt 0.694308 0.802118
vt 0.694308 0.975014
vt 0.522696 0.975014
vt 0.522696 0.802118
vt 0.522696 0.802118
vt 0.694308 0.802118
vt 0.694308 0.975014
vt 0.522696 0.975014
vt 0.737132 0.021832
vt 0.861828 0.021832
vt 0.861828 0.977143
vt 0.737132 0.977144
vt 0.737164 0.021832
vt 0.861859 0.021832
vt 0.861860 0.977143
vt 0.737164 0.977144
vt 0.737132 0.021784
vt 0.861827 0.021784
vt 0.861827 0.977096
vt 0.737132 0.977096
vt 0.736914 0.021888
vt 0.861609 0.021888
vt 0.861609 0.977199
vt 0.736914 0.977199
vt 0.694308 0.802118
vt 0.694308 0.975014
vt 0.522696 0.975014
vt 0.522696 0.802118
vt 0.522696 0.802118
vt 0.694308 0.802118
vt 0.694308 0.975014
vt 0.522696 0.975014
vt 0.737132 0.021832
vt 0.861828 0.021832
vt 0.861828 0.977143
vt 0.737132 0.977144
vt 0.737164 0.021832
vt 0.861859 0.021832
vt 0.861860 0.977143
vt 0.737164 0.977144
vt 0.737132 0.021784
vt 0.861827 0.021784
vt 0.861827 0.977096
vt 0.737132 0.977096
vt 0.736914 0.021888
vt 0.861609 0.021888
vt 0.861609 0.977199
vt 0.736914 0.977199
vt 0.694308 0.802118
vt 0.522696 0.975014
vt 0.694308 0.975014
vt 0.522696 0.802118
vt 0.522696 0.802118
vt 0.694308 0.975014
vt 0.694308 0.802118
vt 0.522696 0.975014
vt 0.737132 0.021832
vt 0.861828 0.977143
vt 0.861828 0.021832
vt 0.737132 0.977144
vt 0.737164 0.021832
vt 0.861860 0.977143
vt 0.861859 0.021832
vt 0.737164 0.977144
vt 0.737132 0.021784
vt 0.861827 0.977096
vt 0.861827 0.021784
vt 0.737132 0.977096
vt 0.736914 0.021888
vt 0.861609 0.977199
vt 0.861609 0.021888
vt 0.736914 0.977199
vt 0.694308 0.802118
vt 0.694308 0.975014
vt 0.522696 0.975014
vt 0.522696 0.802118
vt 0.522696 0.802118
vt 0.694308 0.802118
vt 0.694308 0.975014
vt 0.522696 0.975014
vt 0.737132 0.021832
vt 0.861828 0.021832
vt 0.861828 0.977143
vt 0.737132 0.977144
vt 0.737164 0.021832
vt 0.861859 0.021832
vt 0.861860 0.977143
vt 0.737164 0.977144
vt 0.737132 0.021784
vt 0.861827 0.021784
vt 0.861827 0.977096
vt 0.737132 0.977096
vt 0.736914 0.021888
vt 0.861609 0.021888
vt 0.861609 0.977199
vt 0.736914 0.977199
vn 0.0000 0.0000 -1.0000
vn 0.0000 -0.0000 1.0000
vn 0.0000 -1.0000 -0.0000
vn 1.0000 0.0000 0.0000
vn 0.0000 1.0000 0.0000
vn -1.0000 0.0000 0.0000
vn -0.0000 0.0006 1.0000
vn 0.0000 0.3420 -0.9397
vn 0.0000 -0.9397 -0.3420
vn 1.0000 -0.0017 -0.0008
vn 1.0000 -0.0001 -0.0001
vn 1.0000 -0.0019 -0.0009
vn 0.0000 0.9392 0.3434
vn -1.0000 0.0018 0.0007
vn -1.0000 0.0001 0.0002
vn -1.0000 0.0019 0.0007
vn -1.0000 -0.0001 0.0002
vn -0.0000 0.0006 -1.0000
vn 0.0000 0.3420 0.9397
vn 0.0000 -0.9397 0.3420
vn 1.0000 -0.0017 0.0008
vn 1.0000 -0.0019 0.0009
vn 1.0000 -0.0001 0.0001
vn 0.0000 0.9392 -0.3434
vn -1.0000 0.0018 -0.0007
vn -1.0000 0.0019 -0.0007
vn -1.0000 0.0001 -0.0002
vn -1.0000 -0.0001 -0.0002
usemtl Material_#25.003
s 1
f 1/1/1 3/2/1 4/3/1
f 4/3/1 2/4/1 1/1/1
f 5/5/2 6/6/2 8/7/2
f 8/7/2 7/8/2 5/5/2
f 1/9/3 2/10/3 6/11/3
f 6/11/3 5/12/3 1/9/3
f 2/13/4 4/14/4 8/15/4
f 8/15/4 6/16/4 2/13/4
f 4/17/5 3/18/5 7/19/5
f 7/19/5 8/20/5 4/17/5
f 3/21/6 1/22/6 5/23/6
f 5/23/6 7/24/6 3/21/6
f 9/25/1 11/26/1 12/27/1
f 12/27/1 10/28/1 9/25/1
f 13/29/2 14/30/2 16/31/2
f 16/31/2 15/32/2 13/29/2
f 9/33/3 10/34/3 14/35/3
f 14/35/3 13/36/3 9/33/3
f 10/37/4 12/38/4 16/39/4
f 16/39/4 14/40/4 10/37/4
f 12/41/5 11/42/5 15/43/5
f 15/43/5 16/44/5 12/41/5
f 11/45/6 9/46/6 13/47/6
f 13/47/6 15/48/6 11/45/6
f 17/49/7 20/50/7 19/51/7
f 20/50/7 17/49/7 18/52/7
f 21/53/8 24/54/8 22/55/8
f 24/54/8 21/53/8 23/56/8
f 17/57/9 22/58/9 18/59/9
f 22/58/9 17/57/9 21/60/9
f 18/61/10 24/62/11 20/63/12
f 24/62/11 18/61/10 22/64/4
f 20/65/13 23/66/13 19/67/13
f 23/66/13 20/65/13 24/68/13
f 19/69/14 21/70/15 17/71/16
f 21/70/15 19/69/14 23/72/17
f 25/73/18 27/74/18 28/75/18
f 28/75/18 26/76/18 25/73/18
f 29/77/19 30/78/19 32/79/19
f 32/79/19 31/80/19 29/77/19
f 25/81/20 26/82/20 30/83/20
f 30/83/20 29/84/20 25/81/20
f 26/85/21 28/86/22 32/87/23
f 32/87/23 30/88/4 26/85/21
f 28/89/24 27/90/24 31/91/24
f 31/91/24 32/92/24 28/89/24
f 27/93/25 25/94/26 29/95/27
f 29/95/27 31/96/28 27/93/25
