# Blender v2.79 (sub 0) OBJ File: 'RoofFrame3.blend'
# www.blender.org
mtllib RoofFrame3.mtl
o BuildingExtension2RoofFrame_Circle.002
v 0.258186 22.742176 -6.502390
v -4.601830 22.742176 -4.489305
v -6.614914 22.742176 0.370713
v -4.601830 22.742176 5.230730
v 0.258186 22.742176 7.243815
v 5.118202 22.742176 5.230729
v 7.131286 22.742176 0.370712
v 5.118202 22.742176 -4.489305
v 0.258186 22.742176 -6.030611
v -4.268231 22.742176 -4.155706
v -6.143135 22.742176 0.370713
v -4.268231 22.742176 4.897131
v 0.258186 22.742176 6.772036
v 4.784604 22.742176 4.897130
v 6.659506 22.742176 0.370712
v 4.784604 22.742176 -4.155706
v 0.258186 23.861767 -5.211112
v -3.688759 23.861767 -3.576234
v -5.323637 23.861767 0.370713
v -3.688759 23.861767 4.317658
v 0.258186 23.861767 5.952537
v 4.205132 23.861767 4.317658
v 5.840009 23.861767 0.370712
v 4.205132 23.861767 -3.576233
v 0.258186 3.626680 -5.851125
v -4.141315 3.626680 -4.028790
v -5.963649 3.626680 0.370713
v -4.141315 3.626680 4.770215
v 0.258186 3.626680 6.592549
v 4.657688 3.626680 4.770215
v 6.480020 3.626680 0.370712
v 4.657688 3.626680 -4.028790
v 0.258186 3.067012 -5.851125
v -4.141315 3.067012 -4.028790
v -5.963649 3.067012 0.370713
v -4.141315 3.067012 4.770215
v 0.258186 3.067012 6.592549
v 4.657688 3.067012 4.770215
v 6.480020 3.067012 0.370712
v 4.657688 3.067012 -4.028790
v 0.258186 22.742176 -6.502390
v -4.601830 22.742176 -4.489305
v -6.614914 22.742176 0.370713
v -4.601830 22.742176 5.230730
v 0.258186 22.742176 7.243815
v 5.118202 22.742176 5.230729
v 7.131286 22.742176 0.370712
v 5.118202 22.742176 -4.489305
v 0.258186 34.037914 0.016631
v 0.007813 34.037914 0.120339
v -0.095895 34.037914 0.370712
v 0.007813 34.037914 0.621086
v 0.258186 34.037914 0.724794
v 0.508560 34.037914 0.621086
v 0.612268 34.037914 0.370712
v 0.508560 34.037914 0.120339
v 0.258186 3.454474 -5.576537
v -3.947152 3.454474 -3.834628
v -5.689061 3.454474 0.370713
v -3.947152 3.454474 4.576052
v 0.258186 3.454474 6.317961
v 4.463525 3.454474 4.576052
v 6.205432 3.454474 0.370712
v 4.463525 3.454474 -3.834627
v 0.258186 23.969746 -5.576537
v -3.947152 23.969746 -3.834628
v -5.689061 23.969746 0.370713
v -3.947152 23.969746 4.576052
v 0.258186 23.969746 6.317961
v 4.463525 23.969746 4.576052
v 6.205432 23.969746 0.370712
v 4.463525 23.969746 -3.834627
v 0.258186 3.454474 -4.585467
v -3.246360 3.454474 -3.133835
v -4.697991 3.454474 0.370713
v -3.246360 3.454474 3.875260
v 0.258186 3.454474 5.326891
v 3.762733 3.454474 3.875259
v 5.214363 3.454474 0.370712
v 3.762733 3.454474 -3.133835
v 0.258186 2.829447 -4.585467
v -3.246360 2.829447 -3.133835
v -4.697991 2.829447 0.370713
v -3.246360 2.829447 3.875260
v 0.258186 2.829447 5.326891
v 3.762733 2.829447 3.875259
v 5.214363 2.829447 0.370712
v 3.762733 2.829447 -3.133835
v 0.258186 2.829447 -3.919242
v -2.775269 2.829447 -2.662744
v -4.031767 2.829447 0.370712
v -2.775269 2.829447 3.404168
v 0.258186 2.829447 4.660667
v 3.291641 2.829447 3.404168
v 4.548139 2.829447 0.370712
v 3.291641 2.829447 -2.662743
v 0.258186 1.951031 -3.919242
v -2.775269 1.951031 -2.662744
v -4.031767 1.951031 0.370712
v -2.775269 1.951031 3.404168
v 0.258186 1.951031 4.660667
v 3.291641 1.951031 3.404168
v 4.548139 1.951031 0.370712
v 3.291641 1.951031 -2.662743
v 0.258186 0.297541 -1.135235
v -0.806679 0.297541 -0.694153
v -1.247761 0.297541 0.370712
v -0.806679 0.297541 1.435578
v 0.258186 0.297541 1.876660
v 1.323051 0.297541 1.435578
v 1.764133 0.297541 0.370712
v 1.323051 0.297541 -0.694153
vt 0.659189 0.593026
vt 0.659189 0.257778
vt 0.685605 0.269284
vt 0.685605 0.581520
vt 0.356373 0.257778
vt 0.356373 0.593026
vt 0.329957 0.581520
vt 0.329957 0.269284
vt 0.749651 0.190505
vt 0.749651 0.525753
vt 0.723235 0.514247
vt 0.723235 0.202011
vt 0.658792 0.257778
vt 0.658793 0.593026
vt 0.632377 0.581520
vt 0.632376 0.269284
vt 0.630109 0.257777
vt 0.630109 0.593026
vt 0.603693 0.581520
vt 0.603693 0.269283
vt 0.712814 0.905679
vt 0.712814 0.570432
vt 0.739230 0.581937
vt 0.739230 0.894173
vt 0.273003 0.593026
vt 0.273002 0.257778
vt 0.299418 0.269284
vt 0.299419 0.581520
vt 0.356769 0.593026
vt 0.356769 0.257778
vt 0.383185 0.269284
vt 0.383185 0.581520
vt 0.548198 0.905679
vt 0.548198 0.593443
vt 0.630109 0.613429
vt 0.630110 0.885693
vt 0.318607 0.631625
vt 0.318608 0.943861
vt 0.236696 0.923875
vt 0.236696 0.651611
vt 0.242366 0.266244
vt 0.242366 0.578480
vt 0.160454 0.558494
vt 0.160454 0.286230
vt 0.712417 0.593443
vt 0.712418 0.905679
vt 0.630506 0.885693
vt 0.630506 0.613429
vt 0.547801 0.593443
vt 0.547802 0.905679
vt 0.465890 0.885693
vt 0.465890 0.613429
vt 0.394220 0.982043
vt 0.394220 0.669806
vt 0.476131 0.689793
vt 0.476132 0.962056
vt 0.317231 0.945679
vt 0.317231 0.633443
vt 0.399143 0.653429
vt 0.399143 0.925693
vt 0.159707 0.923861
vt 0.159707 0.611624
vt 0.241618 0.631611
vt 0.241619 0.903875
vt -0.072187 0.619549
vt -0.072187 0.453810
vt 0.638179 0.453809
vt 0.638179 0.619548
vt -0.072186 0.785287
vt 0.638179 0.785287
vt -0.072186 0.951026
vt 0.638180 0.951025
vt -0.072186 1.116765
vt 0.638180 1.116764
vt -0.072188 -0.043406
vt -0.072188 -0.209145
vt 0.638179 -0.209145
vt 0.638179 -0.043407
vt -0.072187 0.122333
vt 0.638179 0.122332
vt -0.072187 0.288072
vt 0.638179 0.288071
vt 0.638651 0.999569
vt 0.638650 0.833830
vt 0.670355 0.847640
vt 0.670355 0.985759
vt 0.750099 0.716635
vt 0.763232 0.749975
vt 0.907712 0.716635
vt 0.894579 0.749975
vt 1.019161 0.833830
vt 0.987456 0.847640
vt 1.019161 0.999569
vt 0.987456 0.985759
vt 0.907712 1.116764
vt 0.894579 1.083424
vt 0.750099 1.116764
vt 0.763232 1.083424
vt 1.050527 0.564294
vt 1.050532 0.426178
vt 1.072173 0.426179
vt 1.072168 0.564294
vt 1.050538 0.288059
vt 1.072181 0.288060
vt 1.050541 0.149935
vt 1.072185 0.149935
vt 1.050543 0.011808
vt 1.072187 0.011808
vt 1.050545 1.116764
vt 1.050537 0.978643
vt 1.072179 0.978641
vt 1.072188 1.116762
vt 1.050530 0.840521
vt 1.072172 0.840520
vt 1.050526 0.702407
vt 1.072167 0.702407
vt 0.638650 0.480356
vt 0.731527 0.382690
vt 0.740355 0.405102
vt 0.659963 0.489639
vt 0.862875 0.382690
vt 0.854046 0.405102
vt 0.955751 0.480356
vt 0.934438 0.489639
vt 0.955751 0.618475
vt 0.934438 0.609192
vt 0.862874 0.716140
vt 0.854046 0.693728
vt 0.731527 0.716140
vt 0.740355 0.693729
vt 0.638650 0.618475
vt 0.659963 0.609192
vt 1.019631 0.638553
vt 1.019633 0.518998
vt 1.050049 0.518998
vt 1.050048 0.638554
vt 1.019635 0.399444
vt 1.050051 0.399444
vt 1.019637 0.279891
vt 1.050053 0.279892
vt 1.019639 0.160339
vt 1.050055 0.160340
vt 1.019640 1.116764
vt 1.019637 0.997214
vt 1.050053 0.997213
vt 1.050056 1.116763
vt 1.019634 0.877663
vt 1.050050 0.877663
vt 1.019632 0.758109
vt 1.050048 0.758109
vt 0.638650 0.290842
vt 0.638882 0.161674
vt 0.742144 0.204958
vt 0.740416 0.244540
vt 0.725574 0.070520
vt 0.769863 0.177672
vt 0.848025 0.070412
vt 0.807583 0.178862
vt 0.934960 0.161579
vt 0.833135 0.207890
vt 0.934960 0.290872
vt 0.831547 0.247603
vt 0.848116 0.382195
vt 0.803832 0.274873
vt 0.725342 0.382193
vt 0.766025 0.273567
vt 0.638650 0.040241
vt 0.638650 -0.001727
vt 0.666870 -0.031402
vt 0.706781 -0.031402
vt 0.735002 -0.001727
vt 0.735002 0.040241
vt 0.706781 0.069917
vt 0.666871 0.069917
vt 0.103159 0.018270
vt 0.280241 -0.158812
vt 0.530673 -0.158812
vt 0.707755 0.018270
vt 0.707755 0.268702
vt 0.530673 0.445784
vt 0.280241 0.445784
vt 0.103159 0.268702
vt -0.324645 0.445784
vt -0.501727 0.268702
vt -0.501727 0.018270
vt -0.324645 -0.158812
vt -0.074213 -0.158812
vt 0.102869 0.018270
vt 0.102869 0.268702
vt -0.074213 0.445784
vt 0.485659 0.204127
vt 0.485652 -0.052718
vt 0.514358 -0.052719
vt 0.514365 0.204126
vt 0.485664 0.460952
vt 0.514367 0.460951
vt 0.485668 0.717745
vt 0.514368 0.717744
vt 0.485670 0.974518
vt 0.514367 0.974518
vt 0.485671 1.231279
vt 0.514367 1.231279
vt 0.485671 1.488033
vt 0.514368 1.488033
vt 0.485642 -0.309569
vt 0.485632 -0.566417
vt 0.514338 -0.566418
vt 0.514349 -0.309570
vt 0.411807 0.000259
vt 0.617063 0.000259
vt 0.519719 0.499741
vt 0.509148 0.499741
vt 0.206033 0.000259
vt 0.411289 0.000259
vt 0.313946 0.499741
vt 0.303374 0.499741
vt 0.000259 0.500260
vt 0.205514 0.500260
vt 0.108172 0.999741
vt 0.097599 0.999741
vt 0.206033 0.500260
vt 0.411289 0.500260
vt 0.313945 0.999743
vt 0.303374 0.999743
vt 0.617580 0.000259
vt 0.822836 0.000259
vt 0.725493 0.499741
vt 0.714921 0.499741
vt 0.617580 0.500259
vt 0.822836 0.500259
vt 0.725493 0.999741
vt 0.714921 0.999741
vt 0.411807 0.500259
vt 0.617062 0.500259
vt 0.519720 0.999740
vt 0.509147 0.999740
vt 0.000259 0.000259
vt 0.205516 0.000259
vt 0.108170 0.499743
vt 0.097600 0.499743
vt 0.830831 0.025787
vt 0.823354 0.018310
vt 0.823354 0.007736
vt 0.830831 0.000259
vt 0.841405 0.000259
vt 0.848882 0.007736
vt 0.848882 0.018310
vt 0.841405 0.025787
vn 0.0000 -1.0000 0.0000
vn -0.2503 -0.9353 0.2503
vn 0.0000 -0.9353 0.3539
vn -0.3539 -0.9353 0.0000
vn -0.2503 -0.9353 -0.2503
vn 0.0000 -0.9353 -0.3539
vn 0.2503 -0.9353 -0.2503
vn 0.3539 -0.9353 0.0000
vn 0.2503 -0.9353 0.2503
vn -0.5706 -0.5906 0.5706
vn 0.0000 -0.5906 0.8069
vn -0.8069 -0.5906 0.0000
vn -0.5706 -0.5906 -0.5706
vn 0.0000 -0.5906 -0.8069
vn 0.5706 -0.5906 -0.5706
vn 0.8069 -0.5906 0.0000
vn 0.5706 -0.5906 0.5706
vn 0.5490 -0.6302 -0.5490
vn 0.0000 -0.6302 -0.7764
vn 0.0000 0.0000 -1.0000
vn 0.7071 0.0000 -0.7071
vn 0.7764 -0.6302 0.0000
vn 1.0000 0.0000 0.0000
vn 0.5490 -0.6302 0.5490
vn 0.7071 0.0000 0.7071
vn 0.0000 -0.6302 0.7764
vn 0.0000 0.0000 1.0000
vn -0.5490 -0.6302 0.5490
vn -0.7071 0.0000 0.7071
vn -0.7764 -0.6302 0.0000
vn -1.0000 0.0000 0.0000
vn -0.5490 -0.6302 -0.5490
vn -0.7071 0.0000 -0.7071
vn 0.4203 -0.8042 -0.4203
vn 0.0000 -0.8042 -0.5943
vn 0.5943 -0.8042 0.0000
vn 0.4203 -0.8042 0.4203
vn 0.0000 -0.8042 0.5943
vn -0.4203 -0.8042 0.4203
vn -0.5943 -0.8042 0.0000
vn -0.4203 -0.8042 -0.4203
vn 0.6318 -0.4490 -0.6318
vn 0.0000 -0.4490 -0.8936
vn 0.8936 -0.4490 0.0000
vn 0.6318 -0.4490 0.6318
vn 0.0000 -0.4490 0.8936
vn -0.6318 -0.4490 0.6318
vn -0.8936 -0.4490 0.0000
vn -0.6318 -0.4490 -0.6318
vn 0.2290 -0.9461 -0.2290
vn 0.0000 -0.9461 -0.3239
vn 0.3239 -0.9461 0.0000
vn 0.2290 -0.9461 0.2290
vn 0.0000 -0.9461 0.3239
vn -0.2290 -0.9461 0.2290
vn -0.3239 -0.9461 0.0000
vn -0.2290 -0.9461 -0.2290
vn 0.5490 0.6302 0.5490
vn 0.7764 0.6302 0.0000
vn 0.5490 0.6302 -0.5490
vn 0.0000 0.6302 -0.7764
vn -0.5490 0.6302 -0.5490
vn -0.7764 0.6302 0.0000
vn -0.5490 0.6302 0.5490
vn 0.0000 0.6302 0.7764
vn 0.6124 0.4998 -0.6124
vn 0.0000 0.4998 -0.8661
vn 0.0000 0.8131 -0.5821
vn 0.4116 0.8131 -0.4116
vn 0.8661 0.4998 0.0000
vn 0.5821 0.8131 0.0000
vn 0.6124 0.4998 0.6124
vn 0.4116 0.8131 0.4116
vn 0.0000 0.4998 0.8661
vn 0.0000 0.8131 0.5821
vn -0.6124 0.4998 0.6124
vn -0.4116 0.8131 0.4116
vn -0.8661 0.4998 0.0000
vn -0.5821 0.8131 0.0000
vn -0.6124 0.4998 -0.6124
vn -0.4116 0.8131 -0.4116
usemtl Wood
s 1
f 1/1/1 8/2/1 16/3/2 9/4/3
f 8/5/1 7/6/1 15/7/4 16/8/2
f 7/9/1 6/10/1 14/11/5 15/12/4
f 6/13/1 5/14/1 13/15/6 14/16/5
f 5/17/1 4/18/1 12/19/7 13/20/6
f 4/21/1 3/22/1 11/23/8 12/24/7
f 3/25/1 2/26/1 10/27/9 11/28/8
f 2/29/1 1/30/1 9/31/3 10/32/9
f 9/33/3 16/34/2 24/35/10 17/36/11
f 16/37/2 15/38/4 23/39/12 24/40/10
f 15/41/4 14/42/5 22/43/13 23/44/12
f 14/45/5 13/46/6 21/47/14 22/48/13
f 13/49/6 12/50/7 20/51/15 21/52/14
f 12/53/7 11/54/8 19/55/16 20/56/15
f 11/57/8 10/58/9 18/59/17 19/60/16
f 10/61/9 9/62/3 17/63/11 18/64/17
usemtl Plaster
f 64/65/18 57/66/19 65/67/20 72/68/21
f 63/69/22 64/65/18 72/68/21 71/70/23
f 62/71/24 63/69/22 71/70/23 70/72/25
f 61/73/26 62/71/24 70/72/25 69/74/27
f 60/75/28 61/76/26 69/77/27 68/78/29
f 59/79/30 60/75/28 68/78/29 67/80/31
f 58/81/32 59/79/30 67/80/31 66/82/33
f 57/66/19 58/81/32 66/82/33 65/67/20
f 57/83/19 64/84/18 80/85/34 73/86/35
f 64/84/18 63/87/22 79/88/36 80/85/34
f 63/87/22 62/89/24 78/90/37 79/88/36
f 62/89/24 61/91/26 77/92/38 78/90/37
f 61/91/26 60/93/28 76/94/39 77/92/38
f 60/93/28 59/95/30 75/96/40 76/94/39
f 59/95/30 58/97/32 74/98/41 75/96/40
f 58/97/32 57/83/19 73/86/35 74/98/41
f 73/99/35 80/100/34 88/101/18 81/102/19
f 80/100/34 79/103/36 87/104/22 88/101/18
f 79/103/36 78/105/37 86/106/24 87/104/22
f 78/105/37 77/107/38 85/108/26 86/106/24
f 77/109/38 76/110/39 84/111/28 85/112/26
f 76/110/39 75/113/40 83/114/30 84/111/28
f 75/113/40 74/115/41 82/116/32 83/114/30
f 74/115/41 73/99/35 81/102/19 82/116/32
f 81/117/19 88/118/18 96/119/34 89/120/35
f 88/118/18 87/121/22 95/122/36 96/119/34
f 87/121/22 86/123/24 94/124/37 95/122/36
f 86/123/24 85/125/26 93/126/38 94/124/37
f 85/125/26 84/127/28 92/128/39 93/126/38
f 84/127/28 83/129/30 91/130/40 92/128/39
f 83/129/30 82/131/32 90/132/41 91/130/40
f 82/131/32 81/117/19 89/120/35 90/132/41
f 89/133/35 96/134/34 104/135/42 97/136/43
f 96/134/34 95/137/36 103/138/44 104/135/42
f 95/137/36 94/139/37 102/140/45 103/138/44
f 94/139/37 93/141/38 101/142/46 102/140/45
f 93/143/38 92/144/39 100/145/47 101/146/46
f 92/144/39 91/147/40 99/148/48 100/145/47
f 91/147/40 90/149/41 98/150/49 99/148/48
f 90/149/41 89/133/35 97/136/43 98/150/49
f 97/151/43 104/152/42 112/153/50 105/154/51
f 104/152/42 103/155/44 111/156/52 112/153/50
f 103/155/44 102/157/45 110/158/53 111/156/52
f 102/157/45 101/159/46 109/160/54 110/158/53
f 101/159/46 100/161/47 108/162/55 109/160/54
f 100/161/47 99/163/48 107/164/56 108/162/55
f 99/163/48 98/165/49 106/166/57 107/164/56
f 98/165/49 97/151/43 105/154/51 106/166/57
f 106/167/57 105/168/51 112/169/50 111/170/52 110/171/53 109/172/54 108/173/55 107/174/56
usemtl Plaster_Wood.jpg
f 26/175/24 25/176/26 32/177/28 31/178/30 30/179/32 29/180/19 28/181/18 27/182/22
f 34/183/58 35/184/59 36/185/60 37/186/61 38/187/62 39/188/63 40/189/64 33/190/65
f 32/191/28 25/192/26 33/193/65 40/194/64
f 31/195/30 32/191/28 40/194/64 39/196/63
f 30/197/32 31/195/30 39/196/63 38/198/62
f 29/199/19 30/197/32 38/198/62 37/200/61
f 28/201/18 29/199/19 37/200/61 36/202/60
f 27/203/22 28/201/18 36/202/60 35/204/59
f 26/205/24 27/206/22 35/207/59 34/208/58
f 25/192/26 26/205/24 34/208/58 33/193/65
usemtl RoofTiles
f 48/209/66 41/210/67 49/211/68 56/212/69
f 47/213/70 48/214/66 56/215/69 55/216/71
f 46/217/72 47/218/70 55/219/71 54/220/73
f 45/221/74 46/222/72 54/223/73 53/224/75
f 44/225/76 45/226/74 53/227/75 52/228/77
f 43/229/78 44/230/76 52/231/77 51/232/79
f 42/233/80 43/234/78 51/235/79 50/236/81
f 41/237/67 42/238/80 50/239/81 49/240/68
f 50/241/81 51/242/79 52/243/77 53/244/75 54/245/73 55/246/71 56/247/69 49/248/68
