# Blender v2.79 (sub 0) OBJ File: 'Wall_Dirt_darkE.blend'
# www.blender.org
mtllib Wall_Dirt_darkE.mtl
o Cube_Cube.001
v -100.000000 -0.134152 1.000000
v -100.000000 199.865845 1.000000
v -100.000000 -0.134152 -1.000000
v -100.000000 199.865845 -1.000000
v 100.000000 -0.134152 1.000000
v 100.000000 199.865845 1.000000
v 100.000000 -0.134152 -1.000000
v 100.000000 199.865845 -1.000000
vt -1.452740 0.884979
vt -3.869838 -0.626696
vt -1.452740 0.089224
vt -1.953125 1.953125
vt 1.953125 -1.953125
vt -1.953125 -1.953125
vt 2.940487 1.917105
vt 4.720345 -0.854354
vt 2.905588 -0.897978
vt 1.953125 1.953125
vt -1.953125 -1.953125
vt 1.953125 -1.953125
vt 2.567923 -0.060127
vt -1.512268 0.227590
vt -1.452740 -0.015481
vt -2.118015 0.976152
vt 2.242333 0.989685
vt 5.732423 0.713083
vt -0.814905 0.883995
vt 1.953125 1.953125
vt 5.837120 1.925830
vt -1.953125 1.953125
vt 6.358410 -0.420436
vt -1.214651 0.702185
vt -1.127151 0.989685
vn -1.0000 0.0000 0.0000
vn 0.0000 0.0000 -1.0000
vn 1.0000 0.0000 0.0000
vn 0.0000 0.0000 1.0000
vn 0.0000 -1.0000 0.0000
vn 0.0000 1.0000 0.0000
usemtl Material
s off
f 2/1/1 3/2/1 1/3/1
f 4/4/2 7/5/2 3/6/2
f 8/7/3 5/8/3 7/9/3
f 6/10/4 1/11/4 5/12/4
f 7/13/5 1/14/5 3/15/5
f 4/16/6 6/17/6 8/18/6
f 2/1/1 4/19/1 3/2/1
f 4/4/2 8/20/2 7/5/2
f 8/7/3 6/21/3 5/8/3
f 6/10/4 2/22/4 1/11/4
f 7/13/5 5/23/5 1/14/5
f 4/24/6 2/25/6 6/17/6
