# Blender v2.79 (sub 0) OBJ File: 'Wooden3.blend'
# www.blender.org
mtllib Wooden3.mtl
o Wooden_07.001_Cube.049
v 0.233337 11.773994 0.318156
v -0.188141 11.773994 0.346805
v -0.188141 -0.000000 0.346803
v 0.233337 -0.000000 0.318154
v -0.233337 11.773994 -0.318155
v -0.233337 0.000000 -0.318157
v 0.188141 11.773994 -0.346801
v 0.188141 0.000000 -0.346803
v 0.188141 12.434193 -0.346801
v 0.233337 12.434193 0.318156
v -0.233337 12.434193 -0.318155
v -0.188141 12.434193 0.346805
v 0.030039 11.773993 3.824267
v 0.030039 12.434192 3.824267
v 0.451520 11.773993 3.795621
v 0.451520 12.434192 3.795621
v -0.010530 12.370203 2.531441
v 0.018158 11.941030 2.953514
v 0.381652 11.941030 2.928808
v 0.352965 12.370203 2.506733
v -0.200732 9.638062 -0.266953
v 0.162763 9.638062 -0.291658
v 0.191450 9.208887 0.130418
v -0.172045 9.208887 0.155123
v -0.038663 10.970345 3.473675
v 0.355892 10.970345 3.543246
v 0.425462 10.970345 3.148691
v 0.030908 10.970345 3.079121
v 0.346889 10.719926 3.648564
v -0.066222 10.719926 3.575722
v -0.046655 10.696970 3.555782
v 0.335320 10.696970 3.623135
v -0.143476 10.813475 3.547066
v 0.429283 10.813475 3.648059
v 0.530276 10.813475 3.075300
v -0.042483 10.813475 2.974307
v 0.531504 10.017220 3.794042
v -0.289459 10.017220 3.649284
v -0.182338 9.881063 3.574277
v 0.456494 9.881063 3.686921
v -0.177905 10.110766 3.653921
v 0.425089 10.110766 3.760245
v 0.407628 10.133726 3.726399
v -0.149919 10.133726 3.628088
v -0.143989 10.718156 3.463109
v -0.071680 10.718156 3.053023
v -0.051700 10.695332 3.072481
v -0.118559 10.695332 3.451658
v -0.069695 9.881064 2.935445
v 0.569137 9.881064 3.048089
v 0.676262 10.017221 2.973079
v -0.144701 10.017221 2.828321
v 0.453024 10.719927 3.046645
v 0.039913 10.719927 2.973802
v -0.038289 10.110767 2.862118
v 0.564706 10.110767 2.968442
v 0.458483 10.718156 3.569341
v 0.530792 10.718156 3.159255
v -0.255024 10.112540 3.540856
v -0.149428 10.112541 2.941991
v 0.641823 10.112541 3.081510
v 0.536227 10.112540 3.680374
v -0.123588 10.135364 2.969818
v -0.221225 10.135364 3.523545
v 0.608025 10.135364 3.098821
v 0.510388 10.135364 3.652548
v 0.536722 10.133727 2.994275
v 0.433454 10.696970 3.066584
v 0.438503 10.695332 3.549883
v 0.505362 10.695332 3.170706
v -0.020826 10.133727 2.895967
v 0.051480 10.696970 2.999231
v 0.077536 12.031829 3.392312
v 0.112271 12.031829 3.195320
v 0.112271 10.869548 3.195319
v 0.077536 10.869548 3.392312
v 0.309263 12.031829 3.230055
v 0.309263 10.869548 3.230054
v 0.274528 12.031829 3.427047
v 0.274528 10.869548 3.427047
vt 0.623472 0.239984
vt 0.627895 0.114956
vt 0.884072 0.057599
vt 0.877616 0.240096
vt 0.628621 0.421269
vt 0.624231 0.297572
vt 0.876896 0.297682
vt 0.883308 0.478323
vt 0.123472 0.239984
vt 0.127895 0.114956
vt 0.384072 0.057599
vt 0.377616 0.240096
vt 0.128621 0.421269
vt 0.124231 0.297572
vt 0.376896 0.297682
vt 0.383308 0.478323
vt 0.000000 0.000000
vt 1.000000 0.000000
vt 1.000000 1.000000
vt 0.000000 1.000000
vt 0.000000 0.000000
vt 1.000000 0.000000
vt 1.000000 1.000000
vt 0.000000 1.000000
vt 0.000000 0.000000
vt 1.000000 0.000000
vt 1.000000 1.000000
vt 0.000000 1.000000
vt 0.000000 0.000000
vt 1.000000 0.000000
vt 1.000000 1.000000
vt 0.000000 1.000000
vt 0.000000 0.000000
vt 1.000000 0.000000
vt 1.000000 1.000000
vt 0.000000 1.000000
vt 0.792763 0.609017
vt 0.870639 0.609017
vt 0.870639 -1.561432
vt 0.792763 -1.561432
vt 0.829725 0.344041
vt 0.952588 0.344041
vt 0.952588 -1.826408
vt 0.829725 -1.826408
vt 0.725532 0.848758
vt 0.647656 0.848758
vt 0.647656 -1.321691
vt 0.725532 -1.321691
vt 0.561432 0.609017
vt 0.438569 0.609017
vt 0.438569 -1.561432
vt 0.561432 -1.561432
vt 0.438569 0.792763
vt 0.438569 0.870639
vt 0.561432 0.870639
vt 0.561432 0.792763
vt 0.561432 0.730720
vt 0.438569 0.730720
vt 0.119840 0.245302
vt 0.197716 0.245301
vt 0.197716 0.368165
vt 0.119840 0.368165
vt 0.725532 0.970461
vt 0.647656 0.970461
vt 0.829725 0.465743
vt 0.952588 0.465743
vt 0.998278 -0.597552
vt 0.876575 -0.597552
vt 0.876575 0.268638
vt 0.998278 0.268638
vt 0.870639 0.609017
vt 0.792763 0.609017
vt 0.792763 0.730720
vt 0.870639 0.730720
vt 0.151733 0.075512
vt 0.273436 0.075512
vt 0.273436 0.941702
vt 0.151733 0.941702
vt 0.197716 1.234354
vt 0.119840 1.234354
vt 0.614502 0.203392
vt 0.536626 0.203392
vt 0.536626 1.069582
vt 0.614502 1.069582
vt 0.865282 0.718924
vt 0.865282 0.639809
vt 0.798120 0.639809
vt 0.798120 0.718924
vt 0.865282 0.215274
vt 0.798120 0.215274
vt 0.798120 0.136159
vt 0.865282 0.136159
vt 0.618349 0.737292
vt 0.729436 0.738091
vt 0.738913 0.016345
vt 0.627826 0.015547
vt 0.186362 0.776446
vt 0.075275 0.775648
vt 0.084752 0.053902
vt 0.195839 0.054701
vt 0.909086 0.140669
vt 0.976248 0.140669
vt 0.976248 -0.376384
vt 0.909086 -0.376384
vt 0.553546 1.403368
vt 0.486384 1.403368
vt 0.486384 0.886315
vt 0.553546 0.886315
vt 0.317665 0.718874
vt 0.317665 0.536539
vt 0.500000 0.536539
vt 0.500000 0.718874
vt 0.067006 0.536539
vt 0.067006 0.727450
vt 0.056523 0.720255
vt 0.056523 0.543734
vt 0.500000 0.268460
vt 0.504569 0.139313
vt 0.575918 0.081085
vt 0.569286 0.268561
vt 0.504569 0.397174
vt 0.575918 0.455411
vt 0.000000 0.268460
vt 0.004569 0.139314
vt 0.075918 0.081085
vt 0.069286 0.268562
vt 0.004569 0.397174
vt 0.075918 0.455411
vt 0.928565 0.268719
vt 0.938071 0.000000
vt 1.000000 0.059519
vt 0.992603 0.268623
vt 0.028953 0.815200
vt 0.028953 0.536539
vt 0.042743 0.547041
vt 0.042743 0.804699
vt 0.077498 0.536539
vt 0.077498 0.726052
vt 0.067006 0.718910
vt 0.067006 0.543681
vt 0.617372 0.102459
vt 0.894431 0.040427
vt 0.795223 0.831762
vt 0.500000 0.831762
vt 0.500000 0.536539
vt 0.795223 0.536539
vt 0.938071 0.536539
vt 1.000000 0.477027
vt 0.428565 0.268719
vt 0.438071 0.000000
vt 0.500000 0.059519
vt 0.492603 0.268623
vt 0.438071 0.536539
vt 0.500000 0.477027
vt 0.117372 0.102459
vt 0.112588 0.237679
vt 0.612588 0.237679
vt 0.387449 0.237800
vt 0.394431 0.040427
vt 0.887449 0.237800
vt 0.113409 0.299961
vt 0.118157 0.433742
vt 0.613409 0.299961
vt 0.618157 0.433742
vt 0.393604 0.495447
vt 0.386670 0.300081
vt 0.893604 0.495447
vt 0.886670 0.300081
vt 0.014494 0.818813
vt 0.014494 0.536539
vt 0.028953 0.550330
vt 0.028953 0.811328
vt 0.042743 0.813292
vt 0.042743 0.536539
vt 0.056523 0.546969
vt 0.056523 0.802862
vt 0.254661 0.726052
vt 0.254661 0.536539
vt 0.265153 0.543681
vt 0.265153 0.718910
vt 0.014494 0.536539
vt 0.014494 0.820458
vt 0.000000 0.812919
vt 0.000000 0.550399
vt 0.303206 0.536539
vt 0.303206 0.815200
vt 0.289416 0.804699
vt 0.289416 0.547041
vt 0.265153 0.727450
vt 0.265153 0.536539
vt 0.275636 0.543734
vt 0.275636 0.720255
vt 0.303206 0.818813
vt 0.303206 0.536539
vt 0.317665 0.550330
vt 0.317665 0.811328
vt 0.795223 0.820458
vt 0.795223 0.536539
vt 0.809717 0.544078
vt 0.809717 0.806597
vt 0.289416 0.536539
vt 0.289416 0.813292
vt 0.275636 0.802862
vt 0.275636 0.546969
vn -0.1715 0.1563 0.9727
vn 0.9727 0.1563 0.1715
vn 0.1715 0.1563 -0.9727
vn -0.9727 0.1563 -0.1715
vn -0.9848 -0.0000 -0.1736
vn 0.1736 0.0000 -0.9848
vn 0.9848 0.0000 0.1736
vn -0.1736 -0.0000 0.9848
vn 0.0000 -1.0000 0.0000
vn 0.0000 1.0000 0.0000
vn 0.0678 -0.0000 0.9977
vn -0.9978 -0.0000 0.0661
vn -0.9977 -0.0000 0.0678
vn -0.0678 0.0000 -0.9977
vn 0.9977 0.0000 -0.0678
vn 0.9978 0.0000 -0.0661
vn 0.9979 0.0000 -0.0652
vn -0.9979 -0.0000 0.0652
vn -0.9980 -0.0000 0.0626
vn 0.9980 0.0000 -0.0626
vn 0.0483 0.7020 0.7105
vn -0.0483 -0.7020 -0.7105
vn 0.0473 -0.7163 0.6962
vn -0.0473 0.7163 -0.6962
vn -0.1226 -0.7083 0.6952
vn -0.1504 0.4996 0.8531
vn 0.8531 0.4996 0.1504
vn 0.1504 0.4996 -0.8531
vn -0.8531 0.4996 -0.1504
vn -0.1437 -0.5618 0.8147
vn -0.1049 0.7970 0.5948
vn -0.6929 -0.7107 -0.1222
vn 0.6931 -0.0346 0.7200
vn 0.8147 -0.5618 0.1437
vn 0.1437 -0.5618 -0.8147
vn -0.8147 -0.5618 -0.1437
vn -0.7177 -0.0354 0.6955
vn -0.4366 -0.0354 -0.8990
vn 0.5928 0.7986 0.1045
vn -0.6931 -0.0346 -0.7200
vn 0.6929 -0.7107 0.1222
vn -0.8975 -0.0346 0.4396
vn 0.1049 0.7971 -0.5947
vn 0.1226 -0.7083 -0.6952
vn 0.4366 -0.0354 0.8990
vn 0.7177 -0.0354 -0.6955
vn 0.8975 -0.0346 -0.4396
vn -0.5928 0.7986 -0.1045
usemtl light.001
s 1
f 32/1/1 31/2/1 44/3/1 43/4/1
f 70/5/2 69/6/2 66/7/2 65/8/2
f 72/9/3 68/10/3 67/11/3 71/12/3
f 48/13/4 47/14/4 63/15/4 64/16/4
usemtl wood.005
f 73/17/5 74/18/5 75/19/5 76/20/5
f 74/21/6 77/22/6 78/23/6 75/24/6
f 77/25/7 79/26/7 80/27/7 78/28/7
f 79/29/8 73/30/8 76/31/8 80/32/8
f 76/33/9 75/34/9 78/23/9 80/32/9
f 79/29/10 77/22/10 74/35/10 73/36/10
usemtl wood
f 1/37/11 2/38/11 3/39/11 4/40/11
f 2/41/12 5/42/13 6/43/13 3/44/13
f 5/45/14 7/46/14 8/47/14 6/48/14
f 7/49/15 1/50/16 4/51/15 8/52/15
f 4/53/9 3/54/9 6/55/9 8/56/9
f 1/50/16 7/49/15 9/57/15 10/58/17
f 9/59/10 11/60/10 12/61/10 10/62/10
f 7/46/14 5/45/14 11/63/14 9/64/14
f 5/42/13 2/41/12 12/65/18 11/66/13
f 12/67/18 2/68/12 13/69/19 14/70/19
f 13/71/11 15/72/11 16/73/11 14/74/11
f 1/75/16 10/76/17 16/77/20 15/78/20
f 10/62/10 12/61/10 14/79/10 16/80/10
f 2/81/9 1/82/9 15/83/9 13/84/9
f 17/85/21 18/86/21 19/87/21 20/88/21
f 21/89/22 22/90/22 23/91/22 24/92/22
f 18/93/13 17/94/13 21/95/13 24/96/13
f 20/97/15 19/98/15 23/99/15 22/100/15
f 19/101/23 18/102/23 24/103/23 23/104/23
f 17/105/24 20/106/24 22/107/24 21/108/24
usemtl metal.004
f 25/109/10 26/110/10 27/111/10 28/112/10
f 29/113/25 30/114/25 31/115/25 32/116/25
f 26/117/26 25/118/26 33/119/26 34/120/26
f 27/121/27 26/117/27 34/120/27 35/122/27
f 28/123/28 27/124/28 35/125/28 36/126/28
f 25/127/29 28/123/29 36/126/29 33/128/29
f 37/129/30 38/130/30 39/131/30 40/132/30
f 41/133/31 42/134/31 43/135/31 44/136/31
f 45/137/32 46/138/32 47/139/32 48/140/32
f 30/141/33 41/142/33 44/3/33 31/2/33
f 39/143/9 49/144/9 50/145/9 40/146/9
f 51/147/34 37/129/34 40/132/34 50/148/34
f 52/149/35 51/150/35 50/151/35 49/152/35
f 38/153/36 52/149/36 49/152/36 39/154/36
f 53/155/3 54/156/3 36/126/3 35/125/3
f 30/141/1 29/157/1 34/120/1 33/119/1
f 55/158/3 56/159/3 51/150/3 52/149/3
f 42/160/1 41/142/1 38/130/1 37/129/1
f 29/157/1 42/160/1 37/129/1 34/120/1
f 41/142/1 30/141/1 33/119/1 38/130/1
f 56/159/3 53/155/3 35/125/3 51/150/3
f 54/156/3 55/158/3 52/149/3 36/126/3
f 46/161/4 45/162/4 33/128/4 36/126/4
f 57/163/2 58/164/2 35/122/2 34/120/2
f 59/165/4 60/166/4 52/149/4 38/153/4
f 61/167/2 62/168/2 37/129/2 51/147/2
f 62/168/2 57/163/2 34/120/2 37/129/2
f 45/162/4 59/165/4 38/153/4 33/128/4
f 58/164/2 61/167/2 51/147/2 35/122/2
f 60/166/4 46/161/4 36/126/4 52/149/4
f 46/169/37 60/170/37 63/171/37 47/172/37
f 59/165/38 45/162/38 48/13/38 64/16/38
f 62/173/39 61/174/39 65/175/39 66/176/39
f 53/155/40 56/159/40 67/11/40 68/10/40
f 58/177/41 57/178/41 69/179/41 70/180/41
f 42/181/42 29/182/42 32/183/42 43/184/42
f 56/185/43 55/186/43 71/187/43 67/188/43
f 54/189/44 53/190/44 68/191/44 72/192/44
f 61/167/45 58/164/45 70/5/45 65/8/45
f 57/193/46 62/194/46 66/195/46 69/196/46
f 55/197/47 54/198/47 72/199/47 71/200/47
f 60/201/48 59/202/48 64/203/48 63/204/48
