# Blender v2.79 (sub 0) OBJ File: 'Wooden5.blend'
# www.blender.org
mtllib Wooden5.mtl
o Wooden_20.001_Cube.012
v -4.172292 2.653746 0.679886
v -11.826082 2.618898 2.342715
v -5.155320 4.826019 0.954098
v -5.243698 4.826019 0.540107
v -12.019655 4.826019 2.419462
v -11.757249 4.826019 2.363445
v -11.757249 0.031908 2.363444
v -12.019655 0.031908 2.419461
v 3.453330 3.998881 -0.414466
v 3.460353 3.998881 0.001694
v 3.724132 3.998881 -0.002757
v 3.717109 3.998881 -0.418917
v 3.453331 0.051895 -0.414467
v 3.717110 0.051895 -0.418918
v 3.724132 0.051895 -0.002757
v 3.460353 0.051895 0.001694
v -3.183195 4.765603 -0.302471
v -3.176173 4.765603 0.113689
v -2.912393 4.765603 0.109235
v -2.919413 4.765603 -0.306922
v -3.183195 0.051895 -0.302472
v -2.919413 0.051895 -0.306923
v -2.912393 0.051895 0.109234
v -3.176173 0.051895 0.113688
v -3.710517 2.321542 0.023217
v 3.632741 1.875286 -0.130399
v 3.601823 1.212139 -0.129752
v -3.741435 1.658392 0.023863
v 3.638714 1.875286 0.196067
v 3.607793 1.212139 0.196712
v -3.704544 2.321542 0.349682
v -3.735465 1.658391 0.350328
v -4.166595 3.134971 -0.404391
v 4.060312 1.463791 -0.480121
v 3.928362 0.813283 -0.459091
v -4.298545 2.484463 -0.383361
v 4.064974 1.472797 -0.172230
v 3.933024 0.822289 -0.151200
v -4.161932 3.143976 -0.096500
v -4.293880 2.493471 -0.075469
v -3.989218 4.366159 -0.366497
v 4.301612 3.053461 -0.506409
v 4.197787 2.397541 -0.504658
v -4.093040 3.710239 -0.364746
v 4.306810 3.053461 -0.198394
v 4.202985 2.397541 -0.196644
v -3.984020 4.366159 -0.058483
v -4.087842 3.710239 -0.056731
v -3.745922 3.535195 0.023814
v 3.607363 3.762691 -0.129971
v 3.637228 3.099493 -0.130349
v -3.716056 2.871997 0.023436
v 3.613332 3.762733 0.196494
v 3.643198 3.099535 0.196116
v -3.739952 3.535236 0.350279
v -3.710087 2.872039 0.349900
vt 0.249927 0.933447
vt 0.231926 -1.623543
vt 0.001234 -1.625167
vt 0.019235 0.931822
vt 0.459243 0.690307
vt 0.572710 0.690307
vt 0.572753 0.459860
vt 0.459286 0.459860
vt 0.673579 0.373420
vt 0.691580 2.930410
vt 0.460889 2.928785
vt 0.442888 0.371796
vt 0.740752 0.774406
vt 0.627285 0.774406
vt 0.627328 0.543960
vt 0.740795 0.543960
vt 0.469604 0.339221
vt 0.459286 2.891567
vt 0.572753 2.891727
vt 0.583071 0.339381
vt 0.740752 0.279152
vt 0.730434 2.831498
vt 0.616967 2.831338
vt 0.627285 0.278992
vt 0.789975 0.424355
vt 0.795153 -2.493026
vt 0.564380 -2.493435
vt 0.559203 0.423945
vt 0.332519 0.379044
vt 0.439570 0.379044
vt 0.439570 0.159877
vt 0.332519 0.159877
vt 0.368587 0.311904
vt 0.363410 3.229285
vt 0.132637 3.228875
vt 0.137815 0.311494
vt 0.439570 0.292562
vt 0.332519 0.292562
vt 0.332519 0.073394
vt 0.439570 0.073394
vt 0.603607 -0.203066
vt 0.603607 2.567606
vt 0.710658 2.567606
vt 0.710658 -0.203066
vt 0.747132 -0.024834
vt 0.747132 2.745839
vt 0.640081 2.745839
vt 0.640081 -0.024834
vt 1.359827 -0.055117
vt 1.362671 -2.972502
vt 1.131899 -2.972727
vt 1.129055 -0.055342
vt 0.332519 0.099726
vt 0.439570 0.099726
vt 0.439570 -0.128208
vt 0.332519 -0.128208
vt 0.890697 -0.009861
vt 0.887853 2.907524
vt 0.657081 2.907299
vt 0.659925 -0.010086
vt 0.439570 0.555894
vt 0.332519 0.555894
vt 0.332519 0.327960
vt 0.439570 0.327960
vt 0.332519 0.219334
vt 0.332519 3.100836
vt 0.439570 3.100836
vt 0.439570 0.219334
vt 0.963264 -0.868984
vt 0.963264 2.012518
vt 0.856213 2.012518
vt 0.856213 -0.868984
vt 0.852617 1.103776
vt 0.875220 -1.453177
vt 0.644584 -1.458465
vt 0.621980 1.098488
vt 0.459243 0.346187
vt 0.572710 0.346201
vt 0.572753 0.115738
vt 0.459286 0.115723
vt 1.061343 -0.289764
vt 1.038739 2.267189
vt 0.808103 2.261901
vt 0.830707 -0.295051
vt 0.583027 0.267146
vt 0.469560 0.267131
vt 0.469604 0.036668
vt 0.583071 0.036682
vt 0.469604 0.348042
vt 0.459286 2.903872
vt 0.572753 2.904032
vt 0.583071 0.348202
vt 0.930021 -0.576978
vt 0.919703 1.978852
vt 0.806236 1.978692
vt 0.816554 -0.577138
vt 0.338836 0.575901
vt 0.489513 0.575901
vt 0.489513 0.671407
vt 0.338836 0.671407
vt 0.338836 0.575901
vt 0.338836 0.671407
vt 0.489513 0.671407
vt 0.489513 0.575901
vt 0.583787 1.020608
vt 0.679293 1.020608
vt 0.679293 -0.685822
vt 0.583787 -0.685822
vt 0.599081 0.673615
vt 0.749758 0.673615
vt 0.749758 -1.032815
vt 0.599081 -1.032815
vt 0.679293 1.020608
vt 0.583787 1.020608
vt 0.583787 -0.685822
vt 0.679293 -0.685822
vt 0.836507 0.981177
vt 0.685830 0.981177
vt 0.685830 -0.725253
vt 0.836507 -0.725253
vt 0.338836 0.173041
vt 0.489513 0.173041
vt 0.489513 0.268548
vt 0.338836 0.268548
vt 0.338836 0.173041
vt 0.338836 0.268548
vt 0.489513 0.268548
vt 0.489513 0.173041
vt 0.180928 1.020608
vt 0.276434 1.020608
vt 0.276434 -0.685822
vt 0.180928 -0.685822
vt 0.102250 0.586866
vt 0.252927 0.586866
vt 0.252927 -1.119564
vt 0.102250 -1.119564
vt 0.268548 0.744591
vt 0.173041 0.744591
vt 0.173041 -0.961839
vt 0.268548 -0.961839
vt 0.939027 0.776135
vt 0.788350 0.776135
vt 0.788350 -0.930295
vt 0.939027 -0.930295
vn -0.0209 0.0000 -0.9998
vn 0.9987 -0.0466 -0.0183
vn 0.0209 -0.0000 0.9998
vn -0.9987 0.0466 0.0183
vn -0.0606 -0.9982 0.0011
vn 0.0606 0.9982 -0.0011
vn -0.0151 -0.0292 -0.9995
vn 0.9799 -0.1991 -0.0090
vn 0.0151 0.0292 0.9995
vn -0.9799 0.1991 0.0090
vn -0.1987 -0.9796 0.0317
vn 0.1987 0.9796 -0.0317
vn -0.0169 0.0000 -0.9999
vn 0.9876 -0.1564 -0.0167
vn 0.0169 -0.0000 0.9999
vn -0.9876 0.1564 0.0167
vn -0.1563 -0.9877 0.0026
vn 0.1563 0.9877 -0.0026
vn -0.0209 -0.0004 -0.9998
vn 0.9988 0.0450 -0.0183
vn 0.0209 0.0004 0.9998
vn -0.9988 -0.0450 0.0183
vn 0.0309 -0.9995 -0.0004
vn -0.0309 0.9995 0.0004
vn 0.0000 1.0000 0.0000
vn 0.0000 -1.0000 -0.0000
vn 0.9999 0.0000 -0.0169
vn -0.9999 -0.0000 0.0169
usemtl wood_wood1.png.001
s 1
f 25/1/1 26/2/1 27/3/1 28/4/1
f 26/5/2 29/6/2 30/7/2 27/8/2
f 29/9/3 31/10/3 32/11/3 30/12/3
f 31/13/4 25/14/4 28/15/4 32/16/4
f 28/17/5 27/18/5 30/19/5 32/20/5
f 31/21/6 29/22/6 26/23/6 25/24/6
f 33/25/7 34/26/7 35/27/7 36/28/7
f 34/29/8 37/30/8 38/31/8 35/32/8
f 37/33/9 39/34/9 40/35/9 38/36/9
f 39/37/10 33/38/10 36/39/10 40/40/10
f 36/41/11 35/42/11 38/43/11 40/44/11
f 39/45/12 37/46/12 34/47/12 33/48/12
f 41/49/13 42/50/13 43/51/13 44/52/13
f 42/53/14 45/54/14 46/55/14 43/56/14
f 45/57/15 47/58/15 48/59/15 46/60/15
f 47/61/16 41/62/16 44/63/16 48/64/16
f 44/65/17 43/66/17 46/67/17 48/68/17
f 47/69/18 45/70/18 42/71/18 41/72/18
f 49/73/19 50/74/19 51/75/19 52/76/19
f 50/77/20 53/78/20 54/79/20 51/80/20
f 53/81/21 55/82/21 56/83/21 54/84/21
f 55/85/22 49/86/22 52/87/22 56/88/22
f 52/89/23 51/90/23 54/91/23 56/92/23
f 55/93/24 53/94/24 50/95/24 49/96/24
usemtl wood
f 9/97/25 10/98/25 11/99/25 12/100/25
f 13/101/26 14/102/26 15/103/26 16/104/26
f 9/105/13 12/106/13 14/107/13 13/108/13
f 12/109/27 11/110/27 15/111/27 14/112/27
f 11/113/15 10/114/15 16/115/15 15/116/15
f 10/117/28 9/118/28 13/119/28 16/120/28
f 17/121/25 18/122/25 19/123/25 20/124/25
f 21/125/26 22/126/26 23/127/26 24/128/26
f 17/129/13 20/130/13 22/131/13 21/132/13
f 20/133/27 19/134/27 23/135/27 22/136/27
f 19/137/15 18/138/15 24/139/15 23/140/15
f 18/141/28 17/142/28 21/143/28 24/144/28
