# Blender v2.79 (sub 0) OBJ File: 'purple_book.blend'
# www.blender.org
mtllib purple_book.mtl
o Book_Cube.001
v 2.500000 -0.500000 1.699323
v -2.500000 -0.500000 1.699322
v 2.499998 0.500000 1.699324
v -2.500001 0.500000 1.699322
v 2.500001 0.398447 -1.708577
v -2.500000 0.398447 -1.708578
v 2.500000 -0.400173 -1.708578
v -2.499999 -0.400173 -1.708578
v 2.499999 0.398448 1.611974
v 2.500000 -0.400172 1.611975
v 2.554639 -0.500000 -1.750000
v 2.554639 -0.500000 1.699323
v 2.554640 0.398447 -1.749999
v 2.554640 0.500000 -1.749999
v 2.554637 0.398448 1.750001
v 2.554637 0.500000 1.699324
v 2.554638 0.004617 1.807493
v 2.554637 0.398448 1.611974
v 2.554639 -0.400173 -1.750000
v 2.554638 -0.400172 1.750000
v 2.554638 -0.400172 1.611975
v -2.500000 -0.400172 1.611975
v -2.500001 0.398448 1.611974
v -2.592741 -0.500000 1.699322
v -2.592740 -0.500000 -1.750000
v -2.592742 0.398448 1.749999
v -2.592742 0.500000 1.699322
v -2.592740 0.398447 -1.750000
v -2.592740 0.500000 -1.750000
v -2.592741 0.004617 1.807492
v -2.592742 0.398448 1.611974
v -2.592741 -0.400172 1.750000
v -2.592740 -0.400173 -1.750000
v -2.592741 -0.400172 1.611975
v 2.500000 -0.500000 -1.834861
v -2.499999 -0.500000 -1.834862
v 2.500001 0.398447 -1.834861
v 2.500001 0.500000 -1.834860
v -2.500000 0.398447 -1.834861
v -2.500000 0.500000 -1.834861
v 2.554639 -0.500000 -1.834861
v 2.500000 -0.400173 -1.834861
v -2.499999 -0.400173 -1.834862
v 2.554639 -0.400173 -1.834861
v 2.554640 0.398447 -1.834861
v 2.554640 0.500000 -1.834860
v -2.592740 0.398447 -1.834861
v -2.592740 0.500000 -1.834861
v -2.592740 -0.500000 -1.834862
v -2.592740 -0.400173 -1.834862
v -2.500000 0.125653 -1.607123
v 2.500000 0.125653 -1.607123
v 2.500000 -0.165493 -1.607123
v -2.499999 -0.165493 -1.607123
vt 0.942349 0.357935
vt 0.899745 0.241448
vt 0.901350 0.240918
vt 0.944245 0.357605
vt 0.899368 0.239164
vt 0.900504 0.239268
vt 0.901488 0.499076
vt 0.904114 0.501050
vt 0.901785 0.503174
vt 0.900756 0.500906
vt 0.671408 0.174670
vt 0.671408 0.329450
vt 0.027854 0.329450
vt 0.047517 0.276580
vt 0.047517 0.220153
vt 0.027854 0.174670
vt 0.767139 0.244016
vt 0.764557 0.242292
vt 0.766605 0.240186
vt 0.767751 0.242290
vt 0.735463 0.351819
vt 0.734112 0.378908
vt 0.731156 0.379266
vt 0.732301 0.351275
vt 0.925008 0.118911
vt 0.925008 0.166175
vt 0.016398 0.166175
vt 0.016398 0.113580
vt 0.027854 0.329450
vt 0.047517 0.283966
vt 0.047517 0.227538
vt 0.027854 0.174668
vt 0.671408 0.174670
vt 0.671408 0.329450
vt 0.903687 0.239346
vt 0.949146 0.357913
vt 0.948670 0.360302
vt 0.943268 0.387479
vt 0.949266 0.372674
vt 0.946893 0.385295
vt 0.947349 0.387263
vt 0.899844 0.498583
vt 0.941221 0.387071
vt 0.899383 0.500926
vt 0.015240 0.976521
vt 0.015238 0.358860
vt 0.015238 0.352110
vt 0.029068 0.352110
vt 0.029069 0.987977
vt 0.015240 0.987977
vt 0.769731 0.244495
vt 0.728901 0.353381
vt 0.728419 0.351550
vt 0.726619 0.378759
vt 0.727091 0.376635
vt 0.765480 0.491249
vt 0.763270 0.492502
vt 0.726619 0.364817
vt 0.143108 0.976644
vt 0.142909 0.988221
vt 0.128742 0.987977
vt 0.128741 0.352110
vt 0.142762 0.352110
vt 0.153857 0.352452
vt 0.079575 0.987977
vt 0.079574 0.352110
vt 0.767948 0.490724
vt 0.769295 0.239477
vt 0.769878 0.242173
vt 0.900107 0.503674
vt 0.767182 0.495774
vt 0.768012 0.493060
vt 0.900353 0.236413
vt 0.902074 0.237345
vt 0.764591 0.494420
vt 0.766205 0.492810
vt 0.174274 0.971333
vt 0.174177 0.367303
vt 0.174177 0.360029
vt 0.590876 0.360635
vt 0.601404 0.360442
vt 0.601528 0.367221
vt 0.601632 0.970820
vt 0.601634 0.982469
vt 0.590975 0.982470
vt 0.174276 0.982536
vt 0.174179 0.371842
vt 0.174179 0.360642
vt 0.590744 0.360642
vt 0.601181 0.360442
vt 0.601399 0.371849
vt 0.601404 0.975423
vt 0.601399 0.982283
vt 0.590744 0.982276
vt 0.174179 0.982949
vt 0.174179 0.975677
vt 0.925008 0.005335
vt 0.925008 0.074578
vt 0.016398 0.069212
vt 0.016398 0.005335
vn 0.0000 -1.0000 0.0000
vn 1.0000 -0.0000 0.0000
vn -1.0000 -0.0000 -0.0000
vn 0.0000 -0.0000 -1.0000
vn 0.0000 0.3968 -0.9179
vn -0.0000 1.0000 -0.0000
vn -0.0000 -0.4527 0.8917
vn -0.0000 0.4465 0.8948
vn -0.0000 0.1445 0.9895
vn -0.0000 -0.1406 0.9901
vn 0.0000 -0.3486 -0.9373
usemtl Book
s 1
f 9/1/1 5/2/1 13/3/1 18/4/1
f 13/3/1 5/2/1 37/5/1 45/6/1
f 19/7/2 11/8/2 41/9/2 44/10/2
f 22/11/3 23/12/3 6/13/3 51/14/3 54/15/3 8/16/3
f 28/17/3 29/18/3 48/19/3 47/20/3
f 23/21/4 22/22/4 34/23/4 31/24/4
f 53/25/5 7/26/5 8/27/5 54/28/5
f 7/29/2 53/30/2 52/31/2 5/32/2 9/33/2 10/34/2
f 13/3/2 14/35/2 16/36/2 15/37/2 18/4/2
f 21/38/2 18/4/2 15/37/2 17/39/2 20/40/2
f 11/8/2 19/7/2 21/38/2 20/40/2 12/41/2
f 7/42/6 10/43/6 21/38/6 19/7/6
f 7/42/6 19/7/6 44/10/6 42/44/6
f 10/43/4 9/1/4 18/4/4 21/38/4
f 2/45/7 1/46/7 12/47/7 20/48/7 32/49/7 24/50/7
f 6/51/1 23/21/1 31/24/1 28/17/1
f 26/52/3 27/53/3 29/18/3 28/17/3 31/24/3
f 24/54/3 32/55/3 34/23/3 33/56/3 25/57/3
f 32/55/3 30/58/3 26/52/3 31/24/3 34/23/3
f 4/59/8 27/60/8 26/61/8 15/62/8 16/63/8 3/64/8
f 15/62/9 26/61/9 30/65/9 17/66/9
f 17/66/10 30/65/10 32/49/10 20/48/10
f 22/22/6 8/67/6 33/56/6 34/23/6
f 40/68/4 39/69/4 47/20/4 48/19/4
f 42/44/4 35/70/4 36/71/4 43/72/4
f 38/73/4 37/5/4 39/69/4 40/68/4
f 35/70/4 42/44/4 44/10/4 41/9/4
f 37/5/4 38/73/4 46/74/4 45/6/4
f 43/72/4 36/71/4 49/75/4 50/76/4
f 6/51/1 28/17/1 47/20/1 39/69/1
f 8/67/6 7/42/6 42/44/6 43/72/6
f 14/35/2 13/3/2 45/6/2 46/74/2
f 33/56/6 8/67/6 43/72/6 50/76/6
f 4/77/6 3/78/6 16/79/6 14/80/6 46/81/6 38/82/6 40/83/6 48/84/6 29/85/6 27/86/6
f 25/57/3 33/56/3 50/76/3 49/75/3
f 2/87/1 24/88/1 25/89/1 49/90/1 36/91/1 35/92/1 41/93/1 11/94/1 12/95/1 1/96/1
f 5/2/1 6/51/1 39/69/1 37/5/1
f 5/97/11 52/98/11 51/99/11 6/100/11
f 52/98/4 53/25/4 54/28/4 51/99/4
