# Blender v2.79 (sub 0) OBJ File: 'stage_frame2.blend'
# www.blender.org
mtllib stage_frame2.mtl
o Plane_Plane.001
v -2.928240 5.683520 -0.000000
v -2.928240 0.265862 -0.000000
v 2.928240 5.683520 0.000000
v 2.928240 0.265862 0.000000
v -2.865653 5.424147 0.000005
v 2.781117 5.424149 0.000005
v 2.795047 5.438078 0.040875
v -2.879583 5.438077 0.040875
v -3.506553 6.065047 0.069105
v 3.422017 6.065049 0.069105
v 3.448957 6.091989 0.000005
v -3.533494 6.091987 0.000005
v -2.865653 0.685618 0.000005
v -2.879582 0.671688 0.040875
v 2.795048 0.671689 0.040875
v 2.781117 0.685619 0.000005
v -3.506552 0.044718 0.069105
v -3.533493 0.017778 0.000005
v 3.448958 0.017779 0.000005
v 3.422018 0.044719 0.069105
v -2.879583 5.438077 0.040875
v 2.795047 5.438078 0.040875
v 3.422017 6.065049 0.069105
v -3.506553 6.065047 0.069105
v -2.879582 0.671688 0.040875
v -3.506552 0.044718 0.069105
v 3.422018 0.044719 0.069105
v 2.795048 0.671689 0.040875
vt 0.000000 0.000000
vt 1.000000 1.000000
vt 0.000000 1.000000
vt 1.000000 0.000000
vt 0.076321 0.820545
vt 0.640990 0.820545
vt 0.642383 0.825454
vt 0.074928 0.825454
vt 0.012232 0.890071
vt 0.705079 0.890071
vt 0.707773 0.898952
vt 0.009538 0.898952
vt 0.640990 0.820545
vt 0.642383 0.825454
vt 0.074928 0.825454
vt 0.076321 0.820545
vt 0.705079 0.890071
vt 0.707773 0.898952
vt 0.009538 0.898952
vt 0.012232 0.890071
vt 0.076321 0.820545
vt 0.640990 0.820545
vt 0.642383 0.825454
vt 0.074928 0.825454
vt 0.012232 0.890071
vt 0.705080 0.890071
vt 0.707773 0.898952
vt 0.009538 0.898952
vt 0.640990 0.820545
vt 0.642383 0.825454
vt 0.074928 0.825454
vt 0.076321 0.820545
vt 0.705079 0.890071
vt 0.707773 0.898952
vt 0.009538 0.898952
vt 0.012232 0.890071
vt 0.074928 0.825455
vt 0.642382 0.825456
vt 0.705078 0.890071
vt 0.012233 0.890071
vt 0.074928 0.825455
vt 0.642382 0.825456
vt 0.705078 0.890071
vt 0.012233 0.890071
vt 0.642382 0.825456
vt 0.705078 0.890071
vt 0.012233 0.890071
vt 0.074928 0.825455
vt 0.642382 0.825456
vt 0.705078 0.890071
vt 0.012233 0.890071
vt 0.074928 0.825455
vn -0.0000 -0.0000 1.0000
vn 0.0000 -0.9465 0.3226
vn -0.0000 0.9317 0.3632
vn -0.0000 0.9465 0.3226
vn 0.0000 -0.9317 0.3632
vn 0.9465 0.0000 0.3226
vn -0.9317 -0.0000 0.3632
vn -0.9465 -0.0000 0.3226
vn 0.9317 0.0000 0.3632
vn 0.0225 -0.0225 0.9995
vn -0.0225 -0.0225 0.9995
vn 0.0225 0.0225 0.9995
vn -0.0225 0.0225 0.9995
usemtl Material
s off
f 2/1/1 3/2/1 1/3/1
f 2/1/1 4/4/1 3/2/1
usemtl picture_frames
f 5/5/2 6/6/2 7/7/2 8/8/2
f 9/9/3 10/10/3 11/11/3 12/12/3
f 13/13/4 14/14/4 15/15/4 16/16/4
f 17/17/5 18/18/5 19/19/5 20/20/5
f 13/21/6 5/22/6 8/23/6 14/24/6
f 17/25/7 9/26/7 12/27/7 18/28/7
f 16/29/8 15/30/8 7/31/8 6/32/8
f 20/33/9 19/34/9 11/35/9 10/36/9
s 1
f 21/37/10 22/38/11 23/39/11 24/40/10
f 25/41/12 21/42/10 24/43/10 26/44/12
f 25/45/12 26/46/12 27/47/13 28/48/13
f 28/49/13 27/50/13 23/51/11 22/52/11
