# Blender v2.79 (sub 0) OBJ File: 'fern.blend'
# www.blender.org
mtllib fern.mtl
o fern_01b_Plane.001
v -1.856467 0.577499 -0.791978
v 1.689919 0.496883 -0.268940
v -1.019753 0.378829 -5.876197
v 2.925458 0.553812 -5.089945
v -0.133753 0.670928 -0.050431
v 1.134918 2.215973 -6.026441
v -0.779301 1.832740 -4.641983
v -1.003249 1.684834 -3.148744
v 2.083014 1.397529 -1.572543
v 2.521911 1.840756 -3.348211
v 0.456942 2.542296 -2.171254
v 0.859935 2.984622 -4.255054
v 2.758797 -0.112762 0.374762
v -1.827964 -0.424389 -1.302364
v 0.247517 -0.427567 6.941395
v -4.813263 -0.413481 4.799257
v 0.658059 -0.083684 -1.093066
v -2.773173 1.955381 6.524969
v 0.186864 1.540486 5.207730
v 0.906761 1.350454 3.275601
v 1.608635 1.264599 1.956270
v -2.171580 0.354299 -0.307576
v -2.763071 0.782356 0.320440
v -3.864426 1.363089 2.567102
v 0.160148 1.462497 0.099756
v -0.820576 2.436115 1.555593
v -1.959085 3.017878 4.224004
v 2.411035 0.551333 0.115488
v -1.881474 0.723350 0.223266
v 1.757272 0.963531 6.462304
v -1.652812 1.574336 5.632135
v 0.237302 0.753922 -0.424395
v 0.131854 3.285763 7.061852
v 2.279046 2.482910 4.981139
v 2.137289 2.157845 3.104290
v -1.815004 1.952208 1.850972
v -1.586070 2.673385 4.107756
v 0.377924 3.238185 2.189498
v 0.133090 4.039665 4.821703
v -1.327482 -0.506772 -1.753748
v 0.652551 -0.760127 1.154138
v 4.059285 -1.483155 -5.913776
v 7.006143 -1.487288 -1.275192
v -0.862928 -0.626283 0.296975
v 6.424825 0.841253 -3.919342
v 3.223614 0.568366 -4.508281
v 1.526670 0.494975 -3.324015
v 0.197204 0.493981 -2.636156
v 1.912180 -0.349958 1.276575
v 2.840022 -0.014120 1.208015
v 5.048319 0.423766 -0.028675
v 0.345175 0.749580 -0.291653
v 2.025320 1.622963 -0.957632
v 4.503374 2.039498 -2.519944
v -1.002154 -0.620775 1.046324
v 0.871793 -0.559331 -1.822339
v -5.799190 0.823155 -3.216114
v -3.700758 2.209308 -5.662280
v 0.464115 -0.572168 -0.197014
v -5.497252 2.199993 -4.791676
v -4.667662 2.185069 -1.935662
v -3.270836 1.953979 -0.531761
v -2.215970 1.367382 0.354792
v 0.480888 0.634565 -2.489325
v 0.309555 1.366629 -3.202220
v -1.988212 2.554834 -4.084921
v -0.115972 1.286313 -0.510763
v -0.901895 2.422195 -1.592810
v -3.290185 3.143343 -3.329256
v -2.895550 -0.686346 0.525614
v 1.981291 -1.027407 0.305739
v -3.136988 -1.397652 -6.471674
v 2.358501 -1.401786 -6.466222
v -0.389244 -0.635444 1.058817
v -0.184148 0.926755 -7.395947
v -2.400213 0.653868 -5.011905
v -2.312614 0.580478 -2.944435
v -2.446393 0.579483 -1.453552
v 1.913578 -0.309191 -0.786786
v 2.215688 0.071382 -1.618286
v 2.358501 0.509269 -4.145257
v -0.389244 0.835082 -0.319212
v -0.048669 1.708466 -2.094155
v -0.035654 2.125000 -5.023558
v -1.804616 -0.532217 -1.000434
v 1.027115 -1.114810 0.839830
v 2.590285 -0.898910 -6.429064
v 6.277766 -1.184514 -4.147303
v -0.525790 -0.634894 0.432138
v 5.016888 1.301265 -6.811115
v 2.041972 1.017225 -5.418000
v 0.461078 0.865296 -3.799700
v -0.538354 0.802537 -2.625878
v 2.040243 -0.335296 0.209485
v 2.963650 0.049723 -0.126026
v 4.855335 0.620234 -2.010416
v 0.376677 0.839384 -0.528669
v 1.836672 1.670444 -1.631808
v 3.785879 1.791239 -4.253943
v 0.376882 0.148912 -1.943710
v 0.376875 -0.421238 1.032849
v 6.110562 1.350154 -1.024263
v 6.128077 1.046301 2.810014
v -0.103270 -0.094568 -0.330526
v 6.507969 3.452616 0.642013
v 4.698369 2.723493 -0.973071
v 2.997597 2.130853 -1.450418
v 1.785262 1.748854 -1.686693
v 1.095389 0.480751 1.535144
v 1.629997 0.970993 2.093846
v 3.595416 2.017006 2.698028
v 0.646781 1.455148 -0.052814
v 1.828163 2.527822 0.574970
v 4.322860 3.308499 0.876404
v 0.372647 0.197120 -2.805879
v -1.391257 -1.016047 0.979410
v 6.018665 -0.048911 -0.127809
v 3.783861 -1.098169 4.085682
v -1.067213 -0.260275 -1.101589
v 5.236315 1.447036 2.868306
v 4.313155 1.521472 0.117409
v 2.675435 1.345284 -0.702708
v 1.567615 1.300710 -1.437649
v -0.606015 -0.329934 1.495341
v -0.130234 -0.018951 2.135148
v 1.724477 0.450666 3.379988
v -0.185307 1.078305 -0.303042
v 0.945877 1.852904 0.838109
v 3.169804 2.347374 2.150887
v 1.749107 -0.700521 -0.594827
v -0.738529 -0.738552 0.588289
v 3.441168 0.253471 4.640700
v 0.923733 1.297547 5.423674
v 0.208701 -0.692088 -0.370865
v 2.494564 1.313822 5.495895
v 3.171464 1.403411 3.344021
v 2.355670 0.855481 0.592867
v -0.718132 0.190072 1.322781
v 0.388609 1.647979 3.652175
v 0.513992 0.781099 0.251689
v 1.594864 2.137613 3.689978
v -0.156066 -0.059836 2.057867
v -0.802697 0.126563 -1.121359
v -5.211014 0.797590 3.294514
v -5.172964 0.606597 0.200527
v -0.046979 0.193550 0.363372
v -6.446175 1.116037 1.962707
v -4.284640 0.842901 2.806193
v -2.745225 0.780113 2.362514
v -2.228120 0.846189 -0.861524
v -4.080233 1.126007 -0.450404
v -2.411240 1.723377 0.894168
v -4.617552 1.517700 1.470524
v 1.262482 -0.505656 -0.230291
v -1.080221 0.004879 1.486580
v 3.727170 -0.362207 3.217849
v 0.388710 0.354512 4.679782
v -0.146918 -0.166650 0.302561
v 2.101449 1.422160 3.969609
v 3.009181 0.808149 2.434228
v 2.253123 0.603691 1.462875
v -0.459606 0.837186 2.337919
v 0.366180 1.324261 3.553126
v 0.929494 1.506057 1.602798
v 1.593500 1.975746 2.871954
v 0.168606 -0.505656 1.792812
v -1.870796 0.004879 -0.275217
v -2.214806 -0.698958 4.564428
v -4.816345 0.354512 1.642604
v -0.563604 -0.166650 0.475918
v -3.702493 1.043295 3.566982
v -1.919006 0.468862 3.543609
v -1.327102 0.509818 2.913187
v -2.622799 0.837186 0.462641
v -3.714319 1.276181 1.459125
v -1.692743 1.458983 1.729811
v -2.891866 1.434836 2.561831
v 1.450426 0.742114 0.960172
v -1.692810 0.628904 -0.761505
v -1.093804 1.614831 5.359501
v -4.496017 1.705595 3.207708
v 0.102966 0.716181 -0.347514
v -2.990101 3.487749 4.391762
v -0.761189 2.787274 3.872994
v -0.053344 2.329643 2.611518
v -2.424311 1.787251 0.126304
v -3.402720 2.596550 1.515486
v -1.004009 2.996949 1.038679
v -2.054618 3.868237 2.723123
v -0.579312 0.542958 1.704716
v -0.584395 0.684995 -1.878121
v -5.521297 0.883316 0.646687
v -4.904112 1.387669 -2.428160
v -0.090530 0.710238 -0.100685
v -5.981174 2.800821 -0.845942
v -4.430410 2.137892 1.282188
v -2.939981 1.869481 1.285083
v -1.855948 1.699683 -2.014615
v -3.635869 2.295170 -2.153721
v -2.120033 2.761535 -0.249463
v -4.133492 3.423330 -0.792999
v -2.006176 0.568625 -1.019634
v 1.225507 0.486617 0.531632
v 1.102798 1.166284 -4.973818
v 3.616884 1.435934 -3.051154
v -0.588521 0.590323 0.211686
v 2.699659 3.012881 -4.578379
v 0.091622 2.383694 -4.159391
v -0.565948 2.018618 -2.844951
v 1.929008 1.572167 -0.464228
v 2.844064 2.273489 -1.951808
v 0.484137 2.757257 -1.370285
v 1.866591 3.514701 -2.887691
vt 0.994643 0.005357
vt 0.994643 0.500000
vt 0.500000 0.500000
vt 0.500000 0.005357
vt 0.005357 0.500000
vt 0.005357 0.005357
vt 0.994643 0.747321
vt 0.500000 0.747321
vt 0.994643 0.994643
vt 0.500000 0.994643
vt 0.005357 0.994643
vt 0.005357 0.747321
vt 0.005357 0.005357
vt 0.500000 0.005357
vt 0.500000 0.252679
vt 0.005357 0.252679
vt 0.500000 0.747321
vt 0.994643 0.747321
vt 0.994643 0.994643
vt 0.500000 0.994643
vt 0.500000 0.500000
vt 0.005357 0.500000
vt 0.005357 0.747321
vt 0.994643 0.005357
vt 0.994643 0.252679
vt 0.994643 0.500000
vt 0.500000 0.747321
vt 0.500000 0.994643
vt 0.005357 0.994643
vt 0.005357 0.747321
vt 0.994643 0.005357
vt 0.994643 0.500000
vt 0.500000 0.500000
vt 0.500000 0.005357
vt 0.005357 0.500000
vt 0.005357 0.005357
vt 0.994643 0.747321
vt 0.500000 0.747321
vt 0.994643 0.994643
vt 0.500000 0.994643
vt 0.005357 0.994643
vt 0.005357 0.747321
vt 0.005357 0.005357
vt 0.500000 0.005357
vt 0.500000 0.252679
vt 0.005357 0.252679
vt 0.994643 0.747321
vt 0.994643 0.994643
vt 0.500000 0.500000
vt 0.005357 0.500000
vt 0.994643 0.005357
vt 0.994643 0.252679
vt 0.994643 0.500000
vt 0.500000 0.747321
vt 0.500000 0.994643
vt 0.005357 0.994643
vt 0.005357 0.747321
vt 0.005357 0.005357
vt 0.500000 0.005357
vt 0.500000 0.252679
vt 0.005357 0.252679
vt 0.994643 0.747321
vt 0.994643 0.994643
vt 0.500000 0.500000
vt 0.005357 0.500000
vt 0.994643 0.005357
vt 0.994643 0.252679
vt 0.994643 0.500000
vt 0.500000 0.747321
vt 0.500000 0.994643
vt 0.005357 0.994643
vt 0.005357 0.747321
vt 0.005357 0.005357
vt 0.500000 0.005357
vt 0.500000 0.252679
vt 0.005357 0.252679
vt 0.994643 0.747321
vt 0.994643 0.994643
vt 0.500000 0.500000
vt 0.005357 0.500000
vt 0.994643 0.005357
vt 0.994643 0.252679
vt 0.994643 0.500000
vt 0.500000 0.747321
vt 0.500000 0.994643
vt 0.005357 0.994643
vt 0.005357 0.747321
vt 0.005357 0.005357
vt 0.500000 0.005357
vt 0.500000 0.252679
vt 0.005357 0.252679
vt 0.994643 0.747321
vt 0.994643 0.994643
vt 0.500000 0.500000
vt 0.005357 0.500000
vt 0.994643 0.005357
vt 0.994643 0.252679
vt 0.994643 0.500000
vt 0.500000 0.747321
vt 0.500000 0.994643
vt 0.005357 0.994643
vt 0.005357 0.747321
vt 0.005357 0.005357
vt 0.500000 0.005357
vt 0.500000 0.252679
vt 0.005357 0.252679
vt 0.994643 0.747321
vt 0.994643 0.994643
vt 0.500000 0.500000
vt 0.005357 0.500000
vt 0.994643 0.005357
vt 0.994643 0.252679
vt 0.994643 0.500000
vt 0.500000 0.747321
vt 0.500000 0.994643
vt 0.005357 0.994643
vt 0.005357 0.747321
vt 0.005357 0.005357
vt 0.500000 0.005357
vt 0.500000 0.252679
vt 0.005357 0.252679
vt 0.994643 0.747321
vt 0.994643 0.994643
vt 0.500000 0.500000
vt 0.005357 0.500000
vt 0.994643 0.005357
vt 0.994643 0.252679
vt 0.994643 0.500000
vt 0.500000 0.747321
vt 0.500000 0.994643
vt 0.005357 0.994643
vt 0.005357 0.747321
vt 0.005357 0.005357
vt 0.500000 0.005357
vt 0.500000 0.252679
vt 0.005357 0.252679
vt 0.994643 0.747321
vt 0.994643 0.994643
vt 0.994643 0.252679
vt 0.994643 0.005357
vt 0.994643 0.005357
vt 0.994643 0.500000
vt 0.500000 0.500000
vt 0.500000 0.005357
vt 0.005357 0.500000
vt 0.005357 0.005357
vt 0.994643 0.747321
vt 0.500000 0.747321
vt 0.994643 0.994643
vt 0.500000 0.994643
vt 0.005357 0.994643
vt 0.005357 0.747321
vt 0.994643 0.005357
vt 0.994643 0.500000
vt 0.500000 0.500000
vt 0.500000 0.005357
vt 0.005357 0.500000
vt 0.005357 0.005357
vt 0.994643 0.747321
vt 0.500000 0.747321
vt 0.994643 0.994643
vt 0.500000 0.994643
vt 0.005357 0.994643
vt 0.005357 0.747321
vt 0.994643 0.005357
vt 0.994643 0.500000
vt 0.500000 0.500000
vt 0.500000 0.005357
vt 0.005357 0.500000
vt 0.005357 0.005357
vt 0.994643 0.747321
vt 0.500000 0.747321
vt 0.994643 0.994643
vt 0.500000 0.994643
vt 0.005357 0.994643
vt 0.005357 0.747321
vt 0.994643 0.005357
vt 0.994643 0.500000
vt 0.500000 0.500000
vt 0.500000 0.005357
vt 0.005357 0.500000
vt 0.005357 0.005357
vt 0.994643 0.747321
vt 0.500000 0.747321
vt 0.994643 0.994643
vt 0.500000 0.994643
vt 0.005357 0.994643
vt 0.005357 0.747321
vt 0.994643 0.005357
vt 0.994643 0.500000
vt 0.500000 0.500000
vt 0.500000 0.005357
vt 0.005357 0.500000
vt 0.005357 0.005357
vt 0.994643 0.747321
vt 0.500000 0.747321
vt 0.994643 0.994643
vt 0.500000 0.994643
vt 0.005357 0.994643
vt 0.005357 0.747321
vt 0.994643 0.005357
vt 0.994643 0.500000
vt 0.500000 0.500000
vt 0.500000 0.005357
vt 0.005357 0.500000
vt 0.005357 0.005357
vt 0.994643 0.747321
vt 0.500000 0.747321
vt 0.994643 0.994643
vt 0.500000 0.994643
vt 0.005357 0.994643
vt 0.005357 0.747321
vt 0.005357 0.994643
vn 0.2075 0.7303 0.6508
vn -0.4503 0.8035 0.3893
vn 0.4527 0.8425 0.2921
vn 0.6891 0.6756 -0.2622
vn -0.5104 0.6886 -0.5151
vn -0.5558 0.8304 0.0396
vn 0.4922 0.7290 -0.4758
vn -0.7548 0.6465 0.1114
vn 0.4429 0.8936 -0.0726
vn 0.5181 0.8528 0.0662
vn -0.1038 0.6614 -0.7428
vn -0.2181 0.7256 -0.6526
vn -0.4180 0.8228 -0.3851
vn 0.0744 0.6870 -0.7228
vn -0.2683 0.7313 -0.6271
vn 0.4331 0.7328 -0.5248
vn -0.4929 0.8303 -0.2602
vn -0.7259 0.6222 0.2932
vn 0.6635 0.5934 0.4557
vn 0.5843 0.7904 -0.1841
vn -0.6348 0.7700 0.0646
vn 0.7157 0.6208 0.3198
vn -0.3610 0.9070 -0.2168
vn -0.3461 0.8610 -0.3726
vn -0.3149 0.6222 0.7167
vn -0.1622 0.7437 0.6485
vn 0.1661 0.8305 0.5316
vn -0.6610 0.7244 0.1958
vn 0.4647 0.4204 0.7793
vn -0.0197 0.9294 -0.3686
vn 0.1687 0.8146 0.5550
vn -0.0932 0.9160 0.3901
vn 0.9155 0.3531 0.1926
vn 0.8166 0.5585 0.1458
vn 0.4420 0.8851 -0.1456
vn -0.5698 0.6870 -0.4510
vn -0.2660 0.7643 0.5874
vn 0.6542 0.6208 -0.4320
vn -0.3768 0.9070 0.1881
vn -0.5002 0.8610 0.0919
vn 0.3868 0.6955 0.6056
vn 0.4572 0.7522 0.4746
vn 0.5377 0.8305 0.1454
vn -0.3638 0.6781 -0.6386
vn -0.5514 0.7541 0.3568
vn 0.7594 0.6401 0.1164
vn -0.3427 0.9394 -0.0014
vn -0.2865 0.9414 -0.1780
vn 0.0039 0.5745 0.8185
vn 0.0937 0.6784 0.7287
vn 0.3446 0.8384 0.4223
vn 0.2176 0.7748 -0.5936
vn -0.7667 0.5742 -0.2872
vn 0.1417 0.7061 0.6938
vn -0.4190 0.8609 -0.2886
vn -0.2386 0.9144 -0.3269
vn -0.8307 0.3635 0.4216
vn -0.7509 0.4810 0.4524
vn -0.4119 0.7466 0.5225
vn 0.5548 0.8156 -0.1641
vn -0.5063 0.7718 -0.3846
vn -0.0113 0.4881 0.8727
vn -0.1264 0.9555 -0.2664
vn 0.0211 0.9422 -0.3345
vn -0.8103 0.5640 0.1590
vn -0.7359 0.6110 0.2916
vn -0.4955 0.6874 0.5310
vn 0.6344 0.7379 0.2303
vn 0.0199 0.5085 -0.8609
vn -0.1806 0.9107 0.3714
vn -0.4750 0.8483 -0.2338
vn -0.6798 0.4285 -0.5952
vn 0.4327 0.8421 -0.3218
vn 0.4510 0.8120 0.3704
vn -0.0648 0.9393 -0.3369
vn -0.4150 0.8154 -0.4035
vn -0.0229 0.9324 0.3607
vn 0.1025 0.8616 0.4972
vn -0.5207 0.7312 -0.4406
vn 0.1309 0.6795 -0.7219
vn -0.4733 0.8792 -0.0548
vn -0.1849 0.7897 0.5849
vn 0.7185 0.6784 0.1535
vn 0.4494 0.7360 -0.5063
vn 0.3636 0.7385 -0.5678
vn 0.7249 0.6879 0.0361
vn -0.0493 0.9589 -0.2793
vn -0.5219 0.8475 0.0966
vn 0.2355 0.7038 0.6703
vn 0.3637 0.7978 0.4809
vn 0.0966 0.5844 -0.8057
vn 0.6286 0.6963 -0.3465
vn -0.2453 0.7733 -0.5847
vn -0.6718 0.7293 -0.1296
vn 0.3640 0.7694 0.5250
vn 0.6097 0.7926 0.0064
vn 0.6695 0.6969 -0.2573
vn 0.5128 0.7398 0.4356
vn 0.3527 0.8046 -0.4778
vn -0.2510 0.6622 -0.7061
vn -0.5308 0.6185 0.5794
vn 0.1356 0.8292 0.5422
vn -0.0399 0.6339 0.7724
vn -0.5944 0.7303 0.3368
vn 0.2993 0.7483 0.5921
vn 0.7631 0.6318 0.1359
vn -0.2739 0.6870 -0.6731
vn -0.5240 0.8508 -0.0402
vn 0.3671 0.7095 0.6015
vn 0.1779 0.9239 -0.3388
usemtl Material.001
s off
f 2/1/1 9/2/1 11/3/1 5/4/1
f 11/3/2 8/5/2 1/6/2 5/4/2
f 11/3/3 9/2/3 10/7/3 12/8/3
f 12/8/4 10/7/4 4/9/4 6/10/4
f 12/8/5 6/10/5 3/11/5 7/12/5
f 8/5/6 11/3/6 12/8/6 7/12/6
f 13/13/7 17/14/7 25/15/7 21/16/7
f 27/17/8 24/18/8 16/19/8 18/20/8
f 21/16/9 25/15/9 26/21/9 20/22/9
f 20/22/10 26/21/10 27/17/10 19/23/10
f 14/24/11 22/25/11 25/15/11 17/14/11
f 25/15/12 22/25/12 23/26/12 26/21/12
f 26/21/13 23/26/13 24/18/13 27/17/13
f 54/27/14 45/28/14 42/29/14 46/30/14
f 29/31/15 36/32/15 38/33/15 32/34/15
f 38/33/16 35/35/16 28/36/16 32/34/16
f 38/33/17 36/32/17 37/37/17 39/38/17
f 39/38/18 37/37/18 31/39/18 33/40/18
f 39/38/19 33/40/19 30/41/19 34/42/19
f 35/35/20 38/33/20 39/38/20 34/42/20
f 40/43/21 44/44/21 52/45/21 48/46/21
f 54/27/22 51/47/22 43/48/22 45/28/22
f 48/46/23 52/45/23 53/49/23 47/50/23
f 47/50/24 53/49/24 54/27/24 46/30/24
f 41/51/25 49/52/25 52/45/25 44/44/25
f 52/45/26 49/52/26 50/53/26 53/49/26
f 53/49/27 50/53/27 51/47/27 54/27/27
f 69/54/28 60/55/28 57/56/28 61/57/28
f 55/58/29 59/59/29 67/60/29 63/61/29
f 69/54/30 66/62/30 58/63/30 60/55/30
f 63/61/31 67/60/31 68/64/31 62/65/31
f 62/65/32 68/64/32 69/54/32 61/57/32
f 56/66/33 64/67/33 67/60/33 59/59/33
f 67/60/34 64/67/34 65/68/34 68/64/34
f 68/64/35 65/68/35 66/62/35 69/54/35
f 84/69/36 75/70/36 72/71/36 76/72/36
f 70/73/37 74/74/37 82/75/37 78/76/37
f 84/69/38 81/77/38 73/78/38 75/70/38
f 78/76/39 82/75/39 83/79/39 77/80/39
f 77/80/40 83/79/40 84/69/40 76/72/40
f 71/81/41 79/82/41 82/75/41 74/74/41
f 82/75/42 79/82/42 80/83/42 83/79/42
f 83/79/43 80/83/43 81/77/43 84/69/43
f 99/84/44 90/85/44 87/86/44 91/87/44
f 85/88/45 89/89/45 97/90/45 93/91/45
f 99/84/46 96/92/46 88/93/46 90/85/46
f 93/91/47 97/90/47 98/94/47 92/95/47
f 92/95/48 98/94/48 99/84/48 91/87/48
f 86/96/49 94/97/49 97/90/49 89/89/49
f 97/90/50 94/97/50 95/98/50 98/94/50
f 98/94/51 95/98/51 96/92/51 99/84/51
f 114/99/52 105/100/52 102/101/52 106/102/52
f 100/103/53 104/104/53 112/105/53 108/106/53
f 114/99/54 111/107/54 103/108/54 105/100/54
f 108/106/55 112/105/55 113/109/55 107/110/55
f 107/110/56 113/109/56 114/99/56 106/102/56
f 101/111/57 109/112/57 112/105/57 104/104/57
f 112/105/58 109/112/58 110/113/58 113/109/58
f 113/109/59 110/113/59 111/107/59 114/99/59
f 129/114/60 120/115/60 117/116/60 121/117/60
f 115/118/61 119/119/61 127/120/61 123/121/61
f 129/114/62 126/122/62 118/123/62 120/115/62
f 123/121/63 127/120/63 128/124/63 122/125/63
f 122/125/64 128/124/64 129/114/64 121/117/64
f 116/126/65 124/127/65 127/120/65 119/119/65
f 127/120/66 124/127/66 125/128/66 128/124/66
f 128/124/67 125/128/67 126/122/67 129/114/67
f 141/129/68 135/130/68 132/131/68 136/132/68
f 130/133/69 134/134/69 140/135/69 137/136/69
f 141/129/70 139/137/70 133/138/70 135/130/70
f 138/139/71 139/137/71 141/129/71 140/135/71
f 131/140/72 138/139/72 140/135/72 134/134/72
f 143/141/73 150/142/73 152/143/73 146/144/73
f 152/143/74 149/145/74 142/146/74 146/144/74
f 152/143/75 150/142/75 151/147/75 153/148/75
f 153/148/76 151/147/76 145/149/76 147/150/76
f 153/148/77 147/150/77 144/151/77 148/152/77
f 149/145/78 152/143/78 153/148/78 148/152/78
f 155/153/79 162/154/79 164/155/79 158/156/79
f 164/155/80 161/157/80 154/158/80 158/156/80
f 164/155/81 162/154/81 163/159/81 165/160/81
f 165/160/82 163/159/82 157/161/82 159/162/82
f 165/160/83 159/162/83 156/163/83 160/164/83
f 161/157/84 164/155/84 165/160/84 160/164/84
f 167/165/85 174/166/85 176/167/85 170/168/85
f 176/167/86 173/169/86 166/170/86 170/168/86
f 176/167/87 174/166/87 175/171/87 177/172/87
f 177/172/88 175/171/88 169/173/88 171/174/88
f 177/172/89 171/174/89 168/175/89 172/176/89
f 173/169/90 176/167/90 177/172/90 172/176/90
f 179/177/91 186/178/91 188/179/91 182/180/91
f 188/179/92 185/181/92 178/182/92 182/180/92
f 188/179/93 186/178/93 187/183/93 189/184/93
f 189/184/94 187/183/94 181/185/94 183/186/94
f 189/184/95 183/186/95 180/187/95 184/188/95
f 185/181/96 188/179/96 189/184/96 184/188/96
f 191/189/97 198/190/97 200/191/97 194/192/97
f 200/191/98 197/193/98 190/194/98 194/192/98
f 200/191/99 198/190/99 199/195/99 201/196/99
f 201/196/100 199/195/100 193/197/100 195/198/100
f 201/196/101 195/198/101 192/199/101 196/200/101
f 197/193/102 200/191/102 201/196/102 196/200/102
f 203/201/103 210/202/103 212/203/103 206/204/103
f 212/203/104 209/205/104 202/206/104 206/204/104
f 212/203/105 210/202/105 211/207/105 213/208/105
f 213/208/106 211/207/106 205/209/106 207/210/106
f 213/208/107 207/210/107 204/211/107 208/212/107
f 209/205/108 212/203/108 213/208/108 208/212/108
f 27/17/109 18/20/109 15/213/109 19/23/109
f 140/135/110 141/129/110 136/132/110 137/136/110
