# Blender v2.79 (sub 0) OBJ File: 'grasses.blend'
# www.blender.org
mtllib grasses.mtl
o grasses_01b_Plane.014
v 0.507087 -0.060831 1.001238
v 1.054859 -0.068677 -0.861879
v -3.156469 7.802426 0.705547
v -2.608695 7.794579 -1.157570
v -1.464906 6.305102 0.813067
v 0.065340 3.567832 0.929626
v 0.613113 3.559985 -0.933491
v -0.917133 6.297254 -1.050050
v 0.010572 -0.173438 0.716595
v 1.753475 -0.081428 0.233491
v -0.828335 8.895444 -3.081536
v 0.964833 9.038981 -2.872939
v -0.873406 7.229738 -1.240126
v -0.479440 4.077556 0.037060
v 1.263463 4.169566 -0.446044
v 0.869496 7.321747 -1.723230
v 1.330376 -0.024747 -0.483479
v -0.063481 -0.166663 -0.359291
v 2.813990 5.346534 4.552375
v 1.408203 5.326485 4.673450
v 2.083382 4.280312 1.836374
v 1.300927 2.750884 -0.152302
v 0.152178 2.665112 0.260995
v 0.666325 4.374250 1.954409
v 0.777260 -0.106763 1.634165
v 0.277121 -0.087251 -0.176561
v 0.519037 12.100683 -0.125148
v 0.111636 11.956680 -1.909736
v 0.228449 7.872948 1.288261
v 0.627724 4.091791 1.670361
v 0.127585 4.111303 -0.140364
v 0.480801 7.720010 -0.473456
v 1.174671 -0.099798 1.099815
v 0.612543 -0.095972 -0.751501
v -2.169207 10.847881 2.204106
v -2.636733 10.704187 0.376912
v 0.045055 7.226426 1.467579
v 1.061940 3.705766 1.149228
v 0.499813 3.709592 -0.702088
v 0.228333 7.328362 -0.359969
v 1.645102 0.033927 0.146737
v 0.544521 -0.009107 0.833059
v 3.055450 7.306876 2.319949
v 1.954870 7.263842 3.006271
v 1.979244 4.968312 0.800862
v 1.505675 2.583003 0.074102
v 0.405095 2.539969 0.760423
v 0.878664 4.925279 1.487183
v 0.801678 -0.095425 -0.483368
v 0.676432 0.016075 1.386651
v 3.726621 7.702625 -1.510979
v 3.601375 7.814124 0.359040
v 2.223651 6.155975 -1.150531
v 0.962717 3.425529 -0.751011
v 0.837472 3.537028 1.119007
v 2.098406 6.267475 0.719488
v 1.239102 -0.053596 -0.366749
v -0.327183 -0.111039 0.666954
v 3.157572 7.873516 1.608404
v 1.591288 7.816072 2.642107
v 2.095112 6.264999 0.576503
v 1.248778 3.480099 -0.279626
v -0.317507 3.422656 0.754077
v 0.528828 6.207556 1.610206
v 1.950337 0.148649 1.271203
v 1.678413 0.038920 -0.717986
v -2.062432 8.753305 2.166653
v -2.334356 8.643576 0.177464
v -0.338798 7.145697 1.621652
v 1.304391 4.158293 1.214351
v 1.032467 4.048563 -0.774838
v -0.610722 7.035966 -0.367537
v 0.165508 -0.163645 0.033599
v 2.041753 -0.173314 0.102422
v 1.023332 9.525289 -3.137179
v 2.735292 9.515619 -2.366320
v 0.310912 7.680318 -1.488624
v 0.127236 4.307514 -0.397363
v 2.003481 4.297844 -0.328540
v 2.187156 7.670650 -1.419802
v 1.629846 0.046868 1.840713
v 1.101288 0.153924 -0.033579
v -4.488376 7.236305 6.238455
v -5.007329 7.512743 4.372207
v -1.045615 5.851489 4.334616
v 1.361759 3.864829 2.454165
v 0.504778 4.004990 0.996187
v -1.555437 6.286376 2.475712
v -0.375402 -0.227643 1.749307
v 0.855442 -0.033244 0.175126
v 0.849031 12.899133 1.749943
v 2.118339 12.910180 0.253499
v -0.506584 8.325345 1.936424
v -0.542296 4.245132 2.105019
v 0.688548 4.439531 0.530838
v 1.164943 8.271034 1.015976
v 1.333755 -0.116070 0.313479
v 2.783596 0.069050 1.494405
v 2.327399 11.672857 -2.539075
v 3.703144 11.692221 -1.324067
v 1.313020 7.709518 -0.694030
v 1.020364 3.920424 0.161950
v 2.470206 4.105544 1.342876
v 2.144086 7.935821 0.872299
v 1.097073 -0.064404 0.956793
v -0.944614 -0.072656 1.002199
v 1.969394 8.204650 4.722219
v -0.072294 8.196399 4.767624
v 1.537551 6.630054 2.992874
v 1.166225 3.751522 1.422294
v -0.875463 3.743270 1.467699
v -0.504136 6.621801 3.038279
vt 1.017431 -0.006977
vt 1.017431 0.326357
vt 0.708151 0.326357
vt 0.708151 -0.006977
vt 1.017431 0.659690
vt 0.708151 0.659690
vt 0.708151 0.659690
vt 1.017431 0.659690
vt 1.017431 0.993023
vt 0.708151 0.993023
vt 1.017431 -0.006977
vt 1.017431 0.326357
vt 0.708151 0.326357
vt 0.708151 -0.006977
vt 0.373257 0.673364
vt 0.696897 0.669711
vt 0.694105 0.982787
vt 0.382629 0.982947
vt 0.675254 0.009737
vt 0.707287 0.430259
vt 0.349342 0.364311
vt 0.364036 0.012021
vt 0.018861 0.673364
vt 0.325273 0.669711
vt 0.344326 0.990580
vt 0.032350 0.989896
vt 0.281502 0.008396
vt 0.342860 0.428523
vt -0.014232 0.362722
vt -0.020323 0.010999
vt 0.325273 0.669711
vt 0.018861 0.673364
vt 0.281502 0.008396
vt 0.342860 0.428523
vt -0.014232 0.362722
vt -0.020323 0.010999
vt 0.373257 0.673364
vt 0.696897 0.669711
vt 0.694105 0.982787
vt 0.382629 0.982947
vt 0.675254 0.009737
vt 0.707287 0.430259
vt 0.349342 0.364311
vt 0.364036 0.012021
vt 0.708151 0.659690
vt 1.017431 0.659690
vt 1.017431 0.993023
vt 0.708151 0.993023
vt 1.017431 -0.006977
vt 1.017431 0.326357
vt 0.708151 0.326357
vt 0.708151 -0.006977
vt 0.708151 0.659690
vt 1.017431 0.659690
vt 1.017431 0.993023
vt 0.708151 0.993023
vt 1.017431 -0.006977
vt 1.017431 0.326357
vt 0.708151 0.326357
vt 0.708151 -0.006977
vt 0.708151 0.659690
vt 1.017431 0.659690
vt 1.017431 0.993023
vt 0.708151 0.993023
vt 1.017431 -0.006977
vt 1.017431 0.326357
vt 0.708151 0.326357
vt 0.708151 -0.006977
vt 0.708151 0.659690
vt 1.017431 0.659690
vt 1.017431 0.993023
vt 0.708151 0.993023
vt 1.017431 -0.006977
vt 1.017431 0.326357
vt 0.708151 0.326357
vt 0.708151 -0.006977
vt 0.373257 0.673364
vt 0.696897 0.669711
vt 0.694105 0.982787
vt 0.382629 0.982947
vt 0.675254 0.009737
vt 0.707287 0.430259
vt 0.349342 0.364311
vt 0.364036 0.012021
vt 0.018861 0.673364
vt 0.325273 0.669711
vt 0.344326 0.990580
vt 0.032350 0.989896
vt 0.281502 0.008396
vt 0.342860 0.428523
vt -0.014232 0.362722
vt -0.020323 0.010999
vt 0.018861 0.673364
vt 0.325273 0.669711
vt 0.344326 0.990580
vt 0.032350 0.989896
vt 0.281502 0.008396
vt 0.342860 0.428523
vt -0.014232 0.362722
vt -0.020323 0.010999
vt 0.708151 0.659690
vt 1.017431 0.659690
vt 1.017431 0.993023
vt 0.708151 0.993023
vt 1.017431 -0.006977
vt 1.017431 0.326357
vt 0.708151 0.326357
vt 0.708151 -0.006977
vt 0.344326 0.990580
vt 0.032350 0.989896
vt 1.017431 0.993023
vt 0.708151 0.993023
vn 0.9524 0.1215 0.2795
vn 0.8417 0.4810 0.2454
vn 0.0141 0.6620 0.7494
vn 0.2538 0.1811 0.9501
vn 0.2268 0.3900 0.8925
vn -0.0048 0.9379 -0.3470
vn -0.2184 0.1703 -0.9609
vn -0.1279 0.7666 -0.6292
vn 0.8004 0.5955 -0.0691
vn 0.9634 0.0366 -0.2657
vn 0.9976 -0.0005 -0.0692
vn 0.9564 0.0321 -0.2903
vn 0.9780 0.1853 -0.0954
vn -0.4315 0.6226 -0.6528
vn -0.5269 -0.0530 -0.8483
vn -0.5069 0.3418 -0.7914
vn -0.7246 0.6833 -0.0893
vn -0.9968 0.0403 -0.0692
vn -0.9093 0.4074 -0.0852
vn -0.4255 0.6708 -0.6075
vn -0.5513 0.0221 -0.8340
vn -0.5169 0.3912 -0.7615
vn 0.6539 0.7453 -0.1305
vn 0.9776 0.1555 -0.1422
vn 0.8586 0.4919 -0.1445
vn -0.1781 0.6061 0.7752
vn -0.0360 0.0956 0.9948
vn -0.0333 0.3093 0.9504
vn 0.3863 0.9198 0.0689
vn 0.9128 0.1813 -0.3661
vn 0.6329 0.7635 -0.1284
vn 0.6322 -0.0791 0.7707
vn 0.7888 -0.0194 0.6144
vn 0.6521 -0.0724 0.7546
vn -0.6992 0.5004 0.5106
vn -0.6299 -0.0198 0.7764
vn -0.7728 0.1056 0.6258
vn -0.0179 0.7415 -0.6707
vn -0.0226 0.1215 -0.9923
vn -0.0214 0.4810 -0.8765
vn 0.9991 -0.0053 -0.0432
vn 0.6445 0.7415 0.1864
usemtl Material
s off
f 2/1/1 7/2/1 6/3/1 1/4/1
f 6/3/2 7/2/2 8/5/2 5/6/2
f 13/7/3 16/8/3 12/9/3 11/10/3
f 10/11/4 15/12/4 14/13/4 9/14/4
f 14/13/5 15/12/5 16/8/5 13/7/5
f 21/15/6 24/16/6 20/17/6 19/18/6
f 18/19/7 23/20/7 22/21/7 17/22/7
f 22/21/8 23/20/8 24/16/8 21/15/8
f 37/23/9 40/24/9 36/25/9 35/26/9
f 26/27/10 31/28/10 30/29/10 25/30/10
f 30/29/11 31/28/11 32/31/11 29/32/11
f 34/33/12 39/34/12 38/35/12 33/36/12
f 38/35/13 39/34/13 40/24/13 37/23/13
f 45/37/14 48/38/14 44/39/14 43/40/14
f 42/41/15 47/42/15 46/43/15 41/44/15
f 46/43/16 47/42/16 48/38/16 45/37/16
f 53/45/17 56/46/17 52/47/17 51/48/17
f 50/49/18 55/50/18 54/51/18 49/52/18
f 54/51/19 55/50/19 56/46/19 53/45/19
f 61/53/20 64/54/20 60/55/20 59/56/20
f 58/57/21 63/58/21 62/59/21 57/60/21
f 62/59/22 63/58/22 64/54/22 61/53/22
f 69/61/23 72/62/23 68/63/23 67/64/23
f 66/65/24 71/66/24 70/67/24 65/68/24
f 70/67/25 71/66/25 72/62/25 69/61/25
f 77/69/26 80/70/26 76/71/26 75/72/26
f 74/73/27 79/74/27 78/75/27 73/76/27
f 78/75/28 79/74/28 80/70/28 77/69/28
f 85/77/29 88/78/29 84/79/29 83/80/29
f 82/81/30 87/82/30 86/83/30 81/84/30
f 86/83/31 87/82/31 88/78/31 85/77/31
f 93/85/32 96/86/32 92/87/32 91/88/32
f 90/89/33 95/90/33 94/91/33 89/92/33
f 94/91/34 95/90/34 96/86/34 93/85/34
f 101/93/35 104/94/35 100/95/35 99/96/35
f 98/97/36 103/98/36 102/99/36 97/100/36
f 102/99/37 103/98/37 104/94/37 101/93/37
f 109/101/38 112/102/38 108/103/38 107/104/38
f 106/105/39 111/106/39 110/107/39 105/108/39
f 110/107/40 111/106/40 112/102/40 109/101/40
f 29/32/41 32/31/41 28/109/41 27/110/41
f 5/6/42 8/5/42 4/111/42 3/112/42
