# Blender v2.79 (sub 0) OBJ File: 'thorn_box.blend'
# www.blender.org
mtllib thorn_box.mtl
o r1-node.001_ID506.001
v 0.181298 1.082495 -0.190791
v -0.184359 -0.017605 -0.190791
v 0.181298 -0.017605 -0.190791
v -0.184359 1.082495 -0.190791
v -0.001530 1.382295 0.006770
v -0.184359 1.082495 0.204473
v 0.181298 -0.017605 0.204473
v -0.184359 -0.017605 0.204473
v 0.181298 1.082495 0.204473
vt 1.000000 0.511348
vt 0.791658 0.511348
vt 1.000000 0.000000
vt 0.791658 0.000000
vt 0.791658 0.511348
vt 1.000000 0.511348
vt 0.895829 0.840467
vt 0.791658 1.000000
vt 0.583316 1.000000
vt 0.791658 0.214158
vt 0.583316 0.214158
vt 0.594795 0.806715
vt 0.386453 0.806715
vt 0.490624 0.592557
vt 0.291658 1.000000
vt 0.000000 1.000000
vt 0.291658 0.214158
vt 0.000000 0.214158
vt 0.497908 0.807908
vt 0.206250 0.807908
vt 0.352027 0.593750
vt 0.437539 0.000000
vt 0.583316 0.214158
vt 0.291658 0.214158
vt 0.291658 1.000000
vt 0.583316 1.000000
vn 0.7071 0.0000 -0.7071
vn -0.7071 0.0000 -0.7071
vn 0.6696 0.3129 -0.6736
vn -0.6696 0.3129 -0.6736
vn 0.0000 1.0000 -0.0001
vn -0.7071 0.0000 0.7071
vn 0.7071 0.0000 0.7071
vn -0.6695 0.3129 0.6736
vn 0.6695 0.3129 0.6736
g r0
g r1-node.001_ID506.001_material
usemtl material
s 1
f 3/1/1 2/2/2 1/3/3
f 4/4/4 1/3/3 2/2/2
f 1/5/3 4/6/4 5/7/5
f 8/8/6 7/9/7 6/10/8
f 9/11/9 6/10/8 7/9/7
f 6/12/8 9/13/9 5/14/5
f 7/15/7 3/16/1 9/17/9
f 1/18/3 9/17/9 3/16/1
f 9/19/9 1/20/3 5/21/5
f 5/22/5 4/23/4 6/24/8
f 8/25/6 6/24/8 4/23/4
f 8/25/6 4/23/4 2/26/2
