# Blender v2.79 (sub 0) OBJ File: 'Balcony2.blend'
# www.blender.org
mtllib Balcony2.mtl
o Balcony3Stilts_Cube.006
v -4.446043 20.105858 0.249763
v -4.446043 20.105858 -0.211359
v -3.984922 20.105858 -0.211359
v -3.984922 20.105858 0.249763
v 5.306025 20.105858 0.249763
v 5.306025 20.105858 -0.211359
v 5.767147 20.105858 -0.211359
v 5.767147 20.105858 0.249763
v -4.446043 0.042511 0.249763
v -4.446043 0.042511 -0.211359
v -3.984922 0.042511 -0.211359
v -3.984922 0.042511 0.249763
v 5.306025 0.042511 0.249763
v 5.306025 0.042511 -0.211359
v 5.767147 0.042511 -0.211359
v 5.767147 0.042511 0.249763
v -4.461782 19.943823 0.318311
v -4.461782 19.943823 -2.692588
v -3.966703 19.943823 -2.692588
v -3.966703 19.943823 0.318311
v -4.461782 20.410248 0.318311
v -4.461782 20.410248 -2.692588
v -3.966703 20.410248 -2.692588
v -3.966703 20.410248 0.318311
v 5.289440 19.943823 0.318311
v 5.289440 19.943823 -2.692588
v 5.784517 19.943823 -2.692588
v 5.784517 19.943823 0.318311
v 5.289440 20.410248 0.318311
v 5.289440 20.410248 -2.692588
v 5.784517 20.410248 -2.692588
v 5.784517 20.410248 0.318311
v -4.189366 19.997917 -0.310429
v 5.319541 19.997917 -0.310427
v 5.319541 19.997917 0.158987
v -4.189367 19.997917 0.158984
v -4.189366 20.440163 -0.310429
v 5.319541 20.440163 -0.310427
v 5.319541 20.440163 0.158987
v -4.189367 20.440163 0.158984
v 5.385038 23.006870 0.055744
v 5.673953 23.006870 0.055744
v 5.673969 23.006870 -2.802518
v 5.385054 23.006870 -2.802519
v 5.466078 20.430922 -1.726624
v 5.630341 20.430922 -1.726623
v 5.630341 20.430922 -1.562361
v 5.466078 20.430922 -1.562361
v 5.466078 23.011082 -1.726624
v 5.630341 23.011082 -1.726623
v 5.630341 23.011082 -1.562361
v 5.466078 23.011082 -1.562361
v 5.466078 20.430922 -0.823178
v 5.630341 20.430922 -0.823177
v 5.630341 20.430922 -0.658915
v 5.466078 20.430922 -0.658915
v 5.466078 23.011082 -0.823178
v 5.630341 23.011082 -0.823177
v 5.630341 23.011082 -0.658915
v 5.466078 23.011082 -0.658915
v -4.272843 20.430922 -1.726624
v -4.108580 20.430922 -1.726623
v -4.108580 20.430922 -1.562361
v -4.272843 20.430922 -1.562361
v -4.272843 23.011082 -1.726624
v -4.108580 23.011082 -1.726623
v -4.108580 23.011082 -1.562361
v -4.272843 23.011082 -1.562361
v -4.272843 20.430922 -0.823178
v -4.108580 20.430922 -0.823177
v -4.108580 20.430922 -0.658915
v -4.272843 20.430922 -0.658915
v -4.272843 23.011082 -0.823178
v -4.108580 23.011082 -0.823177
v -4.108580 23.011082 -0.658915
v -4.272843 23.011082 -0.658915
v -4.335168 23.006870 -2.802519
v -4.046254 23.006870 -2.802518
v -4.046269 23.006870 0.055744
v -4.335185 23.006870 0.055744
v -4.335168 23.295784 -2.802519
v -4.046254 23.295784 -2.802518
v -4.046269 23.295784 0.055744
v -4.335185 23.295784 0.055744
v -4.081271 23.006870 0.142862
v -4.081271 23.006870 -0.146053
v 5.397848 23.006870 -0.146053
v 5.397848 23.006870 0.142862
v -4.081271 23.295784 0.142862
v -4.081271 23.295784 -0.146053
v 5.397848 23.295784 -0.146053
v 5.397848 23.295784 0.142862
v -3.166925 20.430922 0.080536
v -3.166925 20.430922 -0.083727
v -3.002663 20.430922 -0.083727
v -3.002663 20.430922 0.080536
v -3.166925 23.011082 0.080536
v -3.166925 23.011082 -0.083727
v -3.002663 23.011082 -0.083727
v -3.002663 23.011082 0.080536
v -1.967807 20.430922 0.080536
v -1.967807 20.430922 -0.083727
v -1.803544 20.430922 -0.083727
v -1.803544 20.430922 0.080536
v -1.967807 23.011082 0.080536
v -1.967807 23.011082 -0.083727
v -1.803544 23.011082 -0.083727
v -1.803544 23.011082 0.080536
v -0.768689 20.430922 0.080536
v -0.768689 20.430922 -0.083727
v -0.604427 20.430922 -0.083727
v -0.604427 20.430922 0.080536
v -0.768689 23.011082 0.080536
v -0.768689 23.011082 -0.083727
v -0.604427 23.011082 -0.083727
v -0.604427 23.011082 0.080536
v 0.430429 20.430922 0.080536
v 0.430429 20.430922 -0.083727
v 0.594692 20.430922 -0.083727
v 0.594692 20.430922 0.080536
v 0.430429 23.011082 0.080536
v 0.430429 23.011082 -0.083727
v 0.594692 23.011082 -0.083727
v 0.594692 23.011082 0.080536
v 1.629547 20.430922 0.080536
v 1.629547 20.430922 -0.083727
v 1.793810 20.430922 -0.083727
v 1.793810 20.430922 0.080536
v 1.629547 23.011082 0.080536
v 1.629547 23.011082 -0.083727
v 1.793810 23.011082 -0.083727
v 1.793810 23.011082 0.080536
v 2.828665 20.430922 0.080536
v 2.828665 20.430922 -0.083727
v 2.992928 20.430922 -0.083727
v 2.992928 20.430922 0.080536
v 2.828665 23.011082 0.080536
v 2.828665 23.011082 -0.083727
v 2.992928 23.011082 -0.083727
v 2.992928 23.011082 0.080536
v 4.027783 20.430922 0.080536
v 4.027783 20.430922 -0.083727
v 4.192046 20.430922 -0.083727
v 4.192046 20.430922 0.080536
v 4.027783 23.011082 0.080536
v 4.027783 23.011082 -0.083727
v 4.192046 23.011082 -0.083727
v 4.192046 23.011082 0.080536
v 5.385054 23.295784 -2.802519
v 5.673969 23.295784 -2.802518
v 5.673953 23.295784 0.055744
v 5.385038 23.295784 0.055744
v -4.419842 20.911922 0.223205
v -4.419842 20.911922 -0.184802
v -4.011835 20.911922 -0.184802
v -4.011835 20.911922 0.223205
v -4.419842 23.401318 0.223205
v -4.419842 23.401318 -0.184802
v -4.011835 23.401318 -0.184802
v -4.011835 23.401318 0.223205
v -4.472017 20.911922 0.275380
v -4.472017 20.911922 -0.236977
v -3.959660 20.911922 -0.236977
v -3.959660 20.911922 0.275380
v -4.472017 20.426121 0.275380
v -4.472017 20.426121 -0.236977
v -3.959660 20.426121 -0.236977
v -3.959660 20.426121 0.275380
v 5.321299 20.911922 0.223205
v 5.321299 20.911922 -0.184802
v 5.729308 20.911922 -0.184802
v 5.729308 20.911922 0.223205
v 5.321299 23.401318 0.223205
v 5.321299 23.401318 -0.184802
v 5.729308 23.401318 -0.184802
v 5.729308 23.401318 0.223205
v 5.269124 20.911922 0.275380
v 5.269124 20.911922 -0.236977
v 5.781481 20.911922 -0.236977
v 5.781481 20.911922 0.275380
v 5.269124 20.426121 0.275380
v 5.269124 20.426121 -0.236977
v 5.781481 20.426121 -0.236977
v 5.781481 20.426121 0.275380
v -4.419842 20.911922 -2.295017
v -4.419842 20.911922 -2.703024
v -4.011835 20.911922 -2.703024
v -4.011835 20.911922 -2.295017
v -4.419842 23.401318 -2.295017
v -4.419842 23.401318 -2.703024
v -4.011835 23.401318 -2.703024
v -4.011835 23.401318 -2.295017
v -4.472017 20.911922 -2.242842
v -4.472017 20.911922 -2.755199
v -3.959660 20.911922 -2.755199
v -3.959660 20.911922 -2.242842
v -4.472017 20.426121 -2.242842
v -4.472017 20.426121 -2.755199
v -3.959660 20.426121 -2.755199
v -3.959660 20.426121 -2.242842
v 5.321299 20.911922 -2.295017
v 5.321299 20.911922 -2.703024
v 5.729308 20.911922 -2.703024
v 5.729308 20.911922 -2.295017
v 5.321299 23.401318 -2.295017
v 5.321299 23.401318 -2.703024
v 5.729308 23.401318 -2.703024
v 5.729308 23.401318 -2.295017
v 5.269124 20.911922 -2.242842
v 5.269124 20.911922 -2.755199
v 5.781481 20.911922 -2.755199
v 5.781481 20.911922 -2.242842
v 5.269124 20.426121 -2.242842
v 5.269124 20.426121 -2.755199
v 5.781481 20.426121 -2.755199
v 5.781481 20.426121 -2.242842
v 5.855487 20.378578 -2.614378
v 5.855487 20.378578 0.385620
v -4.530907 20.378578 0.385620
v -4.530901 20.378578 -2.614379
v 5.855490 20.468576 -2.614377
v 5.855480 20.468576 0.385621
v -4.530909 20.468576 0.385620
v -4.530904 20.468576 -2.614378
vt 0.545579 2.199244
vt 0.472256 2.199245
vt 0.472259 -0.991023
vt 0.545579 -0.991023
vt 0.618902 2.199244
vt 0.618898 -0.991023
vt 0.692225 2.199244
vt 0.692218 -0.991024
vt 0.398933 2.199244
vt 0.398939 -0.991024
vt 0.090069 2.199292
vt 0.016747 2.199267
vt 0.017845 -0.991000
vt 0.091165 -0.990975
vt 0.163392 2.199317
vt 0.164484 -0.990950
vt 0.236715 2.199342
vt 0.237804 -0.990925
vt -0.056576 2.199242
vt -0.055475 -0.991024
vt 0.474715 0.668337
vt 0.474714 0.187911
vt 0.545489 0.187911
vt 0.545490 0.668337
vt 0.399591 0.187911
vt 0.399592 0.668337
vt 0.328817 0.668337
vt 0.328816 0.187911
vt 0.691475 0.589341
vt 0.691475 0.668337
vt 0.620700 0.668337
vt 0.620700 0.589341
vt 0.620612 0.187910
vt 0.620613 0.668337
vt 0.474715 0.668337
vt 0.474714 0.187911
vt 0.545489 0.187911
vt 0.545490 0.668337
vt 0.399591 0.187911
vt 0.399592 0.668337
vt 0.328817 0.668337
vt 0.328816 0.187911
vt 0.691475 0.589341
vt 0.691475 0.668337
vt 0.620700 0.668337
vt 0.620700 0.589341
vt 0.620612 0.187910
vt 0.620613 0.668337
vt 0.413361 0.844711
vt 0.413363 -0.626796
vt 0.478445 -0.626796
vt 0.478447 0.844711
vt 0.612609 -0.626796
vt 0.612613 0.844711
vt 0.547530 0.844711
vt 0.547526 -0.626796
vt 0.548866 -0.097985
vt 0.548866 0.690594
vt 0.473064 0.690594
vt 0.473063 -0.097985
vt 0.553064 1.167971
vt 0.473665 1.167971
vt 0.473664 -0.079193
vt 0.553064 -0.079193
vt 0.394266 1.167971
vt 0.394265 -0.079193
vt 0.314866 1.167971
vt 0.314865 -0.079193
vt 0.632464 1.167971
vt 0.632464 -0.079193
vt 0.624488 1.183507
vt 0.545089 1.183507
vt 0.545089 -0.063657
vt 0.624488 -0.063657
vt 0.465690 1.183507
vt 0.465689 -0.063657
vt 0.386291 1.183507
vt 0.386289 -0.063657
vt 0.703888 1.183507
vt 0.703888 -0.063657
vt 0.308846 1.113604
vt 0.230773 1.113604
vt 0.230773 -0.112738
vt 0.308847 -0.112738
vt 0.543067 1.113605
vt 0.464994 1.113605
vt 0.464995 -0.112738
vt 0.543069 -0.112737
vt 0.386920 1.113604
vt 0.386921 -0.112738
vt 0.160892 1.102767
vt 0.082818 1.102767
vt 0.082818 -0.123575
vt 0.160892 -0.123575
vt 0.395112 1.102767
vt 0.317039 1.102767
vt 0.317040 -0.123575
vt 0.395114 -0.123575
vt 0.238965 1.102767
vt 0.238966 -0.123575
vt 0.548866 -0.097985
vt 0.548866 0.690594
vt 0.473064 0.690594
vt 0.473063 -0.097985
vt 0.624668 0.690594
vt 0.624667 -0.097985
vt 0.700469 -0.097985
vt 0.700470 0.690594
vt 0.776271 -0.097985
vt 0.776272 0.690594
vt 0.539537 1.307482
vt 0.539533 -1.176629
vt 0.611534 -1.176629
vt 0.611536 1.307482
vt 0.467532 -1.176629
vt 0.467538 1.307482
vt 0.395536 1.307483
vt 0.395532 -1.176629
vt 0.323535 1.307483
vt 0.323533 -1.176629
vt 0.076468 1.146466
vt 0.001220 1.146466
vt 0.001218 -0.035494
vt 0.076466 -0.035494
vt 0.302212 1.146467
vt 0.226964 1.146467
vt 0.226963 -0.035494
vt 0.302212 -0.035494
vt 0.151716 1.146467
vt 0.151715 -0.035494
vt 0.321650 1.150801
vt 0.246402 1.150801
vt 0.246400 -0.031159
vt 0.321649 -0.031159
vt 0.547394 1.150802
vt 0.472146 1.150802
vt 0.472146 -0.031159
vt 0.547394 -0.031159
vt 0.396898 1.150802
vt 0.396897 -0.031159
vt 0.076468 1.146466
vt 0.001220 1.146466
vt 0.001218 -0.035494
vt 0.076466 -0.035494
vt 0.302212 1.146467
vt 0.226964 1.146467
vt 0.226963 -0.035494
vt 0.302212 -0.035494
vt 0.151716 1.146467
vt 0.151715 -0.035494
vt 0.692906 1.144559
vt 0.617658 1.144559
vt 0.617657 -0.037401
vt 0.692905 -0.037401
vt 0.918651 1.144559
vt 0.843403 1.144559
vt 0.843402 -0.037401
vt 0.918651 -0.037401
vt 0.768155 1.144559
vt 0.768154 -0.037401
vt 0.076468 1.146466
vt 0.001220 1.146466
vt 0.001218 -0.035494
vt 0.076466 -0.035494
vt 0.302212 1.146467
vt 0.226964 1.146467
vt 0.226963 -0.035494
vt 0.302212 -0.035494
vt 0.151716 1.146467
vt 0.151715 -0.035494
vt 0.314548 1.168661
vt 0.239300 1.168661
vt 0.239298 -0.013299
vt 0.314547 -0.013299
vt 0.540292 1.168661
vt 0.465044 1.168661
vt 0.465044 -0.013299
vt 0.540292 -0.013299
vt 0.389796 1.168661
vt 0.389795 -0.013299
vt 0.076468 1.146466
vt 0.001220 1.146466
vt 0.001218 -0.035494
vt 0.076466 -0.035494
vt 0.302212 1.146467
vt 0.226964 1.146467
vt 0.226963 -0.035494
vt 0.302212 -0.035494
vt 0.151716 1.146467
vt 0.151715 -0.035494
vt 0.624668 0.690594
vt 0.624667 -0.097985
vt 0.700469 -0.097985
vt 0.700470 0.690594
vt 0.776271 -0.097985
vt 0.776272 0.690594
vt 0.410761 0.710681
vt 0.470624 0.710681
vt 0.470624 0.770545
vt 0.410761 0.770545
vt 0.323035 0.804302
vt 0.386510 0.804302
vt 0.386510 0.867776
vt 0.323035 0.867776
vt 0.405273 0.788897
vt 0.469463 0.788897
vt 0.469464 0.853087
vt 0.405273 0.853087
vt 0.548751 0.799311
vt 0.621524 0.799311
vt 0.621524 0.872085
vt 0.548751 0.872085
vt 0.779192 0.490807
vt 0.699442 0.490807
vt 0.699442 0.004229
vt 0.779192 0.004229
vt 0.619693 0.490807
vt 0.619693 0.004229
vt 0.938690 0.490808
vt 0.858941 0.490807
vt 0.858941 0.004229
vt 0.938691 0.004229
vt 0.155817 0.331453
vt 0.094295 0.331453
vt 0.086427 0.323586
vt 0.163684 0.323586
vt 0.155817 0.392975
vt 0.163684 0.400842
vt 0.094295 0.392975
vt 0.086427 0.400843
vt 0.237942 0.668371
vt 0.160629 0.668372
vt 0.160628 0.595065
vt 0.237942 0.595065
vt 0.315255 0.668371
vt 0.315255 0.595065
vt 0.083314 0.668372
vt 0.006000 0.668372
vt 0.006000 0.595065
vt 0.083314 0.595065
vt 0.393887 0.493027
vt 0.314138 0.493027
vt 0.314138 0.006449
vt 0.393887 0.006449
vt 0.633136 0.493027
vt 0.553386 0.493027
vt 0.553386 0.006448
vt 0.633136 0.006448
vt 0.473637 0.493027
vt 0.473637 0.006449
vt 0.604841 0.611289
vt 0.525091 0.611290
vt 0.514893 0.601092
vt 0.615039 0.601091
vt 0.604841 0.691039
vt 0.615039 0.701237
vt 0.525091 0.691039
vt 0.514892 0.701237
vt 0.159517 0.793642
vt 0.081641 0.793642
vt 0.081641 0.719802
vt 0.159517 0.719802
vt 0.237394 0.793642
vt 0.237394 0.719802
vt 0.315270 0.793642
vt 0.315270 0.719802
vt 0.003766 0.793642
vt 0.003766 0.719803
vt 0.705935 0.989113
vt 0.626186 0.989113
vt 0.626186 0.502535
vt 0.705935 0.502535
vt 0.945183 0.989113
vt 0.865434 0.989113
vt 0.865434 0.502534
vt 0.945184 0.502534
vt 0.785685 0.989113
vt 0.785685 0.502535
vt 0.466987 0.629564
vt 0.421497 0.629564
vt 0.415680 0.623747
vt 0.472804 0.623747
vt 0.466987 0.675053
vt 0.472804 0.680871
vt 0.421497 0.675053
vt 0.415680 0.680871
vt 0.162981 0.687635
vt 0.084615 0.687635
vt 0.084615 0.613331
vt 0.162981 0.613331
vt 0.241347 0.687635
vt 0.241346 0.613331
vt 0.319712 0.687634
vt 0.319712 0.613330
vt 0.006249 0.687635
vt 0.006249 0.613331
vt 0.077501 0.495247
vt -0.002248 0.495247
vt -0.002248 0.008668
vt 0.077502 0.008668
vt 0.316750 0.495247
vt 0.237000 0.495247
vt 0.237001 0.008669
vt 0.316751 0.008669
vt 0.157251 0.495247
vt 0.157251 0.008668
vt 0.604841 0.510514
vt 0.525092 0.510514
vt 0.514894 0.500316
vt 0.615039 0.500316
vt 0.604841 0.590263
vt 0.615039 0.600462
vt 0.525091 0.590263
vt 0.514892 0.600461
vt 0.159518 0.586914
vt 0.080749 0.586914
vt 0.080749 0.512227
vt 0.159518 0.512227
vt 0.238288 0.586913
vt 0.238287 0.512226
vt 0.317057 0.586912
vt 0.317056 0.512226
vt 0.001979 0.586914
vt 0.001980 0.512227
vt 1.241699 0.718945
vt 1.241699 1.147408
vt -0.241700 1.147408
vt -0.241699 0.718945
vt 1.241700 0.718449
vt -0.241698 0.718451
vt -0.241700 0.289988
vt 1.241698 0.289984
vt -0.692170 -0.018370
vt -0.691994 -0.039924
vt 0.026459 -0.034085
vt 0.026283 -0.012531
vt 1.261506 -0.039945
vt 1.261331 -0.018390
vt 1.980069 -0.034117
vt 1.979894 -0.012560
vn 0.7071 0.0000 0.7071
vn -0.7071 0.0000 0.7071
vn 0.7071 0.0000 -0.7071
vn -0.7071 0.0000 -0.7071
vn -1.0000 0.0000 0.0000
vn -0.7071 -0.7071 0.0000
vn -0.5773 -0.5773 0.5773
vn 1.0000 0.0000 0.0000
vn 0.5773 -0.5773 0.5773
vn 0.7071 -0.7071 0.0000
vn 0.0000 0.0000 -1.0000
vn 0.0000 -0.7071 -0.7071
vn 0.0000 0.0000 1.0000
vn 0.0000 -0.7071 0.7071
vn 0.7071 0.7071 0.0000
vn -0.7071 0.7071 0.0000
vn 0.0000 0.7071 -0.7071
vn 0.0000 0.7071 0.7071
vn -0.5773 0.5773 0.5773
vn 0.5773 0.5773 0.5773
vn 0.5773 0.5773 -0.5773
vn -0.5773 0.5773 -0.5773
vn -0.3015 0.9045 -0.3015
vn -0.3015 0.9045 0.3015
vn 0.3015 0.9045 -0.3015
vn 0.3015 0.9045 0.3015
usemtl Wood
s 1
f 8/1/1 5/2/2 13/3/2 16/4/1
f 7/5/3 8/1/1 16/4/1 15/6/3
f 6/7/4 7/5/3 15/6/3 14/8/4
f 5/2/2 6/9/4 14/10/4 13/3/2
f 4/11/1 1/12/2 9/13/2 12/14/1
f 3/15/3 4/11/1 12/14/1 11/16/3
f 2/17/4 3/15/3 11/16/3 10/18/4
f 1/12/2 2/19/4 10/20/4 9/13/2
f 21/21/2 22/22/5 18/23/6 17/24/7
f 23/25/8 24/26/1 20/27/9 19/28/10
f 24/29/1 21/30/2 17/31/7 20/32/9
f 17/24/7 18/23/6 19/33/10 20/34/9
f 29/35/2 30/36/5 26/37/6 25/38/7
f 31/39/8 32/40/1 28/41/9 27/42/10
f 32/43/1 29/44/2 25/45/7 28/46/9
f 25/38/7 26/37/6 27/47/10 28/48/9
f 37/49/11 38/50/11 34/51/12 33/52/12
f 39/53/13 40/54/13 36/55/14 35/56/14
f 33/52/12 34/51/12 35/56/14 36/55/14
f 150/57/15 151/58/15 42/59/10 43/60/10
f 49/61/4 50/62/3 46/63/3 45/64/4
f 50/62/3 51/65/1 47/66/1 46/63/3
f 51/65/1 52/67/2 48/68/2 47/66/1
f 52/69/2 49/61/4 45/64/4 48/70/2
f 57/71/4 58/72/3 54/73/3 53/74/4
f 58/72/3 59/75/1 55/76/1 54/73/3
f 59/75/1 60/77/2 56/78/2 55/76/1
f 60/79/2 57/71/4 53/74/4 56/80/2
f 65/81/4 66/82/3 62/83/3 61/84/4
f 66/85/3 67/86/1 63/87/1 62/88/3
f 67/86/1 68/89/2 64/90/2 63/87/1
f 68/89/2 65/81/4 61/84/4 64/90/2
f 73/91/4 74/92/3 70/93/3 69/94/4
f 74/95/3 75/96/1 71/97/1 70/98/3
f 75/96/1 76/99/2 72/100/2 71/97/1
f 76/99/2 73/91/4 69/94/4 72/100/2
f 82/101/15 83/102/15 79/103/10 78/104/10
f 84/105/16 81/106/16 77/107/6 80/108/6
f 77/107/6 78/109/10 79/110/10 80/108/6
f 84/105/16 83/102/15 82/101/15 81/106/16
f 90/111/17 91/112/17 87/113/12 86/114/12
f 92/115/18 89/116/18 85/117/14 88/118/14
f 85/117/14 86/119/12 87/120/12 88/118/14
f 92/115/18 91/112/17 90/111/17 89/116/18
f 97/121/2 98/122/4 94/123/4 93/124/2
f 98/125/4 99/126/3 95/127/3 94/128/4
f 99/126/3 100/129/1 96/130/1 95/127/3
f 100/129/1 97/121/2 93/124/2 96/130/1
f 105/131/2 106/132/4 102/133/4 101/134/2
f 106/135/4 107/136/3 103/137/3 102/138/4
f 107/136/3 108/139/1 104/140/1 103/137/3
f 108/139/1 105/131/2 101/134/2 104/140/1
f 113/141/2 114/142/4 110/143/4 109/144/2
f 114/145/4 115/146/3 111/147/3 110/148/4
f 115/146/3 116/149/1 112/150/1 111/147/3
f 116/149/1 113/141/2 109/144/2 112/150/1
f 121/151/2 122/152/4 118/153/4 117/154/2
f 122/155/4 123/156/3 119/157/3 118/158/4
f 123/156/3 124/159/1 120/160/1 119/157/3
f 124/159/1 121/151/2 117/154/2 120/160/1
f 129/161/2 130/162/4 126/163/4 125/164/2
f 130/165/4 131/166/3 127/167/3 126/168/4
f 131/166/3 132/169/1 128/170/1 127/167/3
f 132/169/1 129/161/2 125/164/2 128/170/1
f 137/171/2 138/172/4 134/173/4 133/174/2
f 138/175/4 139/176/3 135/177/3 134/178/4
f 139/176/3 140/179/1 136/180/1 135/177/3
f 140/179/1 137/171/2 133/174/2 136/180/1
f 145/181/2 146/182/4 142/183/4 141/184/2
f 146/185/4 147/186/3 143/187/3 142/188/4
f 147/186/3 148/189/1 144/190/1 143/187/3
f 148/189/1 145/181/2 141/184/2 144/190/1
f 152/191/16 149/192/16 44/193/6 41/194/6
f 44/193/6 43/195/10 42/196/10 41/194/6
f 152/191/16 151/58/15 150/57/15 149/192/16
f 173/197/19 176/198/20 175/199/21 174/200/22
f 189/201/19 192/202/20 191/203/21 190/204/22
f 205/205/19 208/206/20 207/207/21 206/208/22
f 157/209/19 160/210/20 159/211/21 158/212/22
f 157/213/19 158/214/22 154/215/23 153/216/24
f 158/214/22 159/217/21 155/218/25 154/215/23
f 159/219/21 160/220/20 156/221/26 155/222/25
f 160/220/20 157/213/19 153/216/24 156/221/26
f 156/223/26 153/224/24 161/225/19 164/226/20
f 155/227/25 156/223/26 164/226/20 163/228/21
f 154/229/23 155/227/25 163/228/21 162/230/22
f 153/224/24 154/229/23 162/230/22 161/225/19
f 164/231/20 161/232/19 165/233/2 168/234/1
f 163/235/21 164/231/20 168/234/1 167/236/3
f 162/237/22 163/238/21 167/239/3 166/240/4
f 161/232/19 162/237/22 166/240/4 165/233/2
f 173/241/19 174/242/22 170/243/23 169/244/24
f 174/245/22 175/246/21 171/247/25 170/248/23
f 175/246/21 176/249/20 172/250/26 171/247/25
f 176/249/20 173/241/19 169/244/24 172/250/26
f 172/251/26 169/252/24 177/253/19 180/254/20
f 171/255/25 172/251/26 180/254/20 179/256/21
f 170/257/23 171/255/25 179/256/21 178/258/22
f 169/252/24 170/257/23 178/258/22 177/253/19
f 180/259/20 177/260/19 181/261/2 184/262/1
f 179/263/21 180/259/20 184/262/1 183/264/3
f 178/265/22 179/263/21 183/264/3 182/266/4
f 177/260/19 178/267/22 182/268/4 181/261/2
f 189/269/19 190/270/22 186/271/23 185/272/24
f 190/273/22 191/274/21 187/275/25 186/276/23
f 191/274/21 192/277/20 188/278/26 187/275/25
f 192/277/20 189/269/19 185/272/24 188/278/26
f 188/279/26 185/280/24 193/281/19 196/282/20
f 187/283/25 188/279/26 196/282/20 195/284/21
f 186/285/23 187/283/25 195/284/21 194/286/22
f 185/280/24 186/285/23 194/286/22 193/281/19
f 196/287/20 193/288/19 197/289/2 200/290/1
f 195/291/21 196/287/20 200/290/1 199/292/3
f 194/293/22 195/291/21 199/292/3 198/294/4
f 193/288/19 194/295/22 198/296/4 197/289/2
f 205/297/19 206/298/22 202/299/23 201/300/24
f 206/301/22 207/302/21 203/303/25 202/304/23
f 207/302/21 208/305/20 204/306/26 203/303/25
f 208/305/20 205/297/19 201/300/24 204/306/26
f 204/307/26 201/308/24 209/309/19 212/310/20
f 203/311/25 204/307/26 212/310/20 211/312/21
f 202/313/23 203/311/25 211/312/21 210/314/22
f 201/308/24 202/313/23 210/314/22 209/309/19
f 212/315/20 209/316/19 213/317/2 216/318/1
f 211/319/21 212/315/20 216/318/1 215/320/3
f 210/321/22 211/319/21 215/320/3 214/322/4
f 209/316/19 210/323/22 214/324/4 213/317/2
f 217/325/10 218/326/9 219/327/7 220/328/6
f 221/329/15 224/330/16 223/331/19 222/332/20
f 217/333/10 221/334/15 222/335/20 218/336/9
f 218/336/9 222/335/20 223/337/19 219/338/7
f 219/338/7 223/337/19 224/339/16 220/340/6
