# Blender v2.79 (sub 0) OBJ File: 'ChestTop2.blend'
# www.blender.org
mtllib ChestTop2.mtl
o chest_top.000_Cube.389
v 1.207301 0.160153 -0.556703
v 1.207006 0.160153 -0.694435
v 1.207006 0.243090 -0.694435
v 1.207229 0.507418 -0.591036
v -1.204339 0.160153 0.550360
v -1.204042 0.160153 0.688092
v -1.204042 0.243091 0.688092
v -1.204264 0.507418 0.584693
v 1.209969 0.160153 0.682900
v 1.209672 0.160153 0.545164
v 1.209746 0.507418 0.579500
v 1.209969 0.243091 0.682900
v 1.209378 0.160153 0.407432
v 1.209378 0.648052 0.407432
v 1.209080 0.160153 0.269699
v 1.209080 0.707035 0.269699
v 1.208784 0.160153 0.131963
v 1.208784 0.739066 0.131963
v 1.208487 0.160153 -0.005770
v 1.208487 0.749293 -0.005770
v 1.208192 0.160153 -0.143502
v 1.208192 0.739066 -0.143502
v 1.207895 0.160153 -0.281235
v 1.207895 0.707035 -0.281235
v 1.207598 0.160153 -0.418970
v 1.207598 0.648052 -0.418970
v -1.207007 0.160153 -0.689243
v -1.206709 0.160153 -0.551510
v -1.206784 0.507418 -0.585844
v -1.207007 0.243091 -0.689243
v -1.206413 0.160153 -0.413774
v -1.206413 0.648052 -0.413775
v -1.206115 0.160153 -0.276042
v -1.206115 0.707035 -0.276042
v -1.205821 0.160153 -0.138310
v -1.205821 0.739066 -0.138310
v -1.205525 0.160153 -0.000574
v -1.205525 0.749293 -0.000574
v -1.205227 0.160153 0.137159
v -1.205227 0.739066 0.137159
v -1.204930 0.160153 0.274892
v -1.204930 0.707035 0.274892
v -1.204635 0.160153 0.412624
v -1.204635 0.648052 0.412624
v -1.040454 0.160153 -0.551866
v -1.040751 0.160153 -0.689598
v -1.040528 0.507418 -0.586202
v -1.040751 0.243091 -0.689598
v 1.043716 0.160153 0.683256
v 1.043716 0.243091 0.683256
v -1.037788 0.160153 0.687734
v -1.038083 0.160153 0.550002
v -1.038380 0.160153 0.412269
v -1.038677 0.160153 0.274536
v -1.038971 0.160153 0.136801
v -1.039268 0.160153 -0.000932
v -1.039566 0.160153 -0.138665
v -1.039862 0.160153 -0.276401
v -1.040159 0.160153 -0.414134
v -1.037788 0.243091 0.687733
v -1.038012 0.507418 0.584337
v -1.038380 0.648052 0.412269
v -1.038677 0.707035 0.274536
v -1.038971 0.739066 0.136801
v -1.039268 0.749293 -0.000932
v -1.039566 0.739066 -0.138665
v -1.039862 0.707035 -0.276401
v -1.040159 0.648052 -0.414134
v 1.041048 0.160153 -0.556344
v 1.040751 0.160153 -0.694080
v -1.001718 0.160153 -0.551948
v -1.002014 0.160153 -0.689684
v 1.040751 0.243090 -0.694080
v 1.040974 0.507418 -0.590681
v -1.001792 0.507418 -0.586285
v -1.002014 0.243091 -0.689684
v 1.006636 0.160153 0.683334
v 1.006636 0.243091 0.683334
v 1.043419 0.160153 0.545523
v -0.999052 0.160153 0.687651
v -0.999347 0.160153 0.549919
v 1.043121 0.160153 0.407790
v -0.999644 0.237916 0.412186
v 1.042825 0.160153 0.270054
v -0.999941 0.312598 0.274450
v 1.042531 0.160153 0.132322
v -1.000238 0.360637 0.136717
v 1.042233 0.160153 -0.005411
v -1.000532 0.360637 -0.001015
v 1.041936 0.160153 -0.143144
v -1.000829 0.360637 -0.138750
v 1.041639 0.160153 -0.280879
v -1.001126 0.312598 -0.276483
v 1.041345 0.160153 -0.418611
v -1.001423 0.237916 -0.414216
v 1.043494 0.507418 0.579856
v -0.999052 0.243091 0.687651
v -0.999275 0.507418 0.584252
v 1.043121 0.648052 0.407790
v -0.999644 0.648052 0.412186
v 1.042825 0.707035 0.270054
v -0.999941 0.707035 0.274450
v 1.042531 0.739066 0.132322
v -1.000238 0.739066 0.136717
v 1.042233 0.749293 -0.005411
v -1.000532 0.749293 -0.001015
v 1.041936 0.739066 -0.143144
v -1.000829 0.739066 -0.138750
v 1.041639 0.707035 -0.280879
v -1.001126 0.707035 -0.276483
v 1.041345 0.648052 -0.418611
v -1.001423 0.648052 -0.414216
v 1.003970 0.160153 -0.556265
v 1.003673 0.160153 -0.693998
v 1.003673 0.243090 -0.693998
v 1.003896 0.507418 -0.590601
v 1.006341 0.160153 0.545602
v 1.006044 0.237916 0.407869
v 1.005747 0.312598 0.270137
v 1.005450 0.360637 0.132401
v 1.005156 0.360637 -0.005331
v 1.004858 0.360637 -0.143064
v 1.004562 0.312598 -0.280800
v 1.004265 0.237916 -0.418533
v 1.006413 0.507418 0.579938
v 1.006044 0.648052 0.407869
v 1.005747 0.707035 0.270136
v 1.005450 0.739066 0.132401
v 1.005156 0.749293 -0.005331
v 1.004858 0.739066 -0.143064
v 1.004562 0.707035 -0.280800
v 1.004265 0.648052 -0.418533
v 0.174270 0.369673 0.569368
v 0.174371 0.079303 0.615931
v -0.138660 0.079303 0.616603
v -0.138761 0.369673 0.570043
v 0.174517 0.396526 0.684302
v -0.138512 0.396526 0.684977
v -0.138410 0.106159 0.731538
v 0.174617 0.106159 0.730865
v 0.174531 0.058819 0.691509
v 0.174455 0.031963 0.655681
v 0.174321 0.399760 0.592699
v 0.174396 0.426616 0.628529
v -0.138710 0.399760 0.593373
v -0.138631 0.426616 0.629202
v -0.138572 0.031963 0.656353
v -0.138496 0.058819 0.692181
vt 0.663654 0.335845
vt 0.663654 0.279109
vt 0.697819 0.279109
vt 0.806703 0.321701
vt 0.663654 0.789736
vt 0.663654 0.846472
vt 0.697819 0.846472
vt 0.806703 0.803879
vt 0.663654 0.846472
vt 0.663654 0.789736
vt 0.806703 0.803879
vt 0.697819 0.846472
vt 0.663654 0.733000
vt 0.864634 0.733000
vt 0.663654 0.676263
vt 0.888930 0.676263
vt 0.663654 0.619527
vt 0.902125 0.619527
vt 0.663654 0.562790
vt 0.906338 0.562790
vt 0.663654 0.506054
vt 0.902125 0.506054
vt 0.663654 0.449318
vt 0.888930 0.449318
vt 0.663654 0.392581
vt 0.864634 0.392581
vt 0.663654 0.279109
vt 0.663654 0.335845
vt 0.806703 0.321701
vt 0.697819 0.279109
vt 0.663654 0.392581
vt 0.864634 0.392581
vt 0.663654 0.449318
vt 0.888930 0.449318
vt 0.663654 0.506054
vt 0.902125 0.506054
vt 0.663654 0.562790
vt 0.906338 0.562790
vt 0.663654 0.619527
vt 0.902125 0.619527
vt 0.663654 0.676263
vt 0.888930 0.676263
vt 0.663654 0.733000
vt 0.864634 0.733000
vt 0.606918 0.991506
vt 0.606918 1.059991
vt 0.663654 1.059991
vt 0.663654 0.991506
vt 0.806703 0.991506
vt 0.697819 0.991506
vt 0.697819 1.059991
vt 0.806703 1.059991
vt 0.663654 0.134075
vt 0.663655 0.065590
vt 0.697819 0.065590
vt 0.697819 0.134075
vt 0.096291 0.991506
vt 0.096291 1.059991
vt 0.153027 1.059991
vt 0.153027 0.991506
vt 0.209763 1.059991
vt 0.209763 0.991506
vt 0.266500 1.059991
vt 0.266500 0.991506
vt 0.323236 1.059991
vt 0.323236 0.991506
vt 0.379973 1.059991
vt 0.379973 0.991506
vt 0.436709 1.059991
vt 0.436709 0.991506
vt 0.493445 1.059991
vt 0.493445 0.991506
vt 0.550182 1.059991
vt 0.550182 0.991506
vt 0.697819 0.991506
vt 0.806703 0.991506
vt 0.806703 1.059991
vt 0.697819 1.059991
vt 0.138884 0.991506
vt 0.209763 0.991506
vt 0.209763 1.059991
vt 0.138884 1.059991
vt 0.266500 0.991506
vt 0.266500 1.059991
vt 0.323236 0.991506
vt 0.323236 1.059991
vt 0.379973 0.991506
vt 0.379973 1.059991
vt 0.436709 0.991506
vt 0.436709 1.059991
vt 0.493445 0.991506
vt 0.493445 1.059991
vt 0.550182 0.991506
vt 0.550182 1.059991
vt 0.621061 0.991506
vt 0.621061 1.059991
vt 0.606918 0.065590
vt 0.606918 0.134075
vt 0.663654 0.134075
vt 0.663655 0.065590
vt 0.606918 0.975549
vt 0.663654 0.975549
vt 0.806703 0.065590
vt 0.697819 0.065590
vt 0.697819 0.134075
vt 0.806703 0.134075
vt 0.806703 0.975549
vt 0.697819 0.975549
vt 0.663654 1.059991
vt 0.663654 0.991506
vt 0.663654 0.149349
vt 0.697819 0.149349
vt 0.096291 0.065590
vt 0.096291 0.134075
vt 0.153027 0.134075
vt 0.153027 0.065590
vt 0.096291 0.975549
vt 0.153027 0.975549
vt 0.209764 0.134075
vt 0.209764 0.065590
vt 0.663654 0.789736
vt 0.663654 0.789736
vt 0.663654 0.733000
vt 0.695688 0.733000
vt 0.266500 0.134075
vt 0.266500 0.065590
vt 0.663654 0.676263
vt 0.726451 0.676263
vt 0.323236 0.134075
vt 0.323236 0.065590
vt 0.663654 0.619527
vt 0.746240 0.619527
vt 0.379973 0.134075
vt 0.379973 0.065590
vt 0.663654 0.562790
vt 0.746240 0.562790
vt 0.436709 0.134075
vt 0.436709 0.065590
vt 0.663654 0.506054
vt 0.746240 0.506054
vt 0.493445 0.134075
vt 0.493445 0.065590
vt 0.663654 0.449318
vt 0.726451 0.449318
vt 0.550182 0.134075
vt 0.550182 0.065590
vt 0.663654 0.392581
vt 0.695688 0.392581
vt 0.663654 0.335845
vt 0.663654 0.335845
vt 0.806703 0.065590
vt 0.806703 0.134075
vt 0.697819 0.975549
vt 0.806703 0.975549
vt 0.138884 0.065590
vt 0.209764 0.065590
vt 0.209764 0.134075
vt 0.138884 0.134075
vt 0.138884 0.975549
vt 0.209763 0.975549
vt 0.266500 0.065590
vt 0.266500 0.134075
vt 0.266500 0.975549
vt 0.323236 0.065590
vt 0.323236 0.134075
vt 0.323236 0.975549
vt 0.379973 0.065590
vt 0.379973 0.134075
vt 0.379973 0.975549
vt 0.436709 0.065590
vt 0.436709 0.134075
vt 0.436709 0.975549
vt 0.493445 0.065590
vt 0.493445 0.134075
vt 0.493445 0.975549
vt 0.550182 0.065590
vt 0.550182 0.134075
vt 0.550182 0.975549
vt 0.621062 0.065590
vt 0.621062 0.134075
vt 0.621061 0.975549
vt 0.606918 0.149349
vt 0.663654 0.149349
vt 0.697819 0.149349
vt 0.806703 0.149349
vt 0.663654 0.975549
vt 0.096291 0.149349
vt 0.153027 0.149349
vt 0.663654 0.789736
vt 0.663654 0.789736
vt 0.695688 0.733000
vt 0.663654 0.733000
vt 0.209763 0.975549
vt 0.209764 0.149349
vt 0.726451 0.676263
vt 0.663654 0.676263
vt 0.266500 0.975549
vt 0.266500 0.149349
vt 0.746240 0.619527
vt 0.663654 0.619527
vt 0.323236 0.975549
vt 0.323236 0.149349
vt 0.746240 0.562790
vt 0.663654 0.562790
vt 0.379973 0.975549
vt 0.379973 0.149349
vt 0.746240 0.506054
vt 0.663654 0.506054
vt 0.436709 0.975549
vt 0.436709 0.149349
vt 0.726451 0.449318
vt 0.663654 0.449318
vt 0.493445 0.975549
vt 0.493445 0.149349
vt 0.695688 0.392581
vt 0.663654 0.392581
vt 0.550182 0.975549
vt 0.550182 0.149349
vt 0.663654 0.335845
vt 0.663654 0.335845
vt 0.806703 0.149349
vt 0.209764 0.149349
vt 0.138884 0.149349
vt 0.266500 0.149349
vt 0.323236 0.149349
vt 0.379973 0.149349
vt 0.436709 0.149349
vt 0.493445 0.149349
vt 0.550182 0.149349
vt 0.621062 0.149349
vt 0.536969 0.693553
vt 0.536969 0.630981
vt 0.469513 0.630981
vt 0.469513 0.693553
vt 0.536969 0.699340
vt 0.469513 0.699340
vt 0.469513 0.636768
vt 0.536969 0.636768
vt 0.366508 0.630981
vt 0.341740 0.636768
vt 0.350221 0.626567
vt 0.357942 0.620779
vt 0.376542 0.693553
vt 0.366508 0.630981
vt 0.341740 0.636768
vt 0.351774 0.699340
vt 0.351774 0.699340
vt 0.376542 0.693553
vt 0.371514 0.700037
vt 0.363793 0.705824
vt 0.536969 0.371514
vt 0.469513 0.371514
vt 0.469513 0.363793
vt 0.536969 0.363793
vt 0.363793 0.705824
vt 0.371514 0.700037
vt 0.469513 0.351774
vt 0.536969 0.351774
vt 0.469513 0.700037
vt 0.536969 0.700037
vt 0.469513 0.357942
vt 0.536969 0.357942
vt 0.536969 0.350221
vt 0.469513 0.350221
vt 0.357942 0.620779
vt 0.350221 0.626567
vt 0.469513 0.626567
vt 0.536969 0.626567
vt 0.536969 0.620779
vt 0.469513 0.620779
vn 1.0000 -0.0000 -0.0021
vn -1.0000 0.0000 0.0022
vn 1.0000 -0.0000 -0.0022
vn -1.0000 0.0000 0.0021
vn 0.1848 -0.9814 0.0515
vn -0.7071 -0.7071 0.0017
vn -0.5786 -0.5773 -0.5762
vn -0.0015 -0.7071 -0.7071
vn -0.0017 0.5885 -0.8085
vn -0.0021 0.1854 -0.9827
vn -0.6692 0.1379 -0.7301
vn -0.6555 0.4451 -0.6101
vn 0.0015 -0.7071 0.7071
vn 0.5786 -0.5773 0.5761
vn 0.6692 0.1380 0.7301
vn 0.0021 0.1854 0.9827
vn -0.5761 -0.5774 0.5785
vn -0.7071 -0.7071 0.0016
vn 0.1846 -0.9814 -0.0523
vn -0.7071 -0.7071 0.0015
vn 0.4764 -0.8753 -0.0829
vn 0.6037 -0.7962 -0.0401
vn 0.6314 -0.7753 -0.0134
vn 0.6365 -0.7713 -0.0014
vn 0.6315 -0.7753 0.0107
vn 0.6039 -0.7962 0.0375
vn 0.4768 -0.8753 0.0808
vn 0.0017 0.5885 0.8085
vn -0.6529 0.4451 0.6129
vn -0.6661 0.1380 0.7330
vn 0.0011 0.8552 0.5183
vn -0.6761 0.6294 0.3830
vn 0.0007 0.9503 0.3113
vn -0.6873 0.6898 0.2274
vn 0.0003 0.9886 0.1507
vn -0.6899 0.7154 0.1104
vn -0.0000 1.0000 -0.0000
vn -0.6908 0.7230 0.0017
vn -0.0003 0.9886 -0.1507
vn -0.6903 0.7154 -0.1075
vn -0.0007 0.9503 -0.3113
vn -0.6883 0.6897 -0.2246
vn -0.0011 0.8552 -0.5183
vn -0.6778 0.6294 -0.3800
vn 0.7071 -0.7071 -0.0016
vn -0.1893 -0.9806 0.0514
vn 0.5761 -0.5774 -0.5786
vn 0.1885 -0.9644 0.1856
vn 0.6529 0.4452 -0.6128
vn 0.6661 0.1380 -0.7330
vn -0.1895 -0.9806 -0.0506
vn 0.1877 -0.9644 -0.1864
vn -0.4846 -0.8711 -0.0790
vn 0.7071 -0.7071 -0.0015
vn 0.5036 -0.7846 -0.3617
vn -0.6084 -0.7928 -0.0362
vn 0.5945 -0.7473 -0.2969
vn -0.6348 -0.7726 -0.0102
vn 0.7071 -0.7071 -0.0014
vn 0.6008 -0.7896 -0.1243
vn -0.6396 -0.7687 0.0014
vn -0.6347 -0.7726 0.0130
vn 0.6014 -0.7896 0.1217
vn -0.6082 -0.7928 0.0388
vn 0.7071 -0.7071 -0.0017
vn 0.5957 -0.7473 0.2944
vn -0.4843 -0.8711 0.0811
vn 0.5051 -0.7846 0.3596
vn 0.6555 0.4452 0.6100
vn 0.6778 0.6293 0.3802
vn 0.6883 0.6898 0.2243
vn 0.6903 0.7154 0.1077
vn 0.6908 0.7230 -0.0014
vn 0.6899 0.7154 -0.1105
vn 0.6873 0.6898 -0.2275
vn 0.6761 0.6294 -0.3830
vn -0.1925 -0.9635 0.1859
vn -0.1933 -0.9635 -0.1850
vn -0.5125 -0.7800 -0.3590
vn -0.5998 -0.7441 -0.2942
vn -0.6044 -0.7873 -0.1217
vn -0.6039 -0.7873 0.1243
vn -0.5985 -0.7441 0.2968
vn -0.5110 -0.7800 0.3612
vn -0.0021 -0.1583 -0.9874
vn 0.0021 0.1583 0.9874
vn -0.0013 0.8002 -0.5998
vn 0.0010 0.8801 0.4748
vn -0.0017 0.6128 -0.7902
vn 0.0013 -0.8002 0.5998
vn 0.0017 -0.6393 0.7690
vn -0.0016 -0.6430 -0.7658
usemtl wood.005
s off
f 1/1/1 2/2/1 3/3/1 4/4/1
f 5/5/2 6/6/2 7/7/2 8/8/2
f 9/9/3 10/10/3 11/11/3 12/12/3
f 10/10/1 13/13/1 14/14/1 11/11/1
f 13/13/3 15/15/3 16/16/3 14/14/3
f 15/15/3 17/17/3 18/18/3 16/16/3
f 17/17/3 19/19/3 20/20/3 18/18/3
f 19/19/1 21/21/1 22/22/1 20/20/1
f 21/21/3 23/23/3 24/24/3 22/22/3
f 23/23/3 25/25/3 26/26/3 24/24/3
f 25/25/3 1/1/3 4/4/3 26/26/3
f 27/27/2 28/28/2 29/29/2 30/30/2
f 28/28/2 31/31/2 32/32/2 29/29/2
f 31/31/2 33/33/2 34/34/2 32/32/2
f 33/33/4 35/35/4 36/36/4 34/34/4
f 35/35/2 37/37/2 38/38/2 36/36/2
f 37/37/2 39/39/2 40/40/2 38/38/2
f 39/39/2 41/41/2 42/42/2 40/40/2
f 41/41/4 43/43/4 44/44/4 42/42/4
f 43/43/2 5/5/2 8/8/2 44/44/2
s 1
f 45/45/5 28/46/6 27/47/7 46/48/8
f 47/49/9 48/50/10 30/51/11 29/52/12
f 49/53/13 9/54/14 12/55/15 50/56/16
f 46/48/8 27/47/7 30/51/11 48/50/10
f 51/57/13 6/58/17 5/59/18 52/60/19
f 52/60/19 5/59/18 43/61/20 53/62/21
f 53/62/21 43/61/20 41/63/18 54/64/22
f 54/64/22 41/63/18 39/65/18 55/66/23
f 55/66/23 39/65/18 37/67/18 56/68/24
f 56/68/24 37/67/18 35/69/20 57/70/25
f 57/70/25 35/69/20 33/71/18 58/72/26
f 58/72/26 33/71/18 31/73/18 59/74/27
f 59/74/27 31/73/18 28/46/6 45/45/5
f 60/75/16 61/76/28 8/77/29 7/78/30
f 61/79/28 62/80/31 44/81/32 8/82/29
f 62/80/31 63/83/33 42/84/34 44/81/32
f 63/83/33 64/85/35 40/86/36 42/84/34
f 64/85/35 65/87/37 38/88/38 40/86/36
f 65/87/37 66/89/39 36/90/40 38/88/38
f 66/89/39 67/91/41 34/92/42 36/90/40
f 67/91/41 68/93/43 32/94/44 34/92/42
f 68/93/43 47/95/9 29/96/12 32/94/44
f 1/97/45 69/98/46 70/99/8 2/100/47
f 71/101/48 45/45/5 46/48/8 72/102/8
f 4/103/49 3/104/50 73/105/10 74/106/9
f 75/107/9 76/108/10 48/50/10 47/49/9
f 6/109/17 51/110/13 60/75/16 7/78/30
f 77/111/13 49/53/13 50/56/16 78/112/16
f 2/100/47 70/99/8 73/105/10 3/104/50
f 72/102/8 46/48/8 48/50/10 76/108/10
f 9/113/14 49/114/13 79/115/51 10/116/45
f 80/117/13 51/57/13 52/60/19 81/118/52
f 10/116/45 79/115/51 82/119/53 13/120/54
f 81/121/52 52/122/19 53/123/21 83/124/55
f 13/120/54 82/119/53 84/125/56 15/126/45
f 83/124/55 53/123/21 54/127/22 85/128/57
f 15/126/45 84/125/56 86/129/58 17/130/59
f 85/128/57 54/127/22 55/131/23 87/132/60
f 17/130/59 86/129/58 88/133/61 19/134/45
f 87/132/60 55/131/23 56/135/24 89/136/24
f 19/134/45 88/133/61 90/137/62 21/138/54
f 89/136/24 56/135/24 57/139/25 91/140/63
f 21/138/54 90/137/62 92/141/64 23/142/65
f 91/140/63 57/139/25 58/143/26 93/144/66
f 23/142/65 92/141/64 94/145/67 25/146/59
f 93/144/66 58/143/26 59/147/27 95/148/68
f 25/146/59 94/145/67 69/98/46 1/97/45
f 95/148/68 59/147/27 45/149/5 71/150/48
f 12/55/15 11/151/69 96/152/28 50/56/16
f 97/153/16 98/154/28 61/76/28 60/75/16
f 11/155/69 14/156/70 99/157/31 96/158/28
f 98/159/28 100/160/31 62/80/31 61/79/28
f 14/156/70 16/161/71 101/162/33 99/157/31
f 100/160/31 102/163/33 63/83/33 62/80/31
f 16/161/71 18/164/72 103/165/35 101/162/33
f 102/163/33 104/166/35 64/85/35 63/83/33
f 18/164/72 20/167/73 105/168/37 103/165/35
f 104/166/35 106/169/37 65/87/37 64/85/35
f 20/167/73 22/170/74 107/171/39 105/168/37
f 106/169/37 108/172/39 66/89/39 65/87/37
f 22/170/74 24/173/75 109/174/41 107/171/39
f 108/172/39 110/175/41 67/91/41 66/89/39
f 24/173/75 26/176/76 111/177/43 109/174/41
f 110/175/41 112/178/43 68/93/43 67/91/41
f 26/176/76 4/179/49 74/180/9 111/177/43
f 112/178/43 75/181/9 47/95/9 68/93/43
f 69/98/46 113/182/77 114/183/8 70/99/8
f 113/182/77 71/101/48 72/102/8 114/183/8
f 74/106/9 73/105/10 115/184/10 116/185/9
f 116/185/9 115/184/10 76/108/10 75/107/9
f 51/110/13 80/186/13 97/153/16 60/75/16
f 80/186/13 77/111/13 78/112/16 97/153/16
f 70/99/8 114/183/8 115/184/10 73/105/10
f 114/183/8 72/102/8 76/108/10 115/184/10
f 49/114/13 77/187/13 117/188/78 79/115/51
f 77/187/13 80/117/13 81/118/52 117/188/78
f 79/189/51 117/190/78 118/191/79 82/192/53
f 117/188/78 81/118/52 83/193/55 118/194/79
f 82/192/53 118/191/79 119/195/80 84/196/56
f 118/194/79 83/193/55 85/197/57 119/198/80
f 84/196/56 119/195/80 120/199/81 86/200/58
f 119/198/80 85/197/57 87/201/60 120/202/81
f 86/200/58 120/199/81 121/203/61 88/204/61
f 120/202/81 87/201/60 89/205/24 121/206/61
f 88/204/61 121/203/61 122/207/82 90/208/62
f 121/206/61 89/205/24 91/209/63 122/210/82
f 90/208/62 122/207/82 123/211/83 92/212/64
f 122/210/82 91/209/63 93/213/66 123/214/83
f 92/212/64 123/211/83 124/215/84 94/216/67
f 123/214/83 93/213/66 95/217/68 124/218/84
f 94/216/67 124/215/84 113/219/77 69/220/46
f 124/218/84 95/217/68 71/101/48 113/182/77
f 50/56/16 96/152/28 125/221/28 78/112/16
f 78/112/16 125/221/28 98/154/28 97/153/16
f 96/158/28 99/157/31 126/222/31 125/223/28
f 125/223/28 126/222/31 100/160/31 98/159/28
f 99/157/31 101/162/33 127/224/33 126/222/31
f 126/222/31 127/224/33 102/163/33 100/160/31
f 101/162/33 103/165/35 128/225/35 127/224/33
f 127/224/33 128/225/35 104/166/35 102/163/33
f 103/165/35 105/168/37 129/226/37 128/225/35
f 128/225/35 129/226/37 106/169/37 104/166/35
f 105/168/37 107/171/39 130/227/39 129/226/37
f 129/226/37 130/227/39 108/172/39 106/169/37
f 107/171/39 109/174/41 131/228/41 130/227/39
f 130/227/39 131/228/41 110/175/41 108/172/39
f 109/174/41 111/177/43 132/229/43 131/228/41
f 131/228/41 132/229/43 112/178/43 110/175/41
f 111/177/43 74/180/9 116/230/9 132/229/43
f 132/229/43 116/230/9 75/181/9 112/178/43
usemtl metal.004
s off
f 133/231/85 134/232/85 135/233/85 136/234/85
f 137/235/86 138/236/86 139/237/86 140/238/86
f 134/239/1 140/240/1 141/241/1 142/242/1
f 136/243/2 135/244/2 139/245/2 138/246/2
f 137/247/1 133/248/1 143/249/1 144/250/1
f 134/239/1 133/248/1 137/247/1 140/240/1
f 143/251/87 145/252/87 146/253/87 144/254/87
f 136/243/2 138/246/2 146/255/2 145/256/2
f 138/257/88 137/258/88 144/254/88 146/253/88
f 133/231/89 136/234/89 145/259/89 143/260/89
f 147/261/90 142/262/90 141/263/90 148/264/90
f 139/245/2 135/244/2 147/265/2 148/266/2
f 140/238/91 139/237/91 148/267/91 141/268/91
f 135/233/92 134/232/92 142/269/92 147/270/92
