# Blender v2.79 (sub 0) OBJ File: 'Chimney2.blend'
# www.blender.org
mtllib Chimney2.mtl
o Chimney3Top_Cube.005
v 1.203375 28.533056 -3.416422
v 1.203375 28.533056 3.416422
v 0.729082 29.080336 -3.416422
v 0.729082 29.080336 3.416422
v 0.327392 29.292549 -3.416422
v 0.327392 29.292549 3.416422
v 1.296041 28.609455 -3.416422
v 1.296041 28.609455 3.416422
v 0.784646 29.186810 -3.416422
v 0.784646 29.186810 3.416422
v 0.382955 29.399023 -3.416422
v 0.382955 29.399023 3.416422
v -1.487432 28.533056 -3.416422
v -1.487432 28.533056 3.416422
v -1.013139 29.080336 -3.416422
v -1.013139 29.080336 3.416422
v -0.611449 29.292549 -3.416422
v -0.611449 29.292549 3.416422
v -0.142029 29.353182 -3.416422
v -0.142029 29.353182 3.416422
v -1.580098 28.609455 -3.416422
v -1.580099 28.609455 3.416422
v -1.068703 29.186810 -3.416422
v -1.068703 29.186810 3.416422
v -0.667012 29.399023 -3.416422
v -0.667012 29.399023 3.416422
v -0.142029 29.459656 -3.416422
v -0.142029 29.459656 3.416422
v 2.029963 22.641745 3.248245
v 2.029963 22.641745 -3.248245
v 2.800839 22.641745 -3.248245
v 2.800839 22.641745 3.248245
v 0.835189 28.049583 -3.248245
v 0.835189 28.049583 3.248245
v 1.153509 28.618013 -3.248245
v 1.153509 28.618013 3.248245
v 0.729082 29.080336 -3.248245
v 0.729082 29.080336 3.248245
v 0.327392 29.292549 -3.248245
v 0.327392 29.292549 3.248245
v -2.314021 22.641745 3.248245
v -2.314021 22.641745 -3.248245
v -3.084897 22.641745 -3.248245
v -3.084897 22.641745 3.248245
v -0.142029 28.618013 3.248245
v -0.142029 28.618013 -3.248245
v -1.119246 28.049583 -3.248245
v -1.119246 28.049583 3.248245
v -1.437567 28.618013 -3.248245
v -1.437567 28.618013 3.248245
v -1.013139 29.080336 -3.248245
v -1.013139 29.080336 3.248245
v -0.611449 29.292549 -3.248245
v -0.611449 29.292549 3.248245
v -0.142029 29.353182 -3.248245
v -0.142029 29.353182 3.248245
v 3.311022 15.010870 3.453051
v 3.311022 22.238523 3.453051
v 1.008988 15.010870 3.453051
v 1.008988 22.238523 3.453051
v 3.311022 15.010870 1.151017
v 3.311022 22.238523 1.151017
v 2.774429 15.010870 3.453051
v 2.774429 22.238523 3.453051
v 2.774429 15.010870 1.151017
v 2.774429 22.238523 1.151017
v 1.008988 22.238523 2.901193
v 3.311022 15.010870 2.901193
v 3.311022 22.238523 2.901193
v 1.008988 15.010870 2.901193
v 2.774429 15.010870 2.901193
v 2.774429 22.238523 2.901193
v 1.008988 15.010870 3.562870
v 1.008988 22.238523 3.562870
v 1.008988 22.238523 2.791374
v 1.008988 15.010870 2.791374
v 0.741797 15.010870 3.562870
v 0.741797 22.238523 3.562870
v 0.741797 22.238523 2.791374
v 0.741797 15.010870 2.791374
v 3.410300 15.010870 1.151017
v 3.410300 22.238523 1.151017
v 2.675151 15.010870 1.151017
v 2.675151 22.238523 1.151017
v 3.410300 15.010870 0.805240
v 3.410300 22.238523 0.805240
v 2.675151 15.010870 0.805240
v 2.675151 22.238523 0.805240
v -3.595079 15.010870 3.453051
v -3.595079 22.238523 3.453051
v -1.293045 15.010870 3.453051
v -1.293045 22.238523 3.453051
v -3.595079 15.010870 1.151017
v -3.595079 22.238523 1.151017
v -3.058486 15.010870 3.453051
v -3.058486 22.238523 3.453051
v -3.058486 15.010870 1.151017
v -3.058486 22.238523 1.151017
v -1.293045 22.238523 2.901193
v -3.595079 15.010870 2.901193
v -3.595079 22.238523 2.901193
v -1.293045 15.010870 2.901193
v -3.058486 15.010870 2.901193
v -3.058486 22.238523 2.901193
v -1.293045 15.010870 3.562870
v -1.293045 22.238523 3.562870
v -1.293045 22.238523 2.791374
v -1.293045 15.010870 2.791374
v -1.025854 15.010870 3.562870
v -1.025854 22.238523 3.562870
v -1.025854 22.238523 2.791374
v -1.025854 15.010870 2.791374
v -3.694358 15.010870 1.151017
v -3.694358 22.238523 1.151017
v -2.959208 15.010870 1.151017
v -2.959208 22.238523 1.151017
v -3.694358 15.010870 0.805240
v -3.694358 22.238523 0.805240
v -2.959208 15.010870 0.805240
v -2.959208 22.238523 0.805240
v 3.311022 15.010870 -3.453051
v 3.311022 22.238523 -3.453051
v 1.008988 15.010870 -3.453051
v 1.008988 22.238523 -3.453051
v 3.311022 15.010870 -1.151017
v 3.311022 22.238523 -1.151017
v 2.774429 15.010870 -3.453051
v 2.774429 22.238523 -3.453051
v 2.774429 15.010870 -1.151017
v 2.774429 22.238523 -1.151017
v 1.008988 22.238523 -2.901193
v 3.311022 15.010870 -2.901193
v 3.311022 22.238523 -2.901193
v 1.008988 15.010870 -2.901193
v 2.774429 15.010870 -2.901193
v 2.774429 22.238523 -2.901193
v 1.008988 15.010870 -3.562870
v 1.008988 22.238523 -3.562870
v 1.008988 22.238523 -2.791374
v 1.008988 15.010870 -2.791374
v 0.741797 15.010870 -3.562870
v 0.741797 22.238523 -3.562870
v 0.741797 22.238523 -2.791374
v 0.741797 15.010870 -2.791374
v 3.410300 15.010870 -1.151017
v 3.410300 22.238523 -1.151017
v 2.675151 15.010870 -1.151017
v 2.675151 22.238523 -1.151017
v 3.410300 15.010870 -0.805240
v 3.410300 22.238523 -0.805240
v 2.675151 15.010870 -0.805240
v 2.675151 22.238523 -0.805240
v -3.595079 15.010870 -3.453051
v -3.595079 22.238523 -3.453051
v -1.293045 15.010870 -3.453051
v -1.293045 22.238523 -3.453051
v -3.595079 15.010870 -1.151017
v -3.595079 22.238523 -1.151017
v -3.058486 15.010870 -3.453051
v -3.058486 22.238523 -3.453051
v -3.058486 15.010870 -1.151017
v -3.058486 22.238523 -1.151017
v -1.293045 22.238523 -2.901193
v -3.595079 15.010870 -2.901193
v -3.595079 22.238523 -2.901193
v -1.293045 15.010870 -2.901193
v -3.058486 15.010870 -2.901193
v -3.058486 22.238523 -2.901193
v -1.293045 15.010870 -3.562870
v -1.293045 22.238523 -3.562870
v -1.293045 22.238523 -2.791374
v -1.293045 15.010870 -2.791374
v -1.025854 15.010870 -3.562870
v -1.025854 22.238523 -3.562870
v -1.025854 22.238523 -2.791374
v -1.025854 15.010870 -2.791374
v -3.694358 15.010870 -1.151017
v -3.694358 22.238523 -1.151017
v -2.959208 15.010870 -1.151017
v -2.959208 22.238523 -1.151017
v -3.694358 15.010870 -0.805240
v -3.694358 22.238523 -0.805240
v -2.959208 15.010870 -0.805240
v -2.959208 22.238523 -0.805240
v -3.595079 0.180103 3.453051
v -3.595079 0.180103 -3.453051
v 3.311022 0.180103 -3.453051
v 3.311022 0.180103 3.453051
v -3.595079 14.266922 3.453051
v -3.595079 14.266922 -3.453051
v 3.311022 14.266922 -3.453051
v 3.311022 14.266922 3.453051
v -4.073448 14.266922 3.931419
v -4.073448 14.266922 -3.931419
v 3.789390 14.266922 -3.931419
v 3.789390 14.266922 3.931419
v -4.073448 15.346378 3.931419
v -4.073448 15.346378 -3.931419
v 3.789390 15.346378 -3.931419
v 3.789390 15.346378 3.931419
v -2.648082 4.235578 2.506053
v -2.648082 4.235578 -2.506053
v 2.364025 4.235578 -2.506053
v 2.364025 4.235578 2.506053
v 2.364025 15.346378 2.506053
v 2.364025 15.346378 -2.506053
v -2.648082 15.346378 -2.506053
v -2.648082 15.346378 2.506053
v -4.073448 22.068283 3.931419
v -4.073448 22.068283 -3.931419
v 3.789390 22.068283 -3.931419
v 3.789390 22.068283 3.931419
v 1.722253 22.068283 1.864281
v 1.722253 22.068283 -1.864281
v -2.006310 22.068283 -1.864281
v -2.006310 22.068283 1.864281
v -4.073448 22.679367 3.931419
v -4.073448 22.679367 -3.931419
v 3.789390 22.679367 -3.931419
v 3.789390 22.679367 3.931419
v 1.722253 22.679367 1.864281
v 1.722253 22.679367 -1.864281
v -2.006310 22.679367 -1.864281
v -2.006310 22.679367 1.864281
vt 0.779304 0.037744
vt 0.625036 0.037746
vt 0.625036 0.021395
vt 0.779304 0.021393
vt 0.625036 0.011138
vt 0.779304 0.011137
vt 0.625036 0.000452
vt 0.779303 0.000450
vt 0.779304 0.040456
vt 0.779304 0.057869
vt 0.625036 0.057869
vt 0.625036 0.040456
vt 0.779304 0.068126
vt 0.625036 0.068126
vt 0.779304 0.080057
vt 0.625036 0.080058
vt 0.043449 0.766766
vt 0.044706 0.769169
vt 0.032852 0.770545
vt 0.032853 0.768141
vt 0.568189 0.755343
vt 0.568190 0.752939
vt 0.580044 0.754309
vt 0.578789 0.756713
vt 0.052515 0.761958
vt 0.053775 0.764362
vt 0.589114 0.759100
vt 0.587860 0.761504
vt 0.063210 0.749569
vt 0.065307 0.751291
vt 0.600664 0.772130
vt 0.598572 0.773856
vt 0.779304 0.122370
vt 0.779304 0.138720
vt 0.625036 0.138722
vt 0.625036 0.122371
vt 0.779304 0.148977
vt 0.625036 0.148979
vt 0.779304 0.159664
vt 0.625036 0.159665
vt 0.779304 0.119659
vt 0.625036 0.119659
vt 0.625036 0.102246
vt 0.779304 0.102246
vt 0.625036 0.091989
vt 0.779304 0.091989
vt 0.022263 0.766762
vt 0.021005 0.769162
vt 0.557590 0.756711
vt 0.556335 0.754307
vt 0.013211 0.761953
vt 0.011951 0.764353
vt 0.548521 0.761503
vt 0.547267 0.759099
vt 0.002546 0.749573
vt 0.000450 0.751291
vt 0.537814 0.773856
vt 0.535722 0.772131
vt 0.336718 0.442102
vt 0.857244 0.442102
vt 0.857244 0.951591
vt 0.336717 0.951591
vt 1.096248 1.677857
vt 1.017947 1.632313
vt 0.860440 1.199016
vt 0.922206 1.199014
vt 0.857244 1.415821
vt 0.336718 1.415821
vt 0.336717 0.954786
vt 0.857244 0.954786
vt 1.649366 1.632313
vt 1.571075 1.677865
vt 1.745043 1.199021
vt 1.806806 1.199014
vt 1.674875 1.677853
vt 1.640874 1.714899
vt 1.608692 1.731906
vt 1.571083 1.736769
vt 0.857244 1.468021
vt 0.336718 1.468022
vt 1.096250 1.736763
vt 1.058637 1.731906
vt 1.026451 1.714902
vt 0.992443 1.677859
vt 0.336718 -0.067386
vt 0.857244 -0.067386
vt 1.270268 1.199015
vt 1.332034 1.199014
vt 1.174546 1.632311
vt 1.464265 -0.531618
vt 1.464266 -0.070583
vt 0.943739 -0.070581
vt 0.943738 -0.531617
vt 1.492769 1.632326
vt 1.335229 1.199019
vt 1.396998 1.199014
vt 1.533468 1.731916
vt 1.501281 1.714916
vt 1.467268 1.677875
vt 0.943737 -0.583817
vt 1.464265 -0.583817
vt 1.200052 1.677855
vt 1.166046 1.714899
vt 1.133862 1.731902
vt 1.723081 -1.199280
vt 1.723081 -0.620169
vt 1.678864 -0.620169
vt 1.678864 -1.199280
vt 1.635870 -1.199280
vt 1.635870 -0.620169
vt 1.494415 -0.620169
vt 1.494415 -1.199280
vt 2.130152 -0.620174
vt 2.122198 -0.620174
vt 2.122197 -1.199279
vt 2.130152 -1.199279
vt 2.150615 -0.016498
vt 2.159414 -0.016498
vt 2.159411 0.562618
vt 2.150615 0.562618
vt 1.863312 -1.199280
vt 1.863313 -0.620169
vt 1.865733 1.144925
vt 1.865733 0.565814
vt 2.005965 0.565814
vt 2.005965 1.144925
vt 2.147419 1.144925
vt 2.147419 0.565814
vt 2.180823 -0.016498
vt 2.180820 0.562618
vt 2.272845 0.562619
vt 2.264045 0.562619
vt 2.264049 -0.016498
vt 2.272845 -0.016498
vt 2.242637 0.562618
vt 2.242639 -0.016498
vt 2.094493 -0.620174
vt 2.094491 -1.199280
vt 1.999928 -1.199280
vt 2.007883 -1.199280
vt 2.007884 -0.620174
vt 1.999928 -0.620174
vt 2.035590 -0.620174
vt 2.035588 -1.199280
vt 1.633871 -0.598799
vt 1.678089 -0.598800
vt 1.678089 -0.019689
vt 1.633872 -0.019688
vt 1.721083 -0.598800
vt 1.862538 -0.598800
vt 1.862537 -0.019689
vt 1.721083 -0.019689
vt 1.999155 0.562614
vt 1.999155 -0.016492
vt 2.007109 -0.016492
vt 2.007111 0.562614
vt 2.217114 1.199015
vt 2.217113 1.778132
vt 2.208314 1.778132
vt 2.208317 1.199015
vt 1.493640 -0.598800
vt 1.493640 -0.019688
vt 2.091688 1.778125
vt 1.951456 1.778125
vt 1.951457 1.199014
vt 2.091688 1.199014
vt 1.810002 1.778125
vt 1.810002 1.199014
vt 2.186905 1.778132
vt 2.186908 1.199014
vt 2.094884 1.778130
vt 2.094884 1.199014
vt 2.103683 1.199014
vt 2.103680 1.778131
vt 2.125089 1.778131
vt 2.125092 1.199014
vt 2.034814 -0.016492
vt 2.034817 0.562613
vt 2.129379 -0.016493
vt 2.129379 0.562613
vt 2.121424 0.562613
vt 2.121423 -0.016493
vt 2.093719 0.562613
vt 2.093717 -0.016493
vt 1.633871 0.565814
vt 1.678089 0.565814
vt 1.678090 1.144925
vt 1.633873 1.144926
vt 1.721083 0.565814
vt 1.862538 0.565814
vt 1.862538 1.144924
vt 1.721083 1.144925
vt 1.866508 -0.620173
vt 1.866509 -1.199280
vt 1.874464 -1.199279
vt 1.874464 -0.620173
vt 2.255578 -1.199279
vt 2.255577 -0.620162
vt 2.246778 -0.620162
vt 2.246781 -1.199279
vt 1.493640 0.565814
vt 1.493641 1.144926
vt -0.357958 1.405166
vt -0.498190 1.405166
vt -0.498190 0.826055
vt -0.357958 0.826055
vt -0.639645 1.405166
vt -0.639645 0.826055
vt 2.225369 -0.620163
vt 2.225372 -1.199279
vt 2.133348 -0.620164
vt 2.133348 -1.199280
vt 2.142147 -1.199280
vt 2.142144 -0.620163
vt 2.163553 -0.620163
vt 2.163556 -1.199280
vt 1.902169 -1.199279
vt 1.902170 -0.620173
vt 1.996733 -1.199278
vt 1.996733 -0.620173
vt 1.988778 -0.620173
vt 1.988777 -1.199278
vt 1.961073 -0.620173
vt 1.961071 -1.199279
vt 1.722305 -0.016493
vt 1.722306 0.562619
vt 1.678089 0.562618
vt 1.678089 -0.016493
vt 1.635095 -0.016493
vt 1.635095 0.562618
vt 1.493640 0.562618
vt 1.493640 -0.016492
vt 1.995957 0.562613
vt 1.988003 0.562613
vt 1.988004 -0.016493
vt 1.995960 -0.016493
vt 2.150615 0.565814
vt 2.159415 0.565814
vt 2.159411 1.144931
vt 2.150615 1.144931
vt 1.862537 -0.016493
vt 1.862538 0.562619
vt 1.865733 -0.019688
vt 1.865733 -0.598799
vt 2.005965 -0.598799
vt 2.005965 -0.019688
vt 2.147419 -0.019688
vt 2.147419 -0.598799
vt 2.180823 0.565814
vt 2.180820 1.144931
vt 2.272845 1.144932
vt 2.264045 1.144932
vt 2.264049 0.565815
vt 2.272845 0.565815
vt 2.242637 1.144932
vt 2.242639 0.565815
vt 1.960298 0.562613
vt 1.960298 -0.016493
vt 1.865735 -0.016493
vt 1.873690 -0.016492
vt 1.873689 0.562613
vt 1.865733 0.562613
vt 1.901395 0.562613
vt 1.901395 -0.016493
vt 0.940542 -0.070583
vt 0.387196 -0.070582
vt 0.387195 -1.199279
vt 0.940542 -1.199280
vt -0.166151 -0.070582
vt -0.166152 -1.199279
vt -0.719497 -0.070582
vt -0.719499 -1.199278
vt -1.272844 -0.070581
vt -1.272845 -1.199278
vt 0.898769 1.157490
vt 1.452116 1.157490
vt 1.490444 1.195819
vt 0.860440 1.195819
vt -1.187987 1.739986
vt -0.558027 1.739966
vt -0.558026 1.826452
vt -1.187984 1.826470
vt 1.452116 0.604143
vt 1.490444 0.565814
vt 0.898769 0.604143
vt 0.860440 0.565814
vt -1.272845 0.826055
vt -0.642841 0.826055
vt -0.757047 0.940262
vt -1.158638 0.940262
vt 0.071972 1.739958
vt 0.071972 1.826450
vt 0.701997 1.739959
vt 0.701996 1.826454
vt 1.332034 1.739966
vt 1.332033 1.826461
vt 1.736821 1.739965
vt 1.736821 2.141556
vt 1.335229 2.141556
vt 1.335229 1.739965
vt -0.068069 0.822859
vt -0.469661 0.822860
vt -0.469662 -0.067386
vt -0.068070 -0.067386
vt -1.272845 1.456060
vt -1.158638 1.341853
vt -0.642840 1.456060
vt -0.757047 1.341854
vt -0.871253 0.822860
vt -1.272845 0.822860
vt -1.272845 -0.067385
vt -0.871253 -0.067386
vt 0.333522 0.822859
vt 0.333521 -0.067386
vt 0.860440 0.562619
vt 1.026068 0.396991
vt 1.324816 0.396990
vt 1.490444 0.562619
vt 0.860440 -0.067386
vt 1.026068 0.098242
vt 1.324816 0.098242
vt 1.490444 -0.067386
vt -0.296483 1.456060
vt -0.296483 0.826055
vt -0.130855 0.991683
vt -0.130855 1.290432
vt 0.333521 1.456060
vt 0.167894 1.290432
vt 0.333522 0.826056
vt 0.167894 0.991684
vt -0.264030 1.459436
vt 0.034730 1.459358
vt 0.034745 1.508325
vt -0.264021 1.508399
vt -0.861476 1.459436
vt -0.562759 1.459468
vt -0.562760 1.508427
vt -0.861482 1.508394
vt 0.333505 1.459256
vt 0.333522 1.508223
vt -1.188007 1.830715
vt -0.558095 1.830715
vt -0.558086 1.879674
vt -1.188007 1.879671
vt 0.071937 1.830475
vt 0.071961 1.879441
vt 0.701991 1.830101
vt 0.702022 1.879065
vt 1.332000 1.829666
vt 1.332034 1.878629
vn -0.0681 -0.8127 -0.5786
vn -0.0681 -0.8127 0.5786
vn -0.4107 -0.5170 0.7510
vn -0.4107 -0.5170 -0.7510
vn -0.2002 -0.6311 0.7494
vn -0.2002 -0.6311 -0.7494
vn 0.0000 -0.6758 0.7371
vn 0.0000 -0.6758 -0.7371
vn 0.8153 -0.0639 -0.5755
vn 0.4592 0.5845 -0.6689
vn 0.4592 0.5845 0.6689
vn 0.8153 -0.0639 0.5755
vn 0.2203 0.7109 -0.6678
vn 0.2203 0.7109 0.6678
vn 0.0000 0.7312 -0.6821
vn 0.0000 0.7312 0.6821
vn 0.0681 -0.8127 -0.5786
vn 0.4107 -0.5170 -0.7510
vn 0.4107 -0.5170 0.7510
vn 0.0681 -0.8127 0.5786
vn 0.2002 -0.6311 -0.7494
vn 0.2002 -0.6311 0.7494
vn -0.8153 -0.0639 -0.5755
vn -0.8153 -0.0639 0.5755
vn -0.4592 0.5845 0.6689
vn -0.4592 0.5845 -0.6689
vn -0.2203 0.7109 0.6678
vn -0.2203 0.7109 -0.6678
vn 0.0000 -0.1886 0.9820
vn 0.0000 -0.1886 -0.9820
vn -0.5952 -0.2163 -0.7739
vn -0.5952 -0.2163 0.7739
vn 0.5791 -0.0470 -0.8139
vn 0.7418 0.2696 -0.6141
vn 0.5791 -0.0470 0.8139
vn 0.7418 0.2696 0.6141
vn 0.5579 -0.3124 0.7688
vn 0.0000 0.0000 1.0000
vn 0.5579 -0.3124 -0.7688
vn 0.0000 0.0000 -1.0000
vn 0.5952 -0.2163 0.7739
vn 0.5952 -0.2163 -0.7739
vn -0.7418 0.2696 -0.6141
vn -0.5791 -0.0470 -0.8139
vn -0.7418 0.2696 0.6141
vn -0.5791 -0.0470 0.8139
vn -0.5579 -0.3124 0.7688
vn -0.5579 -0.3124 -0.7688
vn 1.0000 0.0000 0.0000
vn 0.7071 0.0000 0.7071
vn -0.7071 0.0000 0.7071
vn 0.7071 0.0000 -0.7071
vn -0.7071 0.0000 -0.7071
vn -1.0000 0.0000 0.0000
vn -0.3015 -0.9045 0.3015
vn -0.3015 -0.9045 -0.3015
vn 0.3015 -0.9045 -0.3015
vn 0.3015 -0.9045 0.3015
vn 0.5773 -0.5773 0.5773
vn -0.5773 -0.5773 0.5773
vn 0.5773 0.5773 0.5773
vn -0.5773 0.5773 0.5773
vn 0.5773 -0.5773 -0.5773
vn -0.5773 -0.5773 -0.5773
vn -0.3015 0.9045 -0.3015
vn 0.3015 0.9045 -0.3015
vn 0.5773 0.5773 -0.5773
vn -0.5773 0.5773 -0.5773
vn -0.3015 0.9045 0.3015
vn 0.3015 0.9045 0.3015
usemtl RustedMetal
s 1
f 1/1/1 2/2/2 4/3/3 3/4/4
f 3/4/4 4/3/3 6/5/5 5/6/6
f 5/6/6 6/5/5 20/7/7 19/8/8
f 7/9/9 9/10/10 10/11/11 8/12/12
f 9/10/10 11/13/13 12/14/14 10/11/11
f 11/13/13 27/15/15 28/16/16 12/14/14
f 6/17/5 12/18/14 28/19/16 20/20/7
f 19/21/8 27/22/15 11/23/13 5/24/6
f 4/25/3 10/26/11 12/18/14 6/17/5
f 5/24/6 11/23/13 9/27/10 3/28/4
f 2/29/2 8/30/12 10/26/11 4/25/3
f 3/28/4 9/27/10 7/31/9 1/32/1
f 1/1/1 7/9/9 8/12/12 2/2/2
f 13/33/17 15/34/18 16/35/19 14/36/20
f 15/34/18 17/37/21 18/38/22 16/35/19
f 17/37/21 19/39/8 20/40/7 18/38/22
f 21/41/23 22/42/24 24/43/25 23/44/26
f 23/44/26 24/43/25 26/45/27 25/46/28
f 25/46/28 26/45/27 28/16/16 27/15/15
f 18/47/22 20/20/7 28/19/16 26/48/27
f 19/21/8 17/49/21 25/50/28 27/22/15
f 16/51/19 18/47/22 26/48/27 24/52/25
f 17/49/21 15/53/18 23/54/26 25/50/28
f 14/55/20 16/51/19 24/52/25 22/56/24
f 15/53/18 13/57/17 21/58/23 23/54/26
f 13/33/17 14/36/20 22/42/24 21/41/23
usemtl Brick
f 45/59/29 46/60/30 30/61/31 29/62/32
f 46/63/30 33/64/33 31/65/34 30/66/31
f 33/67/33 34/68/35 32/69/36 31/70/34
f 34/71/35 45/72/29 29/73/32 32/74/36
f 45/72/29 34/71/35 36/75/37 38/76/38 40/77/38 56/78/38
f 33/67/33 35/79/39 36/80/37 34/68/35
f 33/64/33 46/63/30 55/81/40 39/82/40 37/83/40 35/84/39
f 45/59/29 41/85/41 42/86/42 46/60/30
f 46/63/30 42/87/42 43/88/43 47/89/44
f 47/90/44 43/91/43 44/92/45 48/93/46
f 48/94/46 44/95/45 41/96/41 45/72/29
f 45/72/29 56/78/38 54/97/38 52/98/38 50/99/47 48/94/46
f 47/90/44 48/93/46 50/100/47 49/101/48
f 47/89/44 49/102/48 51/103/40 53/104/40 55/81/40 46/63/30
f 68/105/49 69/106/49 58/107/50 57/108/50
f 63/109/38 64/110/38 60/111/50 59/112/50
f 57/108/50 58/107/50 64/110/38 63/109/38
f 66/113/51 84/114/51 83/115/51 65/116/51
f 70/117/52 76/118/52 75/119/52 67/120/52
f 61/121/50 62/122/50 69/106/49 68/105/49
f 66/123/51 65/124/51 71/125/53 72/126/53
f 67/127/52 72/126/53 71/125/53 70/128/52
f 76/118/52 80/129/53 79/130/53 75/119/52
f 60/131/50 74/132/50 73/133/50 59/134/50
f 78/135/51 79/130/53 80/129/53 77/136/51
f 74/132/50 78/135/51 77/136/51 73/133/50
f 84/114/51 88/137/53 87/138/53 83/115/51
f 61/139/50 81/140/50 82/141/50 62/142/50
f 86/143/52 85/144/52 87/138/53 88/137/53
f 81/140/50 85/144/52 86/143/52 82/141/50
f 100/145/54 89/146/51 90/147/51 101/148/54
f 95/149/38 91/150/51 92/151/51 96/152/38
f 89/146/51 95/149/38 96/152/38 90/147/51
f 98/153/50 97/154/50 115/155/50 116/156/50
f 102/157/53 99/158/53 107/159/53 108/160/53
f 93/161/51 100/145/54 101/148/54 94/162/51
f 98/163/50 104/164/52 103/165/52 97/166/50
f 99/167/53 102/168/53 103/165/52 104/164/52
f 108/160/53 107/159/53 111/169/52 112/170/52
f 92/171/51 91/172/51 105/173/51 106/174/51
f 110/175/50 109/176/50 112/170/52 111/169/52
f 106/174/51 105/173/51 109/176/50 110/175/50
f 116/156/50 115/155/50 119/177/52 120/178/52
f 93/179/51 94/180/51 114/181/51 113/182/51
f 118/183/53 120/178/52 119/177/52 117/184/53
f 113/182/51 114/181/51 118/183/53 117/184/53
f 132/185/49 121/186/52 122/187/52 133/188/49
f 127/189/40 123/190/52 124/191/52 128/192/40
f 121/186/52 127/189/40 128/192/40 122/187/52
f 130/193/53 129/194/53 147/195/53 148/196/53
f 134/197/50 131/198/50 139/199/50 140/200/50
f 125/201/52 132/185/49 133/188/49 126/202/52
f 130/203/53 136/204/51 135/205/51 129/206/53
f 131/207/50 134/208/50 135/205/51 136/204/51
f 140/200/50 139/199/50 143/209/51 144/210/51
f 124/211/52 123/212/52 137/213/52 138/214/52
f 142/215/53 141/216/53 144/210/51 143/209/51
f 138/214/52 137/213/52 141/216/53 142/215/53
f 148/196/53 147/195/53 151/217/51 152/218/51
f 125/219/52 126/220/52 146/221/52 145/222/52
f 150/223/50 152/218/51 151/217/51 149/224/50
f 145/222/52 146/221/52 150/223/50 149/224/50
f 164/225/54 165/226/54 154/227/53 153/228/53
f 159/229/40 160/230/40 156/231/53 155/232/53
f 153/228/53 154/227/53 160/230/40 159/229/40
f 162/233/52 180/234/52 179/235/52 161/236/52
f 166/237/51 172/238/51 171/239/51 163/240/51
f 157/241/53 158/242/53 165/226/54 164/225/54
f 162/243/52 161/244/52 167/245/50 168/246/50
f 163/247/51 168/246/50 167/245/50 166/248/51
f 172/238/51 176/249/50 175/250/50 171/239/51
f 156/251/53 170/252/53 169/253/53 155/254/53
f 174/255/52 175/250/50 176/249/50 173/256/52
f 170/252/53 174/255/52 173/256/52 169/253/53
f 180/234/52 184/257/50 183/258/50 179/235/52
f 157/259/53 177/260/53 178/261/53 158/262/53
f 182/263/51 181/264/51 183/258/50 184/257/50
f 177/260/53 181/264/51 182/263/51 178/261/53
f 189/265/55 190/266/56 186/267/53 185/268/51
f 190/266/56 191/269/57 187/270/52 186/267/53
f 191/269/57 192/271/58 188/272/50 187/270/52
f 192/271/58 189/273/55 185/274/51 188/272/50
f 189/275/55 192/276/58 196/277/59 193/278/60
f 193/279/60 196/280/59 200/281/61 197/282/62
f 192/276/58 191/283/57 195/284/63 196/277/59
f 191/283/57 190/285/56 194/286/64 195/284/63
f 190/285/56 189/275/55 193/278/60 194/286/64
f 197/287/62 200/288/61 205/289/65 208/290/66
f 196/280/59 195/291/63 199/292/67 200/281/61
f 195/291/63 194/293/64 198/294/68 199/292/67
f 194/293/64 193/295/60 197/296/62 198/294/68
f 204/297/68 203/298/62 202/299/61 201/300/67
f 205/301/65 206/302/69 203/303/62 204/304/68
f 198/305/68 197/287/62 208/290/66 207/306/70
f 200/288/61 199/307/67 206/308/69 205/289/65
f 199/307/67 198/305/68 207/306/70 206/308/69
f 207/309/70 208/310/66 201/311/67 202/312/61
f 206/302/69 207/309/70 202/312/61 203/303/62
f 208/313/66 205/301/65 204/304/68 201/314/67
f 209/315/60 216/316/57 213/317/56 212/318/59
f 210/319/64 215/320/58 216/316/57 209/315/60
f 212/318/59 213/317/56 214/321/55 211/322/63
f 211/322/63 214/321/55 215/320/58 210/319/64
f 217/323/62 220/324/61 221/325/65 224/326/66
f 218/327/68 217/323/62 224/326/66 223/328/70
f 220/324/61 219/329/67 222/330/69 221/325/65
f 219/329/67 218/327/68 223/328/70 222/330/69
f 214/331/55 213/332/56 221/333/65 222/334/69
f 216/335/57 215/336/58 223/337/70 224/338/66
f 215/336/58 214/331/55 222/334/69 223/337/70
f 213/332/56 216/339/57 224/340/66 221/333/65
f 209/341/60 212/342/59 220/343/61 217/344/62
f 212/342/59 211/345/63 219/346/67 220/343/61
f 211/345/63 210/347/64 218/348/68 219/346/67
f 210/347/64 209/349/60 217/350/62 218/348/68
