# Blender v2.79 (sub 0) OBJ File: 'CoffinCover.blend'
# www.blender.org
mtllib CoffinCover.mtl
o coffin_cover_Untitled.007
v -4.950000 0.000000 2.225000
v 4.950000 0.000000 2.225000
v -4.950000 -0.000000 -2.225000
v 4.950000 -0.000000 -2.225000
v -4.950000 1.100000 2.225000
v 4.950000 1.100000 2.225000
v -4.950000 1.100000 -2.225000
v 4.950000 1.100000 -2.225000
v -4.687500 1.112500 1.962500
v 4.687500 1.112500 1.962500
v -4.687500 1.112500 -1.962500
v 4.687500 1.112500 -1.962500
v -4.612500 1.412500 1.887500
v 4.612500 1.412500 1.887500
v -4.612500 1.412500 -1.887500
v 4.612500 1.412500 -1.887500
v -4.312500 1.700000 1.587500
v 4.312500 1.700000 1.587500
v -4.312500 1.700000 -1.587500
v 4.312500 1.700000 -1.587500
vt 0.355732 0.572353
vt 0.355732 0.439280
vt 0.645447 0.439280
vt 0.645447 0.572353
vt 0.293325 0.739970
vt 0.696220 0.739970
vt 0.696220 0.892614
vt 0.293325 0.892614
vt 0.032700 0.036211
vt 0.663725 0.031223
vt 0.663725 0.110555
vt 0.032700 0.115543
vt 0.673940 0.031630
vt 0.968516 0.031630
vt 0.968516 0.111627
vt 0.673940 0.111627
vt 0.031287 0.037405
vt 0.662312 0.032417
vt 0.662312 0.111750
vt 0.031287 0.116737
vt 0.674845 0.032003
vt 0.969422 0.032003
vt 0.969422 0.112000
vt 0.674845 0.112000
vt 0.313473 0.434086
vt 0.669717 0.434086
vt 0.660271 0.443082
vt 0.322919 0.443082
vt 0.669717 0.586596
vt 0.660271 0.577599
vt 0.313473 0.586596
vt 0.322919 0.577599
vt 0.049387 0.116444
vt 0.647038 0.111457
vt 0.642270 0.133093
vt 0.054155 0.138080
vt 0.691317 0.112536
vt 0.951140 0.112536
vt 0.946175 0.134354
vt 0.696281 0.134354
vt 0.047974 0.117639
vt 0.645624 0.112651
vt 0.640857 0.134287
vt 0.052742 0.139275
vt 0.692222 0.112909
vt 0.952045 0.112909
vt 0.947080 0.134727
vt 0.697187 0.134727
vt 0.290965 0.432541
vt 0.695034 0.432541
vt 0.679389 0.447560
vt 0.301601 0.447560
vt 0.695034 0.590014
vt 0.679389 0.580004
vt 0.290965 0.590014
vt 0.301601 0.580004
vn 0.0000 -1.0000 0.0000
vn 0.0000 1.0000 -0.0000
vn 0.0000 0.0000 1.0000
vn 1.0000 0.0000 0.0000
vn 0.0000 0.0000 -1.0000
vn -1.0000 0.0000 0.0000
vn 0.0000 0.9989 0.0476
vn 0.0476 0.9989 -0.0000
vn 0.0000 0.9989 -0.0476
vn -0.0476 0.9989 -0.0000
vn 0.0000 0.2425 0.9701
vn 0.9701 0.2425 -0.0000
vn 0.0000 0.2425 -0.9701
vn -0.9701 0.2425 -0.0000
vn 0.0000 0.7220 0.6919
vn 0.6919 0.7220 -0.0000
vn 0.0000 0.7220 -0.6919
vn -0.6919 0.7220 -0.0000
usemtl Material_#130.001
s 1
f 1/1/1 3/2/1 4/3/1
f 4/3/1 2/4/1 1/1/1
f 17/5/2 18/6/2 20/7/2
f 20/7/2 19/8/2 17/5/2
f 1/9/3 2/10/3 6/11/3
f 6/11/3 5/12/3 1/9/3
f 2/13/4 4/14/4 8/15/4
f 8/15/4 6/16/4 2/13/4
f 4/17/5 3/18/5 7/19/5
f 7/19/5 8/20/5 4/17/5
f 3/21/6 1/22/6 5/23/6
f 5/23/6 7/24/6 3/21/6
f 5/25/7 6/26/7 10/27/7
f 10/27/7 9/28/7 5/25/7
f 6/26/8 8/29/8 12/30/8
f 12/30/8 10/27/8 6/26/8
f 8/29/9 7/31/9 11/32/9
f 11/32/9 12/30/9 8/29/9
f 7/31/10 5/25/10 9/28/10
f 9/28/10 11/32/10 7/31/10
f 9/33/11 10/34/11 14/35/11
f 14/35/11 13/36/11 9/33/11
f 10/37/12 12/38/12 16/39/12
f 16/39/12 14/40/12 10/37/12
f 12/41/13 11/42/13 15/43/13
f 15/43/13 16/44/13 12/41/13
f 11/45/14 9/46/14 13/47/14
f 13/47/14 15/48/14 11/45/14
f 13/49/15 14/50/15 18/51/15
f 18/51/15 17/52/15 13/49/15
f 14/50/16 16/53/16 20/54/16
f 20/54/16 18/51/16 14/50/16
f 16/53/17 15/55/17 19/56/17
f 19/56/17 20/54/17 16/53/17
f 15/55/18 13/49/18 17/52/18
f 17/52/18 19/56/18 15/55/18
