# Blender v2.79 (sub 0) OBJ File: 'Coffin.blend'
# www.blender.org
mtllib Coffin.mtl
o coffin_Untitled.022
v -5.000000 0.000000 2.250000
v 5.000000 0.000000 2.250000
v -5.000000 -0.000000 -2.250000
v 5.000000 -0.000000 -2.250000
v -4.887500 1.000000 2.137500
v 4.887500 1.000000 2.137500
v -4.887500 1.000000 -2.137500
v 4.887500 1.000000 -2.137500
v -4.887500 1.587500 2.137500
v 4.887500 1.587500 2.137500
v -4.887500 1.587500 -2.137500
v 4.887500 1.587500 -2.137500
v -4.662500 1.600000 1.912500
v 4.662500 1.600000 1.912500
v -4.662500 1.600000 -1.912500
v 4.662500 1.600000 -1.912500
v -4.662500 4.249127 1.912500
v 4.662500 4.249127 1.912500
v -4.662500 4.249128 -1.912500
v 4.662500 4.249128 -1.912500
v -4.850000 4.261628 2.100000
v 4.850000 4.261628 2.100000
v -4.850000 4.261628 -2.100000
v 4.850000 4.261628 -2.100000
v -4.850000 4.724128 2.100000
v 4.850000 4.724128 2.100000
v -4.850000 4.724128 -2.100000
v 4.850000 4.724128 -2.100000
v -4.512500 4.711627 1.762500
v 4.512500 4.711627 1.762500
v -4.512500 4.711628 -1.762500
v 4.512500 4.711628 -1.762500
v -4.512500 0.667684 1.762500
v 4.512500 0.667684 1.762500
v -4.512500 0.667684 -1.762500
v 4.512500 0.667684 -1.762500
vt 0.309740 0.726657
vt 0.309740 0.598071
vt 0.677764 0.598071
vt 0.677764 0.726657
vt 0.292002 0.594147
vt 0.692101 0.594147
vt 0.692101 0.730905
vt 0.292002 0.730905
vt 0.660538 0.035220
vt 0.027516 0.035220
vt 0.034638 0.096699
vt 0.653417 0.096699
vt 0.677066 0.035077
vt 0.963426 0.035077
vt 0.956267 0.096969
vt 0.684225 0.096969
vt 0.025979 0.035220
vt 0.659001 0.035220
vt 0.651879 0.096699
vt 0.033100 0.096699
vt 0.677896 0.035982
vt 0.964255 0.035982
vt 0.957096 0.097874
vt 0.685055 0.097874
vt 0.034638 0.132817
vt 0.653417 0.132817
vt 0.956267 0.133330
vt 0.684225 0.133330
vt 0.651879 0.132817
vt 0.033100 0.132817
vt 0.957096 0.134235
vt 0.685055 0.134235
vt 0.035288 0.355594
vt 0.956858 0.355594
vt 0.935646 0.387726
vt 0.056501 0.387726
vt 0.956858 0.964229
vt 0.935646 0.932294
vt 0.035293 0.968533
vt 0.056439 0.936302
vt 0.935580 0.932195
vt 0.035288 0.964229
vt 0.056501 0.932294
vt 0.639174 0.133586
vt 0.048881 0.133586
vt 0.048881 0.296451
vt 0.639174 0.296451
vt 0.698543 0.134104
vt 0.941949 0.134104
vt 0.941949 0.298063
vt 0.698543 0.298063
vt 0.047343 0.133586
vt 0.637636 0.133586
vt 0.637636 0.296451
vt 0.047343 0.296451
vt 0.699373 0.135009
vt 0.942778 0.135009
vt 0.942778 0.298968
vt 0.699373 0.298968
vt 0.073608 0.908712
vt 0.930357 0.908712
vt 0.947584 0.933065
vt 0.056382 0.933065
vt 0.930357 0.411901
vt 0.947584 0.387548
vt 0.073608 0.411901
vt 0.056382 0.387548
vt 0.651043 0.297220
vt 0.037012 0.297220
vt 0.037012 0.325654
vt 0.651043 0.325654
vt 0.686611 0.298836
vt 0.953881 0.298836
vt 0.953881 0.327461
vt 0.686611 0.327461
vt 0.035474 0.297220
vt 0.649505 0.297220
vt 0.649505 0.325654
vt 0.035474 0.325654
vt 0.687441 0.299741
vt 0.954710 0.299741
vt 0.954710 0.328366
vt 0.687441 0.328366
vt 0.953323 0.959228
vt 0.038823 0.959228
vt 0.070642 0.911071
vt 0.921504 0.911071
vt 0.038823 0.360759
vt 0.070642 0.408785
vt 0.953323 0.360759
vt 0.921504 0.408785
vt 0.292002 0.437256
vt 0.692101 0.437257
vt 0.871379 0.594147
vt 0.871379 0.730905
vt 0.692101 0.887796
vt 0.292002 0.887796
vt 0.112725 0.730905
vt 0.112725 0.594147
vn 0.0000 -1.0000 0.0000
vn 0.0000 1.0000 -0.0000
vn 0.0000 0.1118 0.9937
vn 0.9937 0.1118 -0.0000
vn 0.0000 0.1118 -0.9937
vn -0.9937 0.1118 -0.0000
vn 0.0000 0.0000 1.0000
vn 1.0000 0.0000 0.0000
vn 0.0000 0.0000 -1.0000
vn -1.0000 0.0000 0.0000
vn 0.0000 0.9985 0.0555
vn 0.0555 0.9985 -0.0000
vn 0.0000 0.9985 -0.0555
vn -0.0555 0.9985 -0.0000
vn 0.0000 -0.9978 0.0665
vn 0.0665 -0.9978 0.0000
vn 0.0000 -0.9978 -0.0665
vn -0.0665 -0.9978 0.0000
vn 0.0000 0.9993 -0.0370
vn -0.0370 0.9993 0.0000
vn 0.0000 0.9993 0.0370
vn 0.0370 0.9993 0.0000
usemtl Material_#130.001
s 1
f 1/1/1 3/2/1 4/3/1
f 4/3/1 2/4/1 1/1/1
f 33/5/2 34/6/2 36/7/2
f 36/7/2 35/8/2 33/5/2
f 1/9/3 2/10/3 6/11/3
f 6/11/3 5/12/3 1/9/3
f 2/13/4 4/14/4 8/15/4
f 8/15/4 6/16/4 2/13/4
f 4/17/5 3/18/5 7/19/5
f 7/19/5 8/20/5 4/17/5
f 3/21/6 1/22/6 5/23/6
f 5/23/6 7/24/6 3/21/6
f 5/12/7 6/11/7 10/25/7
f 10/25/7 9/26/7 5/12/7
f 6/16/8 8/15/8 12/27/8
f 12/27/8 10/28/8 6/16/8
f 8/20/9 7/19/9 11/29/9
f 11/29/9 12/30/9 8/20/9
f 7/24/10 5/23/10 9/31/10
f 9/31/10 11/32/10 7/24/10
f 9/33/11 10/34/11 14/35/11
f 14/35/11 13/36/11 9/33/11
f 10/34/12 12/37/12 16/38/12
f 16/38/12 14/35/12 10/34/12
f 12/37/13 11/39/13 15/40/13
f 15/40/13 16/41/13 12/37/13
f 11/42/14 9/33/14 13/36/14
f 13/36/14 15/43/14 11/42/14
f 13/44/7 14/45/7 18/46/7
f 18/46/7 17/47/7 13/44/7
f 14/48/8 16/49/8 20/50/8
f 20/50/8 18/51/8 14/48/8
f 16/52/9 15/53/9 19/54/9
f 19/54/9 20/55/9 16/52/9
f 15/56/10 13/57/10 17/58/10
f 17/58/10 19/59/10 15/56/10
f 17/60/15 18/61/15 22/62/15
f 22/62/15 21/63/15 17/60/15
f 18/61/16 20/64/16 24/65/16
f 24/65/16 22/62/16 18/61/16
f 20/64/17 19/66/17 23/67/17
f 23/67/17 24/65/17 20/64/17
f 19/66/18 17/60/18 21/63/18
f 21/63/18 23/67/18 19/66/18
f 21/68/7 22/69/7 26/70/7
f 26/70/7 25/71/7 21/68/7
f 22/72/8 24/73/8 28/74/8
f 28/74/8 26/75/8 22/72/8
f 24/76/9 23/77/9 27/78/9
f 27/78/9 28/79/9 24/76/9
f 23/80/10 21/81/10 25/82/10
f 25/82/10 27/83/10 23/80/10
f 25/84/19 26/85/19 30/86/19
f 30/86/19 29/87/19 25/84/19
f 26/85/20 28/88/20 32/89/20
f 32/89/20 30/86/20 26/85/20
f 28/88/21 27/90/21 31/91/21
f 31/91/21 32/89/21 28/88/21
f 27/90/22 25/84/22 29/87/22
f 29/87/22 31/91/22 27/90/22
f 29/92/9 30/93/9 34/6/9
f 34/6/9 33/5/9 29/92/9
f 30/94/10 32/95/10 36/7/10
f 36/7/10 34/6/10 30/94/10
f 32/96/7 31/97/7 35/8/7
f 35/8/7 36/7/7 32/96/7
f 31/98/8 29/99/8 33/5/8
f 33/5/8 35/8/8 31/98/8
