# Blender v2.79 (sub 0) OBJ File: 'RoofFrame6.blend'
# www.blender.org
mtllib RoofFrame6.mtl
o Roof2Poles_Cube.008
v 7.374289 0.051042 10.209765
v 8.988910 0.051042 10.209765
v 8.988910 0.051042 11.824387
v 7.374289 0.051042 11.824387
v 7.374289 21.230978 10.209765
v 8.988910 21.230978 10.209765
v 8.988910 20.693203 11.824387
v 7.374289 20.693203 11.824387
v -10.160076 0.051042 10.209765
v -8.545456 0.051042 10.209765
v -8.545456 0.051042 11.824387
v -10.160076 0.051042 11.824387
v -10.160076 21.230978 10.209765
v -8.545456 21.230978 10.209765
v -8.545456 20.693203 11.824387
v -10.160076 20.693203 11.824387
v 9.486889 20.159941 12.977364
v -10.513110 20.159941 12.977364
v 9.486889 26.811977 -7.351601
v -10.513111 26.811977 -7.351602
v -10.513110 19.923046 13.160014
v -10.513117 20.886885 13.160002
v -10.513111 26.628782 -7.351602
v -10.513114 27.592621 -7.351607
v -10.680152 19.923046 13.160014
v -10.680159 20.886885 13.160002
v -10.680152 26.628782 -7.351602
v -10.680155 27.592621 -7.351607
v 9.486889 19.953798 12.977364
v -10.513110 19.953798 12.977364
v 9.486885 21.038023 12.977376
v -10.513117 21.038023 12.977350
v 9.486889 19.953798 13.144407
v -10.513110 19.953798 13.144407
v 9.486885 21.038023 13.144419
v -10.513117 21.038023 13.144393
v 9.652237 19.923046 13.160017
v 9.652231 20.886885 13.160005
v 9.652237 26.628782 -7.351602
v 9.652234 27.592621 -7.351607
v 9.485197 19.923046 13.160017
v 9.485189 20.886885 13.160005
v 9.485196 26.628782 -7.351602
v 9.485193 27.592621 -7.351607
v 9.486885 20.838593 12.977373
v -10.513117 20.838593 12.977352
v 9.486885 27.490629 -7.351601
v -10.513114 27.490629 -7.351607
vt 0.396999 1.001665
vt 0.320782 1.001665
vt 0.320782 0.001886
vt 0.396999 0.001886
vt 0.625649 1.001665
vt 0.549432 0.976280
vt 0.549432 0.001886
vt 0.625649 0.001886
vt 0.473216 0.976280
vt 0.473215 0.001886
vt 0.081522 0.999889
vt 0.005305 0.999889
vt 0.005305 0.000110
vt 0.081521 0.000110
vt 0.310172 0.999888
vt 0.233956 0.974503
vt 0.233955 0.000111
vt 0.310172 0.000111
vt 0.157739 0.974503
vt 0.157738 0.000111
vt 0.000097 0.934948
vt 0.000097 0.000097
vt 0.999903 0.000097
vt 0.999903 0.934948
vt 0.101004 0.941881
vt 0.101004 -0.069187
vt 0.141822 -0.083220
vt 0.141820 0.927848
vt 0.199419 0.941757
vt 0.158601 0.927725
vt 0.158603 -0.083343
vt 0.199418 -0.069312
vt 0.216199 -0.069435
vt 0.216200 0.941634
vt 0.654487 0.699150
vt 0.701402 0.699150
vt 0.701402 0.707700
vt 0.654487 0.707700
vt 0.383283 -0.016605
vt 0.383284 0.939881
vt 0.333974 0.939881
vt 0.333974 -0.016604
vt 0.268789 -0.016492
vt 0.318099 -0.016492
vt 0.318099 0.939993
vt 0.268790 0.939993
vt 0.707262 0.725261
vt 0.654487 0.725261
vt 0.654487 0.716711
vt 0.707262 0.716711
vt 0.252915 0.940105
vt 0.252914 -0.016380
vt 0.707261 0.707930
vt 0.707261 0.716480
vt 0.654487 0.716480
vt 0.654487 0.707930
vt 0.412939 0.959637
vt 0.413264 -0.051420
vt 0.454087 -0.065437
vt 0.453761 0.945618
vt 0.511354 0.959548
vt 0.470541 0.945501
vt 0.470867 -0.065555
vt 0.511682 -0.051508
vt 0.528462 -0.051626
vt 0.528135 0.959431
vt 0.654487 0.690370
vt 0.701401 0.690370
vt 0.701401 0.698919
vt 0.654487 0.698919
vt 0.934948 0.000095
vt 0.934948 0.999902
vt 0.000097 0.999905
vt 0.000096 0.000099
vn -0.6225 0.0000 -0.7826
vn 0.6225 0.0000 -0.7826
vn 0.7071 0.0000 -0.7071
vn -0.7071 0.0000 -0.7071
vn 0.7694 0.0000 0.6387
vn 0.7071 0.0000 0.7071
vn -0.7694 0.0000 0.6387
vn -0.7071 0.0000 0.7071
vn 0.0000 -0.9504 -0.3110
vn 0.5625 -0.6693 0.4853
vn 0.7685 -0.6081 -0.1988
vn 0.6241 0.7426 0.2428
vn 0.5958 0.4715 0.6502
vn -0.5625 -0.6693 0.4853
vn -0.5958 0.4714 0.6501
vn -0.6241 0.7426 0.2428
vn -0.7685 -0.6081 -0.1988
vn 0.5773 -0.5773 -0.5773
vn -0.5773 -0.5773 -0.5773
vn -0.5773 0.5773 -0.5773
vn 0.5773 0.5773 -0.5773
vn 0.5773 -0.5773 0.5773
vn 0.5773 0.5773 0.5773
vn -0.5773 0.5773 0.5773
vn -0.5773 -0.5773 0.5773
vn 0.5958 0.4715 0.6501
vn -0.5625 -0.6693 0.4854
vn 0.0000 0.9504 0.3110
usemtl Wood
s 1
f 5/1/1 6/2/2 2/3/3 1/4/4
f 6/5/2 7/6/5 3/7/6 2/8/3
f 7/6/5 8/9/7 4/10/8 3/7/6
f 8/9/7 5/1/1 1/4/4 4/10/8
f 13/11/1 14/12/2 10/13/3 9/14/4
f 14/15/2 15/16/5 11/17/6 10/18/3
f 15/16/5 16/19/7 12/20/8 11/17/6
f 16/19/7 13/11/1 9/14/4 12/20/8
f 17/21/9 18/22/9 20/23/9 19/24/9
f 21/25/10 23/26/11 24/27/12 22/28/13
f 25/29/14 26/30/15 28/31/16 27/32/17
f 22/28/13 24/27/12 28/31/16 26/30/15
f 23/33/11 21/34/10 25/29/14 27/32/17
f 21/35/10 22/36/13 26/37/15 25/38/14
f 29/39/18 30/40/19 32/41/20 31/42/21
f 33/43/22 35/44/23 36/45/24 34/46/25
f 31/42/21 32/41/20 36/45/24 35/44/23
f 32/47/20 30/48/19 34/49/25 36/50/24
f 30/51/19 29/52/18 33/43/22 34/46/25
f 31/53/21 35/54/23 33/55/22 29/56/18
f 37/57/10 39/58/11 40/59/12 38/60/26
f 41/61/27 42/62/15 44/63/16 43/64/17
f 38/60/26 40/59/12 44/63/16 42/62/15
f 39/65/11 37/66/10 41/61/27 43/64/17
f 37/67/10 38/68/26 42/69/15 41/70/27
usemtl RoofTiles
f 45/71/28 47/72/28 48/73/28 46/74/28
