# Blender v2.79 (sub 0) OBJ File: 'RoofFrame.blend'
# www.blender.org
mtllib RoofFrame.mtl
o BuildingExtensions4Roof_HosueExtension1Roof.001
v 10.401575 20.186968 11.050585
v -13.246740 20.209904 11.050530
v 10.401590 29.627180 -6.370162
v -13.246740 29.578480 -6.370204
v 9.253816 -0.058053 -6.362259
v 9.253816 -0.058053 9.289987
v -11.735985 -0.058053 9.289984
v -11.735978 -0.058053 -6.362261
v 9.253820 29.113874 -6.362250
v 9.253808 20.931744 9.289995
v -11.735988 20.931744 9.289982
v -11.735983 29.113874 -6.362259
v 10.442467 19.312883 10.345698
v -13.149679 19.324238 10.351991
v -13.201887 20.305040 11.088428
v 10.442343 20.293690 11.083985
v 10.442465 20.370136 10.950302
v -13.192335 20.381489 10.955087
v -13.159232 19.247789 10.485331
v 10.442345 19.236437 10.479380
v -13.164683 19.157209 10.591079
v -13.205699 20.242615 11.170974
v -13.373714 19.142708 10.587088
v -13.414730 20.228111 11.166983
v -13.153084 28.243017 -6.400230
v -13.272458 29.819454 -6.408672
v -13.361353 28.225117 -6.414959
v -13.480728 29.801556 -6.423403
v 10.401575 19.396198 10.418427
v -13.246738 19.416245 10.433246
v 10.401585 28.680956 -6.369912
v -13.246738 28.637907 -6.400235
v 10.636271 19.157209 10.591079
v 10.595256 20.242615 11.170974
v 10.427240 19.142708 10.587088
v 10.386225 20.228111 11.166983
v 10.647871 28.243017 -6.400230
v 10.528497 29.819454 -6.408672
v 10.439602 28.225117 -6.414959
v 10.320227 29.801556 -6.423403
v 9.603037 6.648560 8.945592
v 8.367218 6.648560 8.945592
v 8.367204 6.648560 -6.745921
v 9.603023 6.648560 -6.745921
v 9.603037 7.884378 8.945592
v 8.367218 7.884378 8.945592
v 8.367204 7.884378 -6.745921
v 9.603023 7.884378 -6.745921
v -12.085203 6.648560 8.945592
v -10.849384 6.648560 8.945592
v -10.849371 6.648560 -6.745921
v -12.085189 6.648560 -6.745921
v -12.085203 7.884378 8.945592
v -10.849384 7.884378 8.945592
v -10.849371 7.884378 -6.745921
v -12.085189 7.884378 -6.745921
v -12.033750 6.648559 9.628362
v -12.033750 6.648559 8.392543
v 9.551583 6.648559 8.392543
v 9.551583 6.648559 9.628362
v -12.033750 7.884378 9.628362
v -12.033750 7.884378 8.392543
v 9.551583 7.884378 8.392543
v 9.551583 7.884378 9.628362
v 8.272026 -0.175597 9.896399
v 8.272026 -0.175597 8.384829
v 9.783596 -0.175597 8.384829
v 9.783596 -0.175597 9.896399
v 8.272026 20.065491 9.896399
v 8.272026 20.916407 8.384829
v 9.783596 20.916407 8.384829
v 9.783596 20.065491 9.896399
v -10.754192 -0.175597 9.896399
v -10.754192 -0.175597 8.384829
v -12.265762 -0.175597 8.384829
v -12.265762 -0.175597 9.896399
v -10.754193 20.065491 9.896399
v -10.754193 20.916407 8.384829
v -12.265762 20.916407 8.384829
v -12.265762 20.065491 9.896399
v 9.603037 19.848274 8.945592
v 8.367218 19.848274 8.945592
v 8.367204 19.848274 -6.745921
v 9.603023 19.848274 -6.745921
v 9.603037 21.084095 8.945592
v 8.367218 21.084095 8.945592
v 8.367204 21.084095 -6.745921
v 9.603023 21.084095 -6.745921
v -10.849371 19.848274 -6.745921
v -12.085189 19.848274 -6.745921
v -10.849371 21.084095 -6.745921
v -12.085189 21.084095 -6.745921
v -10.741492 19.848274 8.945592
v -11.977311 19.848274 8.945592
v -11.977324 19.848274 -6.745921
v -10.741507 19.848274 -6.745921
v -10.741492 21.084095 8.945592
v -11.977311 21.084095 8.945592
v -11.977324 21.084095 -6.745921
v -10.741507 21.084095 -6.745921
vt 0.906534 0.078327
vt 0.906534 0.759568
vt 0.093466 0.758770
vt 0.093468 0.078700
vt 1.102011 0.090804
vt 1.102011 0.805749
vt 0.718406 0.605222
vt 0.718406 0.090804
vt 0.203988 0.090804
vt 0.203988 0.605222
vt -0.179617 0.805749
vt -0.179617 0.090804
vt 0.742533 0.864319
vt 0.742532 0.094586
vt 0.780306 0.094608
vt 0.780282 0.865731
vt 0.830804 0.863487
vt 0.793075 0.864897
vt 0.793092 0.094503
vt 0.830845 0.094483
vt 0.729763 0.863905
vt 0.729763 0.094429
vt 0.723010 0.300070
vt 0.767898 0.274100
vt 0.767966 0.956286
vt 0.728066 0.956640
vt 0.824129 0.299754
vt 0.819192 0.956640
vt 0.779290 0.956312
vt 0.779223 0.273811
vt 0.625413 0.125621
vt 0.667032 0.125621
vt 0.666771 0.133065
vt 0.625153 0.133065
vt 0.835028 0.300057
vt 0.830094 0.956618
vt 0.678660 0.141189
vt 0.678591 0.148637
vt 0.625153 0.148637
vt 0.625222 0.141189
vt 0.624723 0.079725
vt 0.624832 0.920277
vt -0.023943 0.920277
vt -0.023743 0.079724
vt 0.874356 0.240070
vt 0.919244 0.214100
vt 0.919312 0.896286
vt 0.879411 0.896640
vt 0.975476 0.239754
vt 0.970538 0.896640
vt 0.930636 0.896312
vt 0.930569 0.213811
vt 0.679242 0.141193
vt 0.720860 0.141193
vt 0.720600 0.148637
vt 0.678981 0.148637
vt 0.986374 0.240057
vt 0.981440 0.896618
vt 0.678660 0.133403
vt 0.678591 0.140851
vt 0.625153 0.140851
vt 0.625222 0.133403
vt 0.629138 0.222875
vt 0.629140 0.700160
vt 0.593393 0.700161
vt 0.593392 0.222876
vt 0.557646 0.700161
vt 0.557646 0.222876
vt 0.664884 0.222875
vt 0.664887 0.700160
vt 0.894689 0.144948
vt 0.930435 0.144948
vt 0.930436 0.622233
vt 0.894690 0.622233
vt 0.966182 0.144948
vt 0.966182 0.622233
vt 0.858943 0.622233
vt 0.858942 0.144948
vt 0.468922 -0.008346
vt 0.468923 0.648209
vt 0.433176 0.648209
vt 0.433175 -0.008346
vt 0.397430 0.648209
vt 0.397429 -0.008346
vt 0.504668 -0.008346
vt 0.504669 0.648209
vt 0.039781 0.570929
vt -0.000435 0.593568
vt -0.000435 0.032409
vt 0.039781 0.032409
vt 0.160428 0.593567
vt 0.120212 0.593567
vt 0.120212 0.032408
vt 0.160428 0.032408
vt 0.079997 0.570929
vt 0.079996 0.032408
vt 0.280589 0.720951
vt 0.280589 0.158452
vt 0.322595 0.158452
vt 0.322595 0.744598
vt 0.154569 0.744598
vt 0.154569 0.158452
vt 0.196576 0.158452
vt 0.196576 0.744598
vt 0.238583 0.158452
vt 0.238583 0.720951
vt 0.776690 0.410477
vt 0.776691 0.887762
vt 0.740944 0.887762
vt 0.740944 0.410477
vt 0.705198 0.887762
vt 0.705198 0.410477
vt 0.812437 0.410477
vt 0.812438 0.887762
vt 0.812438 0.887762
vt 0.812437 0.410477
vt 0.848183 0.410477
vt 0.848184 0.887762
vt 0.740944 0.887762
vt 0.705198 0.887762
vt 0.705198 0.410477
vt 0.740944 0.410477
vt 0.776690 0.410477
vt 0.776691 0.887762
vn -0.0005 0.8800 0.4750
vn 1.0000 0.0000 0.0000
vn -1.0000 -0.0000 -0.0000
vn -0.0000 -0.0000 1.0000
vn -0.0000 -0.4960 0.8683
vn 0.0000 0.4960 -0.8683
vn 0.0005 0.8678 0.4969
vn -0.0005 -0.8678 -0.4969
vn 0.9981 0.0542 0.0277
vn -0.9981 -0.0542 -0.0277
vn 0.0158 -0.4707 0.8821
vn -0.0893 0.8746 0.4766
vn 0.0893 -0.8784 -0.4694
vn -0.0705 0.0000 0.9975
vn 0.0006 -0.8761 -0.4822
vn 0.0000 -1.0000 0.0000
vn 0.0000 1.0000 0.0000
vn 0.0000 0.0000 -1.0000
usemtl RoofTiles
s off
f 1/1/1 3/2/1 4/3/1 2/4/1
usemtl Plaster
f 5/5/2 9/6/2 10/7/2 6/8/2
f 7/9/3 11/10/3 12/11/3 8/12/3
f 6/8/4 10/7/4 11/10/4 7/9/4
usemtl Wood
f 19/13/5 20/14/5 16/15/5 15/16/5
f 14/17/6 18/18/6 17/19/6 13/20/6
f 17/19/7 18/18/7 15/16/7 16/15/7
f 14/21/8 13/22/8 20/14/8 19/13/8
f 25/23/9 26/24/9 22/25/9 21/26/9
f 27/27/10 23/28/10 24/29/10 28/30/10
f 21/31/11 22/32/11 24/33/11 23/34/11
f 22/25/12 26/24/12 28/30/12 24/29/12
f 25/35/13 21/36/13 23/28/13 27/27/13
f 26/37/14 28/38/14 27/39/14 25/40/14
f 29/41/15 30/42/15 32/43/15 31/44/15
f 37/45/9 38/46/9 34/47/9 33/48/9
f 39/49/10 35/50/10 36/51/10 40/52/10
f 33/53/11 34/54/11 36/55/11 35/56/11
f 34/47/12 38/46/12 40/52/12 36/51/12
f 37/57/13 33/58/13 35/50/13 39/49/13
f 38/59/14 40/60/14 39/61/14 37/62/14
f 48/63/2 45/64/2 41/65/2 44/66/2
f 41/65/16 42/67/16 43/68/16 44/66/16
f 48/63/17 47/69/17 46/70/17 45/64/17
f 56/71/3 52/72/3 49/73/3 53/74/3
f 49/73/16 52/72/16 51/75/16 50/76/16
f 56/71/17 53/74/17 54/77/17 55/78/17
f 64/79/4 61/80/4 57/81/4 60/82/4
f 57/81/16 58/83/16 59/84/16 60/82/16
f 64/79/17 63/85/17 62/86/17 61/80/17
f 69/87/3 70/88/3 66/89/3 65/90/3
f 70/91/18 71/92/18 67/93/18 66/94/18
f 71/92/2 72/95/2 68/96/2 67/93/2
f 72/95/4 69/87/4 65/90/4 68/96/4
f 77/97/2 73/98/2 74/99/2 78/100/2
f 78/101/18 74/102/18 75/103/18 79/104/18
f 79/104/3 75/103/3 76/105/3 80/106/3
f 80/106/4 76/105/4 73/98/4 77/97/4
f 88/107/2 85/108/2 81/109/2 84/110/2
f 81/109/16 82/111/16 83/112/16 84/110/16
f 88/107/17 87/113/17 86/114/17 85/108/17
f 98/115/3 99/116/3 95/117/3 94/118/3
f 93/119/16 94/120/16 95/121/16 96/122/16
f 100/123/17 99/116/17 98/115/17 97/124/17
l 91 89
l 91 92
l 92 90
l 90 89
