# Blender v2.79 (sub 0) OBJ File: 'RoofFrame4.blend'
# www.blender.org
mtllib RoofFrame4.mtl
o BuildingExtension3Top_Cube.004
v 12.048536 48.183586 11.615845
v -11.183118 48.183586 11.615810
v -11.183084 48.183586 -11.615838
v 12.048564 48.183586 -11.615811
v 1.679065 70.778725 11.615834
v -0.813637 70.778725 11.615820
v -0.813616 70.778725 -11.615829
v 1.679086 70.778725 -11.615822
v 10.432715 0.019302 10.000010
v -9.567284 0.019302 9.999992
v -9.567265 0.019302 -10.000009
v 10.432737 0.019302 -9.999987
v 10.432711 48.183586 10.000014
v -9.567289 48.183586 9.999986
v -9.567263 48.183586 -10.000010
v 10.432734 48.183586 -9.999990
v 13.384200 46.936192 13.054470
v -12.518784 46.936192 13.054432
v -12.518748 46.936192 -13.054461
v 13.384230 46.936192 -13.054433
v 2.472447 72.015762 13.054459
v -1.607019 72.015770 13.054441
v -1.606997 72.015770 -13.054455
v 2.472469 72.015770 -13.054443
v 12.048535 46.323223 13.054468
v -11.183119 46.323223 13.054433
v -11.183083 46.323223 -13.054461
v 12.048565 46.323223 -13.054434
v 1.679064 70.778725 13.054458
v -0.813638 70.778725 13.054442
v -0.813614 70.778725 -13.054453
v 1.679087 70.778725 -13.054445
v 13.384200 46.936192 13.054470
v -12.518784 46.936192 13.054432
v -12.518748 46.936192 -13.054461
v 13.384230 46.936192 -13.054433
v 2.472447 72.015762 13.054459
v -1.607019 72.015770 13.054441
v -1.606997 72.015770 -13.054455
v 2.472469 72.015770 -13.054443
vt 0.039527 -0.314407
vt 0.960473 -0.314407
vt 0.960473 0.654020
vt 0.039527 0.654020
vt 0.549408 1.595913
vt 0.450593 1.595913
vt 0.450594 -1.256300
vt 0.549407 -1.256300
vt 0.469434 0.477597
vt 0.469434 0.522402
vt 0.000144 0.522402
vt 0.000145 0.477598
vt 0.000144 0.999855
vt 0.469434 0.999856
vt 0.469434 0.000144
vt 0.000144 0.000145
vt 0.391154 0.383764
vt 0.391154 0.669538
vt 0.316774 0.669539
vt 0.316774 0.383765
vt 0.496416 0.477604
vt 0.496416 0.000144
vt 0.522820 0.000916
vt 0.518224 0.492507
vt 0.576217 0.000144
vt 0.571755 0.477580
vt 0.549808 0.492280
vt 0.549808 0.000669
vt 0.469723 0.477604
vt 0.469723 0.000144
vt 0.496127 0.000916
vt 0.491531 0.492507
vt 0.549519 0.000144
vt 0.545056 0.477578
vt 0.523109 0.492277
vt 0.523109 0.000669
vt 0.531933 0.592587
vt 0.487128 0.592587
vt 0.472868 0.570352
vt 0.546193 0.570352
vt 0.487128 0.592876
vt 0.531933 0.592876
vt 0.546193 0.615111
vt 0.472868 0.615111
vt 0.739860 0.770627
vt 0.739859 0.289392
vt 0.765619 0.289392
vt 0.765619 0.770627
vt 0.739578 0.289394
vt 0.739578 0.770627
vt 0.713818 0.770627
vt 0.713818 0.289394
vt 1.040588 -0.349869
vt 1.040588 0.951984
vt 0.500000 0.951984
vt 0.500000 -0.349869
vt -0.040589 0.951984
vt -0.040588 -0.349868
vt -0.581177 0.951983
vt -0.581176 -0.349869
vt 1.581176 -0.349869
vt 1.581177 0.951984
vt 0.257123 0.000098
vt 0.697488 0.000098
vt 0.697488 0.999902
vt 0.257123 0.999902
vt 0.261401 0.062287
vt 0.738604 0.062295
vt 0.738599 0.892326
vt 0.261396 0.892318
vn 0.0000 -0.8092 0.5875
vn 0.0000 -0.8092 -0.5875
vn 0.0000 0.0000 -1.0000
vn 0.0000 0.0000 1.0000
vn -0.2867 -0.4329 0.8546
vn 0.2867 -0.4329 0.8546
vn 0.2867 -0.4329 -0.8546
vn -0.2867 -0.4329 -0.8546
vn 0.2954 -0.7623 -0.5758
vn 0.2954 -0.7623 0.5758
vn -0.2954 -0.7623 0.5758
vn -0.2954 -0.7623 -0.5758
vn 0.0000 0.6213 0.7836
vn 0.0000 0.6213 -0.7836
vn 0.2931 -0.6386 0.7115
vn -0.2931 -0.6386 0.7115
vn -0.2931 -0.6386 -0.7115
vn 0.2931 -0.6386 -0.7115
vn 0.7071 0.0000 0.7071
vn -0.7071 0.0000 0.7071
vn -0.7071 0.0000 -0.7071
vn 0.7071 0.0000 -0.7071
vn -0.9170 0.3989 0.0000
vn 0.9170 0.3989 0.0000
usemtl Wood.002
s 1
f 1/1/1 2/2/1 3/3/2 4/4/2
f 4/4/2 3/3/2 7/5/3 8/6/3
f 2/2/1 1/1/1 5/7/4 6/8/4
f 29/9/5 30/10/6 31/11/7 32/12/8
f 27/13/9 31/11/7 30/10/6 26/14/10
f 25/15/11 29/9/5 32/12/8 28/16/12
f 37/17/13 40/18/14 39/19/14 38/20/13
f 29/21/5 25/22/11 33/23/15 37/24/13
f 26/25/10 30/26/6 38/27/13 34/28/16
f 31/29/7 27/30/9 35/31/17 39/32/14
f 28/33/12 32/34/8 40/35/14 36/36/18
f 32/37/8 31/38/7 39/39/14 40/40/14
f 30/41/6 29/42/5 37/43/13 38/44/13
f 27/45/9 26/46/10 34/47/16 35/48/17
f 25/49/11 28/50/12 36/51/18 33/52/15
usemtl Tower
f 9/53/19 13/54/19 14/55/20 10/56/20
f 10/56/20 14/55/20 15/57/21 11/58/21
f 11/58/21 15/57/21 16/59/22 12/60/22
f 13/54/19 9/53/19 12/61/22 16/62/22
usemtl RoofTiles.002
f 19/63/23 18/64/23 22/65/23 23/66/23
f 17/67/24 20/68/24 24/69/24 21/70/24
