# Blender v2.79 (sub 0) OBJ File: 'WindowsDoubleHigh.blend'
# www.blender.org
mtllib WindowsDoubleHigh.mtl
o WindowsDoubleHigh2_Cube.018
v 3.968010 0.724772 0.021514
v -3.968010 0.724772 0.021513
v 3.968009 8.841446 0.021515
v -3.968010 8.841446 0.021514
v -0.515496 0.724772 0.021514
v 0.515496 0.724772 0.021514
v -0.515496 8.841446 0.021514
v 0.515496 8.841446 0.021515
v -4.682796 5.833623 0.180233
v -4.682796 5.833623 -0.403755
v 4.682796 5.833623 -0.403755
v 4.682796 5.833623 0.180233
v -4.682796 6.192356 0.180233
v -4.682796 6.192356 -0.403755
v 4.682796 6.192356 -0.403755
v 4.682796 6.192356 0.180233
v 5.000001 -0.216891 0.295343
v -4.999999 -0.216891 0.295343
v 4.999998 9.783109 0.295346
v -5.000000 9.783109 0.295342
v 5.000000 0.724772 0.295345
v 4.999999 8.841446 0.295346
v -5.000000 0.724772 0.295342
v -5.000000 8.841446 0.295342
v 3.968010 0.724772 0.295344
v -3.968010 0.724772 0.295343
v 3.968009 8.841446 0.295345
v -3.968010 8.841446 0.295343
v -0.515496 0.724772 0.295343
v 0.515496 0.724772 0.295343
v -0.515496 8.841446 0.295344
v 0.515496 8.841446 0.295345
v 3.968010 0.724772 0.021514
v -3.968010 0.724772 0.021513
v 3.968009 8.841446 0.021515
v -3.968010 8.841446 0.021514
v -0.515496 0.724772 0.021514
v 0.515496 0.724772 0.021514
v -0.515496 8.841446 0.021514
v 0.515496 8.841446 0.021515
v 5.000001 -0.216891 -0.612203
v -4.999999 -0.216891 -0.612203
v 4.999998 9.783109 -0.612200
v -5.000000 9.783109 -0.612204
v 5.000000 0.724772 -0.612201
v 4.999999 8.841446 -0.612200
v -5.000000 0.724772 -0.612204
v -5.000000 8.841446 -0.612204
vt 0.422273 0.000130
vt 0.422273 0.999869
vt -0.002976 0.999869
vt -0.002976 0.000130
vt 0.425380 0.000130
vt 0.425380 0.999869
vt 0.000130 0.999870
vt 0.000130 0.000131
vt 0.428638 -0.040520
vt 0.428637 0.984851
vt 0.391287 0.984851
vt 0.391286 -0.040520
vt 0.330485 0.984852
vt 0.330484 -0.040520
vt 0.489440 -0.040520
vt 0.489439 0.984851
vt 0.320434 0.313807
vt 0.320434 0.999745
vt 0.235386 0.999745
vt 0.235386 0.313807
vt 0.781470 0.834534
vt 0.781470 0.921748
vt 0.703866 0.921748
vt 0.703866 0.076649
vt 0.781471 0.076649
vt 0.781471 0.163863
vt 0.781471 0.455634
vt 0.781471 0.542765
vt 0.547380 0.918724
vt 0.547380 0.073627
vt 0.622173 0.073627
vt 0.622173 0.918724
vt 0.085299 0.313807
vt 0.085299 0.999746
vt 0.000251 0.999746
vt 0.000251 0.313807
vt 0.928321 0.999749
vt 0.928321 0.313807
vt 0.950888 0.313807
vt 0.950888 0.999749
vt 0.997024 0.157029
vt 0.997024 0.842971
vt 0.974457 0.842971
vt 0.974458 0.157029
vt 0.404170 0.313807
vt 0.404170 0.999746
vt 0.319204 0.999746
vt 0.319204 0.313807
vt 0.502232 0.292520
vt 0.502232 0.584292
vt 0.479665 0.584292
vt 0.479665 0.292520
vt 0.791334 0.569432
vt 0.791334 0.277661
vt 0.813901 0.277661
vt 0.813901 0.569432
vt 0.406403 0.999748
vt 0.406403 0.313807
vt 0.428970 0.313807
vt 0.428970 0.999749
vt 0.973956 0.313807
vt 0.973956 0.999749
vt 0.951389 0.999749
vt 0.951390 0.313807
vt 0.836957 0.277661
vt 0.836956 0.569432
vt 0.814390 0.569432
vt 0.814390 0.277661
vt 0.502721 0.584292
vt 0.502721 0.292521
vt 0.525288 0.292521
vt 0.525288 0.584292
vt 0.703866 -0.000047
vt 0.781471 -0.000047
vt 0.469775 0.918724
vt 0.547380 0.995421
vt 0.469776 0.995421
vt 0.160593 0.999745
vt 0.160593 0.313807
vt 0.160092 0.313807
vt 0.160091 0.999746
vt 0.469775 0.073627
vt 0.469775 -0.003070
vt 0.547380 -0.003070
vt 0.629073 0.921747
vt 0.629074 0.076649
vt 0.781470 0.998444
vt 0.703866 0.998444
vt 0.469775 0.831511
vt 0.469775 0.539740
vt 0.469775 0.452610
vt 0.469775 0.160840
vn 0.0000 0.0000 1.0000
vn 0.0000 0.7071 0.7071
vn 0.0000 -0.7071 0.7071
vn 0.0000 -1.0000 0.0000
vn 0.0000 1.0000 0.0000
vn 0.3015 0.3015 0.9045
vn 0.3015 -0.3015 0.9045
vn -0.7071 0.0000 0.7071
vn -0.5773 -0.5773 0.5773
vn 0.5773 -0.5773 0.5773
vn 0.7071 0.0000 0.7071
vn -0.3015 0.3015 0.9045
vn -0.5773 0.5773 0.5773
vn 0.5773 0.5773 0.5773
vn 0.7071 0.7071 0.0000
vn -0.7071 0.7071 0.0000
vn -0.3015 -0.3015 0.9045
vn 0.7071 -0.7071 0.0000
vn -0.7071 -0.7071 0.0000
vn 1.0000 0.0000 0.0000
vn -1.0000 0.0000 0.0000
usemtl WindowBlue1
s 1
f 5/1/1 7/2/1 4/3/1 2/4/1
f 1/5/1 3/6/1 8/7/1 6/8/1
usemtl DarkPlaster
f 16/9/2 13/10/2 9/11/3 12/12/3
f 9/11/3 10/13/4 11/14/4 12/12/3
f 16/9/2 15/15/5 14/16/5 13/10/2
f 26/17/6 28/18/7 24/19/8 23/20/8
f 26/21/6 23/22/8 18/23/9 17/24/10 21/25/11 25/26/12 30/27/6 29/28/12
f 20/29/13 19/30/14 43/31/15 44/32/16
f 21/33/11 22/34/11 27/35/17 25/36/12
f 32/37/7 30/38/6 38/39/15 40/40/18
f 29/41/12 31/42/17 39/43/19 37/44/16
f 30/45/6 32/46/7 31/47/17 29/48/12
f 31/49/17 28/50/7 36/51/18 39/52/19
f 26/53/6 29/54/12 37/55/16 34/56/15
f 28/57/7 26/58/6 34/59/15 36/60/18
f 25/61/12 27/62/17 35/63/19 33/64/16
f 27/65/17 32/66/7 40/67/18 35/68/19
f 30/69/6 25/70/12 33/71/16 38/72/15
f 21/25/11 17/24/10 41/73/18 45/74/20
f 24/75/8 20/29/13 44/76/16 48/77/21
f 23/20/8 24/19/8 48/78/21 47/79/21
f 22/34/11 21/33/11 45/80/20 46/81/20
f 19/30/14 22/82/11 46/83/20 43/84/15
f 18/23/9 42/85/19 41/86/18 17/24/10
f 18/23/9 23/22/8 47/87/21 42/88/19
f 20/29/13 24/75/8 28/89/7 31/90/17 32/91/7 27/92/17 22/82/11 19/30/14
