# Blender v2.79 (sub 0) OBJ File: 'WindowsOutwardsFrame.blend'
# www.blender.org
mtllib WindowsOutwardsFrame.mtl
o WindowsOutwards1_Cube.013
v -7.961391 0.814735 -1.015167
v -5.531495 0.814735 1.437475
v -7.961391 8.931409 -1.015167
v -5.531494 8.931409 1.437476
v 7.961391 0.814735 -1.015167
v 5.531495 0.814735 1.437475
v 7.961391 8.931409 -1.015167
v 5.531494 8.931409 1.437476
v 3.968010 0.814735 2.111253
v -3.968010 0.814735 2.111253
v 3.968009 8.931409 2.111254
v -3.968010 8.931409 2.111253
v -0.515496 0.814735 2.111253
v 0.515496 0.814735 2.111253
v -0.515496 8.931409 2.111253
v 0.515496 8.931409 2.111254
v -8.855848 -0.126928 -1.528927
v -4.999850 -0.126928 2.374198
v -8.855848 9.873072 -1.528923
v -4.999850 9.873072 2.374198
v -8.855848 0.814735 -1.528926
v -8.855848 8.931409 -1.528924
v -4.999850 0.814735 2.374198
v -4.999850 8.931409 2.374198
v -8.155917 0.814735 -0.822445
v -5.726021 0.814735 1.630198
v -8.155918 8.931409 -0.822444
v -5.726021 8.931409 1.630198
v -7.961391 0.814735 -1.015167
v -5.531495 0.814735 1.437475
v -7.961391 8.931409 -1.015167
v -5.531494 8.931409 1.437476
v -8.855848 -0.126928 -2.167663
v -4.354987 -0.126928 -2.167659
v -8.855848 9.873072 -2.167659
v -4.354986 9.873072 -2.167659
v -8.855848 0.814735 -2.167661
v -8.855848 8.931409 -2.167659
v 8.855848 -0.126928 -1.528927
v 4.999852 -0.126928 2.374199
v 8.855848 9.873072 -1.528923
v 4.999849 9.873072 2.374201
v 8.855848 0.814735 -1.528926
v 8.855848 8.931409 -1.528924
v 4.999850 0.814735 2.374200
v 4.999850 8.931409 2.374200
v 8.155917 0.814735 -0.822445
v 5.726021 0.814735 1.630198
v 8.155918 8.931409 -0.822444
v 5.726021 8.931409 1.630198
v 7.961391 0.814735 -1.015167
v 5.531495 0.814735 1.437475
v 7.961391 8.931409 -1.015167
v 5.531494 8.931409 1.437476
v 8.855848 -0.126928 -2.167663
v 4.354987 -0.126928 -2.167659
v 8.855848 9.873072 -2.167659
v 4.354986 9.873072 -2.167659
v 8.855848 0.814735 -2.167661
v 8.855848 8.931409 -2.167659
v 3.968010 0.814735 2.385083
v -3.968010 0.814735 2.385082
v 3.968009 8.931409 2.385084
v -3.968010 8.931409 2.385082
v -0.515496 0.814735 2.385082
v 0.515496 0.814735 2.385082
v -0.515496 8.931409 2.385083
v 0.515496 8.931409 2.385084
v 3.968010 0.814735 2.111253
v -3.968010 0.814735 2.111253
v 3.968009 8.931409 2.111254
v -3.968010 8.931409 2.111253
v -0.515496 0.814735 2.111253
v 0.515496 0.814735 2.111253
v -0.515496 8.931409 2.111253
v 0.515496 8.931409 2.111254
vt 0.414824 0.000129
vt 0.000129 0.000129
vt 0.000129 0.999871
vt 0.414824 0.999871
vt 0.414824 0.000129
vt 0.414824 0.999871
vt 0.000129 0.999871
vt 0.000129 0.000129
vt 0.414824 0.000129
vt 0.414824 0.999871
vt 0.000129 0.999871
vt 0.000129 0.000129
vt 0.415882 0.000129
vt 0.415882 0.999871
vt 0.001187 0.999871
vt 0.001187 0.000129
vt 0.320434 0.313807
vt 0.235386 0.313807
vt 0.235386 0.999745
vt 0.320434 0.999745
vt 0.418935 0.778351
vt 0.668952 0.741022
vt 0.668952 1.001556
vt 0.633792 1.001556
vt 0.085299 0.313807
vt 0.000251 0.313807
vt 0.000251 0.999746
vt 0.085299 0.999746
vt 0.791334 0.569432
vt 0.813901 0.569432
vt 0.813901 0.277661
vt 0.791334 0.277661
vt 0.781470 0.834534
vt 0.781471 0.542765
vt 0.781471 0.076649
vt 0.703866 0.076649
vt 0.703866 0.921748
vt 0.781470 0.921748
vt 0.406403 0.999748
vt 0.428970 0.999749
vt 0.428970 0.313807
vt 0.406403 0.313807
vt 0.973956 0.313807
vt 0.951390 0.313807
vt 0.951389 0.999749
vt 0.973956 0.999749
vt 0.781471 -0.000047
vt 0.703866 -0.000047
vt 0.160091 0.999746
vt 0.160092 0.313807
vt 0.547380 0.073627
vt 0.547380 -0.003070
vt 0.469775 -0.003070
vt 0.469775 0.073627
vt 0.418738 0.778351
vt 0.203882 1.001556
vt 0.168721 1.001556
vt 0.168721 0.741023
vt 0.547380 0.918724
vt 0.469775 0.160840
vt 0.469775 0.831511
vt 0.469775 0.918724
vt 0.502232 0.292520
vt 0.479665 0.292520
vt 0.479665 0.584292
vt 0.502232 0.584292
vt 0.320434 0.313807
vt 0.320434 0.999745
vt 0.235386 0.999745
vt 0.235386 0.313807
vt 0.418935 0.199515
vt 0.633791 -0.023691
vt 0.668951 -0.023691
vt 0.668952 0.236843
vt 0.085299 0.313807
vt 0.085299 0.999746
vt 0.000251 0.999746
vt 0.000251 0.313807
vt 0.791334 0.569432
vt 0.791334 0.277661
vt 0.813901 0.277661
vt 0.813901 0.569432
vt 0.776696 0.363537
vt 0.776697 0.286611
vt 0.846373 0.286612
vt 0.846373 0.692581
vt 0.776697 0.692582
vt 0.776697 0.618996
vt 0.406403 0.999748
vt 0.406403 0.313807
vt 0.428970 0.313807
vt 0.428970 0.999749
vt 0.973956 0.313807
vt 0.973956 0.999749
vt 0.951389 0.999749
vt 0.951390 0.313807
vt 0.781471 0.076649
vt 0.703866 0.076649
vt 0.703866 -0.000047
vt 0.781471 -0.000047
vt 0.160092 0.313807
vt 0.160091 0.999746
vt 0.547380 0.073627
vt 0.469775 0.073627
vt 0.469775 -0.003070
vt 0.547380 -0.003070
vt 0.418737 0.199515
vt 0.168721 0.236843
vt 0.168720 -0.023690
vt 0.203881 -0.023690
vt 0.547380 0.918724
vt 0.469775 0.918724
vt 0.469775 0.831511
vt 0.469775 0.160840
vt 0.502232 0.292520
vt 0.502232 0.584292
vt 0.479665 0.584292
vt 0.479665 0.292520
vt 0.320434 0.313807
vt 0.320434 0.999745
vt 0.085299 0.313807
vt 0.085299 0.999746
vt 0.000251 0.999746
vt 0.000251 0.313807
vt 0.928321 0.999749
vt 0.928321 0.313807
vt 0.950888 0.313807
vt 0.950888 0.999749
vt 0.997024 0.157029
vt 0.997024 0.842971
vt 0.974457 0.842971
vt 0.974458 0.157029
vt 0.404170 0.313807
vt 0.404170 0.999746
vt 0.319204 0.999746
vt 0.319204 0.313807
vt 0.502232 0.292520
vt 0.502232 0.584292
vt 0.479665 0.584292
vt 0.479665 0.292520
vt 0.791334 0.569432
vt 0.791334 0.277661
vt 0.813901 0.277661
vt 0.813901 0.569432
vt 0.406403 0.999748
vt 0.406403 0.313807
vt 0.428970 0.313807
vt 0.428970 0.999749
vt 0.973956 0.313807
vt 0.973956 0.999749
vt 0.951389 0.999749
vt 0.951390 0.313807
vt 0.836957 0.277661
vt 0.836956 0.569432
vt 0.814390 0.569432
vt 0.814390 0.277661
vt 0.502721 0.584292
vt 0.502721 0.292521
vt 0.525288 0.292521
vt 0.525288 0.584292
vt 0.781470 0.834534
vt 0.703866 0.076649
vt 0.781471 0.076649
vt 0.781471 0.163863
vt 0.781471 0.455634
vt 0.781471 0.542765
vt 0.469775 0.831511
vt 0.469775 0.539740
vt 0.469775 0.452610
vt 0.469775 0.160840
vt 0.469775 0.073627
vt 0.547380 0.073627
vn -0.7104 0.0000 0.7038
vn 0.7104 0.0000 0.7038
vn 0.0000 0.0000 1.0000
vn -0.8557 0.3034 0.4191
vn -0.3893 -0.0019 0.9211
vn -0.3893 0.0019 0.9211
vn -0.8557 -0.3034 0.4191
vn -0.2989 0.6316 0.7154
vn 0.0000 1.0000 0.0000
vn -0.7071 0.7071 0.0000
vn -0.7184 0.6299 0.2950
vn -0.9249 0.0009 0.3802
vn -0.4308 0.3034 0.8499
vn -0.4308 -0.3034 0.8499
vn -0.9249 -0.0009 0.3802
vn -0.4977 0.7071 -0.5023
vn 0.4977 0.7071 0.5023
vn -0.7184 -0.6299 0.2950
vn -0.2989 -0.6316 0.7154
vn -0.4977 -0.7071 -0.5023
vn 0.4977 -0.7071 0.5023
vn -1.0000 0.0000 0.0000
vn -0.7071 -0.7071 0.0000
vn 0.0000 -1.0000 0.0000
vn 0.8557 0.3034 0.4191
vn 0.8557 -0.3034 0.4191
vn 0.3893 0.0019 0.9211
vn 0.3893 -0.0019 0.9211
vn 0.2989 0.6316 0.7154
vn 0.7184 0.6299 0.2950
vn 0.7071 0.7071 0.0000
vn 0.9249 0.0009 0.3802
vn 0.9249 -0.0009 0.3802
vn 0.4308 -0.3034 0.8499
vn 0.4308 0.3034 0.8499
vn -0.4977 0.7071 0.5023
vn 0.4977 0.7071 -0.5023
vn 0.2989 -0.6316 0.7154
vn 0.7184 -0.6299 0.2950
vn 0.4977 -0.7071 -0.5023
vn -0.4977 -0.7071 0.5023
vn 0.7071 -0.7071 0.0000
vn 1.0000 0.0000 0.0000
vn 0.2997 0.2967 0.9067
vn 0.2997 -0.2967 0.9067
vn -0.2997 -0.2967 0.9067
vn -0.2997 0.2967 0.9067
vn 0.3021 -0.2958 0.9062
vn 0.3021 0.2958 0.9062
vn -0.3021 0.2958 0.9062
vn -0.3021 -0.2958 0.9062
usemtl WindowYellow1
s 1
f 1/1/1 2/2/1 4/3/1 3/4/1
f 5/5/2 7/6/2 8/7/2 6/8/2
f 13/9/3 15/10/3 12/11/3 10/12/3
f 9/13/3 11/14/3 16/15/3 14/16/3
usemtl DarkPlaster
f 26/17/4 23/18/5 24/19/6 28/20/7
f 20/21/8 36/22/9 35/23/10 19/24/11
f 21/25/12 25/26/13 27/27/14 22/28/15
f 26/29/4 30/30/16 29/31/17 25/32/13
f 26/33/4 25/34/13 21/35/12 17/36/18 18/37/19 23/38/5
f 28/39/7 32/40/20 30/41/16 26/42/4
f 25/43/13 29/44/17 31/45/21 27/46/14
f 21/35/12 37/47/22 33/48/23 17/36/18
f 22/28/15 38/49/22 37/50/22 21/25/12
f 19/51/11 35/52/10 38/53/22 22/54/15
f 18/55/19 17/56/18 33/57/23 34/58/24
f 20/59/8 19/51/11 22/54/15 27/60/14 28/61/7 24/62/6
f 27/63/14 31/64/21 32/65/20 28/66/7
f 48/67/25 50/68/26 46/69/27 45/70/28
f 42/71/29 41/72/30 57/73/31 58/74/9
f 43/75/32 44/76/33 49/77/34 47/78/35
f 48/79/25 47/80/35 51/81/36 52/82/37
f 48/83/25 45/84/28 40/85/38 39/86/39 43/87/32 47/88/35
f 50/89/26 48/90/25 52/91/37 54/92/40
f 47/93/35 49/94/34 53/95/41 51/96/36
f 43/97/32 39/98/39 55/99/42 59/100/43
f 44/76/33 43/75/32 59/101/43 60/102/43
f 41/103/30 44/104/33 60/105/43 57/106/31
f 40/107/38 56/108/24 55/109/42 39/110/39
f 42/111/29 46/112/27 50/113/26 49/114/34 44/104/33 41/103/30
f 49/115/34 50/116/26 54/117/40 53/118/41
f 62/119/44 64/120/45 24/19/6 23/18/5
f 45/121/28 46/122/27 63/123/46 61/124/47
f 68/125/48 66/126/49 74/127/31 76/128/42
f 65/129/50 67/130/51 75/131/23 73/132/10
f 66/133/49 68/134/48 67/135/51 65/136/50
f 67/137/51 64/138/45 72/139/42 75/140/23
f 62/141/44 65/142/50 73/143/10 70/144/31
f 64/145/45 62/146/44 70/147/31 72/148/42
f 61/149/47 63/150/46 71/151/23 69/152/10
f 63/153/46 68/154/48 76/155/42 71/156/23
f 66/157/49 61/158/47 69/159/10 74/160/31
f 62/161/44 23/38/5 18/37/19 40/162/38 45/163/28 61/164/47 66/165/49 65/166/50
f 20/21/8 42/71/29 58/74/9 36/22/9
f 18/55/19 34/58/24 56/108/24 40/107/38
f 20/59/8 24/62/6 64/167/45 67/168/51 68/169/48 63/170/46 46/171/27 42/172/29
