# Blender v2.79 (sub 0) OBJ File: 'Wooden7.blend'
# www.blender.org
mtllib Wooden7.mtl
o Wooden_31.002_Cube.063
v -3.861573 0.187451 0.121456
v -3.854399 0.187451 -0.371593
v -3.854400 0.061406 -0.371596
v -3.861573 0.061406 0.121456
v 3.742784 0.187452 0.221814
v 3.753729 0.187452 -0.271181
v 3.753729 0.061407 -0.271181
v 3.742784 0.061407 0.221814
vt 0.723488 -0.293954
vt 0.723488 -0.499588
vt 0.670924 -0.499588
vt 0.670924 -0.293954
vt 1.493773 1.565807
vt 1.486398 -0.780697
vt 1.692024 -0.782419
vt 1.699407 1.565248
vt 0.723488 0.053526
vt 0.723487 2.401193
vt 0.670924 2.401193
vt 0.670924 0.053526
vt 1.054287 1.604679
vt 1.046904 -0.742988
vt 0.841277 -0.741266
vt 0.848653 1.605239
vt 0.670924 0.052967
vt 0.670924 2.399471
vt 0.723487 2.399471
vt 0.723488 0.052967
vt 0.723488 -0.286579
vt 0.670924 -0.286579
vt 0.670924 -0.492206
vt 0.723488 -0.492206
vn -0.9999 0.0000 -0.0145
vn -0.0000 1.0000 0.0000
vn 0.0132 0.0000 -0.9999
vn 0.0000 -1.0000 -0.0000
vn -0.0132 0.0000 0.9999
vn 0.9998 0.0000 0.0222
usemtl wood
s 1
f 1/1/1 2/2/1 3/3/1 4/4/1
f 1/5/2 5/6/2 6/7/2 2/8/2
f 2/9/3 6/10/3 7/11/3 3/12/3
f 3/13/4 7/14/4 8/15/4 4/16/4
f 4/17/5 8/18/5 5/19/5 1/20/5
f 5/21/6 8/22/6 7/23/6 6/24/6
