# Blender v2.79 (sub 0) OBJ File: 'center_kirikabu.blend'
# www.blender.org
mtllib center_kirikabu.mtl
o oya_Plane
v 1.770957 -289.385223 -5.574764
v 3.770957 -289.385223 -5.574764
v 1.770957 -289.385223 -7.574764
v 3.770957 -289.385223 -7.574764
v -6.526886 2.281677 -18.042555
v -9.052703 2.281677 -14.549059
v -8.368448 2.281677 -10.292765
v -2.270587 2.281677 -18.726809
v 1.222908 2.281677 -16.200993
v 1.907163 2.281677 -11.944698
v -0.618657 2.281677 -8.451199
v -4.874952 2.281677 -7.766949
v 1.907163 0.575378 -11.944698
v -0.618657 0.575378 -8.451200
v -4.874952 0.575378 -7.766949
v 1.222909 0.575378 -16.200993
v -2.270587 0.575378 -18.726809
v -6.526886 0.575378 -18.042555
v -9.052703 0.575378 -14.549060
v -8.368448 0.575378 -10.292765
v -0.618657 2.281677 -8.451199
v -4.874952 2.281677 -7.766949
v -4.874952 0.575378 -7.766949
v -0.618657 0.575378 -8.451200
v 1.907163 2.281677 -11.944698
v 1.907163 0.575378 -11.944698
v 1.222908 2.281677 -16.200993
v 1.222909 0.575378 -16.200993
v -2.270587 2.281677 -18.726809
v -2.270587 0.575378 -18.726809
v -6.526886 2.281677 -18.042555
v -6.526886 0.575378 -18.042555
v -9.052703 2.281677 -14.549059
v -9.052703 0.575378 -14.549060
v -8.368448 2.281677 -10.292765
v -8.368448 0.575378 -10.292765
v -6.409005 3.431183 -0.632692
v -6.409005 3.431183 2.319077
v -4.321790 3.431183 4.406290
v -4.321790 3.431183 -2.719909
v -1.370021 3.431183 -2.719909
v 0.717195 3.431183 -0.632695
v 0.717195 3.431183 2.319077
v -1.370021 3.431183 4.406290
v 0.717195 1.885803 -0.632696
v 0.717195 1.885803 2.319076
v -1.370021 1.885803 4.406290
v -1.370021 1.885803 -2.719910
v -4.321790 1.885803 -2.719910
v -6.409005 1.885803 -0.632692
v -6.409005 1.885803 2.319076
v -4.321790 1.885803 4.406290
v 0.717195 3.431183 2.319077
v -1.370021 3.431183 4.406290
v -1.370021 1.885803 4.406290
v 0.717195 1.885803 2.319076
v 0.717195 3.431183 -0.632695
v 0.717195 1.885803 -0.632696
v -1.370021 3.431183 -2.719909
v -1.370021 1.885803 -2.719910
v -4.321790 3.431183 -2.719909
v -4.321790 1.885803 -2.719910
v -6.409005 3.431183 -0.632692
v -6.409005 1.885803 -0.632692
v -6.409005 3.431183 2.319077
v -6.409005 1.885803 2.319076
v -4.321790 3.431183 4.406290
v -4.321790 1.885803 4.406290
vt 0.000000 1.000000
vt 0.000000 0.000000
vt 1.000000 0.000000
vt 1.000000 1.000000
vt 0.544523 0.099326
vt 0.711884 0.143723
vt 0.765685 0.411800
vt 0.361639 0.304619
vt 0.270363 0.639341
vt 0.324164 0.907419
vt 0.491526 0.951815
vt 0.674410 0.746523
vt 0.578926 0.092093
vt 0.744311 0.144035
vt 0.785745 0.414653
vt 0.386470 0.289255
vt 0.279682 0.620025
vt 0.321116 0.890643
vt 0.486501 0.942584
vt 0.678957 0.745423
vt -2.527393 1.753987
vt -2.527393 0.500000
vt -0.386704 0.499999
vt -0.386704 1.753987
vt 1.753987 -2.527394
vt 3.527394 -2.527394
vt 3.527394 -0.386704
vt 1.753987 -0.386704
vt 1.753986 2.273407
vt 1.753986 3.527394
vt -0.386704 3.527394
vt -0.386704 2.273407
vt 1.753986 0.500001
vt -0.386704 0.500001
vt -0.386703 -1.273405
vt -0.386704 -2.527393
vt 1.753986 -2.527394
vt 1.753986 -1.273406
vt -0.386703 0.500001
vt 1.753987 0.500000
vt -2.527393 -1.273407
vt -2.527394 -2.527394
vt -0.386704 -2.527394
vt -0.386704 -1.273407
vt -1.513068 -2.346908
vt -0.333840 -2.346908
vt 0.500000 -0.679228
vt -2.346908 -0.679227
vt -2.346908 1.679228
vt -1.513068 3.346908
vt -0.333839 3.346908
vt 0.500000 1.679228
vt 2.513069 3.346908
vt 1.333840 3.346908
vt 0.500000 1.679229
vt 3.346908 1.679227
vt 3.346908 -0.679228
vt 2.513068 -2.346908
vt 1.333839 -2.346908
vt 0.500000 -0.679227
vt -2.527393 1.753987
vt -2.527393 0.500000
vt -0.386704 0.499999
vt -0.386704 1.753987
vt 1.753987 -2.527394
vt 3.527394 -2.527394
vt 3.527394 -0.386704
vt 1.753987 -0.386704
vt 1.753986 2.273407
vt 1.753986 3.527394
vt -0.386704 3.527394
vt -0.386704 2.273407
vt 1.753986 0.500001
vt -0.386704 0.500001
vt -0.386703 -1.273405
vt -0.386704 -2.527393
vt 1.753986 -2.527394
vt 1.753986 -1.273406
vt -0.386703 0.500001
vt 1.753987 0.500000
vt -2.527393 -1.273407
vt -2.527394 -2.527394
vt -0.386704 -2.527394
vt -0.386704 -1.273407
vn 0.0000 1.0000 0.0000
vn 0.0000 -1.0000 0.0000
vn 0.5245 0.0000 0.8514
vn -0.2312 0.0000 0.9729
vn 0.9729 0.0000 0.2312
vn 0.8514 0.0000 -0.5245
vn 0.2312 0.0000 -0.9729
vn -0.5245 0.0000 -0.8514
vn -0.9729 0.0000 -0.2312
vn -0.8514 0.0000 0.5245
vn 0.9239 0.0000 0.3827
vn 0.3827 0.0000 0.9239
vn 0.9239 0.0000 -0.3827
vn 0.3827 0.0000 -0.9239
vn -0.3827 0.0000 -0.9239
vn -0.9239 0.0000 -0.3827
vn -0.9239 0.0000 0.3827
vn -0.3827 0.0000 0.9239
usemtl Material.012
s 1
f 1/1/1 2/2/1 4/3/1 3/4/1
usemtl Fbx_Default_Material.019
f 5/5/1 6/6/1 7/7/1
f 8/8/1 5/5/1 7/7/1
f 9/9/1 8/8/1 7/7/1
f 10/10/1 9/9/1 7/7/1
f 11/11/1 10/10/1 7/7/1
f 12/12/1 11/11/1 7/7/1
f 13/13/2 14/14/2 15/15/2
f 16/16/2 13/13/2 15/15/2
f 17/17/2 16/16/2 15/15/2
f 18/18/2 17/17/2 15/15/2
f 19/19/2 18/18/2 15/15/2
f 20/20/2 19/19/2 15/15/2
usemtl Material.057
f 21/21/3 22/22/4 23/23/4
f 24/24/3 21/21/3 23/23/4
f 25/25/5 21/26/3 24/27/3
f 26/28/5 25/25/5 24/27/3
f 27/29/6 25/30/5 26/31/5
f 28/32/6 27/29/6 26/31/5
f 29/33/7 27/29/6 28/32/6
f 30/34/7 29/33/7 28/32/6
f 31/35/8 29/36/7 30/37/7
f 32/38/8 31/35/8 30/37/7
f 33/39/9 31/35/8 32/38/8
f 34/40/9 33/39/9 32/38/8
f 35/41/10 33/42/9 34/43/9
f 36/44/10 35/41/10 34/43/9
f 22/22/4 35/41/10 36/44/10
f 23/23/4 22/22/4 36/44/10
usemtl Fbx_Default_Material.020
f 37/45/1 38/46/1 39/47/1
f 40/48/1 37/45/1 39/47/1
f 41/49/1 40/48/1 39/47/1
f 42/50/1 41/49/1 39/47/1
f 43/51/1 42/50/1 39/47/1
f 44/52/1 43/51/1 39/47/1
f 45/53/2 46/54/2 47/55/2
f 48/56/2 45/53/2 47/55/2
f 49/57/2 48/56/2 47/55/2
f 50/58/2 49/57/2 47/55/2
f 51/59/2 50/58/2 47/55/2
f 52/60/2 51/59/2 47/55/2
usemtl Material.059
f 53/61/11 54/62/12 55/63/12
f 56/64/11 53/61/11 55/63/12
f 57/65/13 53/66/11 56/67/11
f 58/68/13 57/65/13 56/67/11
f 59/69/14 57/70/13 58/71/13
f 60/72/14 59/69/14 58/71/13
f 61/73/15 59/69/14 60/72/14
f 62/74/15 61/73/15 60/72/14
f 63/75/16 61/76/15 62/77/15
f 64/78/16 63/75/16 62/77/15
f 65/79/17 63/75/16 64/78/16
f 66/80/17 65/79/17 64/78/16
f 67/81/18 65/82/17 66/83/17
f 68/84/18 67/81/18 66/83/17
f 54/62/12 67/81/18 68/84/18
f 55/63/12 54/62/12 68/84/18
