# Blender v2.79 (sub 0) OBJ File: 'first_boss_field.blend'
# www.blender.org
mtllib first_boss_field.mtl
o SM_MERGED_Plane6_3.001_SM_MERGED_Plane6.001
v 14.188394 1.013457 6.260434
v 5.877021 1.013457 15.114013
v 14.188394 1.013457 -6.260434
v 5.877021 1.013457 -15.114023
v -5.877031 1.013457 -15.114023
v -14.188403 1.013457 -6.260434
v -14.188403 1.013457 6.260434
v -5.877031 1.013457 15.114013
vt -0.847183 1.116694
vt -0.847183 -0.091486
vt -0.055689 -0.945797
vt -0.055688 1.971006
vt 1.063655 1.971006
vt 1.855149 1.116693
vt 1.855149 -0.091487
vt 1.063654 -0.945797
vn 0.0000 1.0000 0.0000
usemtl Material.002
s 1
f 6/1/1 7/2/1 8/3/1
f 5/4/1 6/1/1 8/3/1
f 4/5/1 5/4/1 8/3/1
f 3/6/1 4/5/1 8/3/1
f 1/7/1 3/6/1 8/3/1
f 2/8/1 1/7/1 8/3/1
