# Blender v2.79 (sub 0) OBJ File: 'grass_stone.blend'
# www.blender.org
mtllib grass_stone.mtl
o Cube.029_Cube.011
v 2.853278 -0.045050 -2.577668
v 2.853278 5.110287 -2.577665
v 2.853275 5.110286 2.577671
v 2.853278 -0.045051 2.577668
v -2.853278 5.110286 2.577668
v -2.853278 -0.045051 2.577668
v -2.853278 5.110287 -2.577668
v -2.853278 -0.045050 -2.577668
vt 0.500000 -0.881678
vt 1.881678 -0.881678
vt 1.881678 1.881678
vt 0.500000 1.881677
vt 0.500000 -0.881678
vt 0.500000 1.881678
vt -0.881678 1.881678
vt -0.881678 -0.881677
vt 1.000915 -0.000915
vt -0.000915 -0.000915
vt -0.000915 -1.002745
vt 1.000915 -1.002745
vt -1.002745 -0.000915
vt -1.002745 -1.002744
vt -0.000915 -1.002745
vt -0.000915 -0.000915
vt 2.002745 -0.000915
vt 1.000915 -0.000915
vt 1.000915 -1.002744
vt 2.002745 -1.002745
vt 1.000915 1.000915
vt -0.000915 1.000915
vn 0.0000 -1.0000 -0.0000
vn -0.0000 1.0000 0.0000
vn 1.0000 0.0000 0.0000
vn -0.0000 -0.0000 1.0000
vn -1.0000 -0.0000 0.0000
vn 0.0000 0.0000 -1.0000
usemtl Material_tilable-img_0044-lush2.png.001
s 1
f 1/1/1 4/2/1 6/3/1 8/4/1
f 2/5/2 7/6/2 5/7/2 3/8/2
usemtl Material.044
f 1/9/3 2/10/3 3/11/3 4/12/3
f 4/13/4 3/14/4 5/15/4 6/16/4
f 6/17/5 5/18/5 7/19/5 8/20/5
f 2/10/6 1/9/6 8/21/6 7/22/6
