# Blender v2.79 (sub 0) OBJ File: 'left_kirikabu.blend'
# www.blender.org
mtllib left_kirikabu.mtl
o SM_MERGED_Plane6_3.001_SM_MERGED_Plane6.001
v -21.853256 -15.608220 -57.371998
v -30.164627 -15.608220 -48.518417
v -30.164627 -17.635134 -48.518417
v -21.853256 -17.635134 -57.371998
v -21.853256 -15.608220 -69.892868
v -21.853256 -17.635134 -69.892868
v -30.164627 -15.608220 -78.746452
v -30.164627 -17.635134 -78.746452
v -41.918678 -15.608220 -78.746452
v -41.918678 -17.635134 -78.746452
v -50.230053 -15.608220 -69.892868
v -50.230053 -17.635134 -69.892868
v -50.230053 -15.608220 -57.371998
v -50.230053 -17.635134 -57.371998
v -41.918678 -15.608220 -48.518417
v -41.918678 -17.635134 -48.518417
v 1.770954 -289.385193 -5.574772
v 3.770954 -289.385193 -5.574772
v 1.770954 -289.385193 -7.574772
v 3.770954 -289.385193 -7.574772
vt 0.959559 0.353554
vt 0.959559 0.500000
vt 0.926471 0.500000
vt 0.926471 0.353554
vt 0.959559 0.146447
vt 0.926471 0.146447
vt 0.959559 0.000000
vt 0.926471 0.000000
vt 0.099265 0.500000
vt 0.099265 0.699965
vt 0.066177 0.699965
vt 0.066177 0.500000
vt 0.000000 0.646447
vt 0.000000 0.500000
vt 0.033088 0.500000
vt 0.033088 0.646447
vt 0.000000 0.853553
vt 0.033088 0.853553
vt 0.000000 1.000000
vt 0.033088 1.000000
vt 0.033088 0.699965
vt 0.033088 0.500000
vt 0.066177 0.500000
vt 0.066177 0.699965
vt 0.102322 0.692182
vt 0.102322 0.333026
vt 0.337609 0.079065
vt 0.337610 0.946143
vt 0.670357 0.946143
vt 0.905644 0.692182
vt 0.905644 0.333026
vt 0.670356 0.079065
vt 0.790792 0.500000
vt 0.790792 0.000000
vt 0.598914 0.000000
vt 0.463235 0.146447
vt 0.463235 0.353554
vt 0.598914 0.500000
vt 0.000000 1.000000
vt 0.000000 0.000000
vt 1.000000 0.000000
vt 1.000000 1.000000
vn 0.7286 0.0000 0.6849
vn 1.0000 0.0000 0.0000
vn 0.7286 -0.0000 -0.6849
vn 0.0000 0.0000 -1.0000
vn -0.7286 0.0000 -0.6849
vn -0.7286 -0.0000 -0.6850
vn -1.0000 0.0000 0.0000
vn -0.7285 -0.0000 0.6851
vn -0.7286 0.0000 0.6850
vn -0.7286 0.0000 0.6849
vn 0.0000 0.0000 1.0000
vn 0.0000 1.0000 0.0000
vn 0.0000 -1.0000 0.0000
usemtl Material.002
s 1
f 1/1/1 2/2/1 3/3/1
f 4/4/1 1/1/1 3/3/1
f 5/5/2 1/1/2 4/4/2
f 6/6/2 5/5/2 4/4/2
f 7/7/3 5/5/3 6/6/3
f 8/8/3 7/7/3 6/6/3
f 9/9/4 7/10/4 8/11/4
f 10/12/4 9/9/4 8/11/4
f 11/13/5 9/14/6 10/15/5
f 12/16/5 11/13/5 10/15/5
f 13/17/7 11/13/7 12/16/7
f 14/18/7 13/17/7 12/16/7
f 15/19/8 13/17/9 14/18/8
f 16/20/10 15/19/8 14/18/8
f 2/21/11 15/22/11 16/23/11
f 3/24/11 2/21/11 16/23/11
f 11/25/12 13/26/12 15/27/12
f 9/28/12 11/25/12 15/27/12
f 7/29/12 9/28/12 15/27/12
f 5/30/12 7/29/12 15/27/12
f 1/31/12 5/30/12 15/27/12
f 2/32/12 1/31/12 15/27/12
f 6/6/13 4/4/13 3/33/13
f 8/34/13 6/6/13 3/33/13
f 10/35/13 8/34/13 3/33/13
f 12/36/13 10/35/13 3/33/13
f 14/37/13 12/36/13 3/33/13
f 16/38/13 14/37/13 3/33/13
usemtl Material.012
f 17/39/12 18/40/12 20/41/12 19/42/12
