# Blender v2.79 (sub 0) OBJ File: 'prp_iseki.blend'
# www.blender.org
mtllib pro_iseki.mtl
o Cube_Cube.042
v -6.923903 -0.364720 10.187162
v -6.923903 2.311192 10.187162
v -6.923903 -0.364720 -12.558083
v -6.923903 2.311192 -12.558083
v 15.854551 -0.364720 10.187162
v 15.854551 2.311192 10.187162
v 15.854551 -0.364720 -12.558083
v 15.854551 2.311192 -12.558083
vt 1.198294 -0.198294
vt -0.198293 -0.198294
vt -0.198293 -1.594880
vt 1.198294 -1.594880
vt -0.198293 1.198293
vt -1.594880 1.198294
vt -1.594881 -0.198293
vt -0.198294 -0.198293
vt -1.594881 -1.594880
vt -0.198294 -1.594880
vt -0.198293 1.198293
vt -0.198293 -0.198293
vt 1.198294 -0.198293
vt 1.198294 1.198293
vt 2.594881 -0.198294
vt 1.198294 -0.198294
vt 1.198294 -1.594880
vt 2.594881 -1.594880
vt -0.198294 1.198294
vt -0.198294 2.594880
vt -1.594880 2.594880
vt -1.594881 1.198294
vn -0.5773 -0.5773 0.5773
vn -0.5773 0.5773 0.5773
vn -0.5773 0.5773 -0.5773
vn -0.5773 -0.5773 -0.5773
vn 0.5773 0.5773 -0.5773
vn 0.5773 -0.5773 -0.5773
vn 0.5773 0.5773 0.5773
vn 0.5773 -0.5773 0.5773
usemtl Material.086
s 1
f 1/1/1 2/2/2 4/3/3 3/4/4
f 3/5/4 4/6/3 8/7/5 7/8/6
f 7/8/6 8/7/5 6/9/7 5/10/8
f 5/11/8 6/12/7 2/13/2 1/14/1
f 3/15/4 7/16/6 5/17/8 1/18/1
f 8/19/5 4/20/3 2/21/2 6/22/7
o Room.036_Room.039
v -6.936086 2.151443 -2.361028
v -10.116363 0.280758 -2.361028
v -6.936086 2.151443 7.887712
v -10.116363 0.280758 7.887712
vt 0.000000 0.000000
vt 1.000000 0.000000
vt 1.000000 1.000000
vt 0.000000 1.000000
vn -0.5070 0.8619 0.0000
usemtl Material.103
s 1
f 9/23/9 10/24/9 12/25/9 11/26/9
o Room.037_Room.040
v -4.706614 2.231404 9.826247
v -4.706614 0.408117 12.921573
v 5.542126 2.231404 9.826246
v 5.542126 0.408117 12.921573
vt 0.000000 0.000000
vt 1.000000 0.000000
vt 1.000000 1.000000
vt 0.000000 1.000000
vn 0.0000 0.8616 0.5075
usemtl Material.103
s 1
f 13/27/10 14/28/10 16/29/10 15/30/10
o Cube.012_Cube.043
v -4.900365 1.986327 8.180237
v -4.900365 10.817575 8.180237
v -4.900365 1.986327 -10.551142
v -4.900365 10.817575 -10.551142
v 13.831014 1.986327 8.180237
v 13.831014 10.817575 8.180237
v 13.831014 1.986327 -10.551142
v 13.831014 10.817575 -10.551142
vt 1.198294 -0.198294
vt -0.198293 -0.198294
vt -0.198293 -1.594880
vt 1.198294 -1.594880
vt -0.198293 1.198293
vt -1.594880 1.198294
vt -1.594881 -0.198293
vt -0.198294 -0.198293
vt -1.594881 -1.594880
vt -0.198294 -1.594880
vt -0.198293 1.198293
vt -0.198293 -0.198293
vt 1.198294 -0.198293
vt 1.198294 1.198293
vt 2.594881 -0.198294
vt 1.198294 -0.198294
vt 1.198294 -1.594880
vt 2.594881 -1.594880
vt -0.198294 1.198294
vt -0.198294 2.594880
vt -1.594880 2.594880
vt -1.594881 1.198294
vn -0.5773 -0.5773 0.5773
vn -0.5773 0.5773 0.5773
vn -0.5773 0.5773 -0.5773
vn -0.5773 -0.5773 -0.5773
vn 0.5773 0.5773 -0.5773
vn 0.5773 -0.5773 -0.5773
vn 0.5773 0.5773 0.5773
vn 0.5773 -0.5773 0.5773
usemtl Material.104
s 1
f 17/31/11 18/32/12 20/33/13 19/34/14
f 19/35/14 20/36/13 24/37/15 23/38/16
f 23/38/16 24/37/15 22/39/17 21/40/18
f 21/41/18 22/42/17 18/43/12 17/44/11
f 19/45/14 23/46/16 21/47/18 17/48/11
f 24/49/15 20/50/13 18/51/12 22/52/17
o Cube.015_Cube.044
v -2.224453 9.845963 5.504318
v -2.224453 16.684338 5.504318
v -2.224453 9.845963 -7.875238
v -2.224453 16.684338 -7.875238
v 11.155102 9.845963 5.504318
v 11.155102 16.684338 5.504318
v 11.155102 9.845963 -7.875238
v 11.155102 16.684338 -7.875238
vt 1.198294 -0.198294
vt -0.198293 -0.198294
vt -0.198293 -1.594880
vt 1.198294 -1.594880
vt -0.198293 1.198293
vt -1.594880 1.198294
vt -1.594881 -0.198293
vt -0.198294 -0.198293
vt -1.594881 -1.594880
vt -0.198294 -1.594880
vt -0.198293 1.198293
vt -0.198293 -0.198293
vt 1.198294 -0.198293
vt 1.198294 1.198293
vt 2.594881 -0.198294
vt 1.198294 -0.198294
vt 1.198294 -1.594880
vt 2.594881 -1.594880
vt -0.198294 1.198294
vt -0.198294 2.594880
vt -1.594880 2.594880
vt -1.594881 1.198294
vn -0.5773 -0.5773 0.5773
vn -0.5773 0.5773 0.5773
vn -0.5773 0.5773 -0.5773
vn -0.5773 -0.5773 -0.5773
vn 0.5773 0.5773 -0.5773
vn 0.5773 -0.5773 -0.5773
vn 0.5773 0.5773 0.5773
vn 0.5773 -0.5773 0.5773
usemtl Material.105
s 1
f 25/53/19 26/54/20 28/55/21 27/56/22
f 27/57/22 28/58/21 32/59/23 31/60/24
f 31/60/24 32/59/23 30/61/25 29/62/26
f 29/63/26 30/64/25 26/65/20 25/66/19
f 27/67/22 31/68/24 29/69/26 25/70/19
f 32/71/23 28/72/21 26/73/20 30/74/25
o Cube.016_Cube.045
v 8.479191 20.304150 -5.199327
v 0.451458 20.304150 -5.199327
v 0.451458 20.304150 2.828407
v 8.479191 20.304150 2.828407
v 8.479191 16.684338 2.828407
v 8.479191 16.684338 -5.199327
v 0.451458 16.684338 -5.199327
v 0.451458 16.684338 2.828407
vt -0.198294 1.198294
vt -0.198294 2.594880
vt -1.594880 2.594880
vt -1.594881 1.198294
vt -0.527970 -1.594880
vt -0.527969 -0.198294
vt -1.594880 -0.198293
vt -1.594881 -1.594880
vt -0.527970 1.198293
vt -1.594880 1.198294
vt 0.868618 -1.594880
vt 0.868618 -0.198294
vt -0.198293 -0.198294
vt -0.198293 -1.594880
vt 1.198294 0.868617
vt -0.198293 0.868617
vt -0.198293 -0.198293
vt 1.198294 -0.198293
vt -0.477611 1.477611
vt -1.315563 1.477611
vt -1.315563 2.315563
vt -0.477611 2.315563
vn 0.5773 0.5773 -0.5773
vn -0.5773 0.5773 -0.5773
vn -0.5773 0.5773 0.5773
vn 0.5773 0.5773 0.5773
vn 0.5773 -0.5773 0.5773
vn 0.5773 -0.5773 -0.5773
vn -0.5773 -0.5773 -0.5773
vn -0.5773 -0.5773 0.5773
usemtl Material.106
s 1
f 33/75/27 34/76/28 35/77/29 36/78/30
f 37/79/31 38/80/32 33/81/27 36/82/30
f 38/80/32 39/83/33 34/84/28 33/81/27
f 39/85/33 40/86/34 35/87/29 34/88/28
f 40/89/34 37/90/31 36/91/30 35/92/29
usemtl Material.106_tileable10.png.045
f 38/93/32 37/94/31 40/95/34 39/96/33
o Cube.017_Cube.046
v 3.127369 22.486185 0.152496
v 3.127369 22.486185 -2.523416
v 5.803280 22.486185 0.152496
v 5.803280 22.486185 -2.523416
v 3.127369 20.304150 -2.523416
v 5.803280 20.304150 -2.523416
v 5.803279 20.304150 0.152495
v 3.127369 20.304150 0.152496
vt -0.663823 1.663823
vt -1.129352 1.663823
vt -1.129351 2.129352
vt -0.663823 2.129352
vt -0.198294 1.198294
vt -0.198294 2.594880
vt -1.594880 2.594880
vt -1.594881 1.198294
vt 1.198294 0.574157
vt -0.198293 0.574158
vt -0.198293 -0.198293
vt 1.198294 -0.198293
vt -0.822430 -0.198293
vt -0.822429 1.198294
vt -1.594880 1.198294
vt -1.594881 -0.198293
vt -0.822430 -1.594880
vt -1.594881 -1.594880
vt 0.574158 -1.594880
vt 0.574158 -0.198294
vt -0.198293 -0.198294
vt -0.198293 -1.594880
vn 0.5773 -0.5773 -0.5773
vn 0.5773 -0.5773 0.5773
vn -0.5773 -0.5773 0.5773
vn -0.5773 -0.5773 -0.5773
vn 0.5773 0.5773 -0.5773
vn -0.5773 0.5773 -0.5773
vn -0.5773 0.5773 0.5773
vn 0.5773 0.5773 0.5773
usemtl Material.107
s 1
f 46/97/35 47/98/36 48/99/37 45/100/38
usemtl Material.107_tileable10.png.049
f 44/101/39 42/102/40 41/103/41 43/104/42
f 48/105/37 47/106/36 43/107/42 41/108/41
f 46/109/35 45/110/38 42/111/40 44/112/39
f 47/113/36 46/109/35 44/112/39 43/114/42
f 45/115/38 48/116/37 41/117/41 42/118/40
o Cube.009_Cube.000
v -6.815619 2.288887 -10.382879
v -6.815619 4.288887 -10.382879
v -6.815619 2.288887 -12.611652
v -6.815619 4.288887 -12.611652
v -4.815619 2.288887 -10.382879
v -4.815619 4.288887 -10.382879
v -4.815619 2.288887 -12.611652
v -4.815619 4.288887 -12.611652
vt 1.198294 -0.198294
vt -0.198293 -0.198294
vt -0.198293 -1.594880
vt 1.198294 -1.594880
vt -0.198293 1.198293
vt -1.594880 1.198294
vt -1.594881 -0.198293
vt -0.198294 -0.198293
vt -1.594881 -1.594880
vt -0.198294 -1.594880
vt -0.198293 1.198293
vt -0.198293 -0.198293
vt 1.198294 -0.198293
vt 1.198294 1.198293
vt 2.594881 -0.198294
vt 1.198294 -0.198294
vt 1.198294 -1.594880
vt 2.594881 -1.594880
vt -0.198294 1.198294
vt -0.198294 2.594880
vt -1.594880 2.594880
vt -1.594881 1.198294
vn -0.5773 -0.5773 0.5773
vn -0.5773 0.5773 0.5773
vn -0.5773 0.5773 -0.5773
vn -0.5773 -0.5773 -0.5773
vn 0.5773 0.5773 -0.5773
vn 0.5773 -0.5773 -0.5773
vn 0.5773 0.5773 0.5773
vn 0.5773 -0.5773 0.5773
usemtl Material.011
s 1
f 49/119/43 50/120/44 52/121/45 51/122/46
f 51/123/46 52/124/45 56/125/47 55/126/48
f 55/126/48 56/125/47 54/127/49 53/128/50
f 53/129/50 54/130/49 50/131/44 49/132/43
f 51/133/46 55/134/48 53/135/50 49/136/43
f 56/137/47 52/138/45 50/139/44 54/140/49
o Cube.018_Cube.001
v -4.837616 2.314156 -10.382879
v -4.837616 7.314156 -10.382879
v -4.837616 2.314156 -12.611652
v -4.837616 7.314156 -12.611652
v -2.837616 2.314156 -10.382879
v -2.837616 7.314156 -10.382879
v -2.837616 2.314156 -12.611652
v -2.837616 7.314156 -12.611652
vt 1.198294 -0.198294
vt -0.198293 -0.198294
vt -0.198293 -1.594880
vt 1.198294 -1.594880
vt -0.198293 1.198293
vt -1.594880 1.198294
vt -1.594881 -0.198293
vt -0.198294 -0.198293
vt -1.594881 -1.594880
vt -0.198294 -1.594880
vt -0.198293 1.198293
vt -0.198293 -0.198293
vt 1.198294 -0.198293
vt 1.198294 1.198293
vt 2.594881 -0.198294
vt 1.198294 -0.198294
vt 1.198294 -1.594880
vt 2.594881 -1.594880
vt -0.198294 1.198294
vt -0.198294 2.594880
vt -1.594880 2.594880
vt -1.594881 1.198294
vn -0.5773 -0.5773 0.5773
vn -0.5773 0.5773 0.5773
vn -0.5773 0.5773 -0.5773
vn -0.5773 -0.5773 -0.5773
vn 0.5773 0.5773 -0.5773
vn 0.5773 -0.5773 -0.5773
vn 0.5773 0.5773 0.5773
vn 0.5773 -0.5773 0.5773
usemtl Material.014
s 1
f 57/141/51 58/142/52 60/143/53 59/144/54
f 59/145/54 60/146/53 64/147/55 63/148/56
f 63/148/56 64/147/55 62/149/57 61/150/58
f 61/151/58 62/152/57 58/153/52 57/154/51
f 59/155/54 63/156/56 61/157/58 57/158/51
f 64/159/55 60/160/53 58/161/52 62/162/57
o Cube.019_Cube.002
v -2.881203 2.316406 -10.396902
v -2.881203 9.316406 -10.396902
v -2.881203 2.316406 -12.625675
v -2.881203 9.316406 -12.625675
v -0.881203 2.316406 -10.396902
v -0.881203 9.316406 -10.396902
v -0.881203 2.316406 -12.625675
v -0.881203 9.316406 -12.625675
vt 1.198294 -0.198294
vt -0.198293 -0.198294
vt -0.198293 -1.594880
vt 1.198294 -1.594880
vt -0.198293 1.198293
vt -1.594880 1.198294
vt -1.594881 -0.198293
vt -0.198294 -0.198293
vt -1.594881 -1.594880
vt -0.198294 -1.594880
vt -0.198293 1.198293
vt -0.198293 -0.198293
vt 1.198294 -0.198293
vt 1.198294 1.198293
vt 2.594881 -0.198294
vt 1.198294 -0.198294
vt 1.198294 -1.594880
vt 2.594881 -1.594880
vt -0.198294 1.198294
vt -0.198294 2.594880
vt -1.594880 2.594880
vt -1.594881 1.198294
vn -0.5773 -0.5773 0.5773
vn -0.5773 0.5773 0.5773
vn -0.5773 0.5773 -0.5773
vn -0.5773 -0.5773 -0.5773
vn 0.5773 0.5773 -0.5773
vn 0.5773 -0.5773 -0.5773
vn 0.5773 0.5773 0.5773
vn 0.5773 -0.5773 0.5773
usemtl Material.016
s 1
f 65/163/59 66/164/60 68/165/61 67/166/62
f 67/167/62 68/168/61 72/169/63 71/170/64
f 71/170/64 72/169/63 70/171/65 69/172/66
f 69/173/66 70/174/65 66/175/60 65/176/59
f 67/177/62 71/178/64 69/179/66 65/180/59
f 72/181/63 68/182/61 66/183/60 70/184/65
o Cube.020_Cube.003
v -4.935058 10.783962 1.060103
v -4.935058 12.783962 1.060103
v -4.935058 10.783962 -0.939897
v -4.935058 12.783962 -0.939897
v -2.000477 10.783962 1.060103
v -2.000477 12.783962 1.060103
v -2.000477 10.783962 -0.939897
v -2.000477 12.783962 -0.939897
vt 1.198294 -0.198294
vt -0.198293 -0.198294
vt -0.198293 -1.594880
vt 1.198294 -1.594880
vt -0.198293 1.198293
vt -1.594880 1.198294
vt -1.594881 -0.198293
vt -0.198294 -0.198293
vt -1.594881 -1.594880
vt -0.198294 -1.594880
vt -0.198293 1.198293
vt -0.198293 -0.198293
vt 1.198294 -0.198293
vt 1.198294 1.198293
vt 2.594881 -0.198294
vt 1.198294 -0.198294
vt 1.198294 -1.594880
vt 2.594881 -1.594880
vt -0.198294 1.198294
vt -0.198294 2.594880
vt -1.594880 2.594880
vt -1.594881 1.198294
vn -0.5773 -0.5773 0.5773
vn -0.5773 0.5773 0.5773
vn -0.5773 0.5773 -0.5773
vn -0.5773 -0.5773 -0.5773
vn 0.5773 0.5773 -0.5773
vn 0.5773 -0.5773 -0.5773
vn 0.5773 0.5773 0.5773
vn 0.5773 -0.5773 0.5773
usemtl Material.017
s 1
f 73/185/67 74/186/68 76/187/69 75/188/70
f 75/189/70 76/190/69 80/191/71 79/192/72
f 79/192/72 80/191/71 78/193/73 77/194/74
f 77/195/74 78/196/73 74/197/68 73/198/67
f 75/199/70 79/200/72 77/201/74 73/202/67
f 80/203/71 76/204/69 74/205/68 78/206/73
o Cube.021_Cube.004
v 5.401354 16.688313 5.544952
v 5.401354 18.688313 5.544952
v 3.401354 16.688313 5.544952
v 3.401354 18.688313 5.544952
v 5.401354 16.688313 2.689253
v 5.401354 18.688313 2.689253
v 3.401354 16.688313 2.689253
v 3.401354 18.688313 2.689253
vt 1.198294 -0.198294
vt -0.198293 -0.198294
vt -0.198293 -1.594880
vt 1.198294 -1.594880
vt -0.198293 1.198293
vt -1.594880 1.198294
vt -1.594881 -0.198293
vt -0.198294 -0.198293
vt -1.594881 -1.594880
vt -0.198294 -1.594880
vt -0.198293 1.198293
vt -0.198293 -0.198293
vt 1.198294 -0.198293
vt 1.198294 1.198293
vt 2.594881 -0.198294
vt 1.198294 -0.198294
vt 1.198294 -1.594880
vt 2.594881 -1.594880
vt -0.198294 1.198294
vt -0.198294 2.594880
vt -1.594880 2.594880
vt -1.594881 1.198294
vn 0.5773 -0.5773 0.5773
vn 0.5773 0.5773 0.5773
vn -0.5773 0.5773 0.5773
vn -0.5773 -0.5773 0.5773
vn -0.5773 0.5773 -0.5773
vn -0.5773 -0.5773 -0.5773
vn 0.5773 0.5773 -0.5773
vn 0.5773 -0.5773 -0.5773
usemtl Material.022
s 1
f 81/207/75 82/208/76 84/209/77 83/210/78
f 83/211/78 84/212/77 88/213/79 87/214/80
f 87/214/80 88/213/79 86/215/81 85/216/82
f 85/217/82 86/218/81 82/219/76 81/220/75
f 83/221/78 87/222/80 85/223/82 81/224/75
f 88/225/79 84/226/77 82/227/76 86/228/81
o Cube.024_Cube.005
v -9.971944 0.260571 -2.398491
v -9.971944 2.260571 -2.398491
v -9.971944 0.260571 -3.852998
v -9.971944 2.260571 -3.852998
v -6.810138 0.260571 -2.398491
v -6.810138 2.260571 -2.398491
v -6.810138 0.260571 -3.852998
v -6.810138 2.260571 -3.852998
vt 1.198294 -0.198294
vt -0.198293 -0.198294
vt -0.198293 -1.594880
vt 1.198294 -1.594880
vt -0.198293 1.198293
vt -1.594880 1.198294
vt -1.594881 -0.198293
vt -0.198294 -0.198293
vt -1.594881 -1.594880
vt -0.198294 -1.594880
vt -0.198293 1.198293
vt -0.198293 -0.198293
vt 1.198294 -0.198293
vt 1.198294 1.198293
vt 2.594881 -0.198294
vt 1.198294 -0.198294
vt 1.198294 -1.594880
vt 2.594881 -1.594880
vt -0.198294 1.198294
vt -0.198294 2.594880
vt -1.594880 2.594880
vt -1.594881 1.198294
vn -0.5773 -0.5773 0.5773
vn -0.5773 0.5773 0.5773
vn -0.5773 0.5773 -0.5773
vn -0.5773 -0.5773 -0.5773
vn 0.5773 0.5773 -0.5773
vn 0.5773 -0.5773 -0.5773
vn 0.5773 0.5773 0.5773
vn 0.5773 -0.5773 0.5773
usemtl Material.024
s 1
f 89/229/83 90/230/84 92/231/85 91/232/86
f 91/233/86 92/234/85 96/235/87 95/236/88
f 95/236/88 96/235/87 94/237/89 93/238/90
f 93/239/90 94/240/89 90/241/84 89/242/83
f 91/243/86 95/244/88 93/245/90 89/246/83
f 96/247/87 92/248/85 90/249/84 94/250/89
o Cube.025_Cube.006
v -9.971944 0.260571 9.324706
v -9.971944 2.260571 9.324706
v -9.971944 0.260571 7.870200
v -9.971944 2.260571 7.870200
v -6.810138 0.260571 9.324706
v -6.810138 2.260571 9.324706
v -6.810138 0.260571 7.870200
v -6.810138 2.260571 7.870200
vt 1.198294 -0.198294
vt -0.198293 -0.198294
vt -0.198293 -1.594880
vt 1.198294 -1.594880
vt -0.198293 1.198293
vt -1.594880 1.198294
vt -1.594881 -0.198293
vt -0.198294 -0.198293
vt -1.594881 -1.594880
vt -0.198294 -1.594880
vt -0.198293 1.198293
vt -0.198293 -0.198293
vt 1.198294 -0.198293
vt 1.198294 1.198293
vt 2.594881 -0.198294
vt 1.198294 -0.198294
vt 1.198294 -1.594880
vt 2.594881 -1.594880
vt -0.198294 1.198294
vt -0.198294 2.594880
vt -1.594880 2.594880
vt -1.594881 1.198294
vn -0.5773 -0.5773 0.5773
vn -0.5773 0.5773 0.5773
vn -0.5773 0.5773 -0.5773
vn -0.5773 -0.5773 -0.5773
vn 0.5773 0.5773 -0.5773
vn 0.5773 -0.5773 -0.5773
vn 0.5773 0.5773 0.5773
vn 0.5773 -0.5773 0.5773
usemtl Material.026
s 1
f 97/251/91 98/252/92 100/253/93 99/254/94
f 99/255/94 100/256/93 104/257/95 103/258/96
f 103/258/96 104/257/95 102/259/97 101/260/98
f 101/261/98 102/262/97 98/263/92 97/264/91
f 99/265/94 103/266/96 101/267/98 97/268/91
f 104/269/95 100/270/93 98/271/92 102/272/97
o Cube.026_Cube.007
v -4.717448 0.260571 12.766835
v -4.717448 2.260571 12.766835
v -5.963418 0.260571 12.766835
v -5.963418 2.260571 12.766835
v -4.717448 0.260571 10.155541
v -4.717448 2.260571 10.155541
v -5.963418 0.260571 10.155541
v -5.963418 2.260571 10.155541
vt 1.198294 -0.198294
vt -0.198293 -0.198294
vt -0.198293 -1.594880
vt 1.198294 -1.594880
vt -0.198293 1.198293
vt -1.594880 1.198294
vt -1.594881 -0.198293
vt -0.198294 -0.198293
vt -1.594881 -1.594880
vt -0.198294 -1.594880
vt -0.198293 1.198293
vt -0.198293 -0.198293
vt 1.198294 -0.198293
vt 1.198294 1.198293
vt 2.594881 -0.198294
vt 1.198294 -0.198294
vt 1.198294 -1.594880
vt 2.594881 -1.594880
vt -0.198294 1.198294
vt -0.198294 2.594880
vt -1.594880 2.594880
vt -1.594881 1.198294
vn 0.5773 -0.5773 0.5773
vn 0.5773 0.5773 0.5773
vn -0.5773 0.5773 0.5773
vn -0.5773 -0.5773 0.5773
vn -0.5773 0.5773 -0.5773
vn -0.5773 -0.5773 -0.5773
vn 0.5773 0.5773 -0.5773
vn 0.5773 -0.5773 -0.5773
usemtl Material.031
s 1
f 105/273/99 106/274/100 108/275/101 107/276/102
f 107/277/102 108/278/101 112/279/103 111/280/104
f 111/280/104 112/279/103 110/281/105 109/282/106
f 109/283/106 110/284/105 106/285/100 105/286/99
f 107/287/102 111/288/104 109/289/106 105/290/99
f 112/291/103 108/292/101 106/293/100 110/294/105
o Cube.027_Cube.008
v 6.765080 0.260571 12.766835
v 6.765080 2.260571 12.766835
v 5.519110 0.260571 12.766835
v 5.519110 2.260571 12.766835
v 6.765080 0.260571 10.155541
v 6.765080 2.260571 10.155541
v 5.519110 0.260571 10.155541
v 5.519110 2.260571 10.155541
vt 1.198294 -0.198294
vt -0.198293 -0.198294
vt -0.198293 -1.594880
vt 1.198294 -1.594880
vt -0.198293 1.198293
vt -1.594880 1.198294
vt -1.594881 -0.198293
vt -0.198294 -0.198293
vt -1.594881 -1.594880
vt -0.198294 -1.594880
vt -0.198293 1.198293
vt -0.198293 -0.198293
vt 1.198294 -0.198293
vt 1.198294 1.198293
vt 2.594881 -0.198294
vt 1.198294 -0.198294
vt 1.198294 -1.594880
vt 2.594881 -1.594880
vt -0.198294 1.198294
vt -0.198294 2.594880
vt -1.594880 2.594880
vt -1.594881 1.198294
vn 0.5773 -0.5773 0.5773
vn 0.5773 0.5773 0.5773
vn -0.5773 0.5773 0.5773
vn -0.5773 -0.5773 0.5773
vn -0.5773 0.5773 -0.5773
vn -0.5773 -0.5773 -0.5773
vn 0.5773 0.5773 -0.5773
vn 0.5773 -0.5773 -0.5773
usemtl Material.032
s 1
f 113/295/107 114/296/108 116/297/109 115/298/110
f 115/299/110 116/300/109 120/301/111 119/302/112
f 119/302/112 120/301/111 118/303/113 117/304/114
f 117/305/114 118/306/113 114/307/108 113/308/107
f 115/309/110 119/310/112 117/311/114 113/312/107
f 120/313/111 116/314/109 114/315/108 118/316/113
