# Blender v2.79 (sub 0) OBJ File: 'pro_stone_bridge2.blend'
# www.blender.org
mtllib pro_stone_bridge2.mtl
o SM_MERGED_Plane6_3.018_SM_MERGED_Plane6.018
v 3.096990 16.384363 -4.281977
v 0.000003 16.384363 -4.281977
v 3.096990 16.384365 -14.873250
v 0.000003 16.384365 -14.873250
v -3.096981 16.384363 -4.281977
v 3.096990 16.384365 -25.464523
v -3.096981 16.384365 -14.873250
v 0.000003 16.384365 -25.464523
v -3.096981 16.384365 -25.464523
v 3.096990 17.158611 -14.873250
v 0.000003 17.158611 -4.281977
v 3.096990 17.158611 -4.281977
v 0.000003 17.158611 -14.873250
v 3.096990 17.158611 -25.464523
v -3.096981 17.158611 -4.281977
v 0.000003 17.158611 -25.464523
v -3.096981 17.158611 -14.873250
v -3.096981 17.158611 -25.464523
v 3.096990 16.771488 -4.281977
v 0.000003 16.771488 -4.281977
v -3.096981 16.771488 -4.281977
v 3.096990 16.771488 -25.464523
v 3.096990 16.771488 -14.873250
v -3.096981 16.771488 -25.464523
v 0.000003 16.771488 -25.464523
v -3.096981 16.771488 -14.873250
vt -1.337549 1.325689
vt -1.336963 0.554311
vt 0.494476 1.327081
vt 0.495063 0.555703
vt -1.336376 -0.217067
vt 2.326501 1.328474
vt 0.495649 -0.215675
vt 2.327088 0.557096
vt 2.327674 -0.214282
vt 0.496097 -0.217803
vt -1.322501 0.545609
vt -1.321674 -0.219767
vt 0.495270 0.547573
vt 2.313868 -0.215838
vt -1.323328 1.310985
vt 2.313041 0.549538
vt 0.494443 1.312950
vt 2.312214 1.314914
vt 0.360340 0.087723
vt 0.334024 0.160451
vt 0.334024 0.087723
vt 0.360340 0.160451
vt 0.386655 0.087723
vt 0.334024 0.233178
vt 0.386655 0.160451
vt 0.360340 0.233178
vt 0.386655 0.233178
vt 0.231453 0.961955
vt 0.257768 0.461955
vt 0.257769 0.961955
vt 0.231452 0.461955
vt 0.205137 0.961955
vt 0.257768 -0.038045
vt 0.205137 0.461955
vt 0.231452 -0.038045
vt 0.205136 -0.038045
vt 0.742253 -0.006547
vt 0.715938 0.066180
vt 0.715938 -0.006547
vt 0.742253 0.066180
vt 0.768569 -0.006547
vt 0.715938 0.138908
vt 0.768569 0.066180
vt 0.742253 0.138908
vt 0.768569 0.138908
vt 0.689622 0.993453
vt 0.715937 0.493453
vt 0.715938 0.993453
vt 0.689622 0.493453
vt 0.663306 0.993453
vt 0.663306 0.493453
vt 0.689622 -0.006547
vt 0.663306 -0.006547
vn 0.0000 -1.0000 -0.0000
vn 0.0000 1.0000 0.0000
vn 0.0000 0.0000 1.0000
vn 1.0000 0.0000 0.0000
vn 0.0000 0.0000 -1.0000
vn -1.0000 0.0000 0.0000
usemtl Material.001
s 1
f 1/1/1 2/2/1 3/3/1
f 2/2/1 4/4/1 3/3/1
f 2/2/1 5/5/1 4/4/1
f 3/3/1 4/4/1 6/6/1
f 5/5/1 7/7/1 4/4/1
f 4/4/1 8/8/1 6/6/1
f 4/4/1 7/7/1 8/8/1
f 7/7/1 9/9/1 8/8/1
f 10/10/2 11/11/2 12/12/2
f 10/10/2 13/13/2 11/11/2
f 14/14/2 13/13/2 10/10/2
f 13/13/2 15/15/2 11/11/2
f 14/14/2 16/16/2 13/13/2
f 13/13/2 17/17/2 15/15/2
f 16/16/2 17/17/2 13/13/2
f 16/16/2 18/18/2 17/17/2
f 19/19/3 2/20/3 1/21/3
f 19/19/3 20/22/3 2/20/3
f 12/23/3 20/22/3 19/19/3
f 20/22/3 5/24/3 2/20/3
f 12/23/3 11/25/3 20/22/3
f 20/22/3 21/26/3 5/24/3
f 11/25/3 21/26/3 20/22/3
f 11/25/3 15/27/3 21/26/3
f 22/28/4 3/29/4 6/30/4
f 22/28/4 23/31/4 3/29/4
f 14/32/4 23/31/4 22/28/4
f 23/31/4 1/33/4 3/29/4
f 14/32/4 10/34/4 23/31/4
f 23/31/4 19/35/4 1/33/4
f 10/34/4 19/35/4 23/31/4
f 10/34/4 12/36/4 19/35/4
f 24/37/5 8/38/5 9/39/5
f 24/37/5 25/40/5 8/38/5
f 18/41/5 25/40/5 24/37/5
f 25/40/5 6/42/5 8/38/5
f 18/41/5 16/43/5 25/40/5
f 25/40/5 22/44/5 6/42/5
f 16/43/5 22/44/5 25/40/5
f 16/43/5 14/45/5 22/44/5
f 21/46/6 7/47/6 5/48/6
f 21/46/6 26/49/6 7/47/6
f 15/50/6 26/49/6 21/46/6
f 26/49/6 9/39/6 7/47/6
f 15/50/6 17/51/6 26/49/6
f 26/49/6 24/52/6 9/39/6
f 17/51/6 24/52/6 26/49/6
f 17/51/6 18/53/6 24/52/6
o SM_MERGED_Plane6_3.001_SM_MERGED_Plane6.000
v -3.143791 0.222064 -4.286340
v 3.127194 0.222062 -4.298460
v 3.143789 0.222060 4.286340
v -3.127198 0.222062 4.298460
v -3.143785 17.164692 -4.286337
v -3.127194 17.164692 4.298463
v 3.143791 17.164690 4.286343
v 3.127201 17.164690 -4.298454
vt -0.969922 0.989974
vt 0.010026 0.989974
vt 0.010026 1.969922
vt -0.969922 1.969922
vt 0.010026 0.010026
vt 0.010026 0.989974
vt -0.969922 0.989974
vt -0.969922 0.010026
vt 0.989974 0.010026
vt 0.010026 -0.969922
vt 0.989974 -0.969922
vt -0.969922 0.010026
vt -0.969922 -0.969922
vt 0.010026 -0.969922
vt 0.010026 0.010026
vt 1.969922 0.010026
vt 0.989974 0.010026
vt 0.989974 -0.969922
vt 1.969922 -0.969922
vt 0.989974 0.989974
vn -0.0000 -1.0000 -0.0000
vn 0.0000 1.0000 0.0000
vn -0.0019 0.0000 -1.0000
vn 1.0000 -0.0000 -0.0019
vn 0.0019 -0.0000 1.0000
vn -1.0000 0.0000 0.0019
usemtl Material.127
s 1
f 27/54/7 28/55/7 29/56/7 30/57/7
f 31/58/8 32/59/8 33/60/8 34/61/8
f 27/62/9 31/58/9 34/63/9 28/64/9
f 28/65/10 34/66/10 33/67/10 29/68/10
f 29/69/11 33/70/11 32/71/11 30/72/11
f 31/58/12 27/62/12 30/73/12 32/59/12
o SM_MERGED_Plane6_3.001_SM_MERGED_Plane6.001_SM_MERGED_Plane6_3.001_SM_MERGED_Plane6.003
v -3.143791 0.222064 -33.714012
v 3.127194 0.222062 -33.726135
v 3.143789 0.222060 -25.141335
v -3.127198 0.222062 -25.129213
v -3.143785 17.164692 -33.714012
v -3.127194 17.164692 -25.129210
v 3.143791 17.164690 -25.141331
v 3.127201 17.164690 -33.726128
vt -0.969922 0.989974
vt 0.010026 0.989974
vt 0.010026 1.969922
vt -0.969922 1.969922
vt 0.010026 0.010026
vt 0.010026 0.989974
vt -0.969922 0.989974
vt -0.969922 0.010026
vt 0.989974 0.010026
vt 0.010026 -0.969922
vt 0.989974 -0.969922
vt -0.969922 0.010026
vt -0.969922 -0.969922
vt 0.010026 -0.969922
vt 0.010026 0.010026
vt 1.969922 0.010026
vt 0.989974 0.010026
vt 0.989974 -0.969922
vt 1.969922 -0.969922
vt 0.989974 0.989974
vn -0.0000 -1.0000 -0.0000
vn 0.0000 1.0000 0.0000
vn -0.0019 0.0000 -1.0000
vn 1.0000 -0.0000 -0.0019
vn 0.0019 -0.0000 1.0000
vn -1.0000 0.0000 0.0019
usemtl Material.003
s 1
f 35/74/13 36/75/13 37/76/13 38/77/13
f 39/78/14 40/79/14 41/80/14 42/81/14
f 35/82/15 39/78/15 42/83/15 36/84/15
f 36/85/16 42/86/16 41/87/16 37/88/16
f 37/89/17 41/90/17 40/91/17 38/92/17
f 39/78/18 35/82/18 38/93/18 40/79/18
