# Blender v2.79 (sub 0) OBJ File: 'kirikabu.blend'
# www.blender.org
mtllib kirikabu.mtl
o Cylinderブラシ.017_Cylinderブラシ.028
v -2.250799 4.541835 -0.932309
v -2.250799 4.541835 0.932313
v -0.932311 4.541834 2.250800
v -0.932311 4.541835 -2.250798
v 0.932311 4.541835 -2.250798
v 2.250799 4.541835 -0.932312
v 2.250799 4.541835 0.932313
v 0.932311 4.541834 2.250800
v 2.250799 0.006336 -0.932312
v 2.250799 0.006335 0.932312
v 0.932311 0.006335 2.250799
v 0.932311 0.006336 -2.250799
v -0.932311 0.006336 -2.250799
v -2.250799 0.006336 -0.932310
v -2.250799 0.006335 0.932312
v -0.932311 0.006335 2.250799
v 2.250799 4.541834 0.932313
v 0.932311 4.541834 2.250800
v 0.932311 0.006335 2.250799
v 2.250799 0.006335 0.932312
v 2.250799 4.541834 -0.932312
v 2.250799 0.006336 -0.932312
v 0.932311 4.541835 -2.250798
v 0.932311 0.006336 -2.250799
v -0.932311 4.541835 -2.250798
v -0.932311 0.006336 -2.250799
v -2.250799 4.541834 -0.932309
v -2.250799 0.006336 -0.932310
v -2.250799 4.541834 0.932313
v -2.250799 0.006335 0.932312
v -0.932311 4.541834 2.250800
v -0.932311 0.006335 2.250799
vt 0.544523 0.099326
vt 0.711884 0.143723
vt 0.765685 0.411800
vt 0.361639 0.304619
vt 0.270363 0.639341
vt 0.324164 0.907419
vt 0.491526 0.951815
vt 0.674410 0.746523
vt 0.578926 0.092093
vt 0.744311 0.144035
vt 0.785745 0.414653
vt 0.386470 0.289255
vt 0.279682 0.620025
vt 0.321116 0.890643
vt 0.486501 0.942584
vt 0.678957 0.745423
vt -2.527393 1.753987
vt -2.527393 0.500000
vt -0.386704 0.499999
vt -0.386704 1.753987
vt 1.753987 -2.527394
vt 3.527394 -2.527394
vt 3.527394 -0.386704
vt 1.753987 -0.386704
vt 1.753986 2.273407
vt 1.753986 3.527394
vt -0.386704 3.527394
vt -0.386704 2.273407
vt 1.753986 0.500001
vt -0.386704 0.500001
vt -0.386703 -1.273405
vt -0.386704 -2.527393
vt 1.753986 -2.527394
vt 1.753986 -1.273406
vt -0.386703 0.500001
vt 1.753987 0.500000
vt -2.527393 -1.273407
vt -2.527394 -2.527394
vt -0.386704 -2.527394
vt -0.386704 -1.273407
vn -0.0000 1.0000 0.0000
vn 0.0000 -1.0000 -0.0000
vn 0.7071 -0.0000 0.7071
vn 1.0000 -0.0000 0.0000
vn 0.7071 0.0000 -0.7071
vn 0.0000 0.0000 -1.0000
vn -0.7071 0.0000 -0.7071
vn -1.0000 0.0000 0.0000
vn -0.7071 -0.0000 0.7071
vn 0.0000 -0.0000 1.0000
usemtl Fbx_Default_Material.013
s 1
f 1/1/1 2/2/1 3/3/1
f 4/4/1 1/1/1 3/3/1
f 5/5/1 4/4/1 3/3/1
f 6/6/1 5/5/1 3/3/1
f 7/7/1 6/6/1 3/3/1
f 8/8/1 7/7/1 3/3/1
f 9/9/2 10/10/2 11/11/2
f 12/12/2 9/9/2 11/11/2
f 13/13/2 12/12/2 11/11/2
f 14/14/2 13/13/2 11/11/2
f 15/15/2 14/14/2 11/11/2
f 16/16/2 15/15/2 11/11/2
usemtl Material.051
f 17/17/3 18/18/3 19/19/3
f 20/20/3 17/17/3 19/19/3
f 21/21/4 17/22/4 20/23/4
f 22/24/4 21/21/4 20/23/4
f 23/25/5 21/26/5 22/27/5
f 24/28/5 23/25/5 22/27/5
f 25/29/6 23/25/6 24/28/6
f 26/30/6 25/29/6 24/28/6
f 27/31/7 25/32/7 26/33/7
f 28/34/7 27/31/7 26/33/7
f 29/35/8 27/31/8 28/34/8
f 30/36/8 29/35/8 28/34/8
f 31/37/9 29/38/9 30/39/9
f 32/40/9 31/37/9 30/39/9
f 18/18/10 31/37/10 32/40/10
f 19/19/10 18/18/10 32/40/10
