# Blender v2.79 (sub 0) OBJ File: 'tile_block.blend'
# www.blender.org
mtllib tile_block.mtl
o SM_MERGED_Plane6_3.001_SM_MERGED_Plane6.001
v -1.708719 0.120696 -2.329719
v 1.699698 0.120695 -2.336307
v 1.708718 0.120695 2.329719
v -1.699700 0.120696 2.336307
v -1.708716 9.329385 -2.329719
v -1.699698 9.329385 2.336307
v 1.708719 9.329384 2.329719
v 1.699702 9.329384 -2.336305
vt -0.969922 0.989974
vt 0.010026 0.989974
vt 0.010026 1.969922
vt -0.969922 1.969922
vt 0.010026 0.010026
vt 0.010026 0.989974
vt -0.969922 0.989974
vt -0.969922 0.010026
vt 0.989974 0.010026
vt 0.010026 -0.969922
vt 0.989974 -0.969922
vt -0.969922 0.010026
vt -0.969922 -0.969922
vt 0.010026 -0.969922
vt 0.010026 0.010026
vt 1.969922 0.010026
vt 0.989974 0.010026
vt 0.989974 -0.969922
vt 1.969922 -0.969922
vt 0.989974 0.989974
vn -0.0000 -1.0000 -0.0000
vn 0.0000 1.0000 0.0000
vn -0.0019 0.0000 -1.0000
vn 1.0000 -0.0000 -0.0019
vn 0.0019 -0.0000 1.0000
vn -1.0000 0.0000 0.0019
usemtl Material.127
s 1
f 1/1/1 2/2/1 3/3/1 4/4/1
f 5/5/2 6/6/2 7/7/2 8/8/2
f 1/9/3 5/5/3 8/10/3 2/11/3
f 2/12/4 8/13/4 7/14/4 3/15/4
f 3/16/5 7/17/5 6/18/5 4/19/5
f 5/5/6 1/9/6 4/20/6 6/6/6
