# Blender v2.79 (sub 0) OBJ File: 'Triangle.blend'
# www.blender.org
mtllib Triangle.mtl
o SM_MERGED_Plane6_3.001_SM_MERGED_Plane6.001
v 3.800468 7.102561 -5.685198
v 3.800469 0.079081 7.984233
v -3.800459 7.102561 -5.685197
v -3.800458 0.079081 7.984234
v 3.800466 7.175595 -5.697711
v 3.800467 0.081396 7.983958
v 3.800466 0.081396 -5.697711
v -3.800462 7.175595 -5.697711
v -3.800462 0.081396 -5.697711
v -3.800461 0.175984 7.983959
v -3.800461 0.081396 7.983959
vt -0.425640 -1.959910
vt 1.411403 -1.959910
vt 1.411403 2.894513
vt -0.425640 2.894513
vt 0.316915 -0.688589
vt 1.456699 -1.460634
vt 1.458144 2.167439
vt 0.989628 -0.086601
vt 0.989628 1.540469
vt -0.172308 1.540470
vt 0.607930 0.351500
vt 1.467102 0.487038
vt 0.300336 1.689831
vt 1.052755 -0.889876
vt 1.060272 1.516253
vt 0.275299 0.991792
vt 0.554393 0.548456
vt 0.281138 0.548363
vt 0.275559 -0.027549
vt 0.551223 -0.056367
vn 0.0000 0.8889 0.4581
vn 0.0000 0.8889 0.4582
vn 1.0000 0.0000 -0.0000
vn -0.0000 0.0000 -1.0000
vn -1.0000 0.0000 0.0000
vn 0.0000 -1.0000 0.0000
usemtl Material.001
s 1
f 4/1/1 2/2/1 1/3/1
f 3/4/2 4/1/1 1/3/1
f 7/5/3 5/6/3 6/7/3
f 8/8/4 5/9/4 7/10/4
f 9/11/4 8/12/4 7/13/4
f 10/14/5 8/15/5 9/16/5
f 9/17/6 7/18/6 6/19/6
f 11/20/6 9/17/6 6/19/6
