# Blender v2.79 (sub 0) OBJ File: 'up_center2.blend'
# www.blender.org
mtllib up_center.mtl
o SM_MERGED_Plane6_3.012_SM_MERGED_Plane6.012
v 44.401260 -3.873779 -17.614180
v 44.401260 0.180057 -24.635611
v 14.504274 -3.873791 -17.614193
v 14.504274 0.180042 -24.635626
v 44.401211 0.194177 -24.452820
v 44.401211 2.699581 -32.163658
v 14.504228 0.194155 -24.452847
v 14.504232 2.699558 -32.163685
v 1.770954 -289.385223 -5.574762
v 3.770954 -289.385223 -5.574762
v 1.770954 -289.385223 -7.574762
v 3.770954 -289.385223 -7.574762
v 44.485046 -3.872390 12.537745
v 44.485077 -3.872390 -17.612602
v 14.588062 -3.872390 12.537714
v 14.588096 -3.872390 -17.612633
v 31.530661 -3.786250 -17.641249
v 27.912191 -3.786250 -17.641249
v 31.530661 -3.786250 -2.710386
v 27.912191 -3.786250 -2.710386
v 31.530661 -3.786250 -2.749805
v 27.912191 -3.786250 -2.749805
v 31.530661 -3.786250 14.175234
v 27.912191 -3.786250 14.175234
vt -1.000000 -1.000000
vt 0.500000 -1.000000
vt -1.000000 2.000000
vt 0.500000 2.000000
vt 2.000000 2.000000
vt 0.500000 2.000000
vt 2.000000 -1.000000
vt 0.500000 -1.000000
vt 2.000000 -1.000000
vt 2.000000 2.000000
vt -1.000000 -1.000000
vt -1.000000 2.000000
vt 0.000000 1.000000
vt 0.000000 0.000000
vt 1.000000 0.000000
vt 1.000000 1.000000
vt 0.000000 -1.000000
vt 1.000000 -1.000000
vt 1.000000 2.000000
vt 0.000000 2.000000
vt 0.000000 -1.000000
vt 1.000000 -1.000000
vt 1.000000 2.000000
vt 0.000000 2.000000
vn -0.0000 0.8644 0.5029
vn -0.0000 0.8643 0.5029
vn -0.0000 0.9518 0.3068
vn 0.0000 1.0000 -0.0000
usemtl Material.001
s 1
f 1/1/1 2/2/2 3/3/2
f 3/3/2 2/2/2 4/4/2
f 5/5/3 6/6/3 7/7/3
f 7/7/3 6/6/3 8/8/3
usemtl Material.001_tilable-img_0044-lush.png
f 13/9/4 14/10/4 15/11/4
f 15/11/4 14/10/4 16/12/4
usemtl Material.012
f 9/13/4 10/14/4 12/15/4 11/16/4
usemtl Material.132
f 17/17/4 18/18/4 20/19/4 19/20/4
usemtl Material.133
f 21/21/4 22/22/4 24/23/4 23/24/4
