# Blender v2.79 (sub 0) OBJ File: 'down_left2.blend'
# www.blender.org
mtllib wall.mtl
o Room.012_Room.017
v 40.840511 64.865906 12.353587
v 40.840511 -6.734091 12.353564
v 40.840511 -6.734107 65.530067
v 40.840511 64.865891 65.530083
v 18.035599 64.948395 38.136181
v 18.035599 64.948387 65.482674
v 18.035599 0.118383 65.482658
v 18.035599 0.118392 38.136158
v 14.434180 7.473510 12.635724
v 18.104179 7.473510 12.635724
v 18.104179 -6.567300 12.635720
v 14.434180 -6.567300 12.635720
v 14.550000 7.436414 -31.872564
v 14.550000 7.436410 -17.812738
v 14.550000 -3.641829 -17.812740
v 14.550000 -3.641825 -31.872566
v 14.508758 7.452300 12.605869
v 14.508758 -6.594240 12.605865
v 14.508758 -6.594238 8.693877
v 14.508758 7.452301 8.693881
v -2.682663 7.465332 -31.879995
v 14.577337 7.465332 -31.879995
v 14.577337 -1.591095 -31.879999
v -2.682663 -1.591095 -31.879999
v -2.022103 7.522985 20.247147
v -2.022103 -5.053645 20.247141
v 18.235096 -5.053645 20.247141
v 18.235096 7.522985 20.247147
v 18.087231 7.446052 12.655628
v 18.087231 7.446050 20.275969
v 18.087231 -6.599213 20.275963
v 18.087231 -6.599211 12.655624
v -2.033530 7.477501 8.736163
v -2.033530 -4.166664 8.736159
v -2.033530 -4.166667 20.262161
v -2.033530 7.477498 20.262165
v 14.529469 7.455123 20.273340
v 18.094009 7.455123 20.273340
v 18.094009 7.455128 12.633838
v 14.529469 7.455128 12.633838
v -49.568153 64.695419 -69.322632
v -49.568153 64.695419 -56.982624
v -49.568153 -15.804580 -56.982655
v -49.568153 -15.804576 -69.322647
v 44.227737 64.765236 -78.385094
v 44.227737 -4.934757 -78.385109
v 44.227737 -4.934786 12.696692
v 44.227737 64.765205 12.696714
v -35.402901 65.047249 -48.766991
v -35.402901 65.047218 38.293015
v -35.402901 -16.390524 38.292984
v -35.402901 -16.390499 -48.767021
v 18.078371 64.981186 38.157349
v 18.078371 -16.456598 38.157318
v -36.081627 -16.456598 38.157318
v -36.081627 64.981186 38.157349
v -49.555431 64.327049 -57.270428
v -41.375347 64.327049 -48.627731
v -41.375347 -16.172951 -48.627762
v -49.555431 -16.172949 -57.270458
v 71.474686 -286.997681 -42.648422
v 73.474686 -286.997681 -42.648422
v 73.474686 -286.997681 -44.648422
v 71.474686 -286.997681 -44.648422
v 44.253868 64.810127 12.362801
v 44.253868 -4.889856 12.362778
v 40.836720 -4.889856 12.362778
v 40.836720 64.810127 12.362801
v -35.346142 -15.604597 -19.006210
v -35.346142 -15.604608 8.913788
v -35.346142 -22.414610 8.913786
v -35.346142 -22.414597 -19.006214
v -35.362011 64.463722 -48.739742
v -35.362011 -16.036278 -48.739773
v -42.712009 -16.036278 -48.739773
v -42.712009 64.463722 -48.739742
v -40.936615 64.854164 -78.378716
v -50.068943 64.854156 -68.847687
v -50.068943 -15.645839 -68.847702
v -40.936615 -15.645836 -78.378731
v 44.439903 64.754738 -78.369270
v -41.530090 64.754738 -78.369270
v -41.530090 -15.745258 -78.369286
v 44.439903 -15.745258 -78.369286
v -2.701223 -15.487844 -18.981739
v -35.421223 -15.487844 -18.981739
v -35.421223 -22.399994 -18.981743
v -2.701223 -22.399994 -18.981743
v -2.016501 7.455123 20.260527
v 14.528491 7.455123 20.260527
v 14.528491 7.455129 8.720658
v -2.016501 7.455129 8.720658
v -2.034878 7.492764 8.742455
v 6.240123 7.492764 8.742455
v 6.240123 -8.510675 8.742452
v -2.034878 -8.510675 8.742452
v 14.515123 7.492764 8.742455
v 14.515123 -8.510675 8.742452
v -2.926197 -15.521905 8.949672
v -2.926197 -22.400003 8.949670
v -35.376198 -22.400003 8.949670
v -35.376198 -15.521905 8.949672
v 17.471460 64.885109 65.324753
v 41.051460 64.885109 65.324753
v 41.051460 2.285110 65.324738
v 17.471460 2.285110 65.324738
v -2.672234 7.455136 -17.986488
v 14.547766 7.455136 -17.986488
v 14.547766 7.455142 -31.876490
v -2.672234 7.455142 -31.876490
v -2.673612 7.484466 -31.898621
v -2.673612 2.649493 -31.898624
v -2.673612 2.649489 -17.981928
v -2.673612 7.484463 -17.981924
vt 0.000000 0.000000
vt 1.000000 1.000000
vt 0.000000 1.000000
vt 1.000000 0.000000
vt -0.690576 0.256437
vt 1.706201 -0.493701
vt 1.753076 0.237687
vt -0.615576 -0.393701
vt 2.500000 0.000065
vt -2.000000 1.000000
vt 2.500000 1.000000
vt -2.000000 0.000065
vt 0.000032 0.999968
vt 1.000000 0.000032
vt 1.000000 0.999968
vt -1.000000 0.999940
vt 2.000000 0.000060
vt 2.000000 0.999940
vt 1.000000 0.000032
vt 0.000032 0.999968
vt 1.000000 0.999968
vt -3.000000 0.999923
vt 3.000000 0.000077
vt 3.000000 0.999923
vt 3.000000 0.000078
vt -3.000000 0.999922
vt 3.000000 0.999922
vt -1.000000 0.999955
vt 2.000000 0.000045
vt 2.000000 0.999955
vt 3.000000 0.000061
vt -3.000000 0.999939
vt 3.000000 0.999939
vt 0.000032 0.000032
vt -1.000000 0.000060
vt 0.000032 0.000032
vt -3.000000 0.000077
vt -3.000000 0.000078
vt -1.000000 0.000045
vt -3.000000 0.000061
vt -3.000000 0.000000
vt 3.000000 1.000000
vt -3.000000 1.000000
vt 3.000000 0.000000
vt 2.500000 0.000085
vt -2.000000 1.000000
vt 2.500000 1.000000
vt -2.000000 0.000085
vt -2.000000 1.000000
vt 2.500000 0.000075
vt 2.500000 1.000000
vt -2.000000 0.000075
vt -2.000000 0.999912
vt 2.500000 0.000088
vt 2.500000 0.999912
vt -2.000000 0.000088
vt 1.481204 -0.278079
vt -0.486017 0.222290
vt 1.518340 0.217329
vt -0.446829 -0.240579
vt 0.000000 0.000000
vt 1.000000 1.000000
vt 0.000000 1.000000
vt 1.000000 0.000000
vt 1.483812 1.748028
vt -0.039322 -0.480295
vt 1.479875 -0.492107
vt -0.031448 1.744091
vt -2.500000 1.000000
vt 2.500000 0.000076
vt 2.500000 1.000000
vt -2.500000 0.000076
vt -2.000000 0.999911
vt 2.500000 0.000089
vt 2.500000 0.999911
vt -2.000000 0.000089
vt 0.500000 1.000000
vt 2.000000 0.000000
vt 2.000000 1.000000
vt -1.000000 1.000000
vt 0.500000 0.000000
vt -1.000000 0.000000
vt 0.000046 0.208156
vt 0.999954 0.000046
vt 0.999954 0.208156
vt 0.000046 0.000046
vt 0.007926 1.795180
vt 1.604516 -0.602255
vt 1.678979 1.803148
vt -0.015352 -0.598411
vt 0.000000 2.000000
vt 1.705141 -1.023936
vt 1.599616 2.009921
vt 0.000000 -1.000000
vt 1.000000 0.000030
vt 0.000030 0.999970
vt 1.000000 0.999970
vt 0.000030 0.000030
vt 2.000000 0.000096
vt -2.000000 1.000000
vt 2.000000 1.000000
vt -2.000000 0.000096
vt 1.673256 -0.456683
vt -0.070832 1.850408
vt 1.681131 1.874032
vt -0.094455 -0.436997
vt 0.000000 0.000000
vt 1.000000 1.000000
vt 0.000000 1.000000
vt 1.000000 0.000000
vt 0.000000 0.000000
vt 1.000000 1.000000
vt 0.000000 1.000000
vt 1.000000 0.000000
vn 0.0000 1.0000 0.0000
vn 1.0000 0.0000 0.0000
vn -1.0000 -0.0000 0.0000
vn 0.0000 0.0000 -1.0000
vn 0.0000 -0.0000 1.0000
vn 0.7220 -0.0000 0.6918
vn 0.7263 0.0000 -0.6874
usemtl Material.159
s 1
f 38/1/1 40/2/1 37/3/1
f 38/1/1 39/4/1 40/2/1
usemtl Material.171
f 70/5/2 72/6/2 69/7/2
f 70/5/2 71/8/2 72/6/2
usemtl Material.155
f 46/9/3 48/10/3 45/11/3
f 46/9/3 47/12/3 48/10/3
usemtl Material.160
f 10/13/4 12/14/4 9/15/4
f 14/16/2 16/17/2 13/18/2
f 18/19/2 20/20/2 17/21/2
f 22/22/4 24/23/4 21/24/4
f 26/25/5 28/26/5 25/27/5
f 30/28/2 32/29/2 29/30/2
f 34/31/3 36/32/3 33/33/3
f 10/13/4 11/34/4 12/14/4
f 14/16/2 15/35/2 16/17/2
f 18/19/2 19/36/2 20/20/2
f 22/22/4 23/37/4 24/23/4
f 26/25/5 27/38/5 28/26/5
f 30/28/2 31/39/2 32/29/2
f 34/31/3 35/40/3 36/32/3
f 112/41/3 114/42/3 111/43/3
f 112/41/3 113/44/3 114/42/3
usemtl Material.167
f 2/45/3 4/46/3 1/47/3
f 2/45/3 3/48/3 4/46/3
usemtl Material.162
f 50/49/2 52/50/2 49/51/2
f 50/49/2 51/52/2 52/50/2
usemtl Material.164
f 104/53/4 106/54/4 103/55/4
f 104/53/4 105/56/4 106/54/4
usemtl Material.175
f 100/57/4 102/58/4 99/59/4
f 100/57/4 101/60/4 102/58/4
usemtl Material.156
f 108/61/1 110/62/1 107/63/1
f 108/61/1 109/64/1 110/62/1
usemtl Material.169
f 41/65/2 43/66/2 44/67/2
f 41/65/2 42/68/2 43/66/2
usemtl Material.165
f 82/69/5 84/70/5 81/71/5
f 82/69/5 83/72/5 84/70/5
usemtl Material.170
f 6/73/2 8/74/2 5/75/2
f 6/73/2 7/76/2 8/74/2
usemtl Material.174
f 94/77/4 96/78/4 93/79/4
f 97/80/4 95/81/4 94/77/4
f 94/77/4 95/81/4 96/78/4
f 97/80/4 98/82/4 95/81/4
usemtl Material.173
f 86/83/5 88/84/5 85/85/5
f 86/83/5 87/86/5 88/84/5
usemtl Material.166
f 78/87/6 80/88/6 77/89/6
f 78/87/6 79/90/6 80/88/6
usemtl Material.157
f 58/91/7 60/92/7 57/93/7
f 58/91/7 59/94/7 60/92/7
usemtl Material.158
f 66/95/4 68/96/4 65/97/4
f 66/95/4 67/98/4 68/96/4
usemtl Material.172
f 54/99/4 56/100/4 53/101/4
f 54/99/4 55/102/4 56/100/4
usemtl Material.161
f 74/103/4 76/104/4 73/105/4
f 74/103/4 75/106/4 76/104/4
usemtl Material.168
f 62/107/1 64/108/1 61/109/1
f 62/107/1 63/110/1 64/108/1
usemtl Material.163
f 90/111/1 92/112/1 89/113/1
f 90/111/1 91/114/1 92/112/1
